/* XPM */
static const char * autoselection_setup_xpm[] = {
"22 22 9 1",
" 	c None",
".	c #FFFFFF",
"+	c #000000",
"@	c #A0A0A0",
"#	c #DCDCDC",
"$	c #585858",
"%	c #808080",
"&	c #C3C3C3",
"*	c #303030",
"        ..++..++..++..",
"        +            +",
"        +            +",
"        .            .",
"        .            .",
"        +            +",
"        +            +",
"        ++++++       .",
"      ++@##$%+       .",
"     +@&#$$&+        +",
"     +@#$&++  +++    +",
"    +@##$+  ++@.+    .",
"    +@###$$+###.+    .",
"  ++@########..$++..++",
" +@@#######..$$.*     ",
" @####..@$$$$.#&+     ",
" ###..$$$@&&#&++      ",
" #..$$@&&&@+++        ",
" .$$@##++++           ",
" $@##++               ",
" ##++                 ",
" ++                   "};
