/* XPM */
static const char * autoselection_xpm[] = {
"22 22 95 2",
"  	c None",
". 	c #FFFFFF",
"+ 	c #000000",
"@ 	c #DFDE45",
"# 	c #DCDC0B",
"$ 	c #9F9F2D",
"% 	c #C6C51B",
"& 	c #78771A",
"* 	c #CACA0A",
"= 	c #434317",
"- 	c #76760A",
"; 	c #989727",
"> 	c #ECEC1D",
", 	c #87872D",
"' 	c #F2F180",
") 	c #FAFA7B",
"! 	c #B8B85A",
"~ 	c #BBBA25",
"{ 	c #C7C70E",
"] 	c #666602",
"^ 	c #838300",
"/ 	c #E3E26D",
"( 	c #FFFFCF",
"_ 	c #FFFFD6",
": 	c #F6F6A4",
"< 	c #C4C440",
"[ 	c #969615",
"} 	c #5F5F54",
"| 	c #E8E787",
"1 	c #FFFFDA",
"2 	c #FAF9B4",
"3 	c #AFAF3D",
"4 	c #0B0B0B",
"5 	c #5B5B4C",
"6 	c #DADA23",
"7 	c #CECE48",
"8 	c #FDFDBD",
"9 	c #FEFEBE",
"0 	c #E4E47D",
"a 	c #E3E222",
"b 	c #AAAA05",
"c 	c #292929",
"d 	c #676757",
"e 	c #CFCF47",
"f 	c #CECE51",
"g 	c #333324",
"h 	c #BEBD35",
"i 	c #E3E314",
"j 	c #676624",
"k 	c #7A7A2B",
"l 	c #C7C710",
"m 	c #77760F",
"n 	c #939393",
"o 	c #E2E2B5",
"p 	c #C0C0A0",
"q 	c #9C9C9C",
"r 	c #555555",
"s 	c #414102",
"t 	c #C1C107",
"u 	c #BDBC42",
"v 	c #858585",
"w 	c #999999",
"x 	c #E3E3E3",
"y 	c #C0C0C0",
"z 	c #525252",
"A 	c #E8E82F",
"B 	c #A5A5A5",
"C 	c #E2E2E2",
"D 	c #C1C1C1",
"E 	c #505050",
"F 	c #151515",
"G 	c #6F6F6F",
"H 	c #A0A0A0",
"I 	c #0A0A0A",
"J 	c #080808",
"K 	c #6D6D6D",
"L 	c #868686",
"M 	c #535353",
"N 	c #181818",
"O 	c #666666",
"P 	c #848484",
"Q 	c #3B3B3B",
"R 	c #222222",
"S 	c #1D1D1D",
"T 	c #606060",
"U 	c #3D3D3D",
"V 	c #141414",
"W 	c #616161",
"X 	c #565656",
"Y 	c #212121",
"Z 	c #020202",
"` 	c #6A6A6A",
" .	c #202020",
"..	c #090909",
"+.	c #060606",
"                . . + + . . + + . . + + . . ",
"                +                         + ",
"                +               @         + ",
"                .               #         . ",
"                .     $ %     & * =   - ; . ",
"                +         > , ' ) ! ~ { ] + ",
"                +         ^ / ( _ : < [   + ",
"                .       + } | 1 1 2 3     . ",
"                .     4 5 6 7 8 9 0 a b   . ",
"                +   c d e f g h i j k l m + ",
"                + c n o p q r s t       u + ",
"                v w x y q z 4   A         . ",
"              + B C D q E F               . ",
"            + G H D q z I + . . + + . . + + ",
"          J K L M r r 4                     ",
"        N O P M Q R +                       ",
"      S T P r U R +                         ",
"    V W P X U Y Z                           ",
"    ` P X U  .J                             ",
"    v r U  ...                              ",
"    z U R +.                                ",
"                                            "};
