/* XPM */
static const char * color_option_xpm[] = {
"31 31 125 2",
"  	c None",
". 	c #FFFFFF",
"+ 	c #DCDCDC",
"@ 	c #B2B2B2",
"# 	c #9B9B9B",
"$ 	c #1D1D1D",
"% 	c #000000",
"& 	c #FEFEFE",
"* 	c #EBEBEB",
"= 	c #CDCDCD",
"- 	c #989898",
"; 	c #646464",
"> 	c #131313",
", 	c #140000",
"' 	c #550000",
") 	c #FDFDFD",
"! 	c #F8F8F8",
"~ 	c #C5C5C5",
"{ 	c #AAAAAA",
"] 	c #616161",
"^ 	c #080000",
"/ 	c #460000",
"( 	c #F00000",
"_ 	c #ECECEC",
": 	c #C3C3C3",
"< 	c #B6B6B6",
"[ 	c #505050",
"} 	c #171717",
"| 	c #660000",
"1 	c #D20000",
"2 	c #FB0000",
"3 	c #E8E8E8",
"4 	c #999999",
"5 	c #5C5C5C",
"6 	c #1B1B1B",
"7 	c #0C0000",
"8 	c #640000",
"9 	c #BF0000",
"0 	c #FF0000",
"a 	c #FCFCFC",
"b 	c #F2F2F2",
"c 	c #CACACA",
"d 	c #9E9E9E",
"e 	c #666666",
"f 	c #130000",
"g 	c #450000",
"h 	c #D70000",
"i 	c #C0C0C0",
"j 	c #B5B5B5",
"k 	c #555555",
"l 	c #0C0C0C",
"m 	c #590000",
"n 	c #E90000",
"o 	c #FA0000",
"p 	c #A0A0A0",
"q 	c #535353",
"r 	c #6A0000",
"s 	c #C30000",
"t 	c #656565",
"u 	c #101010",
"v 	c #150000",
"w 	c #500000",
"x 	c #C70000",
"y 	c #AEAEAE",
"z 	c #5E5E5E",
"A 	c #050000",
"B 	c #480000",
"C 	c #F70000",
"D 	c #191919",
"E 	c #680000",
"F 	c #CE0000",
"G 	c #FD0000",
"H 	c #0F0000",
"I 	c #610000",
"J 	c #C00000",
"K 	c #E51A00",
"L 	c #936C01",
"M 	c #110000",
"N 	c #DD0000",
"O 	c #EA1500",
"P 	c #A65901",
"Q 	c #0EF102",
"R 	c #5D0000",
"S 	c #E20000",
"T 	c #8C7301",
"U 	c #19E602",
"V 	c #02FD02",
"W 	c #690000",
"X 	c #C10000",
"Y 	c #F10E00",
"Z 	c #887701",
"` 	c #34CB02",
" .	c #00FF02",
"..	c #4A0000",
"+.	c #CA0000",
"@.	c #E21D00",
"#.	c #A35C01",
"$.	c #23DC02",
"%.	c #9C6301",
"&.	c #847B01",
"*.	c #2DD202",
"=.	c #E31C00",
"-.	c #986701",
";.	c #30CF02",
">.	c #ED1200",
",.	c #A55A01",
"'.	c #07F802",
").	c #8A7501",
"!.	c #1FE002",
"~.	c #01FE02",
"{.	c #03DF21",
"].	c #0B7C84",
"^.	c #03DD24",
"/.	c #09926E",
"(.	c #150CF3",
"_.	c #0B8080",
":.	c #1506F9",
"<.	c #1601FE",
"[.	c #01EE13",
"}.	c #0C748C",
"|.	c #1328D8",
"1.	c #1600FF",
"2.	c #03D928",
"3.	c #0A8D73",
"4.	c #131EE1",
". . . . . . . . . . . + @ @ @ @ @ @ @ # $ % % % % % % % % % % ",
". . . . . . . . . & * = @ @ @ @ @ @ - ; > % % % % % % % % , ' ",
". . . . . . . . ) ! ~ @ @ @ @ @ @ { ] % % % % % % % % % ^ / ( ",
". . . . . . . . _ : < @ @ @ @ @ @ [ } % % % % % % % % % | 1 2 ",
". . . . . . . 3 = @ @ @ @ @ @ 4 5 6 % % % % % % % % 7 8 9 0 0 ",
". . . . . a b c @ @ @ @ @ @ d e % % % % % % % % % f g h 0 0 0 ",
". . . . . b i j @ @ @ @ @ @ k l % % % % % % % % % m n o 0 0 0 ",
". . . . 3 c j @ @ @ @ @ p q $ % % % % % % % % % r s 0 0 0 0 0 ",
". . ) _ = @ @ @ @ @ @ - t u % % % % % % % % v w x 0 0 0 0 0 0 ",
". & ! : @ @ @ @ @ @ y z % % % % % % % % % A B C 0 0 0 0 0 0 0 ",
". * ~ < @ @ @ @ @ y [ D % % % % % % % % % E F G 0 0 0 0 0 0 0 ",
"+ = @ @ @ @ @ @ - z D % % % % % % % % H I J 0 0 0 0 0 0 0 K L ",
"@ @ @ @ @ @ @ p t % % % % % % % % % M g N 0 0 0 0 0 0 0 O P Q ",
"@ @ @ @ @ @ @ q u % % % % % % % % % R S o 0 0 0 0 0 0 0 T U V ",
"@ @ @ @ @ d k $ % % % % % % % % % W X 0 0 0 0 0 0 0 Y Z `  . .",
"@ @ @ @ 4 e l % % % % % % % % v ..+.0 0 0 0 0 0 0 @.#.$. . . .",
"@ @ @ @ 5 % % % % % % % % % % ..0 0 0 0 0 0 0 0 0 %. . . . . .",
"@ @ { [ 6 % % % % % % % % % W +.0 0 0 0 0 0 0 0 &.*. . . . . .",
"@ - ] } % % % % % % % % M R X 0 0 0 0 0 0 0 =.-.;. . . . . . .",
"# ; % % % % % % % % % H g S 0 0 0 0 0 0 0 >.,.'. . . . . . . .",
"$ > % % % % % % % % % I N o 0 0 0 0 0 0 0 ).!.~. . . . . . . .",
"% % % % % % % % % A E J 0 0 0 0 0 0 0 >.).`  . . . . . . .{.].",
"% % % % % % % % v B F 0 0 0 0 0 0 0 =.,.!. . . . . . . .^./.(.",
"% % % % % % % % w C G 0 0 0 0 0 0 0 -.'.~. . . . . . . ._.:.<.",
"% % % % % % % r x 0 0 0 0 0 0 0 0 &.;. . . . . . . .[.}.|.1.1.",
"% % % % % f m s 0 0 0 0 0 0 0 @.%.*. . . . . . . .2.3.4.1.1.1.",
"% % % % 7 g n 0 0 0 0 0 0 0 Y #. . . . . . . . .[.3.1.1.1.1.1.",
"% % % % 8 h o 0 0 0 0 0 0 0 Z $. . . . . . . . .}.4.1.1.1.1.1.",
"% % ^ | 9 0 0 0 0 0 0 0 O T `  . . . . . . .^._.|.1.1.1.1.1.1.",
"% , / 1 0 0 0 0 0 0 0 K P U  . . . . . . .{./.:.1.1.1.1.1.1.1.",
"% ' ( 2 0 0 0 0 0 0 0 L Q V  . . . . . . .].(.<.1.1.1.1.1.1.1."};
