/* XPM */
static const char * contrast_option_xpm[] = {
"31 31 3 1",
"0 	c None",
".	c #000000",
"+	c #FFFFFF",
"0000000000000000000000000000000",
"0000000000000000000000000000000",
"0000000000000000000000000000000",
"0000000000000000000000000000000",
"0000000000000000000000000000000",
"0000000000000000000000000000000",
"          .........            ",
"         ......+++..           ",
"       ........++++...         ",
"       ........++++++.         ",
"      .........++++++..        ",
"     ..........+++++++..       ",
"     ..........++++++++.       ",
"     ..........++++++++.       ",
"     ..........++++++++.       ",
"     ..........++++++++.       ",
"     ..........++++++++.       ",
"     ..........++++++++.       ",
"     ..........++++++++.       ",
"     ..........+++++++..       ",
"      .........++++++..        ",
"       ........++++++.         ",
"       ........++++...         ",
"         ......+++..           ",
"          .........            ",
"                               ",
"                               ",
"                               ",
"                               ",
"                               ",
"                               "};
