/* XPM */
static const char * delete_bookmarks_xpm[] = {
"16 16 3 1",
" 	c None",
".	c #FF0000",
"+	c #8C0B0B",
"                ",
"                ",
"                ",
"                ",
"   .+      .+   ",
"    .+    .+    ",
"     .+  .+     ",
"      .+.+      ",
"       .+       ",
"      .+.+      ",
"     .+  .+     ",
"    .+    .+    ",
"   .+      .+   ",
"                ",
"                ",
"                "};
