/* XPM */
static char *document_revert[] = {
/* columns rows colors chars-per-pixel */
"48 48 134 2",
"   c #C4C7A0ED0101",
".  c #C93AA7070D09",
"X  c #CAE7A8F10C87",
"o  c #C7C7A7A71111",
"O  c #CB88AAAA13CF",
"+  c #C0FFA3001801",
"@  c #CBF5ABEA1AEC",
"#  c #CFCFB2B21E1E",
"$  c #D0D0B0B01818",
"%  c #CE4EAF2F25A6",
"&  c #CE4EB0B02AAA",
"*  c #D6D6BBBB2424",
"=  c #D15DB4512EAF",
"-  c #D9D9BEBE2D2D",
";  c #CDCDB1B13030",
":  c #D2D2B6B63737",
">  c #D2D2B7B73A3A",
",  c #D5B3BA933BBC",
"<  c #EDF6D4E5006B",
"1  c #EEEED6A30AD8",
"2  c #E11EC83819EA",
"3  c #E21DC93717EC",
"4  c #EF21D7D71414",
"5  c #EFEFD9991C9D",
"6  c #DDDDC4C42626",
"7  c #DDB0C4332A4B",
"8  c #DEDEC4C43131",
"9  c #DCDCC4C43B3B",
"0  c #E080C6E92D5F",
"q  c #EBEBD4D42323",
"w  c #EFEFDA592424",
"e  c #EC6BD5D52B2B",
"r  c #F0F0DB5A2727",
"t  c #F0F0DC5C2D6D",
"y  c #EBEBD5D53A3A",
"u  c #F170DDDD33B4",
"i  c #F231DF9F3A3A",
"p  c #F2F2E0E03F3F",
"a  c #D0D0B6B64040",
"s  c #D4D4B9B94545",
"d  c #D8D8BEBE4848",
"f  c #D554BE3E5656",
"g  c #DADAC1C14949",
"h  c #DC25C5DD5D5D",
"j  c #E261CACA4444",
"k  c #E5E5D1D14D4D",
"l  c #EDEDD8D84848",
"z  c #F1F1DEDE4545",
"x  c #E7E7D3D35454",
"c  c #EFEFDBDB5050",
"v  c #EAEAD6D65A5A",
"b  c #F317E12944FC",
"n  c #F3CEE22A4CBA",
"m  c #F3B3E3625494",
"M  c #F3F3E3E35B5B",
"N  c #DADAC6C66767",
"B  c #DBDBC7C76E6E",
"V  c #DD7CC8BF6AEB",
"C  c #D8D8C8C87E7E",
"Z  c #ECECDB5B63E4",
"A  c #E3E3CFCF7272",
"S  c #E8E8D6D67272",
"D  c #EEEEDEDE7B7B",
"F  c #F534E66663A3",
"G  c #F534E6A66DEE",
"H  c #F6F6E8E86B6B",
"J  c #F6F6E96875B5",
"K  c #F721EA947CFD",
"L  c #8F888F888F88",
"P  c #94B791C38108",
"I  c #9499939F8FB7",
"U  c #91F991F991F9",
"Y  c #9CDC9CDC9CDC",
"T  c #A463A463A463",
"R  c #AB47AB47AB47",
"E  c #B3C8B3C8B3C8",
"W  c #BDEABDEABDEA",
"Q  c #E536D3C8852F",
"!  c #E4E4D5D58E8E",
"~  c #EEEEDFDF8B8B",
"^  c #E4E4D7D79C9C",
"/  c #E91BD9D99999",
"(  c #F7F7EAEA8282",
")  c #F8F8EBEB8585",
"_  c #F7B7EBEB89C9",
"`  c #F8F8EDD08C8C",
"'  c #EEEEE0E09898",
"]  c #F7F7EDED9494",
"[  c #F9F9EFB2933D",
"{  c #F8F8EEEE9BE4",
"}  c #FAA4F0F09797",
"|  c #FAFAF0F09999",
" . c #DFDFD5D5A7A7",
".. c #EAFDDCDDA3A3",
"X. c #E7C3DDE0B4BD",
"o. c #EAEADFDFB1B1",
"O. c #E1E1DADABBBB",
"+. c #F2F2E7E7A9A9",
"@. c #FAFAF29CA54F",
"#. c #FBA5F348AC01",
"$. c #EC41E433BD67",
"%. c #F4F4ECECB1B1",
"&. c #FB7BF473BB3B",
"*. c #C448C448C448",
"=. c #CB27CB27CB27",
"-. c #D0D0D0D0CECE",
";. c #D3E4D3E4D3E4",
":. c #DE88DE88DE88",
">. c #E3E3DE5EC646",
",. c #E0E0DEDED6D6",
"<. c #EBEBE4E4C1C1",
"1. c #EF6FE8E8CB4B",
"2. c #F2EFEBEFCC23",
"3. c #FCFCF777C443",
"4. c #FDFDF8F8C3C3",
"5. c #E4E4E1E1D4D4",
"6. c #E4E4E362DD5D",
"7. c #EFEFEBEBD9D9",
"8. c #F4F4EEEED4D4",
"9. c #F1F1EDEDDADA",
"0. c #FDFDF8F8D0D0",
"q. c #F801F2E8DCDC",
"w. c #FE7EFA79DC9C",
"e. c #E410E40FE40B",
"r. c #EB9DEB9DEB9D",
"t. c #F5F5F2F2E6E6",
"y. c #F9F5F5F7E5E5",
"u. c #FFBFFD1CE463",
"i. c #F59FF3F3ED42",
"p. c #F9F9F6F6EDED",
"a. c #FFFFFDFDE8E8",
"s. c #F505F505F4FF",
"d. c #FAFAF94EF39D",
"f. c #FF12FF12FF12",
/* pixels */
"f.f.f.f.f.f.f.f.f.f.f.f.f.f.f.f.f.f.f.f.f.f.f.f.f.f.f.f.f.f.f.f.f.f.f.f.f.f.f.f.f.f.f.f.f.f.f.f.",
"f.f.f.f.f.f.f.f.f.f.f.f.f.f.f.f.f.f.f.f.f.f.f.f.f.f.f.f.f.f.f.f.f.f.f.f.f.f.f.f.f.f.f.f.f.f.f.f.",
"f.f.f.f.f.f.f.f.f.f.f.f.f.f.f.f.f.f.f.f.f.f.f.f.f.f.f.f.f.f.f.f.f.f.f.f.f.f.f.f.f.f.f.f.f.f.f.f.",
"f.f.f.f.f.f.e.R T T T R R T T T T T T T T T T T T T T Y Y Y Y U T :.f.f.f.f.f.f.f.f.f.f.f.f.f.f.",
"f.f.f.f.f.f.E s.f.f.f.f.f.f.f.f.f.f.f.f.f.f.f.f.f.f.f.d.d.d.d.E R Y E s.f.f.f.f.f.f.f.f.f.f.f.f.",
"f.f.f.f.f.f.R s.e.:.:.:.:.:.e.e.e.e.e.e.e.e.e.e.e.e.e.e.e.e.e.*.*.=.R T r.f.f.f.f.f.f.f.f.f.f.f.",
"f.f.f.f.f.f.R s.e.:.:.:.:.e.e.e.e.e.e.e.e.e.e.e.e.e.e.e.e.e.e.=.*.:.=.E T s.f.f.f.f.f.f.f.f.f.f.",
"f.f.f.f.f.f.R s.e.:.:.e.e.e.e.e.e.e.e.e.e.e.e.e.e.e.e.e.e.e.e.;.E r.;.=.W Y s.f.f.f.f.f.f.f.f.f.",
"f.f.f.f.f.f.R s.r.:.e.:.:.:.:.:.:.e.e.e.e.e.e.e.e.e.e.e.e.e.e.;.W d.;.=.=.E T f.f.f.f.f.f.f.f.f.",
"f.f.f.f.f.f.R s.r.e.e.*.W W W W W W W W W W W W W W W =.e.e.e.;.W d.;.;.=.=.R W f.f.f.f.f.f.f.f.",
"f.f.f.f.f.f.R s.r.e.e.e.:.:.e.e.e.e.e.e.e.e.e.e.e.e.e.e.r.r.r.=.=.d.:.:.;.=.=.Y :.f.f.f.f.f.f.f.",
"f.f.f.f.f.f.R s.r.e.e.*.W W W W W W W W W W W W W W W =.r.r.r.W :.f.f.d.r.=.*.W Y d.f.f.f.f.f.f.",
"f.f.f.f.f.f.R s.r.e.e.:.:.:.:.:.e.e.e.e.e.e.e.r.$.r.e.e.r.r.r.Y Y T Y Y Y Y U U L R f.f.f.f.f.f.",
"f.f.f.f.f.f.R s.r.e.e.*.*.*.*.*.*.*.*.*.*.*.:. .  e.*.=.r.r.r.r.;.=.W E R T R E E L f.f.f.f.f.f.",
"f.f.f.f.f.f.R s.r.e.e.e.e.e.e.e.e.e.r.r.r.s.^ %   s.r.r.r.r.r.r.:.;.;.:.e.r.r.r.d.U d.f.f.f.f.f.",
"f.f.f.f.f.f.R s.r.e.e.*.W W W W W W W W :.C : w.  e.W =.r.r.r.r.r.r.r.r.r.r.r.r.d.U d.f.f.f.f.f.",
"f.f.f.f.f.f.R s.r.e.e.e.e.e.e.e.e.e.r.s.B d w.a.  s.r.r.r.r.r.r.r.r.r.r.r.r.r.r.d.U d.f.f.f.f.f.",
"f.f.f.f.f.f.R s.r.e.e.*.W W W W W *.6.f h u.&.u.  e.*.=.r.r.r.r.r.r.r.r.r.r.r.r.d.U d.f.f.f.f.f.",
"f.f.f.f.f.f.R s.r.e.e.e.e.e.e.e.r.i.s A u.#.} u.  s.s.s.s.s.s.s.s.d.d.s.s.s.r.r.d.U d.f.f.f.f.f.",
"f.f.f.f.f.f.R s.r.e.e.*.W W W =.5.; Q u.@.[ [ u.                      . = N o.s.f.U d.f.f.f.f.f.",
"f.f.f.f.f.f.R s.r.e.e.e.e.e.r.7.% ' u.@.[ [ [ 3.u.u.u.u.u.a.a.a.a.a.u.w.&.~ , O ! I d.f.f.f.f.f.",
"f.f.f.f.f.f.R s.r.e.e.*.W ;.>.@ +.w.| [ [ [ [ [ [ | | | } [ [ [ [ [ [ [ } @.4.#.g + 2.f.f.f.f.f.",
"f.f.f.f.f.f.R s.r.e.e.e.r.<.@ %.0.[ ` ` ` ` ` ` ` ` ` ` ` ` ` ` ` ` _ K J H F K #.D O $.f.f.f.f.",
"f.f.f.f.f.f.R s.r.e.e.*.,.  S 3.n i i i i i i i p p b n m M F G K K J H F m n b i G G O 2.f.f.f.",
"f.f.f.f.f.f.T s.r.e.r.e.r.$.. Z J 1 < < < < < < < < < < < < < < < 1 4 5 r t t t 5 4 b l @ d.f.f.",
"f.f.f.f.f.f.T s.r.e.r.*.W ;.O.. Z J 1 < < < < < < < < < < < < < < < < < < < < < 1 1 < n 0 V f.f.",
"f.f.f.f.f.f.T s.r.r.r.e.e.e.r.1.o v K 1 < < < n { { { { ] [ ` ` _ ) ( K F n w < < < < 1 m O y.f.",
"f.f.f.f.f.f.T s.r.r.r.*.*.*.*.;.>.o x ( 1 < < {                         # 8 c M 5 < < < i 7 Q f.",
"f.f.f.f.f.f.T s.r.r.r.r.e.r.r.r.r.9.@ k ) 4 < {   d.d.d.d.d.d.d.d.d.d.i.1.Q O * M w < < 5 y = f.",
"f.f.f.f.f.f.T s.r.r.r.=.*.*.*.*.*.=.5.@ j _ 4 {   r.*.*.*.*.*.*.*.*.*.*.=.s.d.B $ m 1 < 1 z . f.",
"f.f.f.f.f.f.T s.r.r.r.r.r.r.r.r.r.r.r.t.& j _ ]   d.r.s.s.s.s.s.s.s.s.s.s.s.s.d.h 6 u < < b   f.",
"f.f.f.f.f.f.T s.r.r.r.=.*.*.*.*.*.*.*.=.6.& 9 ]   r.*.*.*.*.*.=.=.=.=.*.=.s.s.s.8.o b < 1 i   f.",
"f.f.f.f.f.f.T s.r.r.r.r.r.r.r.r.r.r.r.r.r.i.> -   d.s.s.s.s.s.s.s.s.s.s.s.s.s.s.p.  n < 4 e @ f.",
"f.f.f.f.f.f.T s.r.r.r.=.*.*.*.*.*.*.*.*.*.=.e.a   r.*.*.=.=.=.=.=.=.=.=.=.s.s.s.p.  b < r 2 h f.",
"f.f.f.f.f.f.T s.r.r.r.r.r.r.r.r.r.r.r.r.r.r.r.d.f s.s.s.s.s.s.s.s.s.s.s.s.s.s.s.p.  b 1 u O 2.f.",
"f.f.f.f.f.f.T s.r.r.r.=.*.*.*.*.*.*.*.*.*.*.*.=.-.=.*.=.=.=.=.=.=.=.=.=.=.s.s.s.p.  i t 3 , f.f.",
"f.f.f.f.f.f.T s.r.r.r.r.r.r.r.r.r.r.r.r.r.r.r.s.s.s.s.s.s.s.d.d.d.d.d.d.s.s.s.s.p.  i q X q.f.f.",
"f.f.f.f.f.f.Y s.r.r.r.=.*.*.*.*.*.*.*.*.*.*.*.;.s.s.s.s.s.s.d.d.d.d.d.d.s.s.s.s.p.  e X ..f.f.f.",
"f.f.f.f.f.f.Y s.r.r.r.r.r.r.r.r.r.r.r.s.s.s.s.s.s.s.s.s.s.s.d.d.d.d.d.s.s.s.s.s.p.  X / f.f.f.f.",
"f.f.f.f.f.f.Y s.r.r.r.r.r.r.r.r.r.r.r.r.s.s.s.s.s.s.s.s.s.s.s.d.d.d.d.s.s.s.s.s.p.  X.f.f.f.f.f.",
"f.f.f.f.f.r.Y s.r.r.r.r.r.r.r.r.r.r.r.r.s.s.s.s.s.s.s.s.s.s.s.s.s.s.s.s.s.s.s.s.d.P r.f.f.f.f.f.",
"f.f.f.f.d.e.Y s.r.r.r.r.r.r.r.r.r.r.r.r.s.s.s.s.s.s.s.s.s.s.s.s.s.s.s.s.s.s.s.s.d.U :.s.f.f.f.f.",
"f.f.f.f.s.e.Y s.r.r.r.r.r.r.r.r.r.r.r.s.s.s.s.s.s.s.s.s.s.s.s.s.s.s.s.s.s.s.s.s.d.U :.s.f.f.f.f.",
"f.f.f.f.f.r.Y e.s.s.s.s.s.s.s.s.s.s.s.s.s.s.s.s.s.s.s.s.s.s.s.s.s.s.s.s.s.s.s.s.s.U e.d.f.f.f.f.",
"f.f.f.f.f.s.=.U L L L L L L L L L L L L L L L L U U U U U U U U U U U U U U U U U W s.f.f.f.f.f.",
"f.f.f.f.f.f.s.r.e.e.e.e.e.e.e.e.e.e.e.e.e.e.e.e.e.e.e.e.e.e.e.e.e.e.e.e.e.e.e.e.r.s.f.f.f.f.f.f.",
"f.f.f.f.f.f.f.f.d.d.d.d.d.d.d.d.d.d.d.d.d.d.d.d.d.d.d.d.d.d.d.d.d.d.d.d.d.d.d.d.f.f.f.f.f.f.f.f.",
"f.f.f.f.f.f.f.f.f.f.f.f.f.f.f.f.f.f.f.f.f.f.f.f.f.f.f.f.f.f.f.f.f.f.f.f.f.f.f.f.f.f.f.f.f.f.f.f."
};
