/* XPM */
static char *document_save[] = {
/* columns rows colors chars-per-pixel */
"48 48 103 2",
"   c black",
".  c #555557575353",
"X  c #58585A5A5656",
"o  c #56D75B865BB1",
"O  c #59595E5E5E5E",
"+  c #5C5C61616262",
"@  c #6A6A6E6E6B6B",
"#  c #717176767474",
"$  c #747479797777",
"%  c #76767B7B7979",
"&  c #CECE5C5C0000",
"*  c #F5F579790000",
"=  c #F8F8A8A85959",
"-  c #20204A4A8787",
";  c #34015B0A9336",
":  c #325D5E899A6F",
">  c #35C461B79CB9",
",  c #39C565949F70",
"<  c #3B3B6699A0D3",
"1  c #3DF36994A2C2",
"2  c #4E4E6F6F9595",
"3  c #40966BEBA44E",
"4  c #46C77272AA29",
"5  c #4A8A7737AE2E",
"6  c #4BCC7878AF2F",
"7  c #5AC97A54A673",
"8  c #517277DCA8F7",
"9  c #539C7961AAC5",
"0  c #47477777B1B1",
"q  c #4D3B7CFDB5DA",
"w  c #50D07E7EB5B5",
"e  c #546F8383BA9F",
"r  c #59198707BD3D",
"t  c #5C5C8A8ABF5C",
"y  c #6A6A8A8AAAAA",
"u  c #5DDE8C72C174",
"i  c #61288F1DC2FB",
"p  c #64B692ACC5F3",
"a  c #6CED9454C282",
"s  c #69609705C962",
"d  c #6D1A9A9ACBD3",
"f  c #77779898C2C2",
"g  c #72239F46CF82",
"h  c #7777A0A0CDCD",
"j  c #7D16A33CCE00",
"k  c #7F7FA7A7D2D2",
"l  c #A524ABAB9E9E",
"z  c #AD2DB433A626",
"x  c #B0B0B7B7A9A9",
"c  c #B433BABAADAD",
"v  c #B5B5B7B7B2B2",
"b  c #B7B7BDBDB1B1",
"n  c #BA9FBDDBB69E",
"m  c #BC3BC1C1B5B5",
"M  c #BE45C1FDBA32",
"N  c #C1DEC57EBE4C",
"B  c #C3C3C8C8BEBE",
"V  c #84C4A6A6CE0D",
"C  c #8646A8E8CFCF",
"Z  c #8A2AA9E9CFCF",
"A  c #81A6A782D19A",
"S  c #8202A9A9D47E",
"D  c #8BE1ADCAD445",
"F  c #91E7AE58D126",
"G  c #8C0CB130D8D8",
"H  c #9696B1B1D2D2",
"J  c #9C9CB6B6D5D5",
"K  c #923CB4B4D9D9",
"L  c #9E9EBDBDDEDE",
"P  c #A7A7BDBDD8D8",
"I  c #B9ADC5A7D5ED",
"U  c #A6FCC36DE18B",
"Y  c #A8A8C3C3E0E0",
"T  c #AEAEC8C8E3E3",
"R  c #B45ECC76E63B",
"E  c #B938CF4FE7E7",
"W  c #BE13D17BE6E6",
"Q  c #BE3ED312E968",
"!  c #C4C4C7C7C1C1",
"~  c #C6C6CA33C387",
"^  c #CA12CD5FC646",
"/  c #CC96CD97CB7A",
"(  c #CBCBD0D0C7C7",
")  c #CE63D1A6CB35",
"_  c #D1B1D423CE5E",
"`  c #C2C2CDCDD7D7",
"'  c #C2ADCE42DF57",
"]  c #C5C5D0D0DADA",
"[  c #D475D626D2D2",
"{  c #D6ABD958D3FE",
"}  c #D983DBA2D6B9",
"|  c #DC1EDC6CDBB9",
" . c #DEDEE0E0DCDC",
".. c #E2D2E2EADFD3",
"X. c #C116D37DE7E7",
"o. c #C2D6D59AEA11",
"O. c #E44FE4A0E3FE",
"+. c #E6EBE7F1E8DD",
"@. c #EE52EE54ECF3",
"#. c #F0F0F0F0EFEF",
"$. c #F5D7F5D7F4D1",
"%. c #F8F8F8F8F7F7",
"&. c #FF82FF82FF82",
/* pixels */
"&.&.&.&.&.&.&.&.&.&.&.&.&.&.&.&.&.&.&.&.&.&.&.&.&.&.&.&.&.&.&.&.&.&.&.&.&.&.&.&.&.&.&.&.&.&.&.&.",
"&.&.&.&.&.&.&.&.&.&.&.&.&.&.&.&.&.&.&.&.&.&.&.&.&.&.&.&.&.&.&.&.&.&.&.&.&.&.&.&.&.&.&.&.&.&.&.&.",
"&.&.&.&.&.&.&.&.&.&.&.&.&.&.&.&.&.&.&.&.&.&.&.&.&.&.&.&.&.&.&.&.&.&.&.&.&.&.&.&.&.&.&.&.&.&.&.&.",
"&.&.&.&.&.' ; - - - & & & & & & & & & & & & & & & & & & & & & & & & & & & & & - - - ; ' &.&.&.&.",
"&.&.&.&.&.; J W W P = = = = = = = = = = = = = = = = = = = = = = = = = = = = = V H F f ; &.&.&.&.",
"&.&.&.&.&.- W u u 5 * * * * * * * * * * * * * * * * * * * * * * * * * * * * * 1 0 0 F - &.&.&.&.",
"&.&.&.&.&.- W   j 3 ..@.@.@.@.@.@.@.@.@.@.@.@.@.@.@.@.@.@.@.@.@.@.@.@.@.@.@...<   a F - &.&.&.&.",
"&.&.&.&.&.- Q j j , ..@.@.@.@.@.@.@.@.@.@.@.@.@.@.@.@.@.@.@.@.@.@.@.@.@.@.@...: a a D - &.&.&.&.",
"&.&.&.&.&.- X.i u , ..@.@.@.@.@.@.@.@.@.@.@.@.@.@.@.@.@.@.@.@.@.@.@.@.@.@.@...: q q D - &.&.&.&.",
"&.&.&.&.&.- X.i i , ..#.#.#.#.#.#.#.#.#.#.#.#.#.#.#.#.#.#.#.#.#.#.#.#.#.#.#...: q q D - &.&.&.&.",
"&.&.&.&.&.- X.p p , ..$.o n n n n n n n n n n n n n n n n n n n n n n n o $...: q q D - &.&.&.&.",
"&.&.&.&.&.- X.p p , ..$.$.$.$.$.$.$.$.$.$.$.$.$.$.$.$.$.$.$.$.$.$.$.$.$.$.$...: q q Z - &.&.&.&.",
"&.&.&.&.&.- o.p p < ..$.$.$.$.$.$.$.$.$.$.$.$.$.$.$.$.$.$.$.$.$.$.$.$.$.$.$...: w q Z - &.&.&.&.",
"&.&.&.&.&.- o.p p < ..%.%.%.%.%.%.%.%.%.%.%.%.%.%.%.%.%.%.%.%.%.%.%.%.%.%.%...> e e Z - &.&.&.&.",
"&.&.&.&.&.- o.s p < ..%.%.%.%.%.%.%.%.%.%.%.%.%.%.%.%.%.%.%.%.%.%.%.%.%.%.%...> e e Z - &.&.&.&.",
"&.&.&.&.&.- o.s s < ..%.o n n n n n n n n n n n n n n n n n n n n n n n o %...> e e Z - &.&.&.&.",
"&.&.&.&.&.- o.s s 1 ..%.%.%.%.%.%.%.%.%.%.%.%.%.%.%.%.%.%.%.%.%.%.%.%.%.%.%...> e e Z - &.&.&.&.",
"&.&.&.&.&.- o.s s 1 ..&.&.&.&.&.&.&.&.&.&.&.&.&.&.&.&.&.&.&.&.&.&.&.&.&.&.&...> e e Z - &.&.&.&.",
"&.&.&.&.&.- o.d d 1 ..&.&.&.&.&.&.&.&.&.&.&.&.&.&.&.&.&.&.&.&.&.&.&.&.&.&.&...> r r Z - &.&.&.&.",
"&.&.&.&.&.- o.d d 1 ..&.&.&.&.&.&.&.&.&.&.&.&.&.&.&.&.&.&.&.&.&.&.&.&.&.&.&...> r r C - &.&.&.&.",
"&.&.&.&.&.- o.d d 1 ..&.o n n n n n n n n n n n n n n n n n n n n n n n o &...> r r C - &.&.&.&.",
"&.&.&.&.&.- o.d d 1 ..&.&.&.&.&.&.&.&.&.&.&.&.&.&.&.&.&.&.&.&.&.&.&.&.&.&.&...> t r C - &.&.&.&.",
"&.&.&.&.&.- o.g g 1 ..&.&.&.&.&.&.&.&.&.&.&.&.&.&.&.&.&.&.&.&.&.&.&.&.&.&.&..., t t C - &.&.&.&.",
"&.&.&.&.&.- o.g g 3 ..&.&.&.&.&.&.&.&.&.&.&.&.&.&.&.&.&.&.&.&.&.&.&.&.&.&.&..., u u V - &.&.&.&.",
"&.&.&.&.&.- Q g g 4 ] ......................................................` 1 u u V - &.&.&.&.",
"&.&.&.&.&.- Q g g p 4 3 3 3 3 1 1 1 1 1 1 1 1 1 1 1 1 < < < < < < < , , , , 1 e u u A - &.&.&.&.",
"&.&.&.&.&.- Q g g g g g g g g g d d d d d d d d s s s s s s s p p p p p p p p i i i A - &.&.&.&.",
"&.&.&.&.&.- Q g g g g g g g g g g g d d d d d d d d s s s s s s p p p p p p p p p i V - &.&.&.&.",
"&.&.&.&.&.- W g g g g g y O . . . . . . . . . . . . . . . . . O 2 5 5 5 6 6 w u p p A - &.&.&.&.",
"&.&.&.&.&.- E g g g g g O l M B ^ ( _ { | ..O.O...| } { _ ) ^ v + s d d d d p e p p A - &.&.&.&.",
"&.&.&.&.&.- E g g g g g X m l z @ . . . . $ } [ _ ^ ~ N M n M ) . s s s s s g e p p A - &.&.&.&.",
"&.&.&.&.&.- E g g g g g X M z c . q q q q . { _ / ^ B M n n N _ . s s s s s h r p p A - &.&.&.&.",
"&.&.&.&.&.- R g g g g g X N x b . e e e e . [ ) ^ ! N n n M ! _ . d d s s s j t s s A - &.&.&.&.",
"&.&.&.&.&.- R g g g g g X ~ c m . t t t t . _ ^ ~ N M n M N ~ [ . d d d d s A t s s A - &.&.&.&.",
"&.&.&.&.&.- R g g g g g X ^ b N . p p p p . / ^ B M n n N ~ / { . d d d d d S t s s A - &.&.&.&.",
"&.&.&.&.&.- R g g g g g X ( M ~ . s s s s . ^ ! N n n M ! ^ ) } . d d d d d D t d s A - &.&.&.&.",
"&.&.&.&.&.- R g g g g g X ) B ^ . g g g g . ~ N M n M N ~ ) [ } . g g d d d D i d d A - &.&.&.&.",
"&.&.&.&.&.- T S g g g g X _ ~ ) . g g g g . B M n n N ~ / _ { [ . g g g g d K i d d A - &.&.&.&.",
"&.&.&.&.&.7 9 Y S g g g X { ( _ % . . . . # N n n M ! ^ ) [ [ _ . g g g g g K p d d k - &.&.&.&.",
"&.&.%.%.$.@.7 8 U S g g X } _ } } [ _ ^ ~ N M n M N ~ ) [ { _ / . g g g g g K p d d A - %.%.&.&.",
"&.%.%.$.$.@.+.7 8 Y U U X | ..+.O. .} { _ / ~ ~ ^ / _ [ } [ ) ~ . G G D D D L h S S a ; $.%.%.&.",
"&.%.%.$.$.@.@.O.7 - - - . . . . . . . . . . . . . . . . . . . . . - - - - - - - - - ; I $.%.%.&.",
"&.&.%.%.$.$.@.@.+.+.O.O.| | } { [ [ / / / / / / / / / / / / [ [ { } | | O.O.+.+.@.@.$.$.%.%.&.&.",
"&.&.&.&.&.%.$.$.$.@.@.@.+.+.O.O.O.| | | | | } } } } | | | | | O.O.O.+.+.@.@.@.$.$.$.%.&.&.&.&.&.",
"&.&.&.&.&.&.&.&.&.%.%.$.$.$.$.@.@.@.@.@.@.+.+.+.+.+.+.@.@.@.@.@.@.$.$.$.$.%.%.&.&.&.&.&.&.&.&.&.",
"&.&.&.&.&.&.&.&.&.&.&.&.&.&.&.&.&.&.%.%.%.%.%.%.%.%.%.%.%.%.&.&.&.&.&.&.&.&.&.&.&.&.&.&.&.&.&.&.",
"&.&.&.&.&.&.&.&.&.&.&.&.&.&.&.&.&.&.&.&.&.&.&.&.&.&.&.&.&.&.&.&.&.&.&.&.&.&.&.&.&.&.&.&.&.&.&.&.",
"&.&.&.&.&.&.&.&.&.&.&.&.&.&.&.&.&.&.&.&.&.&.&.&.&.&.&.&.&.&.&.&.&.&.&.&.&.&.&.&.&.&.&.&.&.&.&.&."
};
