/* XPM */
static const char * gamma_green_option_xpm[] = {
"31 31 64 1",
" 	c None",
".	c #FFFFFF",
"+	c #FBFFFA",
"@	c #F8FFF6",
"#	c #F5FFF2",
"$	c #F2FFEE",
"%	c #EFFFE9",
"&	c #ECFFE5",
"*	c #E9FFE1",
"=	c #E5FFDD",
"-	c #E2FFD8",
";	c #DFFFD4",
">	c #DCFFD0",
",	c #D9FFCC",
"'	c #D6FFC7",
")	c #D3FFC3",
"!	c #CFFFBF",
"~	c #CCFFBB",
"{	c #C9FFB6",
"]	c #C6FFB2",
"^	c #C3FFAE",
"/	c #C0FFAA",
"(	c #BDFFA5",
"_	c #BAFFA1",
":	c #B6FF9D",
"<	c #B3FF98",
"[	c #B0FF94",
"}	c #ADFF90",
"|	c #AAFF8C",
"1	c #A7FF87",
"2	c #A4FF83",
"3	c #A0FF7F",
"4	c #9DFF7B",
"5	c #000000",
"6	c #1D2B18",
"7	c #9AFF77",
"8	c #97FF72",
"9	c #94FF6E",
"0	c #91FF6A",
"a	c #8EFF66",
"b	c #8BFF61",
"c	c #87FF5D",
"d	c #84FF59",
"e	c #81FF55",
"f	c #7EFF50",
"g	c #7BFF4C",
"h	c #78FF48",
"i	c #75FF43",
"j	c #72FF3F",
"k	c #6EFF3B",
"l	c #6BFF37",
"m	c #68FF33",
"n	c #65FF2E",
"o	c #62FF2A",
"p	c #5FFF26",
"q	c #5CFF21",
"r	c #58FF1D",
"s	c #55FF19",
"t	c #52FF15",
"u	c #4FFF10",
"v	c #4CFF0C",
"w	c #49FF08",
"x	c #46FF04",
"y	c #43FF00",
".+@#$%&*=-;>,')!~{]^/(_:<[}|123",
"+@#$%&*=-;>,')!~{]^/(_:<[}|1234",
"@#$%&55555555555555555556|12347",
"#$%&*=5555555555555555555123478",
"$%&*=-;555555555555555555234789",
"%&*=-;>,5555{]^/(_:<[}555347890",
"&*=-;>,'5555]^/(_:<[}|15547890a",
"*=-;>,')5555^/(_:<[}|12357890ab",
"=-;>,')!5555/(_:<[}|12347890abc",
"-;>,')!~5555(_:<[}|12347890abcd",
";>,')!~{5555_:<[}|12347890abcde",
">,')!~{]5555:<[}|12347890abcdef",
",')!~{]^5555<[}|12347890abcdefg",
"')!~{]^/5555[}|12347890abcdefgh",
")!~{]^/(5555}|12347890abcdefghi",
"!~{]^/(_5555|12347890abcdefghij",
"~{]^/(_:555512347890abcdefghijk",
"{]^/(_:<55552347890abcdefghijkl",
"]^/(_:<[5555347890abcdefghijklm",
"^/(_:<[}555547890abcdefghijklmn",
"/(_:<[}|55557890abcdefghijklmno",
"(_:<[}|15555890abcdefghijklmnop",
"_:<[}|12555590abcdefghijklmnopq",
":<[}|12355550abcdefghijklmnopqr",
"<[}|12345555abcdefghijklmnopqrs",
"[}|123475555bcdefghijklmnopqrst",
"}|1234785555cdefghijklmnopqrstu",
"|123478555555efghijklmnopqrstuv",
"123478555555555hijklmnopqrstuvw",
"2347890abcdefghijklmnopqrstuvwx",
"347890abcdefghijklmnopqrstuvwxy"};
