/* XPM */
static char *hand[] = {
/* columns rows colors chars-per-pixel */
"64 64 170 2",
"   c black",
".  c #010101",
"X  c #020202",
"o  c gray1",
"O  c #040404",
"+  c gray2",
"@  c #060606",
"#  c #070707",
"$  c gray3",
"%  c gray4",
"&  c #0B0B0B",
"*  c #0C0C0C",
"=  c gray5",
"-  c #0E0E0E",
";  c gray6",
":  c #101010",
">  c gray7",
",  c #131313",
"<  c gray8",
"1  c #151515",
"2  c #161616",
"3  c #181818",
"4  c #191919",
"5  c gray10",
"6  c #1B1B1B",
"7  c gray11",
"8  c #1D1D1D",
"9  c #1E1E1E",
"0  c gray12",
"q  c #202020",
"w  c gray13",
"e  c #222222",
"r  c gray14",
"t  c #252525",
"y  c gray15",
"u  c #272727",
"i  c #282828",
"p  c gray16",
"a  c #2A2A2A",
"s  c gray17",
"d  c #2C2C2C",
"f  c #2D2D2D",
"g  c gray18",
"h  c gray19",
"j  c gray20",
"k  c #343434",
"l  c #353535",
"z  c gray21",
"x  c #373737",
"c  c gray22",
"v  c #393939",
"b  c #3A3A3A",
"n  c gray23",
"m  c #3C3C3C",
"M  c gray24",
"N  c #3E3E3E",
"B  c #3F3F3F",
"V  c gray25",
"C  c #414141",
"Z  c gray26",
"A  c #444444",
"S  c gray27",
"D  c #464646",
"F  c gray28",
"G  c #484848",
"H  c gray29",
"J  c #4B4B4B",
"K  c #4C4C4C",
"L  c gray30",
"P  c #4E4E4E",
"I  c #505050",
"U  c #515151",
"Y  c gray32",
"T  c gray33",
"R  c #565656",
"E  c gray34",
"W  c #585858",
"Q  c gray35",
"!  c #5A5A5A",
"~  c #5B5B5B",
"^  c gray36",
"/  c gray38",
"(  c #626262",
")  c gray39",
"_  c #646464",
"`  c gray40",
"'  c #676767",
"]  c #686868",
"[  c DimGray",
"{  c #6A6A6A",
"}  c gray42",
"|  c #6C6C6C",
" . c #6D6D6D",
".. c gray43",
"X. c gray44",
"o. c #717171",
"O. c #727272",
"+. c #747474",
"@. c #767676",
"#. c #777777",
"$. c gray47",
"%. c #797979",
"&. c gray48",
"*. c #7C7C7C",
"=. c #7E7E7E",
"-. c #7F7F7F",
";. c gray51",
":. c #838383",
">. c #848484",
",. c gray52",
"<. c #868686",
"1. c #898989",
"2. c gray54",
"3. c #8B8B8B",
"4. c #8D8D8D",
"5. c #8E8E8E",
"6. c gray56",
"7. c #909090",
"8. c gray57",
"9. c #929292",
"0. c #939393",
"q. c gray58",
"w. c gray59",
"e. c #989898",
"r. c #9A9A9A",
"t. c #9B9B9B",
"y. c #9D9D9D",
"u. c gray62",
"i. c #9F9F9F",
"p. c #A0A0A0",
"a. c gray63",
"s. c #A2A2A2",
"d. c gray64",
"f. c #A4A4A4",
"g. c #A5A5A5",
"h. c gray65",
"j. c #A7A7A7",
"k. c #AAAAAA",
"l. c gray67",
"z. c #ACACAC",
"x. c #AEAEAE",
"c. c #AFAFAF",
"v. c gray69",
"b. c #B1B1B1",
"n. c #B2B2B2",
"m. c gray70",
"M. c #B4B4B4",
"N. c gray71",
"B. c #B6B6B6",
"V. c gray72",
"C. c #B9B9B9",
"Z. c gray73",
"A. c #BBBBBB",
"S. c #BCBCBC",
"D. c gray74",
"F. c gray",
"G. c gray75",
"H. c #C0C0C0",
"J. c gray76",
"K. c #C3C3C3",
"L. c gray77",
"P. c #C5C5C5",
"I. c #C6C6C6",
"U. c gray78",
"Y. c #C8C8C8",
"T. c gray79",
"R. c #CACACA",
"E. c #CBCBCB",
"W. c gray80",
"Q. c None",
/* pixels */
"Q.Q.Q.Q.Q.Q.Q.Q.Q.Q.Q.Q.Q.Q.Q.Q.Q.Q.Q.Q.Q.Q.Q.Q.Q.Q.Q.W.W.W.W.W.W.W.W.W.W.Q.Q.Q.Q.Q.Q.Q.Q.Q.Q.Q.Q.Q.Q.Q.Q.Q.Q.Q.Q.Q.Q.Q.Q.Q.Q.Q.",
"Q.Q.Q.Q.Q.Q.Q.Q.Q.Q.Q.Q.Q.Q.Q.Q.Q.Q.Q.Q.Q.Q.Q.W.W.W.W.W.W.W.W.W.W.W.W.W.W.W.W.W.W.Q.Q.Q.Q.Q.Q.Q.Q.Q.Q.Q.Q.Q.Q.Q.Q.Q.Q.Q.Q.Q.Q.Q.",
"Q.Q.Q.Q.Q.Q.Q.Q.Q.Q.Q.Q.Q.Q.Q.Q.Q.Q.Q.Q.W.W.W.W.W.W.W.W.W.W.W.W.W.W.W.W.W.W.W.W.W.W.W.W.Q.Q.Q.Q.Q.Q.Q.Q.Q.Q.Q.Q.Q.Q.Q.Q.Q.Q.Q.Q.",
"Q.Q.Q.Q.Q.Q.Q.Q.Q.Q.Q.Q.Q.Q.Q.Q.Q.Q.W.W.W.W.W.W.W.W.W.W.W.W.W.W.W.W.W.W.W.W.W.W.W.W.W.W.W.W.Q.Q.Q.Q.Q.Q.Q.Q.Q.Q.Q.Q.Q.Q.Q.Q.Q.Q.",
"Q.Q.Q.Q.Q.Q.Q.Q.Q.Q.Q.Q.Q.Q.Q.Q.W.W.W.W.W.W.W.W.W.W.W.W.W.W.W.W.W.W.W.W.W.W.W.W.W.W.W.W.W.W.W.W.Q.Q.Q.Q.Q.Q.Q.Q.Q.Q.Q.Q.Q.Q.Q.Q.",
"Q.Q.Q.Q.Q.Q.Q.Q.Q.Q.Q.Q.Q.Q.W.W.W.W.W.W.W.W.W.W.W.W.W.W.W.W.W.W.W.W.W.W.W.W.W.W.W.W.W.W.W.W.W.W.W.W.Q.Q.Q.Q.Q.Q.Q.Q.Q.Q.Q.Q.Q.Q.",
"Q.Q.Q.Q.Q.Q.Q.Q.Q.Q.Q.Q.Q.W.W.W.W.W.W.W.W.W.W.W.W.W.W.W.W.W.W.W.W.W.W.W.W.W.W.W.W.W.W.W.W.W.W.W.W.W.W.Q.Q.Q.Q.Q.Q.Q.Q.Q.Q.Q.Q.Q.",
"Q.Q.Q.Q.Q.Q.Q.Q.Q.Q.Q.Q.W.W.W.W.W.W.W.W.W.W.W.W.W.W.W.W.4.x > d ! J.W.W.W.W.W.W.W.W.W.W.W.W.W.W.W.W.W.W.Q.Q.Q.Q.Q.Q.Q.Q.Q.Q.Q.Q.",
"Q.Q.Q.Q.Q.Q.Q.Q.Q.Q.W.W.W.W.W.W.W.W.W.W.W.W.W.W.W.W.W.2.  . q $   w n.W.W.W.W.W.W.W.W.W.W.W.W.W.W.W.W.W.W.W.Q.Q.Q.Q.Q.Q.Q.Q.Q.Q.",
"Q.Q.Q.Q.Q.Q.Q.Q.Q.W.W.W.W.W.W.W.W.W.W.W.W.W.W.W.W.W.I.: % j.W.R._   b W.W.W.W.W.g.5.b.W.W.W.W.W.W.W.W.W.W.W.W.Q.Q.Q.Q.Q.Q.Q.Q.Q.",
"Q.Q.Q.Q.Q.Q.Q.Q.W.W.W.W.W.W.W.W.W.5.L b o.P.W.W.W.W.h.  W W.W.W.W.v   t.W.W.C.x     . M A.W.W.W.W.W.W.W.W.W.W.W.Q.Q.Q.Q.Q.Q.Q.Q.",
"Q.Q.Q.Q.Q.Q.Q.Q.W.W.W.W.W.W.W.W.`         7 D.W.W.W.1.  #.W.W.W.W.y.  ! W.W.k   N o.j   V W.W.W.W.W.W.W.W.W.W.W.Q.Q.Q.Q.Q.Q.Q.Q.",
"Q.Q.Q.Q.Q.Q.Q.W.W.W.W.W.W.W.W.,.  8 f.D.R   m E.W.W. .  0.W.W.W.W.R.- e W.q.  B W.W.W.N   w.W.W.W.W.W.W.W.W.W.W.W.Q.Q.Q.Q.Q.Q.Q.",
"Q.Q.Q.Q.Q.Q.W.W.W.W.W.W.W.W.W.S   c.W.W.E.m   X.W.W.I   v.W.W.W.W.W.n   L.i X l.W.W.W.q.  } W.W.W.W.W.W.W.W.W.W.W.W.Q.Q.Q.Q.Q.Q.",
"Q.Q.Q.Q.Q.W.W.W.W.W.W.W.W.W.W.< 4 W.W.W.W.D.2 O s.W.m   Y.W.W.W.W.W.U   =.  P W.W.W.W.n.  P W.W.W.W.W.W.W.W.W.W.W.W.W.Q.Q.Q.Q.Q.",
"Q.Q.Q.Q.Q.W.W.W.W.W.W.W.W.W.W.8 6 W.W.W.W.W.t.X k W.C   P.W.W.W.W.W._   m   5.W.W.W.W.R.+ h W.W.W.R.N.B.W.W.W.W.W.W.W.Q.Q.Q.Q.Q.",
"Q.Q.Q.Q.W.W.W.W.W.W.W.W.W.W.W.z o R.W.W.W.W.W.N   l.G   D.W.W.W.W.W.$.  @   A.W.W.W.W.W.q , W.W.6.5     m n.W.W.W.W.W.W.Q.Q.Q.Q.",
"Q.Q.Q.Q.W.W.W.W.W.W.W.W.W.W.W.T   f.W.W.W.W.W.0.  E I   B.W.W.W.W.W.3.    6 W.W.W.W.W.W.l o W.d.o $ H x   d W.W.W.W.W.W.Q.Q.Q.Q.",
"Q.Q.Q.W.W.W.W.W.W.W.W.W.W.W.W.6.  ( W.W.W.W.W.E.8 & P   x.W.W.W.W.W.i.    F W.W.W.W.W.W.i > I.w . e.W.W.H   q.W.W.W.W.W.W.Q.Q.Q.",
"Q.Q.Q.W.W.W.W.W.W.W.W.W.W.W.W.I.% w W.W.W.W.W.W.X.  :   h.W.W.W.W.W.n.     .W.W.W.W.W.W.3 e )   ~ W.W.W.4.  O.W.W.W.W.W.W.Q.Q.Q.",
"Q.Q.W.W.W.W.W.W.W.W.W.W.W.W.W.W.F   p.W.W.W.W.W.F.@     u.W.W.W.W.W.I.    :.W.W.W.W.W.W.$ h < 1 I.W.W.W.9.  ..W.W.W.W.W.W.W.Q.Q.",
"Q.Q.W.W.W.W.W.W.W.W.W.W.W.W.W.W.u.  D W.W.W.W.W.W.L     w.W.W.W.W.W.W.=   r.W.W.W.W.W.P.  -   ^ W.W.W.W.w.  | W.W.W.W.W.W.W.Q.Q.",
"Q.Q.W.W.W.W.W.W.W.W.W.W.W.W.W.W.W.a o B.W.W.W.W.W.a.    5.W.W.W.W.W.W.w   v.W.W.W.W.W.B.      g.W.W.W.W.t.  { W.W.W.W.W.W.W.Q.Q.",
"Q.W.W.W.W.W.W.W.W.W.W.W.W.W.W.W.W.>.  / W.W.W.W.W.W.p   <.W.W.W.W.W.W.c X I.W.W.W.W.W.h.    q W.W.W.W.W.r.  ] W.W.W.W.W.W.W.W.Q.",
"Q.W.W.W.W.W.W.W.W.W.W.Y.k.n.E.W.W.Y.1 ; P.W.W.W.W.W.;.  8.W.W.W.W.W.W.k.7.W.W.W.W.W.W.w.    [ W.W.W.W.W.+.  1.W.W.W.W.W.W.W.W.Q.",
"Q.W.W.W.W.W.W.W.W.W.;.2     r 1.E.W.{   &.W.W.W.W.W.W.z.R.W.W.W.W.W.W.W.W.W.W.W.W.W.W.<.    b.W.W.W.W.W.F   B.W.W.W.W.W.W.W.W.Q.",
"Q.W.W.W.W.W.W.W.W.y.X * T D O   r r.S.@ t W.W.W.W.W.W.W.W.W.W.W.W.W.W.W.W.W.W.W.W.W.W.@.  g W.W.W.W.W.W.5 2 W.W.W.W.W.W.W.W.W.Q.",
"W.W.W.W.W.W.W.W.W.A   s.W.W.M.T @ O ;.H   a.W.W.W.W.W.W.W.W.W.W.W.W.W.W.W.W.W.W.W.W.W.`   @.W.W.W.W.W.Z.  Z W.W.W.W.W.W.W.W.W.W.",
"W.W.W.W.W.W.W.W.W.y % W.W.W.W.W.s.>   v   I W.W.W.W.W.W.W.W.W.W.W.W.W.W.W.W.W.W.W.W.W.u.V G.W.W.W.W.W.5.  X.W.W.W.W.W.W.W.W.W.W.",
"W.W.W.W.W.W.W.W.W.A   m.W.W.W.W.W.b.9     % J.W.W.W.W.W.W.W.W.W.W.W.W.W.W.W.W.W.W.W.W.W.W.W.W.W.W.W.W.R   y.W.W.W.W.W.W.W.W.W.W.",
"W.W.W.W.W.W.W.W.W.&.  *.W.W.W.W.W.W.D.p     *.W.W.W.W.W.W.W.W.W.W.W.W.W.W.W.W.W.W.W.W.W.W.W.W.W.W.W.R.> > R.W.W.W.W.W.W.W.W.W.W.",
"W.W.W.W.W.W.W.W.W.c.  B W.W.W.W.W.W.W.Z.5   s W.W.W.W.W.W.W.W.W.W.W.W.W.W.W.W.W.W.W.W.W.W.W.W.W.W.W.w.  W W.W.W.W.W.W.W.W.W.W.W.",
"W.W.W.W.W.W.W.W.W.W.s . u.W.W.W.W.W.W.W.z.-   c.W.W.W.W.W.W.W.W.W.W.W.W.W.W.W.W.W.W.W.W.W.W.W.W.W.W.P   a.W.W.W.W.W.W.W.W.W.W.W.",
"W.W.W.W.W.W.W.W.W.W.p.. u R.W.W.W.W.W.W.W.u.F F.W.W.W.W.W.W.W.W.W.W.W.W.W.W.W.W.W.W.W.W.W.W.W.W.W.U.= 8 W.W.W.W.W.W.W.W.W.W.W.W.",
"W.W.W.W.W.W.W.W.W.W.W.L   $.W.W.W.W.W.W.W.W.W.W.W.W.W.W.W.W.W.W.W.W.W.W.W.W.W.W.W.W.W.W.W.W.W.W.W.1.  _ W.W.W.W.W.W.W.W.W.W.W.W.",
"W.W.W.W.W.W.W.W.W.W.W.Z.- # s.W.W.W.W.W.W.W.W.W.W.W.W.W.W.W.W.W.W.W.W.W.W.W.W.W.W.W.W.W.W.W.W.W.W.k . b.W.W.W.W.W.W.W.W.W.W.W.W.",
"W.W.W.W.W.W.W.W.W.W.W.W.e.O , N.W.W.W.W.W.W.W.W.W.W.W.W.W.W.W.W.W.W.W.W.W.W.W.W.W.W.W.W.W.W.W.W.k.  b W.W.W.W.W.W.W.W.W.W.W.W.W.",
"Q.W.W.W.W.W.W.W.W.W.W.W.W.*.  t F.W.W.W.W.W.W.W.W.W.W.W.W.W.W.W.W.W.W.W.W.W.W.W.W.W.W.W.W.W.W.W.R   7.W.W.W.W.W.W.W.W.W.W.W.W.Q.",
"Q.W.W.W.W.W.W.W.W.W.W.W.W.W.^   p G.W.W.W.W.W.W.W.W.W.W.W.W.W.W.W.W.W.W.W.W.W.W.W.W.W.W.W.W.W.J.% 5 R.W.W.W.W.W.W.W.W.W.W.W.W.Q.",
"Q.W.W.W.W.W.W.W.W.W.W.W.W.W.E.T   a H.W.W.W.W.W.W.W.W.W.W.W.W.W.W.W.W.W.W.W.W.W.W.W.W.W.W.W.W.$.  ..W.W.W.W.W.W.W.W.W.W.W.W.W.Q.",
"Q.W.W.W.W.W.W.W.W.W.W.W.W.W.W.E.T   s J.W.W.W.W.W.W.W.W.W.W.W.W.W.W.W.W.W.W.W.W.W.W.W.W.W.W.W.e @ S.W.W.W.W.W.W.W.W.W.W.W.W.W.Q.",
"Q.Q.W.W.W.W.W.W.W.W.W.W.W.W.W.W.E.T   H W.W.W.W.W.W.W.W.W.W.W.W.W.W.W.W.W.W.W.W.W.W.W.W.W.W.r.  J W.W.W.W.W.W.W.W.W.W.W.W.W.Q.Q.",
"Q.Q.W.W.W.W.W.W.W.W.W.W.W.W.W.W.W.E.l   :.W.W.W.W.W.W.W.W.W.W.W.W.W.W.W.W.W.W.W.W.W.W.W.W.W.S   p.W.W.W.W.W.W.W.W.W.W.W.W.W.Q.Q.",
"Q.Q.W.W.W.W.W.W.W.W.W.W.W.W.W.W.W.W.B.- & b.W.W.W.W.W.W.W.W.W.W.W.W.W.W.W.W.W.W.W.W.W.W.W.G.+ a W.W.W.W.W.W.W.W.W.W.W.W.W.W.Q.Q.",
"Q.Q.Q.W.W.W.W.W.W.W.W.W.W.W.W.W.W.W.W.2.  f T.W.W.W.W.W.W.W.W.W.W.W.W.W.W.W.W.W.W.W.W.W.W.-.  +.W.W.W.W.W.W.W.W.W.W.W.W.W.Q.Q.Q.",
"Q.Q.Q.W.W.W.W.W.W.W.W.W.W.W.W.W.W.W.W.W.P   } W.W.W.W.W.W.W.W.W.W.W.W.W.W.W.W.W.W.W.W.W.W.v X V.W.W.W.W.W.W.W.W.W.W.W.W.W.Q.Q.Q.",
"Q.Q.Q.Q.W.W.W.W.W.W.W.W.W.W.W.W.W.W.W.W.J.& 3 E.W.W.W.W.W.W.W.W.W.W.W.W.W.W.W.W.W.W.W.W.S.o j W.W.W.W.W.W.W.W.W.W.W.W.W.Q.Q.Q.Q.",
"Q.Q.Q.Q.W.W.W.W.W.W.W.W.W.W.W.W.W.W.W.W.W.U   e.W.W.W.W.W.W.W.W.W.W.W.W.W.W.W.W.W.W.W.W.&.  %.W.W.W.W.W.W.W.W.W.W.W.W.W.Q.Q.Q.Q.",
"Q.Q.Q.Q.Q.W.W.W.W.W.W.W.W.W.W.W.W.W.W.W.W.u.  K W.W.W.W.W.W.W.W.W.W.W.W.W.W.W.W.W.W.W.W.k X A.W.W.W.W.W.W.W.W.W.W.W.W.Q.Q.Q.Q.Q.",
"Q.Q.Q.Q.Q.W.W.W.W.W.W.W.W.W.W.W.W.W.W.W.W.W.0 % K.W.W.W.W.W.W.W.W.W.W.W.W.W.W.W.W.W.W.J.X z W.W.W.W.W.W.W.W.W.W.W.W.W.Q.Q.Q.Q.Q.",
"Q.Q.Q.Q.Q.Q.W.W.W.W.W.W.W.W.W.W.W.W.W.W.W.W.|   ,.W.W.W.W.W.W.W.W.W.W.W.W.W.W.W.W.W.W.w.  ' W.W.W.W.W.W.W.W.W.W.W.W.Q.Q.Q.Q.Q.Q.",
"Q.Q.Q.Q.Q.Q.Q.W.W.W.W.W.W.W.W.W.W.W.W.W.W.W.k.  Y W.W.W.W.W.W.W.W.W.W.W.W.W.W.W.W.W.W.{   q.W.W.W.W.W.W.W.W.W.W.W.Q.Q.Q.Q.Q.Q.Q.",
"Q.Q.Q.Q.Q.Q.Q.Q.W.W.W.W.W.W.W.W.W.W.W.W.W.W.E.- 1 Q Q Q Q Q Q Q Q Q Q Q Q Q Q Q Q Q Q q . G.W.W.W.W.W.W.W.W.W.W.Q.Q.Q.Q.Q.Q.Q.Q.",
"Q.Q.Q.Q.Q.Q.Q.Q.W.W.W.W.W.W.W.W.W.W.W.W.W.W.W.E                                         N W.W.W.W.W.W.W.W.W.W.W.Q.Q.Q.Q.Q.Q.Q.Q.",
"Q.Q.Q.Q.Q.Q.Q.Q.Q.W.W.W.W.W.W.W.W.W.W.W.W.W.W.W.x.z.z.z.z.z.z.z.z.z.z.z.z.z.z.z.z.z.z.z.R.W.W.W.W.W.W.W.W.W.W.Q.Q.Q.Q.Q.Q.Q.Q.Q.",
"Q.Q.Q.Q.Q.Q.Q.Q.Q.Q.W.W.W.W.W.W.W.W.W.W.W.W.W.W.W.W.W.W.W.W.W.W.W.W.W.W.W.W.W.W.W.W.W.W.W.W.W.W.W.W.W.W.W.W.Q.Q.Q.Q.Q.Q.Q.Q.Q.Q.",
"Q.Q.Q.Q.Q.Q.Q.Q.Q.Q.Q.Q.W.W.W.W.W.W.W.W.W.W.W.W.W.W.W.W.W.W.W.W.W.W.W.W.W.W.W.W.W.W.W.W.W.W.W.W.W.W.W.W.Q.Q.Q.Q.Q.Q.Q.Q.Q.Q.Q.Q.",
"Q.Q.Q.Q.Q.Q.Q.Q.Q.Q.Q.Q.Q.W.W.W.W.W.W.W.W.W.W.W.W.W.W.W.W.W.W.W.W.W.W.W.W.W.W.W.W.W.W.W.W.W.W.W.W.W.W.Q.Q.Q.Q.Q.Q.Q.Q.Q.Q.Q.Q.Q.",
"Q.Q.Q.Q.Q.Q.Q.Q.Q.Q.Q.Q.Q.Q.W.W.W.W.W.W.W.W.W.W.W.W.W.W.W.W.W.W.W.W.W.W.W.W.W.W.W.W.W.W.W.W.W.W.W.W.Q.Q.Q.Q.Q.Q.Q.Q.Q.Q.Q.Q.Q.Q.",
"Q.Q.Q.Q.Q.Q.Q.Q.Q.Q.Q.Q.Q.Q.Q.Q.W.W.W.W.W.W.W.W.W.W.W.W.W.W.W.W.W.W.W.W.W.W.W.W.W.W.W.W.W.W.W.W.Q.Q.Q.Q.Q.Q.Q.Q.Q.Q.Q.Q.Q.Q.Q.Q.",
"Q.Q.Q.Q.Q.Q.Q.Q.Q.Q.Q.Q.Q.Q.Q.Q.Q.Q.W.W.W.W.W.W.W.W.W.W.W.W.W.W.W.W.W.W.W.W.W.W.W.W.W.W.W.W.Q.Q.Q.Q.Q.Q.Q.Q.Q.Q.Q.Q.Q.Q.Q.Q.Q.Q.",
"Q.Q.Q.Q.Q.Q.Q.Q.Q.Q.Q.Q.Q.Q.Q.Q.Q.Q.Q.Q.W.W.W.W.W.W.W.W.W.W.W.W.W.W.W.W.W.W.W.W.W.W.W.W.Q.Q.Q.Q.Q.Q.Q.Q.Q.Q.Q.Q.Q.Q.Q.Q.Q.Q.Q.Q.",
"Q.Q.Q.Q.Q.Q.Q.Q.Q.Q.Q.Q.Q.Q.Q.Q.Q.Q.Q.Q.Q.Q.Q.W.W.W.W.W.W.W.W.W.W.W.W.W.W.W.W.W.W.Q.Q.Q.Q.Q.Q.Q.Q.Q.Q.Q.Q.Q.Q.Q.Q.Q.Q.Q.Q.Q.Q.Q.",
"Q.Q.Q.Q.Q.Q.Q.Q.Q.Q.Q.Q.Q.Q.Q.Q.Q.Q.Q.Q.Q.Q.Q.Q.Q.Q.Q.W.W.W.W.W.W.W.W.W.W.Q.Q.Q.Q.Q.Q.Q.Q.Q.Q.Q.Q.Q.Q.Q.Q.Q.Q.Q.Q.Q.Q.Q.Q.Q.Q.Q."
};
