/* XPM */
static char *hflip[] = {
/* columns rows colors chars-per-pixel */
"48 48 114 2",
"   c #CEDB5C830038",
".  c #D0D063630B0B",
"X  c #D3CD6AF8148A",
"o  c #D4B56E041A28",
"O  c #D4BF707F1C1D",
"+  c #D6EF74D22356",
"@  c #D7F977662839",
"#  c #D77C79ED2AD5",
"$  c #D9B07C6C2D53",
"%  c #D9EC7F073348",
"&  c #DBC88167357B",
"*  c #DCBC85603BB7",
"=  c #DF11895C3CD9",
"-  c #FCFCAFAF3E7A",
";  c #DCAF86B34013",
":  c #DDD58B1D44C6",
">  c #DE228DE34BA1",
",  c #DFB0928D5247",
"<  c #E101909F460D",
"1  c #E2F1938749EC",
"2  c #E0D99455555B",
"3  c #E3CC99E554DA",
"4  c #E0BA978A5C53",
"5  c #E62D9C9D5961",
"6  c #FCFCB22143E8",
"7  c #FCFCB5C54BE4",
"8  c #FCFCB77750D1",
"9  c #FD6AB9CB5466",
"0  c #FDC6BD095BF4",
"q  c #E2C29D1663DD",
"w  c #E78AA486656B",
"e  c #E890A62C67B0",
"r  c #F00FAE52659C",
"t  c #E3DFA0D96933",
"y  c #EA6EAAB66AFE",
"u  c #FD84BF466216",
"i  c #E49CA48570A9",
"p  c #E5BBA871758C",
"a  c #EC3CAFF576A4",
"s  c #E763AD487C98",
"d  c #EE48B142743D",
"f  c #EDC2B4117B5B",
"g  c #F2F8B6DB70B8",
"h  c #F3F3BFBF7F7F",
"j  c #FDEAC19B6506",
"k  c #FE47C47A6C16",
"l  c #FE15C6A17272",
"z  c #FEFEC9867553",
"x  c #FCFCC7C778B8",
"c  c #FEBCCC027BFE",
"v  c #E7FFB0808380",
"b  c #EF21BA8D86F6",
"n  c #E80BB5D68C62",
"m  c #E9B3B5AB8A77",
"M  c #EE11BC448B76",
"N  c #F11DBC8984FA",
"B  c #E7C3BAB195B3",
"V  c #EC03BB8B946D",
"C  c #E7E7BCEF9ACD",
"Z  c #F6F6C2C28181",
"A  c #FE9ACDF882D8",
"S  c #F319C27C8FE4",
"D  c #F6F6C8C88D8D",
"F  c #FDBDCF0E8ACA",
"G  c #FDFDD16A8DC0",
"H  c #ECE6C0DB9DC7",
"J  c #F0FFC3FF9700",
"K  c #F4FFC8FF9700",
"L  c #F8F8CCCC9292",
"P  c #F47FCAFF9F00",
"I  c #F8F8CFCF9999",
"U  c #FE18D3319378",
"Y  c #FE36D69D9B45",
"T  c #FE7ED8D89F9F",
"R  c #E7BFC4C1A7A7",
"E  c #EBD3C55CA5B0",
"W  c #F708CF31A25E",
"Q  c #F102CCA8AEAE",
"!  c #FAFAD555A3A3",
"~  c #FE22DA22A3EC",
"^  c #F6FBD369ACD5",
"/  c #FE22DD4AAC63",
"(  c #E771C9CEB1B1",
")  c #E5EBCE57BBBB",
"_  c #F5F5D5D5B4B4",
"`  c #FD2FDDDDB17E",
"'  c #F305D386BABA",
"]  c #F9FCDE6EBE5E",
"[  c #FECBE1AEB61C",
"{  c #FEB5E43FBD3C",
"}  c #DE33DE33DE33",
"|  c #E4D4D2E8C443",
" . c #E2E6D555CACA",
".. c #F501DB4FC6C6",
"X. c #F576DDE0CA49",
"o. c #E1D6D8C5D0D0",
"O. c #FEA1E689C31F",
"+. c #FF7FE968C747",
"@. c #FBFBE63BCB75",
"#. c #FE5DEA09CCCC",
"$. c #F7A9E412D429",
"%. c #FE53ECECD47E",
"&. c #FA7BEB9EDE08",
"*. c #FFFFF271DE5E",
"=. c #E46EE46EE46E",
"-. c #ECBAECBAECBA",
";. c #FA7FEDE8E3E3",
":. c #FEC6F39FE51D",
">. c #FE3AF595EC13",
",. c #FFFFF8F8EEEE",
"<. c #F4D4F4D4F4D4",
"1. c #FCFAF675F170",
"2. c #FF44FAB4F4AE",
"3. c #FF8DFF8AFF87",
/* pixels */
"3.3.3.3.3.3.3.3.3.3.3.3.3.3.3.3.3.3.3.3.3.3.3.3.3.3.3.3.3.3.3.3.3.3.3.3.3.3.3.3.3.3.3.3.3.3.3.3.",
"3.3.3.3.3.3.3.3.3.3.3.3.3.3.3.3.3.3.3.3.3.3.3.3.3.3.3.3.3.3.3.3.3.3.3.3.3.3.3.3.3.3.3.3.3.3.3.3.",
"3.3.3.3.3.3.3.3.3.3.3.3.3.3.3.3.3.3.3.3.3.3.3.3.3.3.3.3.3.3.3.3.3.3.3.3.3.3.3.3.3.3.3.3.3.3.3.3.",
"3.3.3.3.3.3.3.3.3.3.3.3.3.3.3.3.3.3.3.3.3.3.3.3.3.3.3.3.3.3.3.3.3.3.3.3.3.3.3.3.3.3.3.3.3.3.3.3.",
"3.3.3.3.3.3.3.3.3.3.3.3.3.3.3.3.3.3.3.3.3.3.3.3.3.3.3.3.3.3.3.3.3.3.3.3.3.3.3.3.3.3.3.3.3.3.3.3.",
"3.3.3.3.3.3.3.3.3.3.3.3.3.3.3.3.3.3.3.3.3.3.3.3.3.3.3.3.3.3.3.3.3.3.3.3.3.3.3.3.3.3.3.3.3.3.3.3.",
"3.3.3.3.3.3.3.3.3.3.3.3.3.3.3.3.3.3.1.3.3.3.3.3.3.3.3.3.>.3.3.3.3.3.3.3.3.3.3.3.3.3.3.3.3.3.3.3.",
"3.3.3.3.3.3.3.3.3.3.3.3.3.3.3.3.3.:.X 3.3.3.3.3.3.3.3.3.  ;.3.3.3.3.3.3.3.3.3.3.3.3.3.3.3.3.3.3.",
"3.3.3.3.3.3.3.3.3.3.3.3.3.3.3.3.&.O   3.3.3.3.3.3.3.3.3.  o $.3.3.3.3.3.3.3.3.3.3.3.3.3.3.3.3.3.",
"3.3.3.3.3.3.3.3.3.3.3.3.3.3.3.$.X W   3.3.3.3.3.3.3.3.3.  ] X X.3.3.3.3.3.3.3.3.3.3.3.3.3.3.3.3.",
"3.3.3.3.3.3.3.3.3.3.3.3.3.3...X _ 3.  3.3.3.3.3.3.3.3.3.  3.@.o ' 3.3.3.3.3.3.3.3.3.3.3.3.3.3.3.",
"3.3.3.3.3.3.3.3.3.3.3.3.3.' o O.#.3.  3.3.3.3.3.3.3.3.3.  3.O.@.O Q 3.3.3.3.3.3.3.3.3.3.3.3.3.3.",
"3.3.3.3.3.3.3.3.3.3.3.3.E O @.{ 8 3.  3.3.3.3.3.3.3.3.3.  2.j ` #.+ H 3.3.3.3.3.3.3.3.3.3.3.3.3.",
"3.3.3.3.3.3.3.3.3.3.3.V + %./ 7 8 3.  3.3.3.3.3.3.3.3.3.  2.u 0 T #.# m 3.3.3.3.3.3.3.3.3.3.3.3.",
"3.3.3.3.3.3.3.3.3.3.s $ :.T 7 8 9 3.  3.3.3.3.3.3.3.3.3.  ,.0 0 9 G #.& p 3.3.3.3.3.3.3.3.3.3.3.",
"3.3.3.3.3.3.3.3.3.t = >.G 6 7 9 0 3.  3.3.3.3.3.3.3.3.3.  :.0 9 8 7 x O.= q 3.3.3.3.3.3.3.3.3.3.",
"3.3.3.3.3.3.3.3.2 1 ,.A 6 7 8 0 0 3.                      :.0 9 8 7 6 k { 1 , 2.3.3.3.3.3.3.3.3.",
"3.3.3.3.3.3.2.: 5 ,.l 6 7 7 9 0 j 2.2.2.2.2.,.,.>.:.:.:.*.*.9 8 7 7 6 - u { 5 ; 2.3.3.3.3.3.3.3.",
"3.3.3.3.3.>.& y ,.k - 6 7 8 0 u j k z c A c z z k k j u 0 0 9 7 7 6 6 6 7 k { e % >.3.3.3.3.3.3.",
"3.3.3.3.:.@ f >.0 - 6 7 7 9 0 j k l z c c c z l k k j 0 0 9 8 7 6 6 - 7 9 u x { a @ ;.3.3.3.3.3.",
"3.3.3.&.o S :.9 - - 6 7 9 0 u j k z c A c z z k k j u 0 9 8 7 7 6 6 6 7 0 j l F O.b + &.3.3.3.3.",
"3.3.$.X P %.7 - - 6 7 8 9 0 j k l c A c c z l k j j 0 0 9 8 7 6 6 - 7 9 u k x F U +.J o $.3.3.3.",
"3...  ] +.7 - - 6 6 7 9 0 j k k z c A c z l k k j u 0 9 8 7 7 6 - 6 8 0 k l A G Y / #.^   ..3.3.",
"3.' . %.[ 6 - - 6 7 8 0 0 j k z c A c c z k k j j 0 0 9 7 7 6 6 6 7 0 u l c F U ~ / %._   ' 3.3.",
"3.3...X ^ [ 6 6 7 7 9 0 j k l z c c c z l k k j 0 0 9 8 7 7 6 - 6 9 0 k x A U Y / #.P o X.3.3.3.",
"3.3.3.$.o K { 8 7 9 0 u j k z c A c z z k k j u 0 0 9 7 7 6 6 6 7 0 j l c F Y ~ +.M o $.3.3.3.3.",
"3.3.3.3.&.O N { 0 9 0 j k l z c c c z l k j j 0 0 9 8 7 6 6 - 7 9 u k x A U ~ +.f + &.3.3.3.3.3.",
"3.3.3.3.3.:.@ d O.k j k k z c A c z l k k j u 0 9 8 7 7 6 - 6 8 0 k l A G ~ O.e $ :.3.3.3.3.3.3.",
"3.3.3.3.3.3.>.% w O.x k z c A c c +.O.{ { [ [ ` / ~ ~ T Y U 7 9 u l c F Y { 3 * 1.3.3.3.3.3.3.3.",
"3.3.3.3.3.3.3.2.: 3 O.A z c c c z O.                      U 9 0 k x A Y [ : > 2.3.3.3.3.3.3.3.3.",
"3.3.3.3.3.3.3.3.2., < { U A c z z {   3.3.3.3.3.3.3.3.3.  U 0 u l c Y / & 4 3.3.3.3.3.3.3.3.3.3.",
"3.3.3.3.3.3.3.3.3.3.q * { Y c z l [   2.2.2.2.2.2.2.2.2.  U u k x U ! # i 3.3.3.3.3.3.3.3.3.3.3.",
"3.3.3.3.3.3.3.3.3.3.3.s $ ` U z k `   <.<.<.<.<.<.<.<.<.  U j l U I + v 3.3.3.3.3.3.3.3.3.3.3.3.",
"3.3.3.3.3.3.3.3.3.3.3.3.n + ! U k /   <.<.<.<.<.<.<.<.<.  U l U D o B 2.3.3.3.3.3.3.3.3.3.3.3.3.",
"3.3.3.3.3.3.3.3.3.3.2.2.<.C o L G ~   -.-.-.-.-.-.-.-.-.  U F h X R <.<.2.2.3.3.3.3.3.3.3.3.3.3.",
"3.3.3.3.3.3.3.3.3.2.<.<.<.<.R X Z T   -.-.-.-.-.-.-.-.-.  U g X ( <.<.<.<.<.2.3.3.3.3.3.3.3.3.3.",
"3.3.3.3.3.3.3.3.2.<.<.<.<.<.-.( X g   =.=.=.=.=.=.=.=.=.  r X ) -.-.<.<.<.<.<.2.3.3.3.3.3.3.3.3.",
"3.3.3.3.3.3.3.3.2.<.<.<.<.-.-.-.) X   =.=.=.=.=.=.=.=.=.  X | -.-.-.-.<.<.<.<.2.3.3.3.3.3.3.3.3.",
"3.3.3.3.3.3.3.2.2.<.<.<.<.-.-.-.-.|   =.=.} } } } } } =.   .=.-.-.-.-.<.<.<.<.2.2.3.3.3.3.3.3.3.",
"3.3.3.3.3.3.3.2.2.<.<.<.<.-.-.-.-.=. .=.=.} } } } } } =.o.=.=.-.-.-.-.<.<.<.<.2.2.3.3.3.3.3.3.3.",
"3.3.3.3.3.3.3.3.2.<.<.<.<.-.-.-.-.-.=.=.=.=.=.=.=.=.=.=.=.=.-.-.-.-.-.<.<.<.<.2.3.3.3.3.3.3.3.3.",
"3.3.3.3.3.3.3.3.2.<.<.<.<.<.-.-.-.-.-.=.=.=.=.=.=.=.=.=.=.-.-.-.-.-.<.<.<.<.<.2.3.3.3.3.3.3.3.3.",
"3.3.3.3.3.3.3.3.3.2.<.<.<.<.<.<.-.-.-.-.-.-.-.-.-.-.-.-.-.-.-.-.<.<.<.<.<.<.2.3.3.3.3.3.3.3.3.3.",
"3.3.3.3.3.3.3.3.3.3.2.2.<.<.<.<.<.<.-.-.-.-.-.-.-.-.-.-.-.-.<.<.<.<.<.<.2.2.3.3.3.3.3.3.3.3.3.3.",
"3.3.3.3.3.3.3.3.3.3.3.3.2.2.<.<.<.<.<.<.<.<.<.<.<.<.<.<.<.<.<.<.<.<.2.2.3.3.3.3.3.3.3.3.3.3.3.3.",
"3.3.3.3.3.3.3.3.3.3.3.3.3.3.3.2.2.<.<.<.<.<.<.<.<.<.<.<.<.<.<.2.2.3.3.3.3.3.3.3.3.3.3.3.3.3.3.3.",
"3.3.3.3.3.3.3.3.3.3.3.3.3.3.3.3.3.3.3.2.2.2.2.2.2.2.2.2.2.3.3.3.3.3.3.3.3.3.3.3.3.3.3.3.3.3.3.3.",
"3.3.3.3.3.3.3.3.3.3.3.3.3.3.3.3.3.3.3.3.3.3.3.3.3.3.3.3.3.3.3.3.3.3.3.3.3.3.3.3.3.3.3.3.3.3.3.3."
};
