/* XPM */
static char *info[] = {
/* columns rows colors chars-per-pixel */
"24 24 207 2",
"   c #5B5E5F",
".  c #5C5E5F",
"X  c #867629",
"o  c #8B7B2A",
"O  c #867A3E",
"+  c #D4B71E",
"@  c #D5B922",
"#  c #DEC226",
"$  c #DDC228",
"%  c #E1CC3A",
"&  c #90854C",
"*  c #AFB87A",
"=  c #CBBD7E",
"-  c #D6CC58",
";  c #EAD440",
":  c #ECD643",
">  c #EEDA4E",
",  c #F1DB48",
"<  c #F4E24E",
"1  c #F8E44D",
"2  c #FBE84E",
"3  c #FBE94F",
"4  c #FCE94F",
"5  c #F4E35C",
"6  c #CBC967",
"7  c #F8E864",
"8  c #FBEA67",
"9  c #FDEF7F",
"0  c #638AB9",
"q  c #678CBA",
"w  c #7194BF",
"e  c #7C99BE",
"r  c #7698C1",
"t  c #7B9CC4",
"y  c #808080",
"u  c #909090",
"i  c gray57",
"p  c #9D9D9D",
"a  c #9BAA85",
"s  c #93A68D",
"d  c #BBB495",
"f  c #849DBD",
"g  c #89A1B4",
"h  c #8BA0B4",
"j  c #8BA5B7",
"k  c #8FA4BF",
"l  c #9CACBF",
"z  c #A7A7A7",
"x  c gray66",
"c  c #AAAAAA",
"v  c gray67",
"b  c #ACACAC",
"n  c #B1AEA1",
"m  c #B1B1B1",
"M  c gray71",
"N  c #B6B6B6",
"B  c gray72",
"V  c gray73",
"C  c #BBBBBB",
"Z  c #BCBCBC",
"A  c gray74",
"S  c gray75",
"D  c #CABD82",
"F  c #C9BE8E",
"G  c #CBC08C",
"H  c #CAC199",
"J  c #FDF298",
"K  c #C9C5B3",
"L  c #CBC7B4",
"P  c #CCC8BA",
"I  c #82A0C3",
"U  c #83A2C3",
"Y  c #85A0C1",
"T  c #80A0C5",
"R  c #85A2C7",
"E  c #84A3C7",
"W  c #84A4C4",
"Q  c #86A5C5",
"!  c #85A4C6",
"~  c #88A4C6",
"^  c #8AA7C7",
"/  c #83A2CA",
"(  c #84A3C9",
")  c #86A5CA",
"_  c #88A6CA",
"`  c #88A7CC",
"'  c #89A8CB",
"]  c #8DA8C9",
"[  c #8DAAC9",
"{  c #8DABC9",
"}  c #8EAAC9",
"|  c #89A8CD",
" . c #8AA9CD",
".. c #8AA9CF",
"X. c #8CA9CC",
"o. c #8DABCF",
"O. c #90ACCA",
"+. c #92AECB",
"@. c #90ADCD",
"#. c #93ADCC",
"$. c #92AECC",
"%. c #93AECE",
"&. c #96B2CD",
"*. c #97B2CE",
"=. c #98B2CE",
"-. c #90ADD1",
";. c #93AFD0",
":. c #94AFD0",
">. c #94B0D1",
",. c #9BB4D0",
"<. c #9CB5D0",
"1. c #9CB6D0",
"2. c #9EB6D1",
"3. c #9EB7D1",
"4. c #A5B5C9",
"5. c #A4B5CA",
"6. c #B7BEC6",
"7. c #B3BDC9",
"8. c #B2BDCB",
"9. c #B5BDC8",
"0. c #B8BFC8",
"q. c #A0B9D3",
"w. c #A2BBD4",
"e. c #A5BCD7",
"r. c #A6BDD6",
"t. c #A6BED7",
"y. c #A6BFD7",
"u. c #BEC3C9",
"i. c #BFC3C9",
"p. c #BCC3CB",
"a. c #BEC3CB",
"s. c #B8C1CC",
"d. c #BEC4CC",
"f. c #ADC2D5",
"g. c #ABC2D8",
"h. c #ACC2D8",
"j. c #ADC3DB",
"k. c #AFC4DB",
"l. c #B0C4D5",
"z. c #B0C5DA",
"x. c #B2C6DB",
"c. c #B1C5DC",
"v. c #B2C6DC",
"b. c #B2C7DC",
"n. c #B5C7DC",
"m. c #B3C8DC",
"M. c #B7CADF",
"N. c #B9CBDE",
"B. c #B8CBDF",
"V. c #B9CCDF",
"C. c #B8CBE0",
"Z. c #BDCEE0",
"A. c #BDCFE1",
"S. c #BDCEE2",
"D. c #BCCFE3",
"F. c gray76",
"G. c #C3C3C3",
"H. c gray77",
"J. c #CBCAC2",
"K. c #CCCAC2",
"L. c #C0C5CB",
"P. c #C2C7CC",
"I. c #C7C9CB",
"U. c #C8C8C8",
"Y. c #CACACA",
"T. c #CBCBCB",
"R. c #C9CACC",
"E. c #CBCBCC",
"W. c gray80",
"Q. c #C0D1E2",
"!. c #C0D2E3",
"~. c #C0D1E4",
"^. c #C4D6E5",
"/. c #C7D7E7",
"(. c #C8D6E1",
"). c #C8D6E2",
"_. c #C8D7E7",
"`. c #C9D8E5",
"'. c #CAD8E8",
"]. c #CCDBEA",
"[. c #CEDCEA",
"{. c #CFDDEA",
"}. c #CFDEEB",
"|. c #D1DCE9",
" X c #D2DEE9",
".X c #D2DDEA",
"XX c #D0DEEB",
"oX c #D3DEEA",
"OX c #D2E0EB",
"+X c #D3E0EC",
"@X c #D4E1ED",
"#X c #D8E2ED",
"$X c #D9E3ED",
"%X c #DBE4EF",
"&X c #DCE7F1",
"*X c #DFE7F0",
"=X c #DDE8F2",
"-X c #E1E8F1",
";X c #E2EAF1",
":X c #E3EAF2",
">X c #E4EBF2",
",X c #E5ECF3",
"<X c #E6ECF3",
"1X c #E6EDF3",
"2X c #E8EEF4",
"3X c #E9EFF5",
"4X c None",
/* pixels */
"4X4X4X4X4X4X4X4X4X4XW.W.W.W.4X4X4X4X4X4X4X4X4X4X",
"4X4X4X4X4X4X4XW.W.W.E.s.d.W.W.W.W.4X4X4X4X4X4X4X",
"4X4X4X4X4XW.W.W.a.) o.;.>.-._ P.W.W.W.4X4X4X4X4X",
"4X4X4X4XW.W.W.5.| #.U { } ^ ,...4.W.W.W.4X4X4X4X",
"4X4X4XW.W.W.p.` Q *.|.;X:X.X<.$. .L.W.W.W.4X4X4X",
"4X4XW.W.W.W./ [ W  X>X,X<X<XoX+.2.R W.W.W.W.4X4X",
"4X4XW.W.W.R.| O.3.#X1X2X3X3X$X1.&.X.E.W.W.W.4X4X",
"4XW.W.W.W.8.' N.n.z.*X-X*X%XV.t.3.%.9.W.W.W.W.4X",
"4XW.W.W.W.7.' Z.h.q r k.S.:.0 e.r.@.0.W.W.W.W.4X",
"4XW.W.W.W.W.T =.3.w M.!./._.t B.m.I W.W.W.W.W.4X",
"W.W.W.W.W.W.Y q.w.j.A.'.@X+X( Q.c.k W.W.W.W.W.W.",
"W.W.W.W.W.W.u.E y.b.!.}.=X~.C.^.~ I.W.W.W.W.W.W.",
"W.W.W.W.W.W.W.e g.v.!.{.&XD.XX!.f W.W.W.W.W.W.W.",
"W.W.W.W.W.W.W.6.! x.Z.`.OX[.].] i.W.W.W.W.W.W.W.",
"4XW.W.W.W.W.W.W.h j l.(.).f.g l W.W.W.W.W.W.W.4X",
"4XW.W.W.W.W.W.W.H - * s a 6 % K.W.W.W.W.W.W.W.4X",
"4XW.W.W.W.W.W.W.D ; 7 4 4 4 # P W.W.W.W.W.W.W.4X",
"4X4XW.W.W.W.W.W.= 5 J 4 3 < + J.W.W.W.W.W.W.4X4X",
"4X4XW.W.W.W.W.W.F > 9 4 4 4 $ L W.W.W.W.W.W.4X4X",
"4X4X4XW.W.W.W.W.G : 8 2 1 , @ K W.W.W.W.W.4X4X4X",
"4X4X4X4XW.W.U.G.A d O o X & n N V S H.T.4X4X4X4X",
"4X4X4X4X4XU.F.Z N x i   . y u p v B C 4X4X4X4X4X",
"4X4X4X4X4X4X4XH.S B m c z x b M Z B 4X4X4X4X4X4X",
"4X4X4X4X4X4X4X4X4X4XT.T.Y.Y.4X4X4X4X4X4X4X4X4X4X"
};
