/* XPM */
static char *find[] = {
/* columns rows colors chars-per-pixel */
"48 48 61 1",
"  c #2E2E34343636",
". c #333339393B3B",
"X c #39013E014001",
"o c #3E4D4325441D",
"O c #454549494747",
"+ c #424247474949",
"@ c #456C49CA49FA",
"# c #48884C0C4B0B",
"$ c #53AA56A354A5",
"% c #5CDC5EDF5BDC",
"& c #5F5F61615C5C",
"* c #63DB65BE624F",
"= c #6B316CCE69A2",
"- c #6EE070DC6CE2",
"; c #718773286EE8",
": c #72C8741E7070",
"> c #79237B7B76CC",
", c #7C157D7D79E0",
"< c #7EFF81817DFD",
"1 c #820183027F7F",
"2 c #83CC859782CB",
"3 c #878789898484",
"4 c #89898A8A8787",
"5 c #8C4F8CAF8BB5",
"6 c #8E8E91108D0C",
"7 c #909091918F8F",
"8 c #91BA91D291AB",
"9 c #96EC9943943E",
"0 c #99999C1C9717",
"q c #9C7D9CD39C0B",
"w c #9F9FA1A19D9D",
"e c #A1A1A4239F9F",
"r c #A41DA484A3C3",
"t c #A9A9AAAAA751",
"y c #A7B6A986A986",
"u c #AB48AB76AB02",
"i c #AEAEB0B0ADAD",
"p c #B1B1B2B2AFAF",
"a c #B304B3ABB220",
"s c #BCA9BCF6BC0F",
"d c #C0C0C1C1BDBD",
"f c #C458C483C3ED",
"g c #C9C9CACAC6C6",
"h c #CCD7CD00CC85",
"j c #CFCFD0D0CDCD",
"k c #D251D454CFCF",
"l c #D331D367D2D1",
"z c #D63CDA0CD2D2",
"x c #DA59DD5DD701",
"c c #DD1DDDB2DC88",
"v c #DEDEE17ADC0E",
"b c #E1B6E363DEDE",
"n c #E540E554E521",
"m c #E7B4E982E54B",
"M c #E93EEAB1E71F",
"N c #EB78EB82EB5E",
"B c #EFEFF0F0EE98",
"V c #F11BF171EF19",
"C c #F58BF596F568",
"Z c #F8F8F8F8F7F7",
"A c #FEE8FEE8FEE8",
/* pixels */
"AAAAAAAAAAAAAAAAAAAAAAAAAAAAAAAAAAAAAAAAAAAAAAAA",
"AAAAAAAAAAAAAAAAAAAAAAAAAAAAAAAAAAAAAAAAAAAAAAAA",
"AAAAAAAAAAAAAAAAAAAAAAAAAAAAAAAAAAAAAAAAAAAAAAAA",
"AAAAmauuuuuuuuuuuyyyyyyrrrrrr9sNAAAAAAAAAAAAAAAA",
"AAAAuNAAAAAAAZZZZZZZZZZZZZZZZqyqfAAAAAAAAAAAAAAA",
"AAAAyZncnnnnnnnnnnnnnnnnnnnnnsffyuZAAAAAAAAAAAAA",
"AAAAyZnccccnnnnnnnnnnnnnnnnnngfxguyZAAAAAAAAAAAA",
"AAAAyZncccnnnnnnnnnnnnnnnnnnnlfNhhayAAAAAAAAAAAA",
"AAAAyZnccnnnnnnnnnnnnnnnnnnnnlsZlhhuaAAAAAAAAAAA",
"AAAAyZnnnnnnnnnnnnnnnnnnnnnnnlfCllhhrhAAAAAAAAAA",
"AAAAyZnnnnnnnnnnnnnnnnnnnmmmmhlCxllhfqNAAAAAAAAA",
"AAAAyZnnnnnnnnnnnnnnnnmmmmMMMsmAAANlhsqAAAAAAAAA",
"AAAAyCnnnnnnnnnnnnnmmmmMMMMMMqqrq0999q5fAAAAAAAA",
"AAAAyCnnnnnnnnnnnnmmmMMMNNNNNnlfsayqqyq5AAAAAAAA",
"AAAArCnnnnnnnnnnmmmMMMNNNNNNNNxhhlcnMNZ5AAAAAAAA",
"AAAArCmnnnnnnnnmmMMMNNNNNNNNNNnNNNNNNNZ5AAAAAAAA",
"AAAArCmnnnnnnnmmMMNNNNNNNNNNNNNNNNNNNNZ5AAAAAAAA",
"AAAArCMnnnnnnmmMMNNNNNNNNNNNNNNNNNNNNNZ5AAAAAAAA",
"AAAArCMnnnnnmmMMNNNNNNht4,;>2rhNNNNNNNZ5AAAAAAAA",
"AAAArCMnnnnmmMMNNNNNg56axNCMlt,<hNNNNNZ5AAAAAAAA",
"AAAArCMnnnmmMMNNNNMt5jZMvxzxvMCs;rNNNNZ5AAAAAAAA",
"AAAArZMnnnmMMNNNNNqwCmzcnMNNmbxMM17NNNZ5AAAAAAAA",
"AAAArZNnnmmMNNNNNirZvxNCZZZZCCNbnN2rNNZ5AAAAAAAA",
"AAAArZNnnmMMNNNNl9CxcCZAAAAAAZCCmnM;lCZ5AAAAAAAA",
"AAAArZNnmmMNNNNN0xnxCZAAAAAAAAACCmMf2CZ5AAAAAAAA",
"AAAArCNnmMMNNNNlqCzNZAAAAAAAAAAZCVnV:lZ5AAAAAAAA",
"AAAArCNmmMNNNNNadmvCAAAAAAAAAAAZCCNNewZ5AAAAAAAA",
"AAAAqCNmMMNNNNN9nxMZAAAAAAAAAAAZZCBMg>Z5AAAAAAAA",
"AAAAqCNmMNNNNNN5CzNZAAAAAAAAAAAZZCCNx=C5AAAAAAAA",
"AAAAqCNmMNNNNNN3ZkNAAAAAAAAAAAAZZCCNm&C5AAAAAAAA",
"AAAAqCNMMNNNNNN5CzNZAAAAAAAAAAAZZCCNx=N5AAAAAAAA",
"AAAAqCNMNNNNNNN9bxNCAAAAAAAAAAZZZCCVg>N5AAAAAAAA",
"AAAAqCNMNNNNNNNpsmnCZAAAAAAAAZZZZCCVrqC5AAAAAAAA",
"AAAAqCNMNNNNNNNl0VxCZZZAAAAAAZZZZCCV:hC5AAAAAAAA",
"AAAAqCNMNNNNNNNN0lnnCZZZZZZZZZZZZZCf2mZ5AAAAAAAA",
"AAAA0CNMNNNNNNNNl9NvmCCZZZZZZZZZZZm;hNZ5AAAAAAAA",
"AAAA0CNMNNNNNNNNNueBbmCCCZZZZZZZCN3ynCZ5AAAAAAAA",
"AAAA0CNMNNNNNNNNNMqqNmbNCCZCCCCCn2O*qhC5AAAAAAAA",
"AAAA0CNMNNNNNNNNNCnt4gBMmMMNNNNs;r$=<**2AAAAAAAA",
"AAAA0CNMNNNNNNNNNCCmf55alnNbhu,2hn2*qa;%NAAAAAAA",
"AAAA0CNMNNNNNNNNNNCCNnhu5,:>4tknmCs#14r-=NAAAAAA",
"AAAA0CNMNNNNNNNNNNCCCCNnnnnnnmMNCCn.#*2r;=NAAAAA",
"AAAA9CNMNNNNNNNNNNCCCCCCCNNNCCCCCCCl+#*2r;=NAAAA",
"AAAAqCZZZZZZZZZZZZZZZZZZZZZZZZZZZZZCx+#*2r-$ZAAA",
"AAAAl888888888555558888888888888888882X#*26*ZZAA",
"AAAAAAZZZZCCCNNnnncccccccnnnnnmNNNNNMnl@O%$aZZAA",
"AAAAAAAAAAAAAAAAAAAAAAAAAAAAAAAZZZCCCCCn oyZZAAA",
"AAAAAAAAAAAAAAAAAAAAAAAAAAAAAAAAAAAZZZZZZAAAAAAA"
};
