/* XPM */
static const char *maxview_logo_xpm[] = {
/* columns rows colors chars-per-pixel */
"47 48 169 2 ",
"   c #5B5553",
".  c #786957",
"X  c #726759",
"o  c #72685A",
"O  c #7E715C",
"+  c #7C7567",
"@  c #687171",
"#  c #7B7470",
"$  c #B6755B",
"%  c #837864",
"&  c #DE7B6F",
"*  c #E67B73",
"=  c #ED7C77",
"-  c #F27B79",
";  c #FA7D7D",
":  c #93864C",
">  c #9A8A4E",
",  c #A49551",
"<  c #AB9A55",
"1  c #B5A35B",
"2  c #BAA75D",
"3  c #BCAA5E",
"4  c #8E8065",
"5  c #948664",
"6  c #968865",
"7  c #94846A",
"8  c #9F8D6F",
"9  c #89837D",
"0  c #9B8A71",
"q  c #9F9573",
"w  c #93927E",
"e  c #A28F6D",
"r  c #A5926E",
"t  c #A89B6E",
"y  c #A59374",
"u  c #A89473",
"i  c #AC9B72",
"p  c #A6967C",
"a  c #A7987F",
"s  c #AE9C7C",
"d  c #B29D77",
"f  c #A7A26F",
"g  c #AFA86E",
"h  c #B4A665",
"j  c #BFAC60",
"k  c #B1A26D",
"l  c #BAAA6C",
"z  c #A1A37C",
"x  c #BFAF77",
"c  c #B6A07B",
"v  c #BCA47A",
"b  c #BFAF78",
"n  c #D08768",
"m  c #D38E6A",
"M  c #CF9D68",
"N  c #D29369",
"B  c #D9956D",
"V  c #D29A69",
"C  c #C4A562",
"Z  c #C1AE61",
"A  c #C1AE68",
"S  c #D9A36D",
"D  c #C5B263",
"F  c #CAB765",
"G  c #CCB967",
"H  c #C3B26D",
"J  c #CAB66A",
"K  c #CDBA6A",
"L  c #D5B26B",
"P  c #D2BD6A",
"I  c #C2A97E",
"U  c #C4B371",
"Y  c #D5C16B",
"T  c #DAC46D",
"R  c #DFCA71",
"E  c #E6C673",
"W  c #E1CB71",
"Q  c #EBCF76",
"!  c #E6D074",
"~  c #EAD376",
"^  c #EED678",
"/  c #F1D779",
"(  c #F3DB7A",
")  c #FCE37E",
"_  c #8E8782",
"`  c #928B86",
"'  c #988F8A",
"]  c #9C948E",
"[  c #848F90",
"{  c #81999A",
"}  c #9E9691",
"|  c #9F9891",
" . c #A79880",
".. c #A69A8A",
"X. c #A89C8E",
"o. c #A49B94",
"O. c #A69E98",
"+. c #9AA58B",
"@. c #97AA99",
"#. c #A2A28C",
"$. c #B1A083",
"%. c #B6A78C",
"&. c #B4A88F",
"*. c #BAAD8A",
"=. c #BFB184",
"-. c #A1A795",
";. c #ABA197",
":. c #A7A099",
">. c #ACA39B",
",. c #A1AC9F",
"<. c #B1A795",
"1. c #B5AA91",
"2. c #B8AB92",
"3. c #B0A69D",
"4. c #BBAE99",
"5. c #96AEA8",
"6. c #95B5B5",
"7. c #9FB6B1",
"8. c #9FBBBD",
"9. c #AEA6A0",
"0. c #A8A9A7",
"q. c #A5ACAB",
"w. c #B3AAA2",
"e. c #B8AEA7",
"r. c #B3ADA9",
"t. c #A0B1A8",
"y. c #BCB3A2",
"u. c #BDB4AD",
"i. c #A4B3B5",
"p. c #A2B6BA",
"a. c #A2BABE",
"s. c #FF8080",
"d. c #C5AC80",
"f. c #C0B284",
"g. c #C0B7B0",
"h. c #C5BBB4",
"j. c #C8BEB7",
"k. c #FFE680",
"l. c #CAC3B6",
"z. c #8FBAC5",
"x. c #93BAC3",
"c. c #97BEC8",
"v. c #A1BFC6",
"b. c #9DC3CC",
"n. c #9FC7D1",
"m. c #9ECEDB",
"M. c #A0C5CF",
"N. c #A2CDD9",
"B. c #A5D6E3",
"V. c #A6D9E6",
"C. c #A8D8E4",
"Z. c #AADCEA",
"A. c #AEE3F0",
"S. c #B0E5F3",
"D. c #B6EDFC",
"F. c #B8F0FF",
"G. c #CEC9C1",
"H. c #C3CBCD",
"J. c #D6D3CF",
"K. c #C1D1D6",
"L. c #CBD2D3",
"P. c #D8DADB",
"I. c #DEE1E1",
"U. c #E1E4E5",
"Y. c #EFEFEF",
"T. c #F0EFEF",
"R. c #F4F4F4",
"E. c gray100",
"W. c None",
/* pixels */
"W.W.W.W.W.W.W.W.W.W.W.W.W.W.W.W.W.W.W.W.W.W.W.W.W.W.W.W.W.y.s $.%.2.4.y.G.W.W.W.W.W.W.W.W.W.W.",
"W.W.W.W.W.W.W.W.W.W.W.W.W.W.W.W.W.W.W.W.W.W.W.W.W.W.W.W.W.%.d.d.d.d.d.d.l.W.W.W.W.W.W.W.W.W.W.",
"W.W.W.W.W.W.W.W.W.W.W.W.W.W.W.W.W.W.W.W.W.W.W.W.W.I.R.E.T.c d.d.d.d.d.I J.W.W.W.W.W.W.W.W.W.W.",
"W.W.W.W.W.W.W.W.W.W.W.W.W.W.W.W.W.W.W.W.W.W.W.W.U.Z.B.N.n.8.7.t.,.-.#.w L.P.T.W.W.W.W.W.W.W.W.",
"W.W.W.W.W.W.W.W.W.W.W.W.W.W.W.W.W.W.W.W.W.W.W.W.K.F.F.F.F.F.F.F.F.F.F.F.F.D.B.H.W.W.W.W.W.W.W.",
"W.W.W.W.W.W.W.W.W.W.W.W.W.W.W.W.W.W.W.W.W.W.W.W.z.F.F.F.F.F.F.F.F.F.F.F.F.F.m.W.W.W.W.W.W.W.W.",
"W.W.W.W.W.W.W.W.W.W.W.W.W.W.W.W.W.W.W.W.W.W.W.W.B.F.F.F.F.F.F.F.F.F.F.F.F.F.z.W.W.W.W.W.W.W.W.",
"W.W.W.W.W.W.W.W.W.W.W.W.W.W.W.W.g.j.g.9.O.o.} [ F.F.F.F.F.F.F.F.F.F.F.F.F.F.W.W.W.W.W.W.W.W.W.",
"W.W.W.W.W.W.W.W.W.W.W.W.W.W.W.+ X.X.w.j.j.j.j.a.F.F.F.F.F.F.F.F.F.F.F.F.F.D.@ W.W.W.W.W.W.W.W.",
"W.W.W.W.W.W.W.W.W.W.W.W.W.W.W.8 d.d...j.j.j.h.n.F.F.F.F.F.F.F.F.F.F.F.F.F.b.j.j.j.g.9.o.o.} # ",
"W.W.W.W.W.W.W.W.W.W.W.W.W.W.W.I d.c e.j.j.j.0.D.F.F.F.F.F.F.F.F.F.F.F.F.F.8.j.j.j.j.l.j.h.j.' ",
"W.W.W.W.W.W.W.W.W.W.W.W.W.W.7 d.I p j.j.j.j.i.F.F.F.F.F.F.F.F.F.F.F.F.F.F.q.j.j.j.j.>.u p p o ",
"W.W.W.W.W.W.W.W.W.W.W.W.W.W.u d.d...j.j.j.j.v.F.F.F.F.F.F.F.F.F.F.F.F.F.A.r.j.j.j.j.X.I d.I W.",
"W.W.W.W.W.W.W.W.W.W.W.W.W.X d.d.d u.j.j.j.r.S.F.F.F.F.F.F.F.F.F.F.F.F.F.b.j.j.j.j.j. .d.d.r W.",
"W.W.W.W.W.W.W.W.W.W.W.W.W.0 d.d.p j.j.j.j.i.F.F.F.F.F.F.F.F.F.F.F.F.F.F.p.j.j.j.j.j.u d.d.7 W.",
"W.W.W.W.W.W.W.W.W.W.W.W.W.d d.d.X.j.j.j.j.v.F.F.F.F.F.F.F.F.F.F.F.F.F.F.0.j.j.j.j.>.I d.d.O W.",
"W.W.W.W.W.W.W.W.W.W.W.W.% d.d.d u.j.j.j.u.C.F.F.F.F.F.F.F.F.F.F.F.F.F.C.u.j.j.j.j...I I I W.W.",
"W.W.W.W.W.W.W.W.W.W.W.W.y d.d. .j.j.j.j.q.F.F.F.F.F.F.F.F.F.F.F.F.F.F.b.j.j.j.j.j.p d.d.r W.W.",
"W.W.W.W.W.W.W.W.W.W.W.W.7 y i X.j.j.j.j.a.F.F.F.F.F.F.F.F.F.F.F.F.F.F.i.j.j.j.j.l.u d.d.7 W.W.",
"W.W.W.W.W.W.W.) k.k.) ) W K J A l k t q { c.B.D.F.F.F.F.F.F.F.F.F.F.F.0.j.j.j.j.;.I d.d.. W.W.",
"W.W.W.W.W.W.F k.k.k.k.k.k.k.k.k.) k.k.k.k.k.W h f z +.@.5.6.x.b.V.F.N.h.j.j.j.j...I I v W.W.W.",
"W.W.W.W.W.W.) k.k.k.k.k.k.k.k.k.k.k.k.k.k.k.k.k.k.k.k.k.k.k.k.) ~ l g J H l k t 6 5 4 O W.W.W.",
"W.W.W.W.W.G k.k.k.k.k.k.k.k.k.k.k.k.k.k.k.k.k.k.k.k.k.k.k.k.k.k.k.k.k.k.k.k.k.k.k.k.k.^ T Y > ",
"W.W.W.W.W.) k.k.k.k.k.k.k.k.k.k.k.k.k.k.k.k.k.k.k.k.k.k.k.k.k.k.k.k.k.k.k.k.k.k.k.k.k.k.k.( : ",
"W.W.W.W.K k.k.k.k.k.k.k.k.k.k.k.k.k.k.k.k.k.k.k.k.k.k.k.k.k.k.k.k.k.k.k.k.k.k.k.k.k.k.) k.P W.",
"W.W.W.W.) k.k.k.k.k.k.k.k.k.k.k.k.k.k.k.k.k.k.k.k.k.k.k.k.k.k.k.k.k.k.k.k.k.k.k.) L T ( ^ ~ W.",
"W.W.W.P k.k.k.k.k.k.k.k.k.k.k.k.k.k.k.k.k.k.k.k.k.k.k.k.k.k.k.k.k.k.k.k.k.k.k.k.M s.; $ P W W.",
"W.W.W.k.k.k.k.k.k.k.k.k.k.k.k.k.k.k.k.k.k.k.k.k.k.k.k.k.k.k.k.k.k.k.k.k.k.k.k.^ & s.- C / P W.",
"W.W.Y k.k.k.k.k.k.k.k.k.k.k.k.k.k.k.k.k.k.k.k.k.k.k.k.k.k.k.k.k.k.k.k.k.k.k.k.V s.s.n P k.F W.",
"W.W.k.k.k.k.k.k.k.k.k.k.k.k.k.k.k.k.k.k.k.k.k.k.k.k.k.k.k.k.k.k.k.k.k.k.k.k.Q * s.= C ) k.D W.",
"W.T k.k.k.) k.k.k.k.k.k.k.k.k.k.k.k.k.k.k.k.k.k.k.k.k.k.k.k.k.k.k.k.k.k.k.k.N s.s.m P k.k.j W.",
"W.3 j D G T ) k.k.k.k.k.k.k.k.k.k.k.k.k.k.k.k.k.k.k.k.k.k.k.k.k.k.k.k.k.k.E = s.= C k.k.k.W.W.",
"W.^ k.k.k.( Z 1 1 1 2 j D F Y ( k.k.k.k.k.k.k.k.k.k.k.k.k.k.k.k.k.k.k.k.k.E S B M T k.k.k.W.W.",
"W.F k.k.k.k.k.k.k.k.k.k.k.k.) K 1 1 1 1 j D F Y ( k.k.k.k.k.k.k.k.k.k.k.k.k.k.k.K k.k.k.k.W.W.",
"W.1 k.k.k.k.k.k.k.k.k.k.k.k.) k.k.k.k.k.k.k.k.) Y 1 1 1 3 j Z G P ^ k.k.k.k.k.( W k.k.k./ W.W.",
"W.W.k.k.k.k.k.k.k.k.k.k.k.k.k.k.k.k.k.k.k.k.k.k.k.k.k.k.k.k.k.k.k.R 3 1 1 3 3 < ) k.k.k.Y W.W.",
"W.W.T k.k.k.k.k.k.k.k.k.k.k.k.k.k.k.k.k.k.k.k.k.k.k.k.k.k.k.k.k.k.k.k.k.k.k.k.2 k.k.k.k.P W.W.",
"W.W.D k.k.k.k.k.k.k.k.k.k.k.k.k.k.k.k.k.k.k.k.k.k.k.k.k.k.k.k.k.k.k.k.k.k.k.k.3 k.k.k.k.F W.W.",
"W.W.W.k.k.k.k.k.k.k.k.k.k.k.k.k.k.k.k.k.k.k.k.k.k.k.k.k.k.k.k.k.k.k.k.k.k.k.k.j k.k.k.k.Z W.W.",
"W.W.W.Z D K R ) k.k.k.k.k.k.k.k.k.k.k.k.k.k.k.k.k.k.k.k.k.k.k.k.k.k.k.k.k.k.k.j k.k.k.k.1 W.W.",
"W.W.W.W.O.j.g.>.&.*.=.x U K R k.k.k.k.k.k.k.k.k.k.k.k.k.k.k.k.k.k.k.k.k.k.k.k.Z k.k.k.R W.W.W.",
"W.W.W.r.j.j.l.j.j.j.j.j.j.j.g.>.&.*.=.x U K ! k.k.k.k.k.k.k.k.k.k.k.k.k.k.k.k.D k.k.G W.W.W.W.",
"W.# u.h.j.j.j.j.j.j.j.j.j.j.h.l.j.j.j.j.j.j.g.<.1.*.f.x U P ! k.k.k.k.k.k.k.k.D ) 2 W.W.W.W.W.",
"  O.u.j.j.j.j.j.j.j.j.j.j.j.j.j.j.j.j.j.j.j.h.j.j.j.j.j.j.j.u.<.2.*.=.l D Y ~ D , W.W.W.W.W.W.",
"W.W.W.W.W.` ] o.O.g.j.j.j.j.j.j.j.j.j.j.j.j.j.j.j.j.j.j.j.j.j.j.j.h._ W.W.W.W.W.W.W.W.W.W.W.W.",
"W.W.W.W.W.W.W.W.W.W.W.W.` ] o.O.g.j.j.j.j.j.j.j.j.j.j.j.j.j.j.j.>.W.W.W.W.W.W.W.W.W.W.W.W.W.W.",
"W.W.W.W.W.W.W.W.W.W.W.W.W.W.W.W.W.W.W.` ] o.>.h.j.j.j.j.j.j.g.9 W.W.W.W.W.W.W.W.W.W.W.W.W.W.W.",
"W.W.W.W.W.W.W.W.W.W.W.W.W.W.W.W.W.W.W.W.W.W.W.W.W.W.` ] o.} W.W.W.W.W.W.W.W.W.W.W.W.W.W.W.W.W."
};
