/* XPM */
static const char * multiselection_xpm[] = {
"22 22 7 1",
" 	c None",
".	c #FF0000",
"+	c #FFFFFF",
"@	c #000000",
"#	c #37FF00",
"$	c #FFEE00",
"%	c #0033FF",
"                      ",
"                      ",
"  ..++..++..          ",
"  +        +          ",
"  .   @@##@@##@@##@   ",
"  .   #    .      @   ",
"  +   #    .      #   ",
"  +   @    +      #   ",
"  .   @    +      @   ",
"  .   #    .      @   ",
"  +   #@@##@@##@@##   ",
"  +        +          ",
"  .        . $$%%$$%% ",
"  .        . $      $ ",
"  +        + $      $ ",
"  +        + %      % ",
"  ..++..++.. %      % ",
"             $      $ ",
"             $      $ ",
"             %      % ",
"             %$$%%$$% ",
"                      "};
