/* XPM */
static char *next[] = {
/* columns rows colors chars-per-pixel */
"48 48 230 2",
"   c #20204A4A8787",
".  c #273F50418CC9",
"X  c #28FF51AC8CBF",
"o  c #29F7539C8DB7",
"O  c #2AD5544F8D37",
"+  c #2C7E54818DAB",
"@  c #2BCD544F8EAA",
"#  c #2CC355468F25",
"$  c #2DBA55468F25",
"%  c #2F59575D9087",
"&  c #2DD65873928F",
"*  c #300E579290F8",
"=  c #309F5734920A",
"-  c #320558C29173",
";  c #3090597992BF",
":  c #31785AC6927D",
">  c #353B5B979265",
",  c #347B5B0F93F8",
"<  c #33A65A639577",
"1  c #31D85BA99601",
"2  c #36255B979438",
"3  c #33A65C539577",
"4  c #35965D4B9577",
"5  c #347B5CFD96DD",
"6  c #353F5F9199A3",
"7  c #3A7F61D19770",
"8  c #3C39614397F0",
"9  c #35CD629F9E63",
"0  c #387E60339956",
"q  c #38A762779BD6",
"w  c #3EDA633B98EE",
"e  c #3C3263BE9AB8",
"r  c #3994643D9DC7",
"t  c #3D8465629CCF",
"y  c #34346565A4A4",
"u  c #35356666A4A4",
"i  c #36366666A5A5",
"p  c #36366767A5A5",
"a  c #39396565A1A1",
"s  c #3B3B6767A1A1",
"d  c #38386868A6A6",
"f  c #39396969A6A6",
"g  c #3A3A6969A6A6",
"h  c #3B3B6A6AA7A7",
"j  c #3C3C6969A5A5",
"k  c #3F3F6C6CA5A5",
"l  c #3D3D6C6CA7A7",
"z  c #3D3D6C6CA8A8",
"x  c #3E3E6C6CA8A8",
"c  c #3F3F6C6CA8A8",
"v  c #3E3E6D6DA9A9",
"b  c #3F3F6D6DA9A9",
"n  c #441F66AA9936",
"m  c #44FF690E9C35",
"M  c #43256BD2A20E",
"N  c #47FC6DC2A20E",
"B  c #4DB46F6FA06D",
"V  c #40406E6EA9A9",
"C  c #41416E6EA9A9",
"Z  c #43436F6FA9A9",
"A  c #41416F6FAAAA",
"S  c #4AA571DBA6CA",
"D  c #43437070ABAB",
"F  c #45457171AAAA",
"G  c #45457272ABAB",
"H  c #46467373ACAC",
"J  c #47477373ADAD",
"K  c #4F477655AA14",
"L  c #4B4B7777AEAE",
"P  c #4F1E77A1ADFB",
"I  c #4C4C7777AFAF",
"U  c #4D4D7878AFAF",
"Y  c #51337245A24C",
"T  c #5871771CA27F",
"R  c #5A117ACFA774",
"E  c #57057E8CAFF5",
"W  c #5C8F7B7BA863",
"Q  c #4A4A7979B3B3",
"!  c #4B4B7A7AB3B3",
"~  c #4E4E7979B0B0",
"^  c #4F4F7A7AB0B0",
"/  c #4B4B7A7AB4B4",
"(  c #4D4D7B7BB4B4",
")  c #4E4E7C7CB4B4",
"_  c #50507A7AB0B0",
"`  c #51517B7BB1B1",
"'  c #53007D00B100",
"]  c #52527C7CB2B2",
"[  c #53537D7DB2B2",
"{  c #54547D7DB2B2",
"}  c #55557E7EB3B3",
"|  c #56567F7FB3B3",
" . c #50507D7DB5B5",
".. c #50507E7EB6B6",
"X. c #53538080B7B7",
"o. c #56568080B4B4",
"O. c #57578080B4B4",
"+. c #55558181B7B7",
"@. c #57578282B6B6",
"#. c #59598181B4B4",
"$. c #59598181B5B5",
"%. c #5A5A8282B5B5",
"&. c #5C5C8383B6B6",
"*. c #5E5E8585B7B7",
"=. c #57578383B9B9",
"-. c #58588484B9B9",
";. c #59598484B9B9",
":. c #5A5A8484B9B9",
">. c #5D5D8787BBBB",
",. c #5F5F8888BCBC",
"<. c #67BD834CAEB3",
"1. c #70C08978ABB2",
"2. c #60A2857CB64A",
"3. c #6D2A899BB1F4",
"4. c #60608686B8B8",
"5. c #61618787B8B8",
"6. c #63638989B9B9",
"7. c #64648A8ABABA",
"8. c #65658A8ABABA",
"9. c #67678C8CBBBB",
"0. c #61618A8ABDBD",
"q. c #66668D8DBFBF",
"w. c #66668E8EBFBF",
"e. c #68688E8EBDBD",
"r. c #68688F8FBEBE",
"t. c #69698F8FBFBF",
"y. c #78459173B6E9",
"u. c #79AC9393B8EB",
"i. c #6B6B9292C1C1",
"p. c #72729696C3C3",
"a. c #72729797C3C3",
"s. c #72729797C4C4",
"d. c #73739797C4C4",
"f. c #74749797C4C4",
"g. c #74749898C4C4",
"h. c #75759999C4C4",
"j. c #75759898C5C5",
"k. c #76769999C5C5",
"l. c #76769A9AC5C5",
"z. c #77779A9AC5C5",
"x. c #77779B9BC5C5",
"c. c #78789B9BC6C6",
"v. c #79799B9BC6C6",
"b. c #79799C9CC6C6",
"n. c #79799C9CC7C7",
"m. c #7A7A9C9CC6C6",
"M. c #7A7A9D9DC7C7",
"N. c #7B7B9D9DC7C7",
"B. c #7C7C9D9DC5C5",
"V. c #7C7C9D9DC7C7",
"C. c #7C7C9E9EC8C8",
"Z. c #7D7D9E9EC8C8",
"A. c #7D7D9F9FC8C8",
"S. c #7E7E9F9FC8C8",
"D. c #7E7E9F9FC9C9",
"F. c #7F7FA0A0C9C9",
"G. c #86839D7FBEE0",
"H. c #8F65A0C1BA8D",
"J. c #8D81A2A6C2A0",
"K. c #8D81A3AEC2A0",
"L. c #8181A2A2CACA",
"P. c #8282A2A2CACA",
"I. c #8383A3A3CBCB",
"U. c #99BDAD8CC9A5",
"Y. c #9B7DAE81C9AB",
"T. c #ACB1B8A5CAC1",
"R. c #A7B9B8D2D0AE",
"E. c #ADB7BCADD2BE",
"W. c #AE95BDC1D3F5",
"Q. c #B7AFC5E3D9E7",
"!. c #C2E0CCEDDBDE",
"~. c #C7DBCFE9DAE5",
"^. c #C2D1CDD7DEED",
"/. c #CFCCD6E4DFDD",
"(. c #D6C5D9E3DFF3",
"). c #D9D9DAE5DAE5",
"_. c gray86",
"`. c #D9EBDBEADDE9",
"'. c #DDDDDDDDDDDD",
"]. c gray87",
"[. c #DFDFDFDFDFDF",
"{. c #C6ADD1EFE0C7",
"}. c #CFB6D8CEE5CC",
"|. c #D0CDD9F1E6E9",
" X c #D7CBDEDBE9E7",
".X c #DACBE1E7EBFD",
"XX c gray88",
"oX c #E1E1E1E1E1E1",
"OX c #E2E2E2E2E2E2",
"+X c gray89",
"@X c gray90",
"#X c #E6E6E6E6E6E6",
"$X c #E7E7E7E7E7E7",
"%X c #E1E1E7E7EFEF",
"&X c #E2E5E8DFEFE3",
"*X c #E9E9E9E9E9E9",
"=X c #EAEAEAEAEAEA",
"-X c gray92",
";X c #ECECECECECEC",
":X c gray93",
">X c #EEEEEEEEEEEE",
",X c #EFEFEFEFEFEF",
"<X c #EAEDEEE5F4F1",
"1X c #EDF7F0F5F4F9",
"2X c #EEF1F1EFF5F9",
"3X c #EFE9F2F5F6FF",
"4X c #EFE9F2F5F7FD",
"5X c gray94",
"6X c #F1F1F1F1F1F1",
"7X c gray95",
"8X c #F3F3F3F3F3F3",
"9X c #F0F0F3F3F7F7",
"0X c #F4F4F4F4F4F4",
"qX c gray96",
"wX c #F6F6F6F6F6F6",
"eX c gray97",
"rX c #F5F3F7FCFAF9",
"tX c #F8F8F8F8F8F8",
"yX c #F9F9F9F9F9F9",
"uX c gray98",
"iX c #FBFBFBFBFBFB",
"pX c #F9F6FAFBFCFE",
"aX c #FAFDFBFBFCFF",
"sX c #FBFBFBFBFDFD",
"dX c gray99",
"fX c #FDFDFDFDFDFD",
"gX c #FCFCFDFDFEFE",
"hX c #FEFEFEFEFEFE",
"jX c #FEFEFEFEFFFF",
"kX c gray100",
/* pixels */
"kXkXkXkXkXkXkXkXkXkXkXkXkXkXkXkXkXkXkXkXkXkXkXkXkXkXkXkXkXkXkXkXkXkXkXkXkXkXkXkXkXkXkXkXkXkXkXkX",
"kXkXkXkXkXkXkXkXkXkXkXkXkXkXkXkXkXkXkXkXkXkXkXkXkXkXkXkXkXkXkXkXkXkXkXkXkXkXkXkXkXkXkXkXkXkXkXkX",
"kXkXkXkXkXkXkXkXkXkXkXkXkXkXkXkXkXkXkXkXkXkXkXkXkXkXkXkXkXkXkXkXkXkXkXkXkXkXkXkXkXkXkXkXkXkXkXkX",
"kXkXkXkXkXkXkXkXkXkXkXkXkXkXkXkXkXkXkXkXkXkXkXkXkXkXkXkXkXkXkXkXkXkXkXkXkXkXkXkXkXkXkXkXkXkXkXkX",
"kXkXkXkXkXkXkXkXkXkXkXkXkXkXkXkXkXkXkXkXkXkXkXkXkXkXkXkXkXkXkXkXkXkXkXkXkXkXkXkXkXkXkXkXkXkXkXkX",
"kXkXkXkXkXkXkXkXkXkXkXkXkXkXkXkXkXkXkXkXkXkXkXkXkXkXkXkXkXkXkXkXkXkXkXkXkXkXkXkXkXkXkXkXkXkXkXkX",
"kXkXkXkXkXkXkXkXkXkXkXkXkXkXkXkXkXkXkXkXkXkXkXkXkXkXkXkXkXkXkXkXkXkXkXkXkXkXkXkXkXkXkXkXkXkXkXkX",
"kXkXkXkXkXkXkXkXkXkXkXkXkXkXkXkXkXkXkXkXkXkXkXkXkXkXkXkXkXkXkXkXkXkXkXkXkXkXkXkXkXkXkXkXkXkXkXkX",
"kXkXkXkXkXkXkXkXkXkXkXkXkXkXkXkXkXkXkXkXkXkX XkXkXkXkXkXkXkXkXkXkXkXkXkXkXkXkXkXkXkXkXkXkXkXkXkX",
"kXkXkXkXkXkXkXkXkXkXkXkXkXkXkXkXkXkXkXkXkXkX  ^.kXkXkXkXkXkXkXkXkXkXkXkXkXkXkXkXkXkXkXkXkXkXkXkX",
"kXkXkXkXkXkXkXkXkXkXkXkXkXkXkXkXkXkXkXkXkXkX  , R.kXkXkXkXkXkXkXkXkXkXkXkXkXkXkXkXkXkXkXkXkXkXkX",
"kXkXkXkXkXkXkXkXkXkXkXkXkXkXkXkXkXkXkXkXkXkX  B.t G.jXkXkXkXkXkXkXkXkXkXkXkXkXkXkXkXkXkXkXkXkXkX",
"kXkXkXkXkXkXkXkXkXkXkXkXkXkXkXkXkXkXkXkXkXkX  A.Z.N <.pXkXkXkXkXkXkXkXkXkXkXkXkXkXkXkXkXkXkXkXkX",
"kXkXkXkXkXkXkXkXkXkXkXkXkXkXkXkXkXkXkXkXkXkX  b.=.l.K B 4XkXkXkXkXkXkXkXkXkXkXkXkXkXkXkXkXkXkXkX",
"kXkXkXkXkXkXkXkXkXkXkXkXkXkXkXkXkXkXkXkXkXkX  x.(  .s.E 7 %XkXkXkXkXkXkXkXkXkXkXkXkXkXkXkXkXkXkX",
"kXkXkXkXkXkXkXkXkXkXkXkXkXkXkXkXkXkXkXkXkXkX  h.( Q ( i.2.- }.kXkXkXkXkXkXkXkXkXkXkXkXkXkXkXkXkX",
"kXkXkXkXkXkXkXkXkXkXkXkXkXkXkXkXkXkXkXkXkXkX  g.( Q Q ! q.7.; Q.kXkXkXkXkXkXkXkXkXkXkXkXkXkXkXkX",
"kXkXkXkXkXkXkX  X X X X X X X X X X X X X X   a.( Q Q Q Q ,.e.4 Y.kXkXkXkXkXkXkXkXkXkXkXkXkXkXkX",
"kXkXkXkXkXkXkX  P.S.C.V.N.m.v.c.z.k.j.g.f.d.p.l.( Q Q Q Q Q -.t.e u.gXkXkXkXkXkXkXkXkXkXkXkXkXkX",
"kXkXkXkXkXkXkX  I.) ) ) ) ) ) ) ) ) ( ( ( ( ( ( Q Q Q Q Q Q Q X.r.M W rXkXkXkXkXkXkXkXkXkXkXkXkX",
"kXkXkXkXkXkXkX  L.Q Q Q Q Q Q Q Q Q Q Q Q Q Q Q Q Q Q Q Q Q Q Q  .w.S m <XkXkXkXkXkXkXkXkXkXkXkX",
"kXkXkXkXkXkXkX  F.Q Q Q Q Q Q Q Q Q Q Q Q Q Q Q Q Q Q Q Q Q Q Q Q ( 0.P 2 .XkXkXkXkXkXkXkXkXkXkX",
"kXkXkXkXkXkXkX  D.Q Q Q Q Q Q Q Q Q Q Q Q Q Q Q Q Q Q Q Q Q Q Q Q Q / >.' % {.kXkXkXkXkXkXkXkXkX",
"kXkXkXkXkXkXkX  C.Q Q Q Q Q Q Q Q Q Q Q Q Q Q Q Q Q Q Q Q Q Q Q Q Q Q ! ;.o.= E.kXkXkXkXkXkXkXkX",
"kXkXkXkXkXkXkX  M.Q Q Q Q Q Q Q Q Q Q Q Q Q Q Q Q Q Q Q Q Q Q Q Q Q Q Q Q +.@.< K.kXkXkXkXkXkXkX",
"kXkXkXkXkXkXkX  n.Q Q Q Q Q Q Q Q Q Q Q Q Q Q Q Q Q Q Q Q Q Q Q Q Q Q Q Q Q ..:.0 R sXkXkXkXkXkX",
"kXkXkXkXkXkXkX  9.y y y y y y y y y y y y y y y y y y y y y y y y y y y y y f F 3 w rXkXkXkXkXkX",
"kXkXkXkXkXkXkX  8.y y y y y y y y y y y y y y y y y y y y y y y y y y y y h Z ; y.gXkXkXkXkXkXkX",
"kXkXkXkXkXkXkX  6.y y y y y y y y y y y y y y y y y y y y y y y y y y y x k # U.kXkXkXkXkXkXkXkX",
"kXkXkXkXkXkXkX  5.y y y y y y y y y y y y y y y y y y y y y y y y y u b s @ Q.kXkXkXkXkXkXkXkXkX",
"kXkXkXkXkXkXkX  4.y y y y y y y y y y y y y y y y y y y y y y y y i A r * |.kXkXkXkXkXkXkXkXkXkX",
"kXkXkXkXkXkXkX  *.y y y y y y y y y y y y y y y y y y y y y y y p A q 8 &XkXkXkXkXkXkXkXkXkXkXkX",
"kXkXkXkXkXkXkX  &.y y y y y y y y y y y y y y y y y y y y y y d C 5 Y 9XkXkXkXkXkXkXkXkXkXkXkXkX",
"kXkXkXkXkXkXkX  %.$.#.O.| } { [ ] ` _ ^ ~ U I L i y y y y y g c : 3.aXkXkXkXkXkXkXkXkXkXkXkXkXkX",
"kXkXkXkXkXkXkX  . . . . . . . . . . . . . .   J u y y y y h j $ J.jXkXkXkXkXkXkXkXkXkXkXkXkXkXkX",
"kXkXkXkXkXkXkX9X9X9X9X9X9X9X9X9X9X3X2X2X1X1X  H u y y y z a O W.kXkXkXkXkXkXkXkXkXkXkXkXkXkXkXkX",
"kXkXkXkXkXkXkXkXkXkXkXhXdXiXuXyXtXeXwXqXqX0X  G u y u v 9 + !.tXyXuXiXdXhXkXkXkXkXkXkXkXkXkXkXkX",
"kXkXkXkXkXkXkXkXfXdXuXtXeXqX0X8X6X5X,X>X:X:X  D u i v 6 > /.5X6X8X0XqXeXtXuXdXfXkXkXkXkXkXkXkXkX",
"kXkXkXkXkXkXfXiXyXeXwX0X7X5X,X:X-X=X*X$X#X#X  A d x 1 n (.*X=X-X:X,X5X7X0XwXeXyXiXfXkXkXkXkXkXkX",
"kXkXkXkXkXfXiXyXeXqX8X6X,X:X-X*X$X@X+XOXXX[.  V l & T `.OX+X@X$X*X-X:X,X6X8XqXeXyXiXfXkXkXkXkXkX",
"kXkXkXkXhXdXuXtXwX0X7X5X>X-X*X$X@X+XoX[.'._.  j @ 1.).'.[.oX+X@X$X*X-X>X5X7X0XwXtXuXdXhXkXkXkXkX",
"kXkXkXkXkXfXiXyXeXqX8X6X,X:X-X*X$X@X+XOXXX[.  o H.].[.XXOX+X@X$X*X-X:X,X6X8XqXeXyXiXfXkXkXkXkXkX",
"kXkXkXkXkXkXfXiXyXeXwX0X7X5X,X:X-X=X*X$X#X#X  T.@X@X#X#X$X*X=X-X:X,X5X7X0XwXeXyXiXfXkXkXkXkXkXkX",
"kXkXkXkXkXkXkXkXfXdXuXtXeXqX0X8X6X5X,X>X:X:X~.;X;X;X:X:X>X,X5X6X8X0XqXeXtXuXdXfXkXkXkXkXkXkXkXkX",
"kXkXkXkXkXkXkXkXkXkXkXhXdXiXuXyXtXeXwXqXqX0X0X0X0X0X0XqXqXwXeXtXyXuXiXdXhXkXkXkXkXkXkXkXkXkXkXkX",
"kXkXkXkXkXkXkXkXkXkXkXkXkXkXkXkXkXhXfXfXdXdXdXdXdXdXdXdXfXfXhXkXkXkXkXkXkXkXkXkXkXkXkXkXkXkXkXkX",
"kXkXkXkXkXkXkXkXkXkXkXkXkXkXkXkXkXkXkXkXkXkXkXkXkXkXkXkXkXkXkXkXkXkXkXkXkXkXkXkXkXkXkXkXkXkXkXkX",
"kXkXkXkXkXkXkXkXkXkXkXkXkXkXkXkXkXkXkXkXkXkXkXkXkXkXkXkXkXkXkXkXkXkXkXkXkXkXkXkXkXkXkXkXkXkXkXkX"
};
