/* XPM */
static char * no_access_xpm[] = {
"64 64 227 2",
"  	c None",
". 	c #DDDDDD",
"+ 	c #F6F5F5",
"@ 	c #F4F4F2",
"# 	c #F4F3F1",
"$ 	c #F4F3F0",
"% 	c #F3F2F0",
"& 	c #F3F2EF",
"* 	c #F3F2EE",
"= 	c #F3F1EE",
"- 	c #F2F1EE",
"; 	c #F2F1ED",
"> 	c #F1F0ED",
", 	c #F1F0EC",
"' 	c #F1EFEC",
") 	c #F0EFEC",
"! 	c #F4F3F3",
"~ 	c #9E9E9E",
"{ 	c #E6E6E4",
"] 	c #E9F1FF",
"^ 	c #CCDAFF",
"/ 	c #CAD9FF",
"( 	c #C9D8FF",
"_ 	c #C7D6FF",
": 	c #C6D5FF",
"< 	c #C4D4FF",
"[ 	c #C3D3FF",
"} 	c #C1D2FF",
"| 	c #BFD0FF",
"1 	c #BECFFF",
"2 	c #BCCEFF",
"3 	c #BBCDFF",
"4 	c #B9CCFF",
"5 	c #B7CBFF",
"6 	c #B6CAFF",
"7 	c #B4C9FF",
"8 	c #B3C7FF",
"9 	c #B1C6FF",
"0 	c #B0C5FF",
"a 	c #AEC4FF",
"b 	c #ADC3FF",
"c 	c #ABC1FF",
"d 	c #A9C0FF",
"e 	c #A8BFFF",
"f 	c #A6BEFF",
"g 	c #A4BDFF",
"h 	c #A2BBFF",
"i 	c #A1BAFF",
"j 	c #9FB9FF",
"k 	c #9EB8FF",
"l 	c #9EB7FF",
"m 	c #9DB7FF",
"n 	c #9DB6FF",
"o 	c #9BB5FF",
"p 	c #A9BFFF",
"q 	c #FFFFFF",
"r 	c #A6A6A6",
"s 	c #E5E4E3",
"t 	c #D7E2FF",
"u 	c #A4BCFF",
"v 	c #9FB8FF",
"w 	c #9CB6FF",
"x 	c #9AB4FF",
"y 	c #97B3FF",
"z 	c #94B0FF",
"A 	c #92AFFF",
"B 	c #8FACFF",
"C 	c #8DAAFF",
"D 	c #89A8FF",
"E 	c #87A6FF",
"F 	c #84A5FF",
"G 	c #82A3FF",
"H 	c #80A1FF",
"I 	c #7D9FFF",
"J 	c #7B9DFF",
"K 	c #789BFF",
"L 	c #769AFF",
"M 	c #7398FF",
"N 	c #7196FF",
"O 	c #6E93FF",
"P 	c #6C92FF",
"Q 	c #6891FF",
"R 	c #658EFF",
"S 	c #638BFF",
"T 	c #6189FF",
"U 	c #5E87FF",
"V 	c #5B85FF",
"W 	c #7396FD",
"X 	c #FAFDFF",
"Y 	c #A6A6A5",
"Z 	c #D8E3FF",
"` 	c #ACC1FF",
" .	c #A7BEFF",
"..	c #A2BAFF",
"+.	c #9AB5FF",
"@.	c #97B2FF",
"#.	c #95B1FF",
"$.	c #000000",
"%.	c #7C9EFF",
"&.	c #7A9DFF",
"*.	c #779BFF",
"=.	c #7599FF",
"-.	c #7296FF",
";.	c #7095FF",
">.	c #6D94FF",
",.	c #6A91FF",
"'.	c #688FFF",
").	c #668DFF",
"!.	c #6089FF",
"~.	c #7799FD",
"{.	c #E5E4E2",
"].	c #FF0000",
"^.	c #E4E4E2",
"/.	c #638CFF",
"(.	c #618AFF",
"_.	c #5E88FF",
":.	c #5F88FF",
"<.	c #5B86FF",
"[.	c #E3E3E2",
"}.	c #EAF1FF",
"|.	c #D0DCFF",
"1.	c #CEDBFF",
"2.	c #CDDAFF",
"3.	c #A9BFFD",
"4.	c #A7BDFD",
"5.	c #A6BCFD",
"6.	c #A4BAFC",
"7.	c #A3BAFC",
"8.	c #A3BAFB",
"9.	c #A3B9FB",
"0.	c #A2B9FA",
"a.	c #A2B8FA",
"b.	c #A1B8F9",
"c.	c #A0B7F8",
"d.	c #9EB5F8",
"e.	c #ACBFF7",
"f.	c #FEFFFF",
"g.	c #A6A5A5",
"h.	c #E1E1E1",
"i.	c #FFFDF9",
"j.	c #FEFCF8",
"k.	c #FDFCF7",
"l.	c #FDFBF7",
"m.	c #FCFAF6",
"n.	c #FBF9F5",
"o.	c #FAF8F4",
"p.	c #F9F7F3",
"q.	c #F8F6F2",
"r.	c #F7F5F1",
"s.	c #F6F5F0",
"t.	c #F5F4EF",
"u.	c #F5F3EE",
"v.	c #A5A5A5",
"w.	c #F9F9F9",
"x.	c #F8F8F8",
"y.	c #F7F7F7",
"z.	c #F6F6F6",
"A.	c #F5F5F5",
"B.	c #F4F4F4",
"C.	c #F3F3F3",
"D.	c #F2F2F2",
"E.	c #F1F1F1",
"F.	c #F0F0F0",
"G.	c #EFEFEF",
"H.	c #EAEAEA",
"I.	c #E6E6E6",
"J.	c #ECECEC",
"K.	c #E3E3E3",
"L.	c #E7E7E7",
"M.	c #EEEEEE",
"N.	c #E0E0E0",
"O.	c #E4E4E4",
"P.	c #E5E5E5",
"Q.	c #E2E2E2",
"R.	c #FFFF00",
"S.	c #DFDFDF",
"T.	c #EDEDED",
"U.	c #E9E9E9",
"V.	c #E8E8E8",
"W.	c #DEDEDE",
"X.	c #EBEBEB",
"Y.	c #DCDCDC",
"Z.	c #FEFEFE",
"`.	c #FDFDFD",
" +	c #FBFBFB",
".+	c #FAFAFA",
"++	c #FCFCFC",
"@+	c #DBDBDB",
"#+	c #DADADA",
"$+	c #A4A4A4",
"%+	c #D9D9D9",
"&+	c #CBCBCB",
"*+	c #C3C3C3",
"=+	c #C2C2C2",
"-+	c #C1C1C1",
";+	c #C0C0C0",
">+	c #BEBEBE",
",+	c #BDBDBD",
"'+	c #BCBCBC",
")+	c #BABABA",
"!+	c #C9C9C9",
"~+	c #919191",
"{+	c #B9B9B9",
"]+	c #ADADAD",
"^+	c #5E5E5E",
"/+	c #D5D5D5",
"(+	c #6A6A6A",
"_+	c #D0D0D0",
":+	c #636363",
"<+	c #D8D8D8",
"[+	c #B7B7B7",
"}+	c #646464",
"|+	c #B5B5B5",
"1+	c #CECECE",
"2+	c #B4B4B4",
"3+	c #CCCCCC",
"4+	c #B2B2B2",
"5+	c #CACACA",
"6+	c #656565",
"7+	c #B0B0B0",
"8+	c #C8C8C8",
"9+	c #AFAFAF",
"0+	c #C6C6C6",
"a+	c #C4C4C4",
"b+	c #B3B3B3",
"c+	c #9F9F9F",
"d+	c #626262",
"                                                                                                                                ",
"      . + @ @ @ # # # # # # # # # # $ $ $ $ % $ $ % % & & & & & & & * * * = - - - ; ; ; ; ; > > > > > , ' ' , ) ! ~             ",
"      { ] ^ ^ / ( _ : < [ } | 1 2 3 4 5 6 7 8 9 0 a b c d e f g h i j k l l m m m m m m m m m n n n n n n n o p q r             ",
"      s t e p f u i v w x y z A B C D E F G H I J K L M N O P Q R S T U U U U U U U U U U U U U U U U U U U V W X Y             ",
"      s Z c ` d  .u ..v n +.@.#.$.$.$.$.$.$.$.$.$.%.&.*.=.-.;.>.,.'.).S S S S S S S S S S S S S S S S S S S !.~.X Y             ",
"      {.Z c ` d  .u ..v n $.$.$.].].].].].].].].].$.$.$.=.-.;.>.,.'.).S S S S S S S S S S S S S S S S S S S !.~.X Y             ",
"      ^.Z c ` d  .u ..v $.].].].].].].].].].].].].].].].$.-.;.>.,.'.).S S S S S S S S S S S S S S S S S S S !.~.X Y             ",
"      ^.t e p f u i $.$.].].].].].].].].].].].].].].].].].$.$.Q R /.(._._._._._._._._._._._._._._._._._.:.:.<.W X Y             ",
"      [.}.|.|.1.2.$.].].].].].].].].].].].].].].].].].].].].].$.3.4.5.6.6.7.7.8.8.9.9.0.0.0.a.a.b.b.b.b.c.c.d.e.f.g.            ",
"      h.q q q q $.].].].].].].].].].].].].].].].].].].].].].].].$.i.i.j.k.l.l.m.m.n.n.o.o.p.p.q.q.r.s.s.t.t.u.; q v.            ",
"      h.q q q q $.].].].].].].].].].].].].].].].].].].].].].].].$.w.x.x.y.y.y.z.z.A.B.B.B.C.C.D.D.E.E.F.F.G.G.H.q v.            ",
"      h.q q q $.].].].].].].].].].].].].].].].].].].].].].].].].].$.x.x.y.y.z.z.A.A.B.B.C.C.D.D.E.E.E.F.G.G.G.I.q v.            ",
"      h.q q $.].].].].].].].].].].].].].].].].].].].].].].].].].].].$.y.y.y.z.A.A.B.B.B.C.C.D.D.E.E.F.F.G.G.J.K.q v.            ",
"      h.q q $.].].].].].].].].].].].].].].].].].].].].].].].].].].].$.y.y.z.z.A.A.B.B.C.C.D.D.E.E.F.F.G.G.G.L.K.q v.            ",
"      h.q q $.].].].].].].].].].].].].].].].].].].].].].].].].].].].$.y.z.z.A.A.B.B.B.C.C.D.D.E.E.F.F.G.G.M.K.K.q v.            ",
"      N.q $.].].].].].].].].].].].].].].].].].].].].].].].].].].].].].$.z.z.A.A.B.B.C.C.D.D.E.E.F.F.G.G.G.H.h.O.q v.            ",
"      N.q $.].].].$.$.$.$.$.$.$.$.$.$.$.$.$.$.$.$.$.$.$.$.$.$.$.].].].$.z.A.A.B.B.B.C.C.D.D.E.E.F.F.G.G.M.P.Q.P.q v.            ",
"      N.q $.].].].$.R.R.R.R.R.R.R.R.R.R.R.R.R.R.R.R.R.R.R.R.R.$.].].].$.z.A.A.B.B.C.C.D.D.E.E.F.F.G.G.G.H.K.K.P.q v.            ",
"      S.q $.].].].$.R.R.R.R.R.R.R.R.R.R.R.R.R.R.R.R.R.R.R.R.R.$.].].].$.A.A.B.B.B.C.D.D.E.E.E.F.F.G.G.T.I.O.O.I.q v.            ",
"      S.q $.].].].$.R.R.R.R.R.R.R.R.R.R.R.R.R.R.R.R.R.R.R.R.R.$.].].].$.A.A.B.B.C.C.D.D.E.E.F.F.G.G.G.U.O.O.O.I.q v.            ",
"      S.q $.].].].$.R.R.R.R.R.R.R.R.R.R.R.R.R.R.R.R.R.R.R.R.R.$.].].].$.A.B.B.C.C.D.D.E.E.E.F.F.G.G.J.I.P.P.P.L.q v.            ",
"      S.q $.].].].$.R.R.R.R.R.R.R.R.R.R.R.R.R.R.R.R.R.R.R.R.R.$.].].].$.A.B.B.C.C.D.D.E.E.F.F.G.G.M.V.I.I.I.I.V.q v.            ",
"      W.q $.].].].$.R.R.R.R.R.R.R.R.R.R.R.R.R.R.R.R.R.R.R.R.R.$.].].].$.B.B.C.C.D.D.E.E.E.F.F.G.G.U.I.I.I.I.I.V.q v.            ",
"      W.q $.].].].$.$.$.$.$.$.$.$.$.$.$.$.$.$.$.$.$.$.$.$.$.$.$.].].].$.B.B.C.C.D.D.E.E.F.F.G.G.J.L.L.L.L.L.L.U.q v.            ",
"      W.q q $.].].].].].].].].].].].].].].].].].].].].].].].].].].].$.B.B.C.C.D.D.E.E.E.F.F.G.T.V.L.L.L.L.L.L.U.q v.            ",
"      W.q q $.].].].].].].].].].].].].].].].].].].].].].].].].].].].$.B.B.C.C.D.D.E.E.F.F.G.M.U.V.V.V.V.V.V.V.H.q v.            ",
"      . q q $.].].].].].].].].].].].].].].].].].].].].].].].].].].].$.B.C.C.D.D.E.E.E.F.F.M.H.U.U.U.U.U.U.U.U.X.q v.            ",
"      . q q q $.].].].].].].].].].].].].].].].].].].].].].].].].].$.B.B.C.C.D.D.E.E.F.F.M.H.U.U.U.U.U.U.U.U.U.X.q v.            ",
"      . q q q q $.].].].].].].].].].].].].].].].].].].].].].].].$.B.B.C.C.D.D.E.E.F.F.T.H.H.H.H.H.H.H.H.H.H.H.J.q v.            ",
"      Y.q q q q $.].].].].].].].].].].].].].].].].].].].].].].].$.B.B.C.C.D.D.E.E.G.T.X.H.H.H.H.H.H.H.H.H.H.H.J.q v.            ",
"      Y.q q q q q $.].].].].].].].].].].].].].].].].].].].].].$.B.B.C.C.D.D.E.E.G.J.X.X.X.X.X.X.X.X.X.X.X.X.X.T.q v.            ",
"      Y.q q q q q q $.$.].].].].].].].].].].].].].].].].].$.$.A.B.B.C.C.D.D.F.M.J.X.X.X.X.X.X.X.X.X.X.X.X.X.X.T.q v.            ",
"      Y.q q q q q q q Z.$.].].].].].].].].].].].].].].].$.A.A.B.B.C.C.D.D.G.T.J.J.J.J.J.J.J.J.J.J.J.J.J.J.J.J.M.q v.            ",
"      Y.q `.q q q q Z.Z.`.$.$.$.].].].].].].].].].$.$.$.z.A.B.B.B.C.D.F.M.J.J.J.T.T.T.T.T.T.T.T.T.T.T.T.T.T.T.M.q v.            ",
"      Y. +M.B..+Z.q q Z.`.`.++++$.$.$.$.$.$.$.$.$.y.z.z.A.A.B.B.D.F.M.T.T.T.T.T.T.T.T.T.T.T.T.T.T.T.T.T.T.T.T.M.q v.            ",
"      Y.++T.T.M.F.B.x. +++++`.++ + +.+.+w.x.x.y.y.y.z.A.A.C.E.G.M.M.M.M.M.M.M.M.M.M.M.M.M.M.M.M.M.M.M.M.M.M.M.G.q v.            ",
"      @+++T.M.M.M.T.M.G.E.C.A.z.y.x.x.x.x.y.z.A.B.C.E.F.G.M.M.M.M.M.M.M.M.M.M.M.M.M.M.M.M.M.M.M.M.M.M.M.M.M.M.G.q v.            ",
"      @+++M.G.G.G.G.G.G.G.M.M.G.G.G.G.G.G.G.G.G.G.G.G.G.G.G.G.G.G.G.G.G.G.G.G.G.G.G.G.G.G.G.G.G.G.G.G.G.G.G.G.F.q v.            ",
"      @+++M.G.G.G.G.G.G.G.G.G.G.G.G.G.G.G.G.G.G.G.G.G.G.G.G.G.G.G.G.G.G.G.G.G.G.G.G.G.G.G.G.G.G.G.G.G.G.G.G.G.F.q v.            ",
"      @+++G.F.F.F.F.F.F.F.F.F.F.F.F.F.F.F.F.F.F.F.F.F.F.F.F.F.F.F.F.F.F.F.F.F.F.F.F.F.F.F.F.F.F.F.F.F.F.F.F.F.E.q v.            ",
"      @+++G.F.F.F.F.F.F.F.F.F.F.F.F.F.F.F.F.F.F.F.F.F.F.F.F.F.F.F.F.F.F.F.F.F.F.F.F.F.F.F.F.F.F.F.F.F.F.F.F.F.E.q v.            ",
"      #+`.F.E.E.E.E.E.E.E.E.E.E.E.E.E.E.E.E.E.E.E.E.E.E.E.E.E.E.E.E.E.E.E.E.E.E.E.E.E.E.E.E.E.E.E.E.E.E.E.E.E.D.q v.            ",
"      #+Z.E.D.D.D.D.D.D.D.D.D.D.D.D.D.D.D.D.D.D.D.D.D.D.D.D.D.D.D.D.D.D.D.D.D.D.D.D.D.D.D.D.D.D.D.D.D.D.D.D.D.C.q v.            ",
"      #+Z.D.D.D.D.D.D.D.D.D.D.D.D.D.D.D.D.D.D.D.D.D.D.D.D.D.D.D.D.D.D.D.D.D.D.D.G.T.M.M.M.M.M.M.M.G.G.G.G.G.G.F.q $+            ",
"      %+Z.C.C.C.C.C.C.C.C.C.C.C.C.C.C.C.C.C.C.C.C.C.C.C.C.C.C.C.C.C.C.C.C.C.C.B.P.&+*+=+-+;+>+,+'+)+)+)+)+)+)+)+!+~+            ",
"      %+Z.C.C.C.C.C.C.C.C.C.C.C.C.C.C.C.C.C.C.C.C.C.C.C.C.C.C.C.C.C.C.C.C.C.C.B.P.{+. N.S.W.. @+#+%+%+%+%+%+%+W.]+^+            ",
"      %+Z.B.B.B.B.B.B.B.B.B.B.B.B.B.B.B.B.B.B.B.B.B.B.B.B.B.B.B.B.B.B.B.B.B.B.A.I.'+`.q q q q q q q q q q q q /+(+              ",
"      %+Z.B.B.B.B.B.B.B.B.B.B.B.B.B.B.B.B.B.B.B.B.B.B.B.B.B.B.B.B.B.B.B.B.B.B.A.I.{+x. +++++`.`.Z.Z.q q q q _+:+                ",
"      <+Z.A.A.A.A.A.A.A.A.A.A.A.A.A.A.A.A.A.A.A.A.A.A.A.A.A.A.A.A.A.A.A.A.A.A.z.L.[+y.x.w.w..+ + +++`.Z.q _+}+                  ",
"      <+q A.A.A.A.A.A.A.A.A.A.A.A.A.A.A.A.A.A.A.A.A.A.A.A.A.A.A.A.A.A.A.A.A.A.y.L.|+z.z.z.y.y.x.w.w..+q 1+}+                    ",
"      <+q z.z.z.z.z.z.z.z.z.z.z.z.z.z.z.z.z.z.z.z.z.z.z.z.z.z.z.z.z.z.z.z.z.z.x.V.2+B.C.B.B.A.A.z.y.++3+:+                      ",
"      <+q z.z.z.z.z.z.z.z.z.z.z.z.z.z.z.z.z.z.z.z.z.z.z.z.z.z.z.z.z.z.z.z.z.z.x.V.4+C.F.E.E.D.C.C.w.5+6+                        ",
"      <+q z.z.z.z.z.z.z.z.z.z.z.z.z.z.z.z.z.z.z.z.z.z.z.z.z.z.z.z.z.z.z.z.z.z.x.V.7+D.M.M.G.G.F.z.8+6+                          ",
"      <+q y.y.y.y.y.y.y.y.y.y.y.y.y.y.y.y.y.y.y.y.y.y.y.y.y.y.y.y.y.y.y.y.y.y.w.V.9+E.X.J.J.T.D.0+6+                            ",
"      <+q y.y.y.y.y.y.y.y.y.y.y.y.y.y.y.y.y.y.y.y.y.y.y.y.y.y.y.y.y.y.y.y.y.y.w.V.9+F.V.U.U.M.a+:+                              ",
"      <+q x.x.x.x.x.x.x.x.x.x.x.x.x.x.x.x.x.x.x.x.x.x.x.x.x.x.x.x.x.x.x.x.x.x..+H.9+G.P.I.X.=+}+                                ",
"      <+q x.x.x.x.x.x.x.x.x.x.x.x.x.x.x.x.x.x.x.x.x.x.x.x.x.x.x.x.x.x.x.x.x.x..+H.9+M.K.V.;+}+                                  ",
"      <+q w.w.w.w.w.w.w.w.w.w.w.w.w.w.w.w.w.w.w.w.w.w.w.w.w.w.w.w.w.w.w.w.w.w. +X.7+M.O.>+}+                                    ",
"      <+q w.w.w.w.w.w.w.w.w.w.w.w.w.w.w.w.w.w.w.w.w.w.w.w.w.w.w.w.w.w.w.w.w.w. +X.7+E.'+:+                                      ",
"      #+q Z.Z.Z.Z.Z.Z.Z.Z.Z.Z.Z.Z.Z.Z.Z.Z.Z.Z.Z.Z.Z.Z.Z.Z.Z.Z.Z.Z.Z.Z.Z.Z.Z.Z.q M.b+0+:+                                        ",
"      5+L.K.K.K.K.K.K.K.K.K.K.K.K.K.K.K.K.K.K.K.K.K.K.K.K.K.K.K.K.K.K.K.K.K.K.O.%+c+d+                                          ",
"                                                                                                                                ",
"                                                                                                                                ",
"                                                                                                                                "};
