/* XPM */
static char *options[] = {
/* columns rows colors chars-per-pixel */
"48 48 114 2",
"   c #24A04D24896B",
".  c #2AEF53498DB7",
"X  c #35A15C599444",
"o  c #39CC61D4997B",
"O  c #29465E7BADAD",
"+  c #2CBB619AAF04",
"@  c #32326565B151",
"#  c #35B66969B332",
"$  c #3A7A6D4DB4F4",
"%  c #3F3F7272B7B7",
"&  c #44CB646892FE",
"*  c #410F66359BE7",
"=  c #422169949D1E",
"-  c #4E596E009C4B",
";  c #53846FA19662",
":  c #554E72A19CBD",
">  c #5D4576C29CFD",
",  c #69B07D4B9AB3",
"<  c #4AE66F51A573",
"1  c #4BE27149A66F",
"2  c #4C0A74E9AAA3",
"3  c #53687437A3F9",
"4  c #520375F1AB72",
"5  c #59687A6BA87B",
"6  c #43EE7272B7B7",
"7  c #4CDF7C7CBCBC",
"8  c #52B27CDCB413",
"9  c #50507E7EBEBE",
"0  c #787886869393",
"q  c #7C7C8A8A9595",
"w  c #5C068686BD67",
"e  c #5AB08888BFBF",
"r  c #6C0D845AA30F",
"t  c #7CB38E66A8A8",
"y  c #6D6D8989B308",
"u  c #61618484BABA",
"i  c #53538383C0C0",
"p  c #5CDC8B35C419",
"a  c #67678D8DC5C5",
"s  c #6A6A8D8DC0C0",
"d  c #67679595CA74",
"f  c #692096BBCACA",
"g  c #79009C00C3FF",
"h  c #72C895B2C9AC",
"j  c #71FD9EFBCF43",
"k  c #7BFC9D1DCCCC",
"l  c #7923A44ED1D1",
"z  c #853585358519",
"x  c #87808A808780",
"c  c #88D18A7B8627",
"v  c #8CAD8CDA8C7D",
"b  c #921E93B18E3D",
"n  c #88888E8E9090",
"m  c #94FB954293E9",
"M  c #989897979797",
"N  c #9C469D1594FE",
"B  c #9C7B9D2B9B53",
"V  c #A2A2A2A29898",
"C  c #8D569A9FAECC",
"Z  c #865E9E3FBFBF",
"A  c #A3C9A3E0A381",
"S  c #A993AA50A410",
"D  c #ACABACDEAB70",
"F  c #B23EB33AAE4E",
"G  c #AFA3B098B18D",
"H  c #B54DB548B4C1",
"J  c #B8B9B7BFB7BF",
"K  c #B7B7B8B8B3B3",
"L  c #BB3CBB0AB63B",
"P  c #B7B7B7B7B8D9",
"I  c #B5BAB9ABBFBB",
"U  c #BE37BDBABCE7",
"Y  c #C047BF4CBE51",
"T  c #8B00A900CDFF",
"R  c #99B3ADCBC8BD",
"E  c #8484ABD6D5D5",
"W  c #8D07AD1ED438",
"Q  c #8E8EB3B3D9D9",
"!  c #9717B332D4D4",
"~  c #9A67B61CD6A3",
"^  c #9696B4B4D8D8",
"/  c #9DF3BC11DCDC",
"(  c #A221BFBFDF1E",
")  c #A322C0C0DFDF",
"_  c #BBCAC4A6D2D2",
"`  c #A5A5C26CE136",
"'  c #C27EC339C5A5",
"]  c #C7C7C8C8C3C3",
"[  c #CB20CB20C61B",
"{  c #C666C706C98C",
"}  c #C7ACC8CBCAD0",
"|  c #CC6ECC42CC9D",
" . c #CEC9D0C1CFF7",
".. c #D10DD179CF2B",
"X. c #D561D49BD3A6",
"o. c #D8D8D6D6D5D5",
"O. c #D9CBD9E6D758",
"+. c #DD2ADCE7DC4A",
"@. c #E232E28ADF2C",
"#. c #C6C2D1D8E11E",
"$. c #CB01D4C5E36A",
"%. c #D2C9DB66E7DF",
"&. c #E4CBE48FE454",
"*. c #E9E9E7E7E5E5",
"=. c #EB51E982E79A",
"-. c #EC2CEB9CEB38",
";. c #F0F0EFEFEEBB",
":. c #F29CF11BEFEF",
">. c #E3E7E8F1F0E1",
",. c #EEE9F1FBF6F1",
"<. c #F50DF49AF424",
"1. c #F8F8F8F8F7F7",
"2. c #F74EF951FB54",
"3. c #FFD9FFDAFFDA",
/* pixels */
"3.3.3.3.3.3.3.3.3.3.3.3.3.3.3.3.3.3.3.3.3.3.3.3.3.3.3.3.3.3.3.3.3.3.3.3.3.3.3.3.3.3.3.3.3.3.3.3.",
"3.3.3.3.3.3.3.3.3.3.3.3.3.3.3.3.3.3.3.3.3.3.3.3.3.3.3.3.3.3.3.3.3.3.3.3.3.3.3.3.3.3.3.3.3.3.3.3.",
"3.3.3.3.3.3.3.3.3.3.3.3.3.3.3.3.3.3.3.3.3.3.3.3.3.3.3.3.3.3.3.3.3.3.3.3.3.3.3.3.3.3.3.3.3.3.3.3.",
"3.3.3.3.3.3.3.3.3.3.3.3.3.3.3.3.3.3.3.3.3.3.3.3.3.3.3.3.3.3.3.3.3.3.3.3.3.3.3.3.3.3.3.3.3.3.3.3.",
"3.3.3.3.3.3.3.3.3.3.3.3.3.3.3.3.3.3.3.3.3.3.3.3.3.3.3.3.3.3.3.3.3.3.3.3.3.3.3.3.3.3.3.3.3.3.3.3.",
"3.3.3.3.3.3.3.3.3.3.3.3.+.D M M D O.3.3.3.3.3.3.3.3.3.3.3.3.3.3.3.3.3.3.3.3.3.3.3.3.3.3.3.3.3.3.",
"3.3.3.3.3.3.3.3.3.3.3.A m +.<.<.&.D D 2.3.3.3.3.3.3.3.3.3.3.3.3.3.3.3.3.3.3.3.3.3.3.3.3.3.3.3.3.",
"3.3.3.3.3.3.3.3.3.3.3.v J 1.-.*.-.<.U A 2.3.3.3.3.3.3.3.3.3.3.3.3.3.3.3.3.@.c +.3.3.3.3.3.3.3.3.",
"3.3.3.3.3.3.3.3.3.3.3.2.B U <.=.*.=.<.U A 2.3.3.3.3.3.3.3.3.3.3.3.3.3.3.-.b H b +.3.3.3.3.3.3.3.",
"3.3.3.3.3.3.3.3.3.3.3.3.2.B U <.=.*.=.<.Y A 3.3.3.3.3.3.3.3.3.3.3.3.3.<.m L O.] b +.3.3.3.3.3.3.",
"3.3.3.3.3.3.3.S D 3.3.3.3.2.A U <.=.*.=.<.J ' 3.3.3.3.3.3.3.3.3.3.3.1.B F @.@.+.] b +.3.3.3.3.3.",
"3.3.3.3.3.3.O.m A H 3.3.3.3.2.A U 1.=.*.=.<.M 1.3.3.3.3.3.3.3.3.3.3.X.B +.:.-.&.+.D c 3.3.3.3.3.",
"3.3.3.3.3.3.A &.1.S H 3.3.3.3.2.z *.-.*.*.<.U X.3.3.3.3.3.3.3.3.3.3.S K <.1.<.&.K m =.3.3.3.3.3.",
"3.3.3.3.3.3.x <.-.<.S J 3.3.3.3.A &.-.*.*.<.] ' 3.3.3.3.3.3.3.3.3.| b [ O.<.&.D N <.3.3.3.3.3.3.",
"3.3.3.3.3.3.v <.*.-.<.A J 3.3.<.z -.-.*.*.1.D X.3.3.3.3.3.3.3.3.| m [ X.| L B A 1.3.3.3.3.3.3.3.",
"3.3.3.3.3.3.M -.=.*.-.<.A m H z ..<.=.*.-.;.z 1.3.3.3.3.3.3.3...b [ X.] v D ] 2.3.3.3.3.3.3.3.3.",
"3.3.3.3.3.3.} U <.=.*.-.<.O.O.*.<.=.*.*.<.-.z -.3.3.3.3.3.3...b [ X.] b O.3.3.3.3.3.3.3.3.3.3.3.",
"3.3.3.3.3.3.2.m | <.=.*.-.;.-.-.=.*.*.*.*.<.+.v -.3.3.3.3...m [ X.] b O.3.3.3.3.3.3.3.3.3.3.3.3.",
"3.3.3.3.3.3.3.<.m ..<.=.*.*.*.*.*.*.*.*.*.*.<.+.v -.3.3...b [ X.] b O.3.3.3.3.3.3.3.3.3.3.3.3.3.",
"3.3.3.3.3.3.3.3.<.m ..<.=.*.*.*.-.<.*.*.&.} } =.+.v -...b U ..] b O.3.3.3.3.3.3.3.3.3.3.3.3.3.3.",
"3.3.3.3.3.3.3.3.3.<.m } <.:.:.<.<.<.<.*.} ' ' ' =.+.x v S L L b O.3.3.3.3.3.3.3.3.3.3.3.3.3.3.3.",
"3.3.3.3.3.3.3.3.3.3.<.A B ' | J z z =.<.' ' ' ' ' =.+.z N S b O.3.3.3.3.3.3.3.3.3.3.3.3.3.3.3.3.",
"3.3.3.3.3.3.3.3.3.3.3.3.*.} ' | <.+.v =.&.' ' ' ' ' =.+.z v O.3.3.3.3.3.3.3.3.3.3.3.3.3.3.3.3.3.",
"3.3.3.3.3.3.3.3.3.3.3.3.3.3.3.3.3.3.+.v =.&.' ' ' ' ' =.+.x =.3.3.3.3.3.3.3.3.3.3.3.3.3.3.3.3.3.",
"3.3.3.3.3.3.3.3.3.3.3.3.3.3.3.3.3.3.3.+.v =.&.' ' ' ' ' =.+.v =.3.3.3.3.3.3.3.3.3.3.3.3.3.3.3.3.",
"3.3.3.3.3.3.3.3.3.3.3.3.3.3.3.3.,.>.3.3.+.v =.&.' ' ' ' { =.+.v =.3.3.3.3.3.3.3.3.3.3.3.3.3.3.3.",
"3.3.3.3.3.3.3.3.3.3.3.3.3.3.%.= * * X Z  .c x =.&.' ' ' { } -.+.v =.3.3.3.3.3.3.3.3.3.3.3.3.3.3.",
"3.3.3.3.3.3.3.3.3.3.3.3.3.$.X W ) ( ~ r x N m x =.&.' { { } | -.+.v =.3.3.3.3.3.3.3.3.3.3.3.3.3.",
"3.3.3.3.3.3.3.3.3.3.3.3.$.X ! / l j j v N V N c v =.&.} } | | | -.+.v =.3.3.3.3.3.3.3.3.3.3.3.3.",
"3.3.3.3.3.3.3.3.3.3.3.$.X ! / E j d p q b N x X.+.v =.&.| | | | X.-.+.v =.3.3.3.3.3.3.3.3.3.3.3.",
"3.3.3.3.3.3.3.3.3.3.$.X ! ( E j d p i 8 0 n > R 3.+.v =.&.| | X.X.X.;.+.v =.3.3.3.3.3.3.3.3.3.3.",
"3.3.3.3.3.3.3.3.3.#.X ~ ( E j d p 2 7 % # 6 s * 3.3.+.v =.*.X.X.X.X.o.;.+.v =.3.3.3.3.3.3.3.3.3.",
"3.3.3.3.3.3.3.3.#.X ~ ) E j f e = 8 7 # + O k   3.3.3.+.v =.*.X.X.o.o.o.;.+.v =.3.3.3.3.3.3.3.3.",
"3.3.3.3.3.3.3.#.X ~ ` E j f e = 8 7 $ + O @ h X 3.3.3.3.+.v -.=.o.o.o.o.O.<.+.v =.3.3.3.3.3.3.3.",
"3.3.3.3.3.3.%.X ~ ` E j f e = 8 7 $ + O @ h 2 Z 3.3.3.3.3.+.v -.=.o.o.o.O.=.<.+.v *.3.3.3.3.3.3.",
"3.3.3.3.3.3.5 T Q l j f e = 8 7 $ + O @ h 4 3 2.3.3.3.3.3.3.+.v -.=.o.O.&.*.=.<.+.v 1.3.3.3.3.3.",
"3.3.3.3.3.3.. ` j j f e = 8 9 $ + O @ h 4 3 2.3.3.3.3.3.3.3.3.+.v -.:.*.*.m M =.<.H X.3.3.3.3.3.",
"3.3.3.3.3.3.. ( l f p = 8 9 $ + O @ h 4 3 2.3.3.3.3.3.3.3.3.3.3.+.v -.:.*.M M *.<.H O.3.3.3.3.3.",
"3.3.3.3.3.3.y g W p 2 8 9 $ + O @ h 4 3 2.3.3.3.3.3.3.3.3.3.2.1.1.X.v -.:.*.*.<.+.m 1.3.3.3.3.3.",
"3.3.3.3.3.<._ X ^ f 7 7 $ + O @ h 4 - -.2.3.3.3.3.3.3.3.1.<.<.-.=.*.{ v -.<.<.+.v +.<.<.2.3.3.3.",
"3.3.3.1.=.+.X.r = W p $ + O @ h 2 & } O.&.<.3.3.3.3.3.1.<.-.=.&.+.+.o.U v } U v X.&.-.-.<.1.3.3.",
"3.3.3.-.&.X.{ P ; o k a 6 6 h 1 & H ' | +.-.1.3.3.3.3.1.<.-.=.&.+.O.X.X.{ H J o.+.&.=.-.<.1.3.3.",
"3.3.3.<.=.+.| ' H , . < w u = & G U | o.&.<.3.3.3.3.3.3.1.<.-.-.*.&.&.+.+.+.&.&.*.-.-.<.1.3.3.3.",
"3.3.3.3.2.-.&.+.X.| I t - : C { | o.&.-.1.3.3.3.3.3.3.3.3.3.1.1.<.<.-.-.-.-.-.<.<.1.2.3.3.3.3.3.",
"3.3.3.3.3.3.3.3.1.<.-.-.*.=.-.<.1.2.3.3.3.3.3.3.3.3.3.3.3.3.3.3.3.3.3.3.3.3.3.3.3.3.3.3.3.3.3.3.",
"3.3.3.3.3.3.3.3.3.3.3.3.3.3.3.3.3.3.3.3.3.3.3.3.3.3.3.3.3.3.3.3.3.3.3.3.3.3.3.3.3.3.3.3.3.3.3.3.",
"3.3.3.3.3.3.3.3.3.3.3.3.3.3.3.3.3.3.3.3.3.3.3.3.3.3.3.3.3.3.3.3.3.3.3.3.3.3.3.3.3.3.3.3.3.3.3.3.",
"3.3.3.3.3.3.3.3.3.3.3.3.3.3.3.3.3.3.3.3.3.3.3.3.3.3.3.3.3.3.3.3.3.3.3.3.3.3.3.3.3.3.3.3.3.3.3.3."
};
