/* XPM */
static char *pageremove[] = {
/* columns rows colors chars-per-pixel */
"16 18 2 1",
"  c #FF3801",
". c None",
/* pixels */
"  ............ .",
"  ...........  .",
".  .........   .",
"..  .......   ..",
"...  .....   ...",
"...   ....  ....",
"....   ..  .....",
".....     ......",
"......   .......",
"......    ......",
".....     ......",
"....   ..  .....",
"...   ....  ....",
"...  ......  ...",
"..  .......   ..",
".  .........   .",
"  ...........   ",
" ............. ."
};
