/* XPM */
static char *pagekeep[] = {
/* columns rows colors chars-per-pixel */
"16 18 2 1",
"  c #07FF01",
". c None",
/* pixels */
"................",
"................",
"............   .",
"...........    .",
"...........    .",
"...........   ..",
"..........    ..",
"..........   ...",
".........    ...",
".........   ....",
".    ...    ....",
".     ..    ....",
"..         .....",
"...        .....",
"....      ......",
".....     ......",
"......   .......",
".......  ......."
};
