/* XPM */
static char * pages_xpm[] = {
"48 48 101 2",
"  	c None",
". 	c #FFFFFF",
"+ 	c #E7E7E7",
"@ 	c #B1B1B1",
"# 	c #ACACAC",
"$ 	c #ADADAD",
"% 	c #A9A9A9",
"& 	c #A8A8A8",
"* 	c #A7A7A7",
"= 	c #A4A4A4",
"- 	c #A3A3A3",
"; 	c #A2A2A2",
"> 	c #A1A1A1",
", 	c #969696",
"' 	c #B9B9B9",
") 	c #EDEDED",
"! 	c #AFAFAF",
"~ 	c #EFEFEF",
"{ 	c #FEFEFE",
"] 	c #FBFBFB",
"^ 	c #FAFAFA",
"/ 	c #F9F9F9",
"( 	c #F8F8F8",
"_ 	c #9C9C9C",
": 	c #A6A6A6",
"< 	c #9B9B9B",
"[ 	c #C3C3C3",
"} 	c #FDFDFD",
"| 	c #E5E5E5",
"1 	c #DFDFDF",
"2 	c #E0E0E0",
"3 	c #E1E1E1",
"4 	c #E2E2E2",
"5 	c #E4E4E4",
"6 	c #BCBCBC",
"7 	c #C4C4C4",
"8 	c #C5C5C5",
"9 	c #F7F7F7",
"0 	c #E3E3E3",
"a 	c #DEDEDE",
"b 	c #C9C9C9",
"c 	c #D9D9D9",
"d 	c #D1D1D1",
"e 	c #C0C0C0",
"f 	c #E9E9E9",
"g 	c #CFCFCF",
"h 	c #CBCBCB",
"i 	c #B0B0B0",
"j 	c #E6E6E6",
"k 	c #BEBEBE",
"l 	c #D2D2D2",
"m 	c #B4B4B4",
"n 	c #BABABA",
"o 	c #BBBBBB",
"p 	c #F6F6F6",
"q 	c #D5D5D5",
"r 	c #CECECE",
"s 	c #CACACA",
"t 	c #CDCDCD",
"u 	c #F2F2F2",
"v 	c #D8D8D8",
"w 	c #CCCCCC",
"x 	c #9A9A9A",
"y 	c #BFBFBF",
"z 	c #E8E8E8",
"A 	c #BDBDBD",
"B 	c #EEEEEE",
"C 	c #D0D0D0",
"D 	c #A0A0A0",
"E 	c #9E9E9E",
"F 	c #9D9D9D",
"G 	c #989898",
"H 	c #979797",
"I 	c #959595",
"J 	c #8F8F8F",
"K 	c #C1C1C1",
"L 	c #C6C6C6",
"M 	c #B2B2B2",
"N 	c #8C8C8C",
"O 	c #8D8D8D",
"P 	c #EAEAEA",
"Q 	c #D3D3D3",
"R 	c #DADADA",
"S 	c #C2C2C2",
"T 	c #EBEBEB",
"U 	c #A5A5A5",
"V 	c #ECECEC",
"W 	c #8B8B8B",
"X 	c #F0F0F0",
"Y 	c #F1F1F1",
"Z 	c #8A8A8A",
"` 	c #F5F5F5",
" .	c #F4F4F4",
"..	c #F3F3F3",
"+.	c #C7C7C7",
"@.	c #999999",
"#.	c #939393",
"$.	c #8E8E8E",
"%.	c #909090",
"&.	c #D7D7D7",
"*.	c #9F9F9F",
". . . . . . . . . . . . . . . . . . . . . . . . . . . . . . . . . . . . . . . . . . . . . . . . ",
". . . . . . . . . . . . . . . . . . . . . . . . . . . . . . . . . . . . . . . . . . . . . . . . ",
". . . . . . . . . . . . . . . . . . . . . . . . . . . . . . . . . . . . . . . . . . . . . . . . ",
". . . . . + @ # $ $ $ $ $ $ % & * = - ; > , ' ) . . . . . . . . . . . . . . . . . . . . . . . . ",
". . . . . ! ~ { ] ] ] ] ] ] ^ / / ( ( ( ( _ : < [ } . . . . . . . . . . . . . . . . . . . . . . ",
". . . . . % ( | 1 2 2 3 3 4 5 5 5 | | | | 6 7 8 % ! ( . . . . . . . . . . . . . . . . . . . . . ",
". . . . . % 9 0 a a 1 1 2 2 4 0 0 5 5 5 5 b 8 c b ! : / . . . . . . . . . . . . . . . . . . . . ",
". . . . . & 9 5 a 1 1 2 2 3 0 0 5 | | | | d e f g h i & ] . . . . . . . . . . . . . . . . . . . ",
". . . . . & 9 5 1 1 2 2 3 3 5 5 5 | | j j d k 9 l g h # m . . . . . . . . . . . . . . . . . . . ",
". . . . . & 9 | 2 2 k ' ' n o o o h j j j d 7 p q l r s = s . . . . . . . . . . . . . . . . . . ",
". . . . . & 9 | 2 3 3 4 4 4 | | j + + + + t l u v q d w 8 x f . . . . . . . . . . . . . . . . . ",
". . . . . & 9 | 3 3 y n n n 6 6 6 w z z z A + . . . B C s n D { . . . . . . . . . . . . . . . . ",
". . . . . * p | 3 4 4 0 0 5 j + + z z z z E F D E G , H I F J K . . . . . . . . . . . . . . . . ",
". . . . . * p j 4 4 e n o o 6 6 6 r f f f 0 C L o M * F F & F N m O . . . . . . . . . . . . . . ",
". . . . . : p j 4 0 0 5 5 | + z z f P P P P v g r Q R 0 z P ( O . O . . . . . . . . . . . . . . ",
". . . . . : p + 4 0 S A k k y y e g P P P P | f P P P P P T ( O . O m N . . . . . . . . . . . . ",
". . . . . U p + 0 5 0 4 4 0 j j j P T T T T T T T T T T P T ( O c O . N . . . . . . . . . . . . ",
". . . . . = p z 0 5 K o 6 6 A k k g T V V V V V V V T T T V ( O c O . N m N . . . . . . . . . . ",
". . . . . = p z 5 5 | j j + P P P V V V V V V V V V V V V V ( N c O c O . N . . . . . . . . . . ",
". . . . . - p z 5 | K 6 6 6 k k k e e e e e e e e e K T V ) ( N c O c O . N m N . . . . . . . . ",
". . . . . - p z | | j + + z T T V ) ) B B B B B B B B ) ) B ( N c N c O c O . N . . . . . . . . ",
". . . . . ; 9 z | j K 6 A A k y y e e e e K K K K e S V B B 9 N c N c O c O . N . . . . . . . . ",
". . . . . > 9 f | j + + z f V V ) ~ ~ ~ ~ ~ ~ ~ ~ ~ ~ ~ B ~ 9 W c N c N c O c O . . . . . . . . ",
". . . . . > 9 f j j S A A A y e e K K K K K K K K K [ ) ~ X 9 W c N c N c O c O . . . . . . . . ",
". . . . . D 9 f j + + z f f ) ) B X X X Y Y Y Y Y X X X X X 9 W c W c N c N c O . . . . . . . . ",
". . . . . D p f j + S A A k e e e S S S S S S S S S [ ~ X Y 9 Z c W c N c N c O . . . . . . . . ",
". . . . . _ ` P z f f P T T X Y Y ` ` p p p p p p p ` `  . .9 Z c W c W c N c N . . . . . . . . ",
". . . . . _ ` P z f 7 k k y K S S 7 7 7 8 8 8 8 8 7 L ..` ` 9 Z c Z c W c N c N . . . . . . . . ",
". . . . . < ` P z f P P T V X Y u ` p 9 9 ( ( ( 9 9 p p ` ` 9 Z c Z c W c W c N . . . . . . . . ",
". . . . . x ` P z f 7 k k y K S S 7 7 8 8 8 L 8 8 8 +. .` ` 9 Z c Z c Z c W c N . . . . . . . . ",
". . . . . x  .P z f P P T V X Y u p 9 9 ( / / / ( 9 9 p ` ` 9 Z c Z c Z c W c W . . . . . . . . ",
". . . . . @. .P z f 7 k k y K S S p 9 9 ( / ^ / ( ( 9 p ` ` 9 Z c Z c Z c Z c W . . . . . . . . ",
". . . . . @. .P z f P P T V X Y u p p 9 ( ( / / ( 9 9 p ` ` 9 Z c Z c Z c Z c W . . . . . . . . ",
". . . . } G  .P z f P P T V X Y u ` p 9 9 ( ( ( ( 9 p p ` ` 9 Z c Z c Z c Z c Z . . . . . . . . ",
". . . . ~ I  .P z f P P T V X Y u ` p p 9 9 9 9 9 9 p ` ` ` 9 Z c Z c Z c Z c Z . . . . . . . . ",
". . . . | I  .P z f f P T T X Y Y ` ` p p 9 9 9 p p ` `  .` 9 Z c Z c Z c Z c Z . . . . . . . . ",
". . . . 4 #...P z f f P T T X X Y  .` ` p p p p p ` `  . . .9 Z c Z c Z c Z c Z . . . . . . . . ",
". . . . | , u ( ( ( ( ( ( ( ( ( ( ( ( ( ( ( ( ( ( ( ( ( ( ( ( $.c Z c Z c Z c Z . . . . . . . . ",
". . . . ~ k J J J J J J J J J %.%.%.%.%.%.%.%.%.%.%.%.%.%.%.$.n 9 Z c Z c Z c Z . . . . . . . . ",
". . . . } X 0 c c &.&.&.&.&.&.&.&.&.&.&.&.&.&.&.&.&.&.&.c c 4 X ( $.c Z c Z c Z . . . . . . . . ",
". . . . . . ~ k J J J J J J J J J %.%.%.%.%.%.%.%.%.%.%.%.%.%.%.$.n 9 Z c Z c Z . . . . . . . . ",
". . . . . . } X 0 c c &.&.&.&.&.&.&.&.&.&.&.&.&.&.&.&.&.&.&.c c 4 X ( $.c Z c Z . . . . . . . . ",
". . . . . . . . ~ k J J J J J J J J J %.%.%.%.%.%.%.%.%.%.%.%.%.%.%.$.n 9 Z c Z . . . . . . . . ",
". . . . . . . . } X 0 c c &.&.&.&.&.&.&.&.&.&.&.&.&.&.&.&.&.&.&.c c 4 X ( $.c Z . . . . . . . . ",
". . . . . . . . . . ~ k J J J J J J J J J %.%.%.%.%.%.%.%.%.%.%.%.%.%.%.$.n ~ Z . . . . . . . . ",
". . . . . . . . . . } X 0 c c &.&.&.&.&.&.&.&.&.&.&.&.&.&.&.&.&.&.&.c c 4 X } $.. . . . . . . . ",
". . . . . . . . . . . . . k *.*.*.*.*.*.*.*.*.*.*.*.*.*.*.*.*.*.*.*.*.*.*.*.*.n . . . . . . . . ",
". . . . . . . . . . . . . . . . . . . . . . . . . . . . . . . . . . . . . . . . . . . . . . . . "};
