/* XPM */
static const char *paperman_logo_xpm[] = {
/* columns rows colors chars-per-pixel */
"48 48 185 2 ",
"   c #E3B51A",
".  c #FFC20E",
"X  c #FAC31A",
"o  c #FFC518",
"O  c #FFC519",
"+  c #FFC51A",
"@  c #FFC61E",
"#  c #FFC71E",
"$  c #FFC81D",
"%  c #FFC91F",
"&  c #FFC722",
"*  c #FFC920",
"=  c #FFC825",
"-  c #FFC826",
";  c #FFC928",
":  c #FFCA2B",
">  c #FFCC2C",
",  c #FFCC36",
"<  c #FFCF38",
"1  c #93965A",
"2  c #B8AC62",
"3  c #FFD044",
"4  c #FFD559",
"5  c #FFD866",
"6  c #FFD96A",
"7  c #FFDA6B",
"8  c #FFDC75",
"9  c #FFDF75",
"0  c #FFDF76",
"q  c #FFDD7A",
"w  c #1161BE",
"e  c #1062BE",
"r  c #1162BE",
"t  c #1162BF",
"y  c #1262BE",
"u  c #1362BE",
"i  c #1363BE",
"p  c #1263BF",
"a  c #1363BF",
"s  c #1563BD",
"d  c #1463BE",
"f  c #1463BF",
"g  c #1364BF",
"h  c #1464BF",
"j  c #1565BF",
"k  c #1D67B9",
"l  c #1E68B8",
"z  c #2A6DAF",
"x  c #437598",
"c  c #1162C0",
"v  c #1163C2",
"b  c #1463C1",
"n  c #1364C0",
"m  c #1364C1",
"M  c #1464C0",
"N  c #1564C0",
"B  c #1465C0",
"V  c #1565C0",
"C  c #216DC3",
"Z  c #256FC4",
"A  c #2B74C6",
"S  c #2B75C8",
"D  c #2C75C8",
"F  c #2D76C8",
"G  c #3378C8",
"H  c #387CC9",
"J  c #5C8187",
"K  c #4B84C9",
"L  c #4D89CF",
"P  c #5389CB",
"I  c #5690D1",
"U  c #5891D2",
"Y  c #5E95D3",
"T  c #679BD6",
"R  c #70A0D8",
"E  c #70A1D8",
"W  c #7CA6D9",
"Q  c #A2B3B0",
"!  c #A2B4B4",
"~  c #E1D399",
"^  c #FFE187",
"/  c #FFE28D",
"(  c #FFE392",
")  c #FFE590",
"_  c #FFE494",
"`  c #FFE495",
"'  c #FFE69C",
"]  c #FFE69D",
"[  c #FFE69E",
"{  c #FFE7A0",
"}  c #FFE8A2",
"|  c #FFE8A6",
" . c #FFECB3",
".. c #FFEDB6",
"X. c #FFEDB7",
"o. c #83AAD9",
"O. c #89AEDB",
"+. c #99B8DF",
"@. c #A2B9C9",
"#. c #A2BBD0",
"$. c #A1BCDA",
"%. c #8EB5E0",
"&. c #90BFEC",
"*. c #91BFEC",
"=. c #A2BFE2",
"-. c #A2BFE3",
";. c #93C0EC",
":. c #9DC5EC",
">. c #A5C0E0",
",. c #A2C0E4",
"<. c #A2C0E5",
"1. c #ADC9E9",
"2. c #A2D3FA",
"3. c #A3D3FA",
"4. c #A4D3FA",
"5. c #A9D6FA",
"6. c #AED8FA",
"7. c #B9DDFA",
"8. c #BADDFA",
"9. c #BADEFB",
"0. c #BBDEFB",
"q. c #BCDEFB",
"w. c #BCDFFB",
"e. c #BEE0FB",
"r. c #FFF2CC",
"t. c #FFF3D0",
"y. c #FFF5D9",
"u. c #FFF6D9",
"i. c #FFF6DA",
"p. c #FFF6DB",
"a. c #FFF6DC",
"s. c #FFF6DD",
"d. c #FFF7DD",
"f. c #FFF7DF",
"g. c #D0DFF2",
"h. c #C3E1FB",
"j. c #C6E3FB",
"k. c #C8E4FB",
"l. c #CAE5FC",
"z. c #CCE6FC",
"x. c #FCF6E1",
"c. c #FFF7E1",
"v. c #FFFAE3",
"b. c #FFF8E5",
"n. c #FFFAEC",
"m. c #E9EFF7",
"M. c #E8F4FD",
"N. c #E9F4FD",
"B. c #EAF5FD",
"V. c #EBF5FD",
"C. c #E8F4FE",
"Z. c #EAF5FE",
"A. c #EBF6FF",
"S. c #EFF8FF",
"D. c #FFFBF2",
"F. c #FFFCF3",
"G. c #FFFCF4",
"H. c #F1F8FE",
"J. c #F2F8FE",
"K. c #F2F9FE",
"L. c #F3F9FE",
"P. c #F2F9FF",
"I. c #F6F9FC",
"U. c #F6FAFD",
"Y. c #F4F9FE",
"T. c #F4FAFE",
"R. c #F7FBFE",
"E. c #FFFDFA",
"W. c #FFFEFA",
"Q. c #F9FBFD",
"!. c #FAFBFD",
"~. c #F8FBFE",
"^. c #FAFCFE",
"/. c #FAFDFE",
"(. c #FBFDFE",
"). c #FAFDFF",
"_. c #FFFEFD",
"`. c #FFFFFD",
"'. c #FCFDFE",
"]. c #FDFDFE",
"[. c #FDFEFE",
"{. c #FEFEFE",
"}. c #FFFEFE",
"|. c white",
" X c None",
/* pixels */
" X X X X X XV V V V V V V V V V V V V V V V V V V V V V V V V V V V V V V V V V V V  X X X X X X",
" X X X XV V V V V V V V V V V V V V V V V V V V V V V V V V V V V V V V V V V V V V V V  X X X X",
" X X Xj V V V V V V V V V V V V V V V V V V V V V V V V V V V V V V V V V V V V V V V V V  X X X",
" X XV V V V V V V V V V V V V V V V V V V V V V V V V V V V V V V V V V V V V V V V V V V V  X X",
" XV V V V V V V V V V V V V V V V V V V V V V V V V V V V V V V V V V V V V V V V V V V V V V  X",
" XV V V V V V V V V V V j r r r r r r r r r r r r r r r g V V V V V V V V V V V V V V V V V V  X",
"V V V V V V V V V V V g C L U U U U U U U U U U U U U I A r V V V V V V V V V V V V V V V V V V ",
"V V V V V V V V V V g Z 1.I.!.!.!.!.!.!.!.!.!.!.!.!.!.I.:.S r V V V V V V V V V V V V V V V V V ",
"V V V V V V V V V V r Y !.|.|.|.|.|.|.|.|.|.|.|.|.|.|.^.l.&.D r V V V V V V V V V V V V V V V V ",
"V V V V V V V V V V r R |.|.|.|.|.|.|.|.|.|.|.|.|.|.|.^.k.q.&.D r V V V V V V V V V V V V V V V ",
"V V V V V V V V V V r R |.|.|.|.|.|.|.|.|.|.|.|.|.|.|.^.k.0.q.&.D r V V V V V V V V V V V V V V ",
"V V V V V V V V V V r R |.|.|.|.|.|.|.|.|.|.|.|.|.|.|.^.k.0.0.q.&.D r V V V V V V V V V V V V V ",
"V V V V V V V V V V r R |.|.|.|.|.|.|.|.|.|.|.|.|.|.|.|.z.0.0.0.q.&.D r V V V V V V V V V V V V ",
"V V V V V V V V V V r R |.|.|.|.|.|.|.|.|.|.|.|.|.|.|.|.N.h.q.q.q.e.;.D g V V V V V V V V V V V ",
"V V V V V V V V V V r R |.|.|.|.|.|.|.|.|.|.|.|.|.|.|.|.|.I.N.N.N.N.S.%.r V V V V V V V V V V V ",
"V V V V V V V V V V r R |.|.|.|.|.|.|.|.|.|.|.|.|.|.|.|.|.|.|.|.|.|.|.-.d V V V V V V V V V V V ",
"V V V V V V V V V V r R |.|.|.|.|.|.|.|.|.|.|.|.|.|.|.|.|.|.|.|.|.|.|.-.d V V V V V V V V V V V ",
"V V V V V V V V V V r R |.|.|.|.K.K.K.K.K.K.K.K.K.K.K.K.K.K.I.|.|.|.|.-.d V V V V V V V V V V V ",
"V V V V V V V V V V r R |.|.|.N.5.3.4.4.4.4.4.4.4.4.4.4.4.3.j.|.|.|.|.-.d V V V V V V V V V V V ",
"V V V V V V V V V V r R |.|.|.^.N.N.N.N.N.N.N.N.N.N.N.N.N.N.K.|.|.|.|.-.d V V V V V V V V V V V ",
"V V V V V V V V V V r R |.|.|.|.K.K.K.K.K.K.K.K.K.K.K.!.|.|.|.|.|.|.|.-.d V V V V V V V V V V V ",
"V V V V V V V V V V r R |.|.|.N.5.3.4.4.4.4.4.4.4.4.3.j.|.|.|.|.|.|.|.-.d V V V V V V V V V V V ",
"V V V V V V V V V V r R |.|.|.^.N.N.N.N.N.N.N.N.N.N.N.K.|.|.|.|.|.|.|.-.d V V V V V V V V V V V ",
"V V V V V V V V V V r R |.|.|.|.K.K.K.K.K.K.K.K.K.K.K.K.K.|.|.|.|.|.|.-.d V V V V V V V V V V V ",
"V V V V V V V V V V r R |.|.|.N.5.3.4.4.4.4.4.4.4.4.4.3.5.N.|.|.|.|.|.-.d V V V V V V V V V V V ",
"V V V V V V V V V V r R |.|.|.^.N.N.N.N.N.N.N.N.N.N.N.N.N.^.|.|.|.|.|.-.d V V V V V V V V V V V ",
"V V V V V V V V V V r R |.|.|.|.K.K.K.K.K.K.K.K.I.|.|.W.y.X.X.y.W.|.|.-.d V V V V V V V V V V V ",
"V V V V V V V V V V r R |.|.|.N.5.3.4.4.4.4.4.3.6.K.f.6 & @ @ & 6 f.|.-.d V V V V V V V V V V V ",
"V V V V V V V V V V r R |.|.|.^.N.N.N.N.N.N.N.N.N.x.3 ; ^ X.X.^ ; 3 v.<.d V V V V V V V V V V V ",
"V V V V V V V V V V r R |.|.|.|.|.|.|.|.|.|.|.|.|.8 =  .f.f.f.f. .= 8 -.d V V V V V V V V V V V ",
"V V V V V V V V V V r R |.|.|.|.|.|.|.|.|.|.|.|.b.; q f.y.y.y.y.f.q > @.d V V V V V V V V V V V ",
"V V V V V V V V V V r R |.|.|.|.|.|.|.|.|.|.|.|.r.@ | f.y.y.y.y.f.| $ Q b V V V V V V V V V V V ",
"V V V V V V V V V V r R |.|.|.|.|.|.|.|.|.|.|.|.t.@ { f.y.y.y.y.f.{ * ! b V V V V V V V V V V V ",
"V V V V V V V V V V r R |.|.|.|.|.|.|.|.|.|.|.|.n., 5 y.y.y.y.y.y.5 < #.d V V V V V V V V V V V ",
"V V V V V V V V V V r R |.|.|.|.|.|.|.|.|.|.|.|.|.( + _ y.f.f.y._ + ) <.d V V V V V V V V V V V ",
"V V V V V V V V V V r R |.|.|.|.|.|.|.|.|.|.|.|.|.D.6 + 4 / / 4 + . 8 $.r V V V V V V V V V V V ",
"V V V V V V V V V V r R |.|.|.|.|.|.|.|.|.|.|.|.|.|.F.] 3 = = 3 ] ] $ 2 k m j V V V V V V V V V ",
"V V V V V V V V V V r R |.|.|.|.|.|.|.|.|.|.|.|.|.|.|.|.G.x.x.G.|.|.} X 1 l V V V V V V V V V V ",
"V V V V V V V V V V r R |.|.|.|.|.|.|.|.|.|.|.|.|.|.|.|.|.|.|.|.|.|.|.~   J v V V V V V V V V V ",
"V V V V V V V V V V r R |.|.|.|.|.|.|.|.|.|.|.|.|.|.|.|.|.|.|.|.|.|.|.>.x z m V V V V V V V V V ",
"V V V V V V V V V V r R |.|.|.|.|.|.|.|.|.|.|.|.|.|.|.|.|.|.|.|.|.|.|.-.v m j V V V V V V V V V ",
"V V V V V V V V V V r T |.|.|.|.|.|.|.|.|.|.|.|.|.|.|.|.|.|.|.|.|.|.|.+.r V V V V V V V V V V V ",
" XV V V V V V V V V r G g.|.|.|.|.|.|.|.|.|.|.|.|.|.|.|.|.|.|.|.|.|.m.P r V V V V V V V V V V  X",
" XV V V V V V V V V V g H W O.O.O.O.O.O.O.O.O.O.O.O.O.O.O.O.O.O.O.o.K d V V V V V V V V V V V  X",
" X XV V V V V V V V V V r r r r r r r r r r r r r r r r r r r r r r r V V V V V V V V V V V  X X",
" X X XV V V V V V V V V V V V V V V V V V V V V V V V V V V V V V V V V V V V V V V V V V  X X X",
" X X X XV V V V V V V V V V V V V V V V V V V V V V V V V V V V V V V V V V V V V V V V  X X X X",
" X X X X X Xj V V V V V V V V V V V V V V V V V V V V V V V V V V V V V V V V V V V  X X X X X X"
};
