/* XPM */
static char *pnext[] = {
/* columns rows colors chars-per-pixel */
"48 48 212 2",
"   c #265896",
".  c #265897",
"X  c #275897",
"o  c #2F5992",
"O  c #285A97",
"+  c #2C5B97",
"@  c #2E5B96",
"#  c #275998",
"$  c #285998",
"%  c #2C5B98",
"&  c #2C5B99",
"*  c #2D5C98",
"=  c #2C5C99",
"-  c #315992",
";  c #3E6192",
":  c #36659F",
">  c #3C6498",
",  c #3A649D",
"<  c #39659F",
"1  c #3E689F",
"2  c #2F61A0",
"3  c #3061A0",
"4  c #3062A1",
"5  c #3162A1",
"6  c #3163A2",
"7  c #3263A2",
"8  c #3363A2",
"9  c #3364A3",
"0  c #3765A0",
"q  c #3766A0",
"w  c #3465A3",
"e  c #3867A1",
"r  c #3866A2",
"t  c #3868A0",
"y  c #3C6AA1",
"u  c #466998",
"i  c #466899",
"p  c #466A99",
"a  c #476A99",
"s  c #446C9C",
"d  c #456C9F",
"f  c #496D9B",
"g  c #4D6E9A",
"h  c #50709B",
"j  c #5E799F",
"k  c #4069A0",
"l  c #416CA0",
"z  c #476FA4",
"x  c #486FA0",
"c  c #4A6EA0",
"v  c #4B73A6",
"b  c #4E72A4",
"n  c #4070AA",
"m  c #4070AB",
"M  c #4171AB",
"N  c #4272AC",
"B  c #4373AD",
"V  c #4373AE",
"C  c #4473AC",
"Z  c #4575AD",
"A  c #4675AD",
"S  c #4574AE",
"D  c #4675AE",
"F  c #4775AF",
"G  c #4C74A8",
"H  c #4976AF",
"J  c #5C7BA7",
"K  c #4E7AB0",
"L  c #537CB0",
"P  c #637FA5",
"I  c #6981A3",
"U  c #6282AE",
"Y  c #6283AF",
"T  c #768BA6",
"R  c #748DB1",
"E  c #728EB5",
"W  c #7891B4",
"Q  c #7892B5",
"!  c #7993B6",
"~  c #7A93B7",
"^  c gray54",
"/  c #8B8B8B",
"(  c gray55",
")  c #8D8D8D",
"_  c #8E8E8E",
"`  c gray56",
"'  c #909090",
"]  c #939393",
"[  c #959595",
"{  c gray59",
"}  c #979797",
"|  c #989898",
" . c gray60",
".. c #9A9A9A",
"X. c #9B9B9B",
"o. c gray61",
"O. c #9D9D9D",
"+. c gray62",
"@. c #9F9F9F",
"#. c #859CBC",
"$. c #A0A0A0",
"%. c gray63",
"&. c #A2A2A2",
"*. c gray64",
"=. c #A4A4A4",
"-. c #A5A5A5",
";. c gray65",
":. c #A7A7A7",
">. c gray66",
",. c #A9A9A9",
"<. c #ACACAC",
"1. c gray68",
"2. c #AFAFAF",
"3. c #A2AAB5",
"4. c #A4ABB5",
"5. c #ACB2BB",
"6. c gray69",
"7. c #B1B1B1",
"8. c #B2B2B2",
"9. c #B4B4B4",
"0. c gray71",
"q. c #B7B7B7",
"w. c #B3B6BB",
"e. c #B3B7BC",
"r. c #B5B8BD",
"t. c #B5B9BE",
"y. c gray72",
"u. c #B9B9B9",
"i. c gray73",
"p. c #BBBBBB",
"a. c #BCBCBC",
"s. c gray74",
"d. c #BCBDBE",
"f. c gray",
"g. c gray75",
"h. c #AEB8C6",
"j. c #A0B1CA",
"k. c #ABB9CC",
"l. c #ADBACC",
"z. c #BFC9DA",
"x. c #C0C0C0",
"c. c #C1C1C1",
"v. c #C1C2C3",
"b. c gray76",
"n. c #C3C3C3",
"m. c gray77",
"M. c #C5C5C5",
"N. c #C6C6C6",
"B. c gray78",
"V. c #C2C8CF",
"C. c gray79",
"Z. c #CACACA",
"A. c #CBCBCB",
"S. c gray80",
"D. c #CDCDCD",
"F. c #CECECE",
"G. c gray81",
"H. c #D0D0D0",
"J. c gray82",
"K. c #D2D2D2",
"L. c LightGray",
"P. c #D5D5D5",
"I. c #D7D7D7",
"U. c #D5D9DE",
"Y. c #D8D8D8",
"T. c gray85",
"R. c #DADADA",
"E. c gray86",
"W. c gainsboro",
"Q. c #DDDDDD",
"!. c #DDDDDE",
"~. c gray87",
"^. c #DFDFDF",
"/. c #D7DBE0",
"(. c #D6DBE3",
"). c #D8DCE1",
"_. c #DFE1E4",
"`. c gray88",
"'. c #E1E1E1",
"]. c #E2E2E2",
"[. c gray89",
"{. c #E4E4E4",
"}. c gray90",
"|. c #E4E5E7",
" X c #E6E6E6",
".X c #E7E7E7",
"XX c #E7E9EB",
"oX c gray91",
"OX c #E9E9E9",
"+X c #EAEAEA",
"@X c gray92",
"#X c #E8EBEF",
"$X c #ECECEC",
"%X c gray93",
"&X c #EEEEEE",
"*X c #EFEFEF",
"=X c gray94",
"-X c #F1F1F1",
";X c gray95",
":X c #F3F3F3",
">X c #F4F4F4",
",X c gray96",
"<X c #F5F5F7",
"1X c #F6F6F6",
"2X c gray97",
"3X c #F8F8F8",
"4X c #F9F9F9",
"5X c gray98",
"6X c #FBFBFB",
"7X c #FDFDFD",
"8X c #FEFEFE",
"9X c gray100",
/* pixels */
"9X9X9X9X9X9X9X9X9X9X9X9X9X9X9X9X9X9X9X9X9X9X9X9X9X9X9X9X9X9X9X9X9X9X9X9X9X9X9X9X9X9X9X9X9X9X9X9X",
"9X9X9X9X9X9X9X9X9X9X9X9X9X9X9X9X9X9X9X9X9X9X9X9X9X9X9X9X9X9X9X9X9X9X9X9X9X9X9X9X9X9X9X9X9X9X9X9X",
"9X9X9X9X9X9X9X9X9X9X9X9X9X9X9X9X9X9X9X9X9X9X9X9X9X9X9X9X9X9X9X9X9X9X9X9X9X9X9X9X9X9X9X9X9X9X9X9X",
"9X9X9X9X9X.X7.<.1.1.1.1.1.1.,.>.:.=.*.&.%.{ u.%X9X9X9X9X9X9X9X9X9X9X9X9X9X9X9X9X9X9X9X9X9X9X9X9X",
"9X9X9X9X9X2.*X8X6X6X6X6X6X6X5X4X4X3X3X3X3Xo.;.X.n.7X9X9X9X9X9X9X9X9X9X9X9X9X9X9X9X9X9X9X9X9X9X9X",
"9X9X9X9X9X,.3X}.^.`.`.'.'.].{.{.{.}.}.}.}.a.m.M.,.2.3X9X9X9X9X9X9X9X9X9X9X9X9X9X9X9X9X9X9X9X9X9X",
"9X9X9X9X9X,.2X[.~.~.^.^.`.`.].[.[.{.{.{.{.C.M.T.C.2.;.4X9X9X9X9X9X9X9X9X9X9X9X9X9X9X9X9X9X9X9X9X",
"9X9X9X9X9X>.2X{.~.^.^.`.`.'.[.[.{.}.}.}.}.J.x.OXG.A.6.>.6X9X9X9X9X9X9X9X9X9X9X9X9X9X9X9X9X9X9X9X",
"9X9X9X9X9X>.2X{.^.^.`.`.'.'.{.{.{.}.}. X XJ.f.2XK.G.A.<.9.9X9X9X9X9X9X9X9X9X9X9X9X9X9X9X9X9X9X9X",
"9X9X9X9X9X>.2X}.`.`.f.u.u.i.p.p.p.A. X X XJ.m.1XP.K.F.Z.=.Z.9X9X9X9X9X9X9X9X9X9X9X9X9X9X9X9X9X9X",
"9X9X9X9X9X>.2X}.`.'.'.].].].}.}. X.X.X.X.XD.K.;XY.P.J.S.M...OX9X9X9X9X9X9X9X9X9X9X9X9X9X9X9X9X9X",
"9X9X9X9X9X>.2X}.'.'.g.i.i.i.a.a.a.S.oXoXoXs..X9X9X9X&XH.Z.i.$.8X9X9X9X9X9X9X9X9X9X9X9X9X9X9X9X9X",
"9X9X9X9X9X:.1X}.'.].].[.[.{. X.X.XoXoXoXoX+.O.$.+.| { } [ O.` c.9X9X9X9X9X9X9X9X9X9X9X9X9X9X9X9X",
"9X9X9X9X9X:.1X X].].x.i.p.p.a.a.a.F.OXOXOX[.H.N.p.8.:.O.O.>.O.( 9.) 9X9X9X9X9X9X9X9X9X9X9X9X9X9X",
"9X9X9X9X9X;.1X X].[.[.{.{.}..XoXoXOX+X+X+X+XY.G.F.L.R.[.oX+X3X) 9X) 9X9X9X9X9X9X9X9X9X9X9X9X9X9X",
"9X9X9X9X9X;.1X.X].[.b.s.f.f.g.g.x.G.+X+X+X+X}.OX+X+X+X+X+X@X3X) 9X) 9.( 9X9X9X9X9X9X9X9X9X9X9X9X",
"9X9X9X9X9X-.1X.X[.{.[.].].[. X X X+X@X@X@X@X@X@X@X@X@X@X+X@X3X) T.) 9X( 9X9X9X9X9X9X9X9X9X9X9X9X",
"9X9X9X9X9X=.1XoX[.{.c.p.a.a.s.f.f.G.@X$X$X$X$X$X$X$X@X@X@X$X3X) T.) 9X( 9.( 9X9X9X9X9X9X9X9X9X9X",
"9X9X9X9X9X=.1XoX{.{.}. X X.X+X+X+X$X$X$X$X$X$X$X$X$X$X$X$X$X3X( T.) T.) 9X( 9X9X9X9X9X9X9X9X9X9X",
"9X9X9X9X9X*.1XoX{.}.c.a.a.a.f.f.f.4.x.x.x.x.x.x.x.x.c.@X$X%X3X( T.) T.) 9X( 9.( 9X9X9X9X9X9X9X9X",
"9X9X9X9X9X*.1XoX}.}. X.X.XoX@X@X$XJ k.&X&X&X&X&X&X&X&X%X%X&X3X( T.( T.) T.) 9X( 9X9X9X9X9X9X9X9X",
"9X9X9X9X9X&.2XoX}. Xc.a.s.s.f.g.g.h x T d.c.c.c.c.x.b.$X&X&X2X( T.( T.) T.) 9X( 9X9X9X9X9X9X9X9X",
"9X9X9X9X9X%.2XOX}. X.X.XoXOX$X$X%XU H L #.XX*X*X*X*X*X*X&X*X2X/ T.( T.( T.) T.) 9X9X9X9X9X9X9X9X",
"9X9X9X9X9X%.2XOX X Xr.; a u p p i s t t l j w.c.c.c.n.%X*X=X2X/ T.( T.( T.) T.) 9X9X9X9X9X9X9X9X",
"9X9X9X9X9X$.2XOX X.XU.v C C Z Z A D S S S K Y (.-X=X=X=X=X=X2X/ T./ T.( T.( T.) 9X9X9X9X9X9X9X9X",
"9X9X9X9X9X$.1XOX X.Xe.> : 0 q q q e e e e e y f 3.b.n.*X=X-X2X^ T./ T.( T.( T.) 9X9X9X9X9X9X9X9X",
"9X9X9X9X9Xo.,X+XoXOX/.z m n M N N B B B B V V F G z.,X,X>X>X2X^ T./ T./ T.( T.( 9X9X9X9X9X9X9X9X",
"9X9X9X9X9Xo.,X+XoXOXt.-   . X X X # # # $ $ $ + g 5.N.:X,X,X2X^ T.^ T./ T.( T.( 9X9X9X9X9X9X9X9X",
"9X9X9X9X9XX.,X+XoXOX)., 2 3 4 5 5 6 7 7 7 8 r E #X2X1X1X,X,X2X^ T.^ T./ T./ T.( 9X9X9X9X9X9X9X9X",
"9X9X9X9X9X..,X+XoXOXt.o * % * & & = # $ O @ I v.M.M.B.>X,X,X2X^ T.^ T.^ T./ T.( 9X9X9X9X9X9X9X9X",
"9X9X9X9X9X..>X+XoXOX_.R W Q ~ ! ! k 7 9 < j.<X4X3X2X2X1X,X,X2X^ T.^ T.^ T./ T./ 9X9X9X9X9X9X9X9X",
"9X9X9X9X9X .>X+XoXOXm.a.p.u.y.q.0.b w 1 l.&X;X,X1X3X2X1X,X,X2X^ T.^ T.^ T.^ T./ 9X9X9X9X9X9X9X9X",
"9X9X9X9X9X .>X+XoXOX.X].^.W.E.Y.P.c d h.!.].oX%X=X>X2X1X,X,X2X^ T.^ T.^ T.^ T./ 9X9X9X9X9X9X9X9X",
"9X9X9X9X7X| >X+XoXOXoX[.`.Q.Q.R.Y.P V.W.^.{.oX%X-X,X1X1X,X,X2X^ T.^ T.^ T.^ T.^ 9X9X9X9X9X9X9X9X",
"9X9X9X9X*X[ >X+XoXOX+XOXOX.XOXoX.X|.+X@X&X=X;X,X1X2X1X,X,X,X2X^ T.^ T.^ T.^ T.^ 9X9X9X9X9X9X9X9X",
"9X9X9X9X}.[ >X+XoXOXOX+X@X@X=X-X-X>X>X1X1X2X2X2X1X1X,X,X>X,X2X^ T.^ T.^ T.^ T.^ 9X9X9X9X9X9X9X9X",
"9X9X9X9X].] :X+XoXOXOX+X@X@X=X=X-X>X,X,X1X1X1X1X1X,X,X>X>X>X2X^ T.^ T.^ T.^ T.^ 9X9X9X9X9X9X9X9X",
"9X9X9X9X}.{ ;X3X3X3X3X3X3X3X3X3X3X3X3X3X3X3X3X3X3X3X3X3X3X3X3X_ T.^ T.^ T.^ T.^ 9X9X9X9X9X9X9X9X",
"9X9X9X9X*Xf.` ` ` ` ` ` ` ` ` ' ' ' ' ' ' ' ' ' ' ' ' ' ' ' _ i.2X^ T.^ T.^ T.^ 9X9X9X9X9X9X9X9X",
"9X9X9X9X7X=X[.T.T.I.I.I.I.I.I.I.I.I.I.I.I.I.I.I.I.I.I.I.T.T.].=X3X_ T.^ T.^ T.^ 9X9X9X9X9X9X9X9X",
"9X9X9X9X9X9X*Xf.` ` ` ` ` ` ` ` ` ' ' ' ' ' ' ' ' ' ' ' ' ' ' ' _ i.2X^ T.^ T.^ 9X9X9X9X9X9X9X9X",
"9X9X9X9X9X9X7X=X[.T.T.I.I.I.I.I.I.I.I.I.I.I.I.I.I.I.I.I.I.I.T.T.].=X3X_ T.^ T.^ 9X9X9X9X9X9X9X9X",
"9X9X9X9X9X9X9X9X*Xf.` ` ` ` ` ` ` ` ` ' ' ' ' ' ' ' ' ' ' ' ' ' ' ' _ i.2X^ T.^ 9X9X9X9X9X9X9X9X",
"9X9X9X9X9X9X9X9X7X=X[.T.T.I.I.I.I.I.I.I.I.I.I.I.I.I.I.I.I.I.I.I.T.T.].=X3X_ T.^ 9X9X9X9X9X9X9X9X",
"9X9X9X9X9X9X9X9X9X9X*Xf.` ` ` ` ` ` ` ` ` ' ' ' ' ' ' ' ' ' ' ' ' ' ' ' _ i.*X^ 9X9X9X9X9X9X9X9X",
"9X9X9X9X9X9X9X9X9X9X7X=X[.T.T.I.I.I.I.I.I.I.I.I.I.I.I.I.I.I.I.I.I.I.T.T.].=X7X_ 9X9X9X9X9X9X9X9X",
"9X9X9X9X9X9X9X9X9X9X9X9X9Xf.@.@.@.@.@.@.@.@.@.@.@.@.@.@.@.@.@.@.@.@.@.@.@.@.@.i.9X9X9X9X9X9X9X9X",
"9X9X9X9X9X9X9X9X9X9X9X9X9X9X9X9X9X9X9X9X9X9X9X9X9X9X9X9X9X9X9X9X9X9X9X9X9X9X9X9X9X9X9X9X9X9X9X9X"
};
