/* XPM */
static char *pprev[] = {
/* columns rows colors chars-per-pixel */
"48 48 204 2",
"   c #275897",
".  c #275998",
"X  c #285998",
"o  c #2A5A98",
"O  c #2D5B98",
"+  c #2F5D98",
"@  c #34639E",
"#  c #34649E",
"$  c #35649F",
"%  c #3061A0",
"&  c #3062A1",
"*  c #3162A1",
"=  c #3163A2",
"-  c #3263A2",
";  c #3665A0",
":  c #3766A0",
">  c #3564A2",
",  c #3666A2",
"<  c #3566A4",
"1  c #3667A4",
"2  c #3767A4",
"3  c #3867A1",
"4  c #3A67A1",
"5  c #3867A5",
"6  c #3A68A3",
"7  c #3E68A1",
"8  c #3C6AA1",
"9  c #3C6AA2",
"0  c #3868A5",
"q  c #3B69A6",
"w  c #3B6AA6",
"e  c #416596",
"r  c #466B9C",
"t  c #436C9E",
"y  c #53719B",
"u  c #51729D",
"i  c #59759D",
"p  c #5E7A9F",
"a  c #647C9F",
"s  c #647E9F",
"d  c #416CA2",
"f  c #4771A3",
"g  c #4D73A4",
"h  c #4E73A5",
"j  c #4573AE",
"k  c #4775AD",
"l  c #4574AE",
"z  c #5D79A0",
"x  c #5878A5",
"c  c #5176A8",
"v  c #5277A8",
"b  c #5377A8",
"n  c #5378A9",
"m  c #597BA9",
"M  c #4775B0",
"N  c #4776B0",
"B  c #4B79B1",
"V  c #4D7AB0",
"C  c #577EB0",
"Z  c #5F82AF",
"A  c #5680B4",
"S  c #798BA5",
"D  c #7A8CA5",
"F  c #6987B1",
"G  c #6F8CB5",
"H  c #678CBA",
"J  c #738CB0",
"K  c #718DB5",
"L  c #7891B5",
"P  c #7692B8",
"I  c #7B94B8",
"U  c #7C95B9",
"Y  c #7C96BA",
"T  c #7D96BB",
"R  c gray54",
"E  c #8B8B8B",
"W  c gray55",
"Q  c #8D8D8D",
"!  c #8E8E8E",
"~  c gray56",
"^  c #909090",
"/  c #939393",
"(  c #959595",
")  c gray59",
"_  c #979797",
"`  c #989898",
"'  c gray60",
"]  c #9A9A9A",
"[  c #9B9B9B",
"{  c gray61",
"}  c #9D9D9D",
"|  c gray62",
" . c #9F9F9F",
".. c #8392A8",
"X. c #8095B2",
"o. c #899BB4",
"O. c #98A2B0",
"+. c #91A1B9",
"@. c #92A4BD",
"#. c #91A4BF",
"$. c #9AA9BE",
"%. c #A0A0A0",
"&. c gray63",
"*. c #A2A2A2",
"=. c gray64",
"-. c #A4A4A4",
";. c #A5A5A5",
":. c gray65",
">. c #A7A7A7",
",. c gray66",
"<. c #A9A9A9",
"1. c #ACACAC",
"2. c gray68",
"3. c #AFAFAF",
"4. c #A0A8B3",
"5. c #AEB2B8",
"6. c gray69",
"7. c #B1B1B1",
"8. c #B2B2B2",
"9. c #B4B4B4",
"0. c #B4B7BB",
"q. c #B9B9B9",
"w. c gray73",
"e. c #BBBBBB",
"r. c #BBBBBC",
"t. c #BCBCBC",
"y. c gray74",
"u. c gray",
"i. c gray75",
"p. c #97A9C2",
"a. c #A1B2CB",
"s. c #A7B5C9",
"d. c #B3BECF",
"f. c #C0C0C0",
"g. c #C1C1C1",
"h. c gray76",
"j. c #C3C3C3",
"k. c #C3C3C4",
"l. c gray77",
"z. c #C5C5C5",
"x. c #C6C6C6",
"c. c gray78",
"v. c gray79",
"b. c #CACACA",
"n. c #CBCBCB",
"m. c gray80",
"M. c #CDCDCD",
"N. c #CECECE",
"B. c gray81",
"V. c #CED4DC",
"C. c #D0D0D0",
"Z. c gray82",
"A. c #D2D2D2",
"S. c LightGray",
"D. c #D3D4D5",
"F. c #D5D5D5",
"G. c #D6D6D7",
"H. c #D7D7D7",
"J. c #D0D6DE",
"K. c #D2D7DF",
"L. c #D8D8D8",
"P. c gray85",
"I. c #DADADA",
"U. c gray86",
"Y. c gainsboro",
"T. c #DDDDDD",
"R. c gray87",
"E. c #DFDFDF",
"W. c gray88",
"Q. c #E1E1E1",
"!. c #E0E1E3",
"~. c #E2E2E2",
"^. c gray89",
"/. c #E4E4E4",
"(. c gray90",
"). c #E5E6E7",
"_. c #E6E6E6",
"`. c #E6E6E7",
"'. c #E7E7E7",
"]. c #E6E7E9",
"[. c gray91",
"{. c #E8E9E9",
"}. c #E9E9E9",
"|. c #EAEAEA",
" X c gray92",
".X c #ECECEC",
"XX c gray93",
"oX c #EEEEEE",
"OX c #EFEFEF",
"+X c gray94",
"@X c #F1F1F1",
"#X c gray95",
"$X c #F3F3F3",
"%X c #F4F4F4",
"&X c gray96",
"*X c #F6F6F6",
"=X c gray97",
"-X c #F8F8F8",
";X c #F9F9F9",
":X c gray98",
">X c #FBFBFB",
",X c #FDFDFD",
"<X c #FEFEFE",
"1X c gray100",
/* pixels */
"1X1X1X1X1X1X1X1X1X1X1X1X1X1X1X1X1X1X1X1X1X1X1X1X1X1X1X1X1X1X1X1X1X1X1X1X1X1X1X1X1X1X1X1X1X1X1X1X",
"1X1X1X1X1X1X1X1X1X1X1X1X1X1X1X1X1X1X1X1X1X1X1X1X1X1X1X1X1X1X1X1X1X1X1X1X1X1X1X1X1X1X1X1X1X1X1X1X",
"1X1X1X1X1X1X1X1X1X1X1X1X1X1X1X1X1X1X1X1X1X1X1X1X1X1X1X1X1X1X1X1X1X1X1X1X1X1X1X1X1X1X1X1X1X1X1X1X",
"1X1X1X1X1X'.7.1.2.2.2.2.2.2.<.,.>.-.=.*.&.) q.XX1X1X1X1X1X1X1X1X1X1X1X1X1X1X1X1X1X1X1X1X1X1X1X1X",
"1X1X1X1X1X3.OX<X>X>X>X>X>X>X:X;X;X-X-X-X-X{ :.[ j.,X1X1X1X1X1X1X1X1X1X1X1X1X1X1X1X1X1X1X1X1X1X1X",
"1X1X1X1X1X<.-X(.E.W.W.Q.Q.~./././.(.(.(.(.t.l.z.<.3.-X1X1X1X1X1X1X1X1X1X1X1X1X1X1X1X1X1X1X1X1X1X",
"1X1X1X1X1X<.=X^.R.R.E.E.W.W.~.^.^././././.v.z.P.v.3.:.;X1X1X1X1X1X1X1X1X1X1X1X1X1X1X1X1X1X1X1X1X",
"1X1X1X1X1X,.=X/.R.E.E.W.W.Q.^.^./.(.(.(.(.Z.f.}.B.n.6.,.>X1X1X1X1X1X1X1X1X1X1X1X1X1X1X1X1X1X1X1X",
"1X1X1X1X1X,.=X/.E.E.W.W.Q.Q./././.(.(._._.Z.u.=XA.B.n.1.9.1X1X1X1X1X1X1X1X1X1X1X1X1X1X1X1X1X1X1X",
"1X1X1X1X1X,.=X(.W.W.u.q.q.w.e.e.e.n._._._.Z.l.*XF.A.N.b.-.b.1X1X1X1X1X1X1X1X1X1X1X1X1X1X1X1X1X1X",
"1X1X1X1X1X,.=X(.W.Q.Q.~.~.~.(.(._.'.'.'.'.M.A.#XL.F.Z.m.z.] }.1X1X1X1X1X1X1X1X1X1X1X1X1X1X1X1X1X",
"1X1X1X1X1X,.=X(.Q.Q.i.w.w.w.t.t.t.m.[.[.[.y.'.1X1X1XoXC.b.w.%.<X1X1X1X1X1X1X1X1X1X1X1X1X1X1X1X1X",
"1X1X1X1X1X>.*X(.Q.~.~.^.^./._.'.'.[.[.[.[.| } %.| ` ) _ ( } ~ g.1X1X1X1X1X1X1X1X1X1X1X1X1X1X1X1X",
"1X1X1X1X1X>.*X_.~.~.f.w.e.e.t.t.t.N.}.}.}.^.C.x.e.8.>.} } ,.} W 9.Q 1X1X1X1X1X1X1X1X1X1X1X1X1X1X",
"1X1X1X1X1X:.*X_.~.^.^././.(.'.[.[.}.|.|.|.|.L.B.N.S.I.^.[.|.-XQ 1XQ 1X1X1X1X1X1X1X1X1X1X1X1X1X1X",
"1X1X1X1X1X:.*X'.~.^.h.y.u.u.i.i.f.B.|.|.|.|.(.}.|.|.|.|.|. X-XQ 1XQ 9.W 1X1X1X1X1X1X1X1X1X1X1X1X",
"1X1X1X1X1X;.*X'.^./.^.~.~.^._._._.|. X X X X X X X X X X|. X-XQ P.Q 1XW 1X1X1X1X1X1X1X1X1X1X1X1X",
"1X1X1X1X1X-.*X[.^./.g.e.t.t.y.u.u.B. X.X.X.X.X.X.X.X X X X.X-XQ P.Q 1XW 9.W 1X1X1X1X1X1X1X1X1X1X",
"1X1X1X1X1X-.*X[././.(._._.'.|.|.|..X.X.X.X.X.X.X.X.X.X.X.X.X-XW P.Q P.Q 1XW 1X1X1X1X1X1X1X1X1X1X",
"1X1X1X1X1X=.*X[./.(.g.t.t.t.u.u.u.f.f.f.f.f.f.f.f.f.g. X.XXX-XW P.Q P.Q 1XW 9.W 1X1X1X1X1X1X1X1X",
"1X1X1X1X1X=.*X[.(.(._.'.'.[. X X.X].J.oXoXoXoXoXoXoXoXXXXXoX-XW P.W P.Q P.Q 1XW 1X1X1X1X1X1X1X1X",
"1X1X1X1X1X*.=X[.(._.g.t.y.y.u.i.0.s S f.f.g.g.g.g.f.h..XoXoX=XW P.W P.Q P.Q 1XW 1X1X1X1X1X1X1X1X",
"1X1X1X1X1X&.=X}.(._.'.'.[.}..XK.F H p.OXOXOXOXOXOXOXOXOXoXOX=XE P.W P.W P.Q P.Q 1X1X1X1X1X1X1X1X",
"1X1X1X1X1X&.=X}._._.h.y.y.y.4.u d f D g.g.g.g.g.g.g.j.XXOX+X=XE P.W P.W P.Q P.Q 1X1X1X1X1X1X1X1X",
"1X1X1X1X1X%.=X}._.'.'.[.}.d.Z V j A h n b b v c L +X+X+X+X+X=XE P.E P.W P.W P.Q 1X1X1X1X1X1X1X1X",
"1X1X1X1X1X%.*X}._.'.h.r...r 8 : : 3 3 3 3 3 3 9 p h.j.OX+X@X=XR P.E P.W P.W P.Q 1X1X1X1X1X1X1X1X",
"1X1X1X1X1X{ &X|.[.}.`.#.C k l l l M M N N N N B P *X&X&X%X%X=XR P.E P.E P.W P.W 1X1X1X1X1X1X1X1X",
"1X1X1X1X1X{ &X|.[.[.a t @ @ # $ $ $ $ $ ; ; ; 3 z l.x.$X&X&X=XR P.R P.E P.W P.W 1X1X1X1X1X1X1X1X",
"1X1X1X1X1X[ &X|.[.{.s.g , % & * * = - - - - - < K =X*X*X&X&X=XR P.R P.E P.E P.W 1X1X1X1X1X1X1X1X",
"1X1X1X1X1X] &X|.[.}.k.O.e O       . . X X X X o i z.c.%X&X&X=XR P.R P.R P.E P.W 1X1X1X1X1X1X1X1X",
"1X1X1X1X1X] %X|.[.}.|.|.V.m 6 * * > 0 5 2 1 1 2 G =X=X*X&X&X=XR P.R P.R P.E P.E 1X1X1X1X1X1X1X1X",
"1X1X1X1X1X' %X|.[.}.l.u.u.5.y +   w x I U Y T Y a.-X=X*X&X&X=XR P.R P.R P.R P.E 1X1X1X1X1X1X1X1X",
"1X1X1X1X1X' %X|.[.}.|.[.'./.!.J 4 q @.'.|.XX@X&X*X=X=X*X&X&X=XR P.R P.R P.R P.E 1X1X1X1X1X1X1X1X",
"1X1X1X1X,X` %X|.[.}.'.~.E.Y.U.D.X.7 o.P.T.~.'..X+X%X*X*X&X&X=XR P.R P.R P.R P.R 1X1X1X1X1X1X1X1X",
"1X1X1X1XOX( %X|.[.}.[.^.W.T.T.I.G.$.+.U.E.^.'..X+X&X*X&X&X&X=XR P.R P.R P.R P.R 1X1X1X1X1X1X1X1X",
"1X1X1X1X(.( %X|.[.}.}.}.}._.}.[._.}.). XXX+X#X&X&X*X&X&X%X&X=XR P.R P.R P.R P.R 1X1X1X1X1X1X1X1X",
"1X1X1X1X~./ $X|.[.}.}.|. X X+X+X@X$X%X&X*X*X*X*X*X&X&X%X%X%X=XR P.R P.R P.R P.R 1X1X1X1X1X1X1X1X",
"1X1X1X1X(.) #X-X-X-X-X-X-X-X-X-X-X-X-X-X-X-X-X-X-X-X-X-X-X-X-X! P.R P.R P.R P.R 1X1X1X1X1X1X1X1X",
"1X1X1X1XOXu.~ ~ ~ ~ ~ ~ ~ ~ ~ ^ ^ ^ ^ ^ ^ ^ ^ ^ ^ ^ ^ ^ ^ ^ ! w.=XR P.R P.R P.R 1X1X1X1X1X1X1X1X",
"1X1X1X1X,X+X^.P.P.H.H.H.H.H.H.H.H.H.H.H.H.H.H.H.H.H.H.H.P.P.~.+X-X! P.R P.R P.R 1X1X1X1X1X1X1X1X",
"1X1X1X1X1X1XOXu.~ ~ ~ ~ ~ ~ ~ ~ ~ ^ ^ ^ ^ ^ ^ ^ ^ ^ ^ ^ ^ ^ ^ ^ ! w.=XR P.R P.R 1X1X1X1X1X1X1X1X",
"1X1X1X1X1X1X,X+X^.P.P.H.H.H.H.H.H.H.H.H.H.H.H.H.H.H.H.H.H.H.P.P.~.+X-X! P.R P.R 1X1X1X1X1X1X1X1X",
"1X1X1X1X1X1X1X1XOXu.~ ~ ~ ~ ~ ~ ~ ~ ~ ^ ^ ^ ^ ^ ^ ^ ^ ^ ^ ^ ^ ^ ^ ^ ! w.=XR P.R 1X1X1X1X1X1X1X1X",
"1X1X1X1X1X1X1X1X,X+X^.P.P.H.H.H.H.H.H.H.H.H.H.H.H.H.H.H.H.H.H.H.P.P.~.+X-X! P.R 1X1X1X1X1X1X1X1X",
"1X1X1X1X1X1X1X1X1X1XOXu.~ ~ ~ ~ ~ ~ ~ ~ ~ ^ ^ ^ ^ ^ ^ ^ ^ ^ ^ ^ ^ ^ ^ ^ ! w.OXR 1X1X1X1X1X1X1X1X",
"1X1X1X1X1X1X1X1X1X1X,X+X^.P.P.H.H.H.H.H.H.H.H.H.H.H.H.H.H.H.H.H.H.H.P.P.~.+X,X! 1X1X1X1X1X1X1X1X",
"1X1X1X1X1X1X1X1X1X1X1X1X1Xu. . . . . . . . . . . . . . . . . . . . . . . . . .w.1X1X1X1X1X1X1X1X",
"1X1X1X1X1X1X1X1X1X1X1X1X1X1X1X1X1X1X1X1X1X1X1X1X1X1X1X1X1X1X1X1X1X1X1X1X1X1X1X1X1X1X1X1X1X1X1X1X"
};
