/* XPM */
static char *prev[] = {
/* columns rows colors chars-per-pixel */
"48 48 218 2",
"   c #20204A4A8787",
".  c #281F50F68C47",
"X  c #29F752A48CBF",
"o  c #2BCC544F8E2E",
"O  c #2CDE54938EAF",
"+  c #2E9655F88F9B",
"@  c #2FA85734920A",
"#  c #2F8C57E49187",
"$  c #300E579290F8",
"%  c #304D5945917B",
"&  c #31965922920A",
"*  c #3196592293F8",
"=  c #31BC5A9E925D",
"-  c #34865A9E934A",
";  c #347B5C0694EF",
":  c #35715CFD95E6",
">  c #36685CFD94EF",
",  c #36455DA8955F",
"<  c #37865E43947F",
"1  c #368E5E439767",
"2  c #399A5E3E94C1",
"3  c #38CA5ED29526",
"4  c #3A6D612B985F",
"5  c #3B65631A985F",
"6  c #3B65631A9956",
"7  c #3F7565629ADE",
"8  c #3BC064C29D63",
"9  c #34346565A4A4",
"0  c #35356666A4A4",
"q  c #36366666A5A5",
"w  c #36366767A5A5",
"e  c #37376767A5A5",
"r  c #38386868A6A6",
"t  c #3A3A6A6AA7A7",
"y  c #3D3D6A6AA5A5",
"u  c #3E3E6D6DA9A9",
"i  c #3F3F6D6DA9A9",
"p  c #409864CE9966",
"a  c #425766399A55",
"s  c #433F681F9E78",
"d  c #441D6ADA9E2E",
"f  c #48756B2F9D9D",
"g  c #4B256C659DDE",
"h  c #4C056EBA9FF5",
"j  c #43906A9DA050",
"k  c #40866933A2BD",
"l  c #46466F6FA6A6",
"z  c #40406E6EA9A9",
"x  c #41416F6FAAAA",
"c  c #42426F6FAAAA",
"v  c #43436F6FAAAA",
"b  c #49737122A6B5",
"n  c #4CD47299A6E5",
"m  c #4F0473F8A689",
"M  c #42427070AAAA",
"N  c #43437070ABAB",
"B  c #44447171ABAB",
"V  c #45457272ABAB",
"C  c #46467272ACAC",
"Z  c #46467373ACAC",
"A  c #47477373ADAD",
"S  c #4C4C7676ABAB",
"D  c #48487474ADAD",
"F  c #49497575ADAD",
"G  c #49497575AEAE",
"H  c #4A4A7676AEAE",
"J  c #4B4B7777AEAE",
"K  c #4C4C7777AFAF",
"L  c #4D4D7878AFAF",
"P  c #5069717BA24C",
"I  c #56717685A5DF",
"U  c #59107966A805",
"Y  c #52007900AD00",
"T  c #52527B7BAFAF",
"R  c #57637BA8ADA7",
"E  c #59597E99AF9D",
"W  c #48487878B2B2",
"Q  c #4A4A7979B3B3",
"!  c #4B4B7A7AB3B3",
"~  c #4F4F7A7AB0B0",
"^  c #4C4C7B7BB4B4",
"/  c #4D4D7B7BB4B4",
"(  c #4F4F7D7DB5B5",
")  c #54547D7DB2B2",
"_  c #56567F7FB3B3",
"`  c #50507D7DB5B5",
"'  c #53537F7FB7B7",
"]  c #58587F7FB3B3",
"[  c #62257E55A7E9",
"{  c #600E7E51AAFC",
"}  c #5A5A8080B2B2",
"|  c #57578282B8B8",
" . c #59598484B9B9",
".. c #5C5C8787BBBB",
"X. c #5E5E8888BBBB",
"o. c #60A2857CB44C",
"O. c #61E48674B4E5",
"+. c #62628686B6B6",
"@. c #61618A8ABDBD",
"#. c #63638B8BBDBD",
"$. c #64648C8CBEBE",
"%. c #66668E8EBFBF",
"&. c #67678F8FBFBF",
"*. c #69008E00BB00",
"=. c #6A6A8E8EBCBC",
"-. c #6A008F00BE00",
";. c #72698DD6B4BD",
":. c #7B6D91B7B1FB",
">. c #78459173B787",
",. c #7EA597B3BAA9",
"<. c #68688F8FC0C0",
"1. c #69699090C0C0",
"2. c #6B6B9191C1C1",
"3. c #6B6B9292C1C1",
"4. c #6D6D9393C2C2",
"5. c #6F6F9494C1C1",
"6. c #6F6F9494C2C2",
"7. c #71719494C0C0",
"8. c #70709595C3C3",
"9. c #71719696C3C3",
"0. c #72729696C4C4",
"q. c #72729797C4C4",
"w. c #73739797C4C4",
"e. c #74749898C3C3",
"r. c #74749898C4C4",
"t. c #74749898C5C5",
"y. c #75759999C5C5",
"u. c #76769999C4C4",
"i. c #77779999C4C4",
"p. c #76769A9AC5C5",
"a. c #77779B9BC5C5",
"s. c #77779A9AC6C6",
"d. c #77779B9BC6C6",
"f. c #78789B9BC6C6",
"g. c #79799C9CC5C5",
"h. c #79799C9CC7C7",
"j. c #7A7A9C9CC6C6",
"k. c #7A7A9D9DC6C6",
"l. c #7B7B9D9DC6C6",
"z. c #7C7C9E9EC7C7",
"x. c #7E7E9F9FC6C6",
"c. c #7F7FA0A0C8C8",
"v. c #83559ACFBD78",
"b. c #85A39CC9BEF5",
"n. c #98C9A7DBBDC7",
"m. c #8080A1A1C9C9",
"M. c #9161A6B5C4F7",
"N. c #9867ACD7C8B7",
"B. c #9F6CB0E6CBFE",
"V. c #A583B6B5CFAF",
"C. c #B4D7BEA5CDAD",
"Z. c #A7A7B7B7D103",
"A. c #B0A1C0EDD5D5",
"S. c #B7AFC5E3D9E7",
"D. c #BAA4C7B4DAFC",
"F. c #C1AACDAFDEBC",
"G. c #CCD9D3E7DCF1",
"H. c gray85",
"J. c gray86",
"K. c #DCDCDCDCDDD3",
"L. c #DDDDDDDDDDDD",
"P. c gray87",
"I. c #DFDFDFDFDFDF",
"U. c #CAD9D3D3E0D1",
"Y. c #CAAFD4C5E2F0",
"T. c #D5CDDBC7E2D7",
"R. c #D2C1DAF1E7D7",
"E. c #DBCBDEEFE2D3",
"W. c #DEEFDFDFE0F1",
"Q. c #D7CBDEDBE9E7",
"!. c #D8D8DFEEEAEA",
"~. c #DEEFE4EBEDE5",
"^. c gray88",
"/. c #E1E1E1E1E1E1",
"(. c #E2E2E2E2E2E2",
"). c gray89",
"_. c gray90",
"`. c #E6E6E6E6E6E6",
"'. c #E7E7E7E7E7E7",
"]. c #E9E9E9E9E9E9",
"[. c #EAEAEAEAEAEA",
"{. c gray92",
"}. c #ECECECECECEC",
"|. c gray93",
" X c #EEEEEEEEEEEE",
".X c #EFEFEFEFEFEF",
"XX c #E7DBEBEFF2FD",
"oX c #E8DDEDE1F3EB",
"OX c #ECF1EFF9F5F3",
"+X c #EDF7F0F5F4F9",
"@X c #EEF1F1EFF5F9",
"#X c #EFE9F2F5F6FF",
"$X c gray94",
"%X c #F1F1F1F1F1F1",
"&X c gray95",
"*X c #F3F3F3F3F3F3",
"=X c #F0F0F3F3F7F7",
"-X c #F4F4F4F4F4F4",
";X c gray96",
":X c #F6F6F6F6F6F6",
">X c gray97",
",X c #F4F1F6F0F9F5",
"<X c #F5FBF6F9F9FF",
"1X c #F7F4F9F9FBFE",
"2X c #F8F8F8F8F8F8",
"3X c #F9F9F9F9F9F9",
"4X c #F8F9F9FBFBFF",
"5X c gray98",
"6X c #FBFBFBFBFBFB",
"7X c #F9F6FAFBFCFE",
"8X c gray99",
"9X c #FCFDFCFDFDFF",
"0X c #FDFDFDFDFDFD",
"qX c #FCFCFDFDFEFE",
"wX c #FDFDFEFFFEFF",
"eX c #FEFEFEFEFEFE",
"rX c #FEFEFEFEFFFF",
"tX c gray100",
/* pixels */
"tXtXtXtXtXtXtXtXtXtXtXtXtXtXtXtXtXtXtXtXtXtXtXtXtXtXtXtXtXtXtXtXtXtXtXtXtXtXtXtXtXtXtXtXtXtXtXtX",
"tXtXtXtXtXtXtXtXtXtXtXtXtXtXtXtXtXtXtXtXtXtXtXtXtXtXtXtXtXtXtXtXtXtXtXtXtXtXtXtXtXtXtXtXtXtXtXtX",
"tXtXtXtXtXtXtXtXtXtXtXtXtXtXtXtXtXtXtXtXtXtXtXtXtXtXtXtXtXtXtXtXtXtXtXtXtXtXtXtXtXtXtXtXtXtXtXtX",
"tXtXtXtXtXtXtXtXtXtXtXtXtXtXtXtXtXtXtXtXtXtXtXtXtXtXtXtXtXtXtXtXtXtXtXtXtXtXtXtXtXtXtXtXtXtXtXtX",
"tXtXtXtXtXtXtXtXtXtXtXtXtXtXtXtXtXtXtXtXtXtXtXtXtXtXtXtXtXtXtXtXtXtXtXtXtXtXtXtXtXtXtXtXtXtXtXtX",
"tXtXtXtXtXtXtXtXtXtXtXtXtXtXtXtXtXtXtXtXtXtXtXtXtXtXtXtXtXtXtXtXtXtXtXtXtXtXtXtXtXtXtXtXtXtXtXtX",
"tXtXtXtXtXtXtXtXtXtXtXtXtXtXtXtXtXtXtXtXtXtXtXtXtXtXtXtXtXtXtXtXtXtXtXtXtXtXtXtXtXtXtXtXtXtXtXtX",
"tXtXtXtXtXtXtXtXtXtXtXtXtXtXtXtXtXtXtXtXtXtXtXtXtXtXtXtXtXtXtXtXtXtXtXtXtXtXtXtXtXtXtXtXtXtXtXtX",
"tXtXtXtXtXtXtXtXtXtXtXtXtXtXtXtXtXtXtXtXtXtXtXtXR.tXtXtXtXtXtXtXtXtXtXtXtXtXtXtXtXtXtXtXtXtXtXtX",
"tXtXtXtXtXtXtXtXtXtXtXtXtXtXtXtXtXtXtXtXtXtXtXD.  tXtXtXtXtXtXtXtXtXtXtXtXtXtXtXtXtXtXtXtXtXtXtX",
"tXtXtXtXtXtXtXtXtXtXtXtXtXtXtXtXtXtXtXtXtXtXB.:   tXtXtXtXtXtXtXtXtXtXtXtXtXtXtXtXtXtXtXtXtXtXtX",
"tXtXtXtXtXtXtXtXtXtXtXtXtXtXtXtXtXtXtXtXwX,.s x.  tXtXtXtXtXtXtXtXtXtXtXtXtXtXtXtXtXtXtXtXtXtXtX",
"tXtXtXtXtXtXtXtXtXtXtXtXtXtXtXtXtXtXtX1X{ n m.c.  tXtXtXtXtXtXtXtXtXtXtXtXtXtXtXtXtXtXtXtXtXtXtX",
"tXtXtXtXtXtXtXtXtXtXtXtXtXtXtXtXtXtXOXf R z.| k.  tXtXtXtXtXtXtXtXtXtXtXtXtXtXtXtXtXtXtXtXtXtXtX",
"tXtXtXtXtXtXtXtXtXtXtXtXtXtXtXtXtX~.3 O.d.` / j.  tXtXtXtXtXtXtXtXtXtXtXtXtXtXtXtXtXtXtXtXtXtXtX",
"tXtXtXtXtXtXtXtXtXtXtXtXtXtXtXtXY.% *.0./ Q / a.  tXtXtXtXtXtXtXtXtXtXtXtXtXtXtXtXtXtXtXtXtXtXtX",
"tXtXtXtXtXtXtXtXtXtXtXtXtXtXtXA.; 7.3.! Q Q / u.  tXtXtXtXtXtXtXtXtXtXtXtXtXtXtXtXtXtXtXtXtXtXtX",
"tXtXtXtXtXtXtXtXtXtXtXtXtXtXM.4 i.$.Q Q Q Q / r.                                tXtXtXtXtXtXtXtX",
"tXtXtXtXtXtXtXtXtXtXtXtX9X;.d g...Q Q Q Q Q / h.f.s.p.y.t.w.q.9.8.8.6.4.4.3.2.  tXtXtXtXtXtXtXtX",
"tXtXtXtXtXtXtXtXtXtXtX,XI m j.| Q Q Q Q Q Q Q Q Q Q Q Q Q Q Q Q Q Q Q Q Q Q 1.  tXtXtXtXtXtXtXtX",
"tXtXtXtXtXtXtXtXtXtXXXp E d.' Q Q Q Q Q Q Q Q Q Q Q Q Q Q Q Q Q Q Q Q Q Q Q <.  tXtXtXtXtXtXtXtX",
"tXtXtXtXtXtXtXtXtXQ.- o.w.( Q Q Q Q Q Q Q Q Q Q Q Q Q Q Q Q Q Q Q Q Q Q Q Q %.  tXtXtXtXtXtXtXtX",
"tXtXtXtXtXtXtXtXF.# -.4.^ Q Q Q Q Q Q Q Q Q Q Q Q Q Q Q Q Q Q Q Q Q Q Q Q Q $.  tXtXtXtXtXtXtXtX",
"tXtXtXtXtXtXtXZ.> 5.&.! Q Q Q Q Q Q Q Q Q Q Q Q Q Q Q Q Q Q Q Q Q Q Q Q Q Q #.  tXtXtXtXtXtXtXtX",
"tXtXtXtXtXrXb.5 e.@.Q Q Q Q Q Q Q Q Q Q Q Q Q Q Q Q Q Q Q Q Q Q Q Q Q Q Q Q @.  tXtXtXtXtXtXtXtX",
"tXtXtXtX7XP s l. .W W W W W W W W W W W W W W W W W W W W W W W W W W W W W X.  tXtXtXtXtXtXtXtX",
"tXtXtXtX4Xh 7 =.N 9 9 9 9 9 9 9 9 9 9 9 9 9 9 9 9 9 9 9 9 9 9 9 9 9 9 9 9 9 J   tXtXtXtXtXtXtXtX",
"tXtXtXtXtXrXv.< +.G 9 9 9 9 9 9 9 9 9 9 9 9 9 9 9 9 9 9 9 9 9 9 9 9 9 9 9 9 G   tXtXtXtXtXtXtXtX",
"tXtXtXtXtXtXtXV.& } ~ 9 9 9 9 9 9 9 9 9 9 9 9 9 9 9 9 9 9 9 9 9 9 9 9 9 9 9 A   tXtXtXtXtXtXtXtX",
"tXtXtXtXtXtXtXtXF.+ Y ) q 9 9 9 9 9 9 9 9 9 9 9 9 9 9 9 9 9 9 9 9 9 9 9 9 9 C   tXtXtXtXtXtXtXtX",
"tXtXtXtXtXtXtXtXtX!.= b _ r 9 9 9 9 9 9 9 9 9 9 9 9 9 9 9 9 9 9 9 9 9 9 9 9 B   tXtXtXtXtXtXtXtX",
"tXtXtXtXtXtXtXtXtXtXoXa j ] t 9 9 9 9 9 9 9 9 9 9 9 9 9 9 9 9 9 9 9 9 9 9 9 M   tXtXtXtXtXtXtXtX",
"tXtXtXtXtXtXtXtXtXtXtX<XU 6 _ u 9 9 9 9 9 9 9 9 9 9 9 9 9 9 9 9 9 9 9 9 9 9 x   tXtXtXtXtXtXtXtX",
"tXtXtXtXtXtXtXtXtXtXtXtXqX>., T c 9 9 9 9 9 q ~ L L K H G F A Z C V N M x z i   tXtXtXtXtXtXtXtX",
"tXtXtXtXtXtXtXtXtXtXtXtXtXtXN.@ S V 9 9 9 9 q J   . . . . . . . . . . . . . .   tXtXtXtXtXtXtXtX",
"tXtXtXtXtXtXtXtXtXtXtXtXtXtXtXS.o l A 0 9 9 q G   +X+X+X@X@X#X=X=X=X=X=X=X=X=X=XtXtXtXtXtXtXtXtX",
"tXtXtXtXtXtXtXtXtXtXtXeX8X6X5X3XU.$ k F w 9 q D   -X-X;X;X:X>X2X3X5X6X8XeXtXtXtXtXtXtXtXtXtXtXtX",
"tXtXtXtXtXtXtXtX0X8X5X2X>X;X-X*X%XT.2 8 D e q A   }.|.|. X.X$X%X*X-X;X>X2X5X8X0XtXtXtXtXtXtXtXtX",
"tXtXtXtXtXtX0X6X3X>X:X-X&X$X.X|.{.[.E.g 1 Z t C   _.`.`.'.].[.{.|..X$X&X-X:X>X3X6X0XtXtXtXtXtXtX",
"tXtXtXtXtX0X6X3X>X;X*X%X.X|.{.].'._.).W.[ * v V   P.I.^.(.)._.'.].{.|..X%X*X;X>X3X6X0XtXtXtXtXtX",
"tXtXtXtXeX8X5X2X:X-X&X$X X{.].'._.)./.I.K.:.O y   H.J.L.I./.)._.'.].{. X$X&X-X:X2X5X8XeXtXtXtXtX",
"tXtXtXtXtX0X6X3X>X;X*X%X.X|.{.].'._.).(.^.I.n.X   P.I.^.(.)._.'.].{.|..X%X*X;X>X3X6X0XtXtXtXtXtX",
"tXtXtXtXtXtX0X6X3X>X:X-X&X$X.X|.{.[.].'.`.`._.C.  _.`.`.'.].[.{.|..X$X&X-X:X>X3X6X0XtXtXtXtXtXtX",
"tXtXtXtXtXtXtXtX0X8X5X2X>X;X-X*X%X$X.X X|.|.}.}.G.}.|.|. X.X$X%X*X-X;X>X2X5X8X0XtXtXtXtXtXtXtXtX",
"tXtXtXtXtXtXtXtXtXtXtXeX8X6X5X3X2X>X:X;X;X-X-X-X-X-X-X;X;X:X>X2X3X5X6X8XeXtXtXtXtXtXtXtXtXtXtXtX",
"tXtXtXtXtXtXtXtXtXtXtXtXtXtXtXtXtXeX0X0X8X8X8X8X8X8X8X8X0X0XeXtXtXtXtXtXtXtXtXtXtXtXtXtXtXtXtXtX",
"tXtXtXtXtXtXtXtXtXtXtXtXtXtXtXtXtXtXtXtXtXtXtXtXtXtXtXtXtXtXtXtXtXtXtXtXtXtXtXtXtXtXtXtXtXtXtXtX",
"tXtXtXtXtXtXtXtXtXtXtXtXtXtXtXtXtXtXtXtXtXtXtXtXtXtXtXtXtXtXtXtXtXtXtXtXtXtXtXtXtXtXtXtXtXtXtXtX"
};
