/* XPM */
static char *print[] = {
/* columns rows colors chars-per-pixel */
"48 48 53 1",
"  c #555557575353",
". c #58905A8F5690",
"X c #5BA25D9959AA",
"o c #63D1658661E1",
"O c #66D968BC64A6",
"+ c #69986B7866AF",
"@ c #6B0F6C996956",
"# c #74F7768A7376",
"$ c #76CD78CC7550",
"% c #DFDFC8C83BBC",
"& c #808082827D7D",
"* c #88888A8A8585",
"= c #8F9591548BD8",
"- c #90D291D08D93",
"; c #939B95499299",
": c #969698989292",
"> c #9E119FBA9B64",
", c #9FB7A0E79E88",
"< c #A0E6A1DB9FF0",
"1 c #A382A5B4A150",
"2 c #AAAAADADA727",
"3 c #ACF1AE74AAED",
"4 c #AF2FB2B2ABAB",
"5 c #B1B1B5B5AEAE",
"6 c #B7B7BABAB3B3",
"7 c #BAB6BDBDB6AE",
"8 c #BBF7BC80BB69",
"9 c #BF2CC29DBB96",
"0 c #C1C1C4C4BDBD",
"q c #C9C9CC4CBFBF",
"w c #C4C0C4C0C4C0",
"e c #C6F9C9C9C42A",
"r c #CA74CCF7C59A",
"t c #CD22CE72CB2B",
"y c #CF2ED172CC55",
"u c #D335D6A6CF90",
"i c #D6D6D8D8CCCC",
"p c #D8D8D9D9CECE",
"a c #D490D620D26E",
"s c #D5EDD90FD335",
"d c #D9C9DC49D695",
"f c #DD0DDEDEDAA2",
"g c #DFA0E21BDD0B",
"h c #E16BE2BFDF46",
"j c #E4ABE5BAE2C3",
"k c #E7E7E8E8E666",
"l c #E9A4EA96E7C4",
"z c #ECC6ED3AEB5A",
"x c #EFEFF115EF37",
"c c #F0F0F18AEFEF",
"v c #F47DF4AFF3B7",
"b c #F7F7F8F8F7F7",
"n c #FF71FF72FF6F",
/* pixels */
"nnnnnnnnnnnnnnnnnnnnnnnnnnnnnnnnnnnnnnnnnnnnnnnn",
"nnnnnnnnnnnnnnnnnnaO        oannnnnnnnnnnnnnnnnn",
"nnnnnnnnnnnnnnnnnn+6yre097771+nnnnnnnnnnnnnnnnnn",
"nnnnnnnnnvduuuuuuuuuuuuuuuuuuuuuuuuuudvnnnnnnnnn",
"nnnnnnnnndbnnnnnnnnnnnnnnnnnnnnnnnnnnbdnnnnnnnnn",
"nnnnnnnnnunbbvvvvvvvvvvvvvvvvvcccxxxznunnnnnnnnn",
"nnnnnnnnnunvvvvvvvvvvvvcccxxxzzzzzzzznunnnnnnnnn",
"nnnnnnnnnunvvvvvcccxxxzzzzzzzzzzzzzzznunnnnnnnnn",
"nnnnnnnnnuncxxxzzzzzzzzzzzzzzzzzzllllnunnnnnnnnn",
"nnnnnnnnnunzzzzzzzzzzzzzzzlllllllkkkknunnnnnnnnn",
"nnnnnnnnnunzzzzzzzzlllllllkkkkkkkkjjjnunnnnnnnnn",
"nnnnnnnnnunzlllllllkkkkkkkkjjjjjjjjjjnunnnnnnnnn",
"nnnnnnnnnunlkkkkkkkkjjjjjjjjjjjjjjhhhnunnnnnnnnn",
"nnnnnnnnnunkkjjjjjjjjjjjjjjhhhhhhhgggnunnnnnnnnn",
"nnnnnnnnnynjjjjjjjjjhhhhhhhggggffffffnynnnnnnnnn",
"nnnnnnnnnenjjhhhhhhhggggfffffffffffffnennnnnnnnn",
"nnnnnnnnn9nhhggggfffffffffffffdddddddn9nnnnnnnnn",
"nnnnnnnnn7nffffffffffffdddddddddddddsn7nnnnnnnnn",
"nnnnnnnnn5nfffffdddddddddddddssssssssn5nnnnnnnnn",
"nnnnnnnnn2ndddddddddddssssssssaaaaaaan2nnnnnnnnn",
"nnnnnnnnn1nddddsssssssaaaaaaaaauuuuuun1nnnnnnnnn",
"nnnnnnnnn>nssssaaaaaaaaauuuuuuuuuuyyyn>nnnnnnnnn",
"nnnnnn;  :naaaaaauuuuuuuuuuyyyyyyytttn:  ;nnnnnn",
"nnnnn3=ns=nuuuuuuuuyyyyyyyyttttttttttn=sn-3nnnnn",
"nnnne#nl97777777777777777777777777777779ln#ennnn",
"nnnjOvbfdzzzzzzzzzzzzzzzzzzzzzzzzzzzzzzdfbv+knnn",
"nnn#fbzdzzzzzzzzzzzzzzzzzzzzzzzzzzzzzzzzdzbf$nnn",
"nn71nzzdbvvvvvvvvvvvvvvvvvvvvvvvvvvvvvvbdzzn18nn",
"nn@bvzzhnbbbbbbbbbbbbbbbbbbbbbbbbbbbbbbnhzzvb+nn",
"nt<nzzzjnnnnnnnnnnnnnnnnnnnnnnnnnnnnnnnnjzzzn>yn",
"n,dvlllynzjjjjjjjjjjjjjjjjjjjjjjjjjjjjznulllvd,n",
"n$vljjjydbnnnnnnnnnnnnnnnnnnnnnnnnnnnnvdujjjzv$n",
"nObjhhhht977777777777777777777777777779thhhhjbOn",
"n.ngffffffffffffffffffffffffffffffffffffffffgnXn",
"n nddddddddddddddddddddddddddddddddddddddddddn n",
"n nssssssssssssssssssssssssssssssssssssssq77qn n",
"n nuuuuuu2=**************************-2uur%%tn n",
"n nuuuuu43jzzzzzzzzzzzzzzzzzzzzzzzzzzj34uiffpn n",
"n nuuuuu-jgddddddddddddddddddddddddddgj-uuuuun n",
"n nuuuuu*zffffffffffffffffffffffffffffz*ur77rn n",
"n nuuuuu&xggggggggggggggggggggggggggggx&urfftn n",
"n nuuuuu$vjjjjjjjjjjjjjjjjjjjjjjjjjjjjv$uf77gn n",
"n nuuuuu@vkkkkkkkkkkkkkkkkkkkkkkkkkkkkv@ugzzhn n",
"n nnnnnnovllllllllllllllllllllllllllllvonnnnnn n",
"v ++++++.bbbbbbbbbbbbbbbbbbbbbbbbbbbbbb.++++++ v",
"zjfdaatw                                wttadfjz",
"nbvvzljjfdsattrwww888888888888wwwrttaadfjjlzvvbn",
"nnnnnnnnnnnbbbvvvzzzzzllllzzzzzvvvbbbnnnnnnnnnnn"
};
