/* XPM */
static const char * resolution_option_xpm[] = {
"31 31 2 1",
" 	c None",
".	c #000000",
"  .....      .....      .....  ",
" .......    .......    ....... ",
".........  .........  .........",
".........  .........  .........",
".........  .........  .........",
".........  .........  .........",
".........  .........  .........",
" .......    .......    ....... ",
"  .....      .....      .....  ",
"                               ",
"                               ",
"  ..     ..     ..     ..     .",
" ....   ....   ....   ....   ..",
"...... ...... ...... ...... ...",
"...... ...... ...... ...... ...",
" ....   ....   ....   ....   ..",
"  ..     ..     ..     ..     .",
"                               ",
"  .     .     .     .     .    ",
" ...   ...   ...   ...   ...   ",
"..... ..... ..... ..... ..... .",
" ...   ...   ...   ...   ...   ",
"  .     .     .     .     .    ",
"                               ",
" .   .   .   .   .   .   .   . ",
"... ... ... ... ... ... ... ...",
" .   .   .   .   .   .   .   . ",
"                               ",
"                               ",
". . . . . . . . . . . . . . . .",
"                               "};
