/* XPM */
static const char * right_xpm[] = {
"14 14 9 1",
" 	c None",
".	c #020202",
"+	c #B2C6AE",
"@	c #E7EDE6",
"#	c #121A12",
"$	c #263222",
"%	c #78A16E",
"&	c #86AD7D",
"*	c #497241",
"..            ",
".+..          ",
".+@@..        ",
".+@@@@..      ",
".+@@@@@@..    ",
".+@@@@@@@@#.  ",
"$+@@@@@@@@@+..",
".%&&&&&%%%**..",
".%&&&%&%**..  ",
".%&%&%**..    ",
".%%%**..      ",
".*%*..        ",
".*..          ",
"..            "};
