/* XPM */
static char *rleft[] = {
/* columns rows colors chars-per-pixel */
"48 48 116 2",
"   c #CED05C6A0011",
".  c #CF62604506FB",
"X  c #D13064140AA8",
"o  c #D3EB6B331509",
"O  c #D4EF6E6E1A4C",
"+  c #D57870781D5A",
"@  c #D67074C82382",
"#  c #D51677892C03",
"$  c #D46D78292DD6",
"%  c #D9567B962BDA",
"&  c #D6A37E3C36DE",
"*  c #DBC17F733032",
"=  c #D5397FAC3975",
"-  c #DB2681E4375F",
";  c #DD5386193B30",
":  c #FCFCAFAF3EBF",
">  c #D7BA866D4390",
",  c #DE9D8B5044AE",
"<  c #D6C589784A28",
"1  c #DA948FBF5215",
"2  c #DB2E957D5D9A",
"3  c #E08E8E9F4543",
"4  c #E1CC923C4964",
"5  c #E2C396465195",
"6  c #E4419A9756AB",
"7  c #E5699EC35CF9",
"8  c #FCFCAFAF4040",
"9  c #FCFCB20543BC",
"0  c #FCFCB5A24BB6",
"q  c #FCFCB7B750D1",
"w  c #FD59B9D05471",
"e  c #FDCEBD005BC4",
"r  c #DFA89DC06639",
"t  c #DD289FBD6C5D",
"y  c #E2D89D1E6370",
"u  c #E764A5736771",
"i  c #E4CCA48F6E28",
"p  c #E860A8666E55",
"a  c #FD93BF836235",
"s  c #F10EB34D6E93",
"d  c #EA7CACDE72AA",
"f  c #E2ADAAA67C92",
"g  c #EC27B29D7D0A",
"h  c #F2FFBD007F00",
"j  c #FDFDC1C164C7",
"k  c #FE5DC4996BBB",
"l  c #FE46C6BD72C5",
"z  c #FEFEC9AD75AC",
"x  c #FCFCC7C77878",
"c  c #FED1CC667C74",
"v  c #E1BBAF738577",
"b  c #ED12B64A8081",
"n  c #F00FBE428DF4",
"m  c #E9B6B8C49170",
"M  c #E7FBBDDB9CC9",
"N  c #FED9CE5481D7",
"B  c #FE1DCEEE89E9",
"V  c #FEFED0D08707",
"C  c #FEA8D1D18DE3",
"Z  c #EDDDC2A79EC5",
"A  c #F4FFC7FF9700",
"S  c #F7F7CDCD9696",
"D  c #F2FFC7FF9F80",
"F  c #F659CD129BCB",
"G  c #FE59D3E59426",
"H  c #FE53D6C19AC5",
"J  c #FEFED9B49D54",
"K  c #EE3FC526A3B7",
"L  c #EF51CB0EADAD",
"P  c #F6FFD1FFA600",
"I  c #FDFDD7D7A0A0",
"U  c #FE97DB27A525",
"Y  c #F5F5D1D1A9A9",
"T  c #F8F8D6D6ADAD",
"R  c #FEC5DE4FACAC",
"E  c #E8F5CBEFB3B3",
"W  c #E6CBCFEDBDBD",
"Q  c #F151CF17B34C",
"!  c #E7D5D0B5BDBD",
"~  c #F1D3D1CBB7B7",
"^  c #F8F8D6D6B0B0",
"/  c #F9F9DBDBB6B6",
"(  c #F2F3D3C1BAFA",
")  c #FBFBDFDFBCBC",
"_  c #FEFEE0E0AFAF",
"`  c #FEA8E18BB660",
"'  c #FE97E44ABDF0",
"]  c #DFC8D6E8CECE",
"[  c #DFDFDBEFD7D7",
"{  c #E5DFD556C7C7",
"}  c #E2EDD5D3CBCB",
"|  c #E6DDD9D3CFCF",
" . c #F4D9D9E7C4C4",
".. c #F9F9DFDFC0C0",
"X. c #F4F4DCEBC8C8",
"o. c #E5EDDCC9D4D4",
"O. c #E475DF67DBDB",
"+. c #FD7DE540C38C",
"@. c #FEFEE8E8C7C7",
"#. c #FBFBE6E6CC4C",
"$. c #FE7EEA49CC0B",
"%. c #F6F2E263D1D1",
"&. c #FE46EC7ED3F8",
"*. c #FC28ECEBDB41",
"=. c #FEBEF170DCDC",
"-. c #E5F6E5E5E5D5",
";. c #E8F7E4F3E1E1",
":. c #ED0CED05ED01",
">. c #FAC1EE1CE44A",
",. c #FF8DF4BBE53A",
"<. c #FDCDF4C1EBB8",
"1. c #FFFFF9F9EFEF",
"2. c #F4FCF4FCF4FC",
"3. c #FCFCF5F5F0F0",
"4. c #FFFFF9F9F271",
"5. c #FF94FF93FF91",
/* pixels */
"5.5.5.5.5.5.5.5.5.5.5.5.5.5.5.5.5.5.5.5.5.5.5.5.5.5.5.5.5.5.5.5.5.5.5.5.5.5.5.5.5.5.5.5.5.5.5.5.",
"5.5.5.5.5.5.5.5.5.5.5.5.5.5.5.5.5.5.5.5.5.5.5.5.5.5.5.5.5.5.5.5.5.5.5.5.5.5.5.5.5.5.5.5.5.5.5.5.",
"5.5.5.5.5.5.5.5.5.5.5.5.5.5.5.5.5.5.5.5.5.5.5.5.5.5.5.5.5.5.5.5.5.5.5.5.5.5.5.5.5.5.5.5.5.5.5.5.",
"5.5.5.5.5.5.5.5.5.5.5.5.5.5.5.5.5.5.5.5.5.5.5.5.5.5.5.5.5.5.5.5.5.5.5.5.5.5.5.5.5.5.5.5.5.5.5.5.",
"5.5.5.5.5.5.5.5.5.5.5.5.5.5.5.5.5.5.5.5.5.5.5.5.5.5.5.5.5.5.3.Q i ; O X                       5.",
"5.5.5.5.5.5.5.5.5.5.5.5.5.5.5.5.5.5.5.5.5.5.5.5.5.5.5.5.Q , o 7 A +.=.,.<.,.=.&.$.@.+.' ` R   5.",
"5.5.5.5.5.5.5.5.5.5.5.5.5.5.5.5.5.5.5.5.5.5.5.5.5.5.L @ 4 ^ 4.$.H l w 0 9 9 9 9 9 0 0 0 0 R   5.",
"5.5.5.5.5.5.5.5.5.5.5.5.5.5.5.5.5.5.5.5.5.5.5.5.>.; , #.,.G 0 : : 9 9 9 9 0 0 0 0 0 q w w U   5.",
"5.5.5.5.5.5.5.5.5.5.5.5.5.5.5.5.5.5.5.5.5.5.5.~ o F 1.B 9 9 9 9 9 0 0 0 0 0 q w w w e e e U   5.",
"5.5.5.5.5.5.5.5.5.5.5.5.5.5.5.5.5.5.5.5.5.5.Z @ &.+.q 9 9 0 0 0 0 q q w w w e e e e a j j I   5.",
"5.5.5.5.5.5.5.5.5.5.5.5.5.5.5.5.5.5.5.5.5.K * ,.H 0 0 0 0 q q w w w e e e e a j j j j k k J   5.",
"5.5.5.5.5.5.5.5.5.5.5.5.5.5.5.5.5.5.5.5.~ @ ,.G 0 q q w w w e e e e a j j j k k k k k l l J   5.",
"5.5.5.5.5.5.5.5.5.5.5.5.5.5.5.5.5.5.5.>.O &.H w w e e e e e a j j j k k k k k l l z z c c J   5.",
"5.5.5.5.5.5.5.5.5.5.5.5.5.5.5.5.5.5.5., F ' e e e e a j j j k k k k l l l z z c c c c N N H   5.",
"5.5.5.5.5.5.5.5.5.5.5.5.5.5.5.5.5.5.Q 3 ,.j a j j j k k k k l l l z z c c c c N N N c c c G   5.",
"5.5.5.5.5.5.5.5.5.5.5.5.5.5.5.5.5.5.@ #.G j k k k k l l z z z c c c c N N N c c c c c z z B   5.",
"5.5.5.5.5.5.5.5.5.5.5.5.5.5.5.5.5.Q 6 ,.k k l l z z z c c c c N V J R _ _ R U J H G C V N c   5.",
"5.5.5.5.5.5.5.5.5.5.5.5.5.5.5.5.5., +.U z z z c c c c N N c c J ` h 4 + .                     5.",
"5.5.5.5.5.5.5.5.5.5.5.5.5.5.5.5.<.+ 1.c c c c N N c c c c c U S @ , L >.4.5.5.5.5.5.5.5.5.5.5.5.",
"5.5.5.5.5.5.5.5.5.5.5.5.5.5.5.5.K d &.N N c c c c c c z z H S O ( 5.5.5.5.5.5.5.5.5.5.5.5.5.5.5.",
"5.5.5.5.5.5.5.5.5.5.5.5.5.5.5.5.y Y _ c c c z z z z l l z R @ X.5.5.5.5.5.5.5.5.5.5.5.5.5.5.5.5.",
"5.5.5.5.5.5.5.5.5.5.5.5.5.5.5.5.- +.G z z z l l l k k k C s y 5.5.5.5.5.5.5.5.5.5.5.5.5.5.5.5.5.",
"5.5.5.5.5.5.5.5.5.5.5.5.5.5.5.5.o *.c l l k k k k k k j H ; ( 5.5.5.5.5.5.5.5.5.5.5.5.5.5.5.5.5.",
"5.5.5.5.5.5.5.5.5.5.5.5.5.5.5.5.X *.l k k k k j j j j j H o <.5.5.5.5.5.5.5.5.5.5.5.5.5.5.5.5.5.",
"5.5.5.5.5.5.5.5.5.5.5.5.5.5.5.5.  =.k j j j j j a a e e G   5.5.5.5.5.5.5.5.5.5.5.5.5.5.5.5.5.5.",
"5.5.5.5.5.5.5.5.5.5.5.5.5.5.5.5.  &.j j a a e e e e e e B   5.5.5.5.5.5.5.5.5.5.5.5.5.5.5.5.5.5.",
"5.5.5.5.5.5.5.5.5.5.5.5.5.5.5.5.  @.e e e e e e w w w w c   5.5.5.5.5.5.5.5.5.5.5.5.5.5.5.5.5.5.",
"5.5.5.5.5.5.>.                    ' e e w w w w q q 0 0 l                   X <.5.5.5.5.5.5.5.5.",
"5.5.5.5.5.5.5.*.o ..5.5.5.5.5.5.5.4.w q q q 0 0 0 0 0 0 ,.5.5.5.5.5.5.5.P O >.5.5.5.5.5.5.5.5.5.",
"5.5.5.5.5.5.5.5.%.o #.' w w w q q q 0 0 0 0 0 0 9 9 9 9 9 9 : : 8 9 ' T o *.5.5.5.5.5.5.5.5.5.5.",
"5.5.5.5.5.5.5.5.5. .O &.R q 0 0 0 0 0 0 9 9 9 9 9 9 : : 8 9 9 0 0 R / o %.5.5.5.5.5.5.5.5.5.5.5.",
"5.5.5.5.5.5.5.5.5.5.Q @ *.J 0 0 9 9 9 9 9 9 : : 9 9 9 0 0 q w w I ) O ( 5.5.5.5.5.5.5.5.5.5.5.5.",
"5.5.5.5.5.5.5.5.5.5.5.K % ,.B 9 9 9 : : 9 9 9 0 0 q w w e e a H ' O L 5.5.5.5.5.5.5.5.5.5.5.5.5.",
"5.5.5.5.5.5.5.5.5.5.5.5.m * =.l 9 9 9 0 0 q w w e e a a j k G +.@ M 2.2.2.5.5.5.5.5.5.5.5.5.5.5.",
"5.5.5.5.5.5.5.5.5.5.5.2.2.f ; &.l q w e e e a a k k l l x G +.% v 2.2.2.2.2.2.5.5.5.5.5.5.5.5.5.",
"5.5.5.5.5.5.5.5.5.2.2.2.2.2.r , @.x a a k k l l x x c N G +.; t :.:.2.2.2.2.2.2.2.5.5.5.5.5.5.5.",
"5.5.5.5.5.5.5.5.2.2.2.2.2.2.:.1 5 +.c l x x c N N B B H +., 2 :.:.:.:.:.2.2.2.2.2.2.5.5.5.5.5.5.",
"5.5.5.5.5.5.5.5.2.2.2.2.2.:.:.:.> 7 ' B N B B C G G I +.5 < -.-.-.:.:.:.:.2.2.2.2.2.5.5.5.5.5.5.",
"5.5.5.5.5.5.5.2.2.2.2.2.2.:.:.:.;.& u ' G G H H I U +.7 = O.-.-.-.:.:.:.:.2.2.2.2.2.2.5.5.5.5.5.",
"5.5.5.5.5.5.5.2.2.2.2.2.2.:.:.:.:.O.# d ' U U R R @.p $ [ -.-.-.-.:.:.:.:.2.2.2.2.2.2.5.5.5.5.5.",
"5.5.5.5.5.5.5.5.2.2.2.2.2.:.:.:.:.-.o.@ b +.` ` $.g @ ] -.-.-.-.-.:.:.:.:.2.2.2.2.2.5.5.5.5.5.5.",
"5.5.5.5.5.5.5.5.2.2.2.2.2.2.:.:.:.:.:.| O n $.$.n O } -.-.-.-.:.:.:.:.:.2.2.2.2.2.2.5.5.5.5.5.5.",
"5.5.5.5.5.5.5.5.5.2.2.2.2.2.2.2.:.:.:.:.{ o D D o { -.:.:.:.:.:.:.:.2.2.2.2.2.2.2.5.5.5.5.5.5.5.",
"5.5.5.5.5.5.5.5.5.5.5.2.2.2.2.2.2.2.2.:.:.!     W :.:.:.:.:.:.2.2.2.2.2.2.2.2.5.5.5.5.5.5.5.5.5.",
"5.5.5.5.5.5.5.5.5.5.5.5.5.2.2.2.2.2.2.2.2.2.E E 2.2.2.2.2.2.2.2.2.2.2.2.2.5.5.5.5.5.5.5.5.5.5.5.",
"5.5.5.5.5.5.5.5.5.5.5.5.5.5.5.5.2.2.2.2.2.2.2.2.2.2.2.2.2.2.2.2.2.2.5.5.5.5.5.5.5.5.5.5.5.5.5.5.",
"5.5.5.5.5.5.5.5.5.5.5.5.5.5.5.5.5.5.5.5.5.5.2.2.2.2.2.2.5.5.5.5.5.5.5.5.5.5.5.5.5.5.5.5.5.5.5.5.",
"5.5.5.5.5.5.5.5.5.5.5.5.5.5.5.5.5.5.5.5.5.5.5.5.5.5.5.5.5.5.5.5.5.5.5.5.5.5.5.5.5.5.5.5.5.5.5.5."
};
