/* XPM */
static char *rright[] = {
/* columns rows colors chars-per-pixel */
"48 48 114 2",
"   c #CED05C660011",
".  c #D14663C70A3D",
"X  c #D3E76B431515",
"o  c #D4A46DF319A3",
"O  c #D62A704F1BBB",
"+  c #D60274502302",
"@  c #D919775F24D3",
"#  c #D87377FF26FA",
"$  c #D46D774F2C21",
"%  c #D95E7A122996",
"&  c #D5397EDE370A",
"*  c #DC4F7FB6328D",
"=  c #D6A37FDC387E",
"-  c #DC0B820235A6",
";  c #DBF585C83C23",
":  c #DF4A89B03E08",
">  c #FCFCAFAF3E7A",
",  c #D7BA872F4452",
"<  c #DE458B8044DC",
"1  c #D6C588BB47F2",
"2  c #DF0B8E7F4C98",
"3  c #DA9490715377",
"4  c #DB2E957D5BA2",
"5  c #E1228F2549B3",
"6  c #E1BB90B1467D",
"7  c #E0E1921D4D13",
"8  c #E44196C34FF8",
"9  c #E42C99F75425",
"0  c #E5039CBC5B6A",
"q  c #FCFCAFAF4040",
"w  c #FCFCB20B43E5",
"e  c #FCFCB5874BA3",
"r  c #E676A0B85D6E",
"t  c #FCFCB79750D1",
"y  c #FD57B9BE546F",
"u  c #FDC8BD135BE8",
"i  c #DE689E2869ED",
"p  c #E3BF9F936675",
"a  c #E830A6B56835",
"s  c #EC27A9AF6835",
"d  c #FD93BF836207",
"f  c #E52BA5CD70B7",
"g  c #E2ADAAA67D9E",
"h  c #ED1CB1F775D3",
"j  c #EF10B64A7F82",
"k  c #F1FFB7007500",
"l  c #FDF5C1A364F4",
"z  c #FE4CC47A6BBA",
"x  c #FE22C6BA72AF",
"c  c #FEFEC986758B",
"v  c #FD52C7C778CE",
"b  c #FEB1CBF87C49",
"n  c #E1BBAE79847D",
"m  c #F1FFBE008680",
"M  c #F0FFBE008900",
"N  c #E9B6B9A492BF",
"B  c #E7FBBDDB9CC9",
"V  c #FE90CDA88239",
"C  c #FE28CF4E8A34",
"Z  c #FEFED0D08585",
"A  c #FDFDD13E8E45",
"S  c #EDDDC1E19EC5",
"D  c #F4FFC7FF9700",
"F  c #F4FFC8FF9700",
"G  c #F40BCA369D64",
"H  c #F8F8CECE9C9C",
"J  c #FE46D3659401",
"K  c #FE2CD61B9A9A",
"L  c #FEFED8D89D9D",
"P  c #EE54C42EA33C",
"I  c #EF7DCAFAAD6D",
"U  c #F609D12FA65A",
"Y  c #F8F8D4D4A4A4",
"T  c #FE46DA91A436",
"R  c #F7FBD5EBAE58",
"E  c #F978D757AD2D",
"W  c #FE36DC86AB00",
"Q  c #E8F5CBEFB3B3",
"!  c #E6CBCFEDBDBD",
"~  c #F13CCF29B3F3",
"^  c #E7D5D0B5BDBD",
"/  c #F1D3D1CBB7B7",
"(  c #FD7DDE9EB333",
")  c #F2C4D3C3BA87",
"_  c #F9F9DCDCBA39",
"`  c #FEB1E1AEB5B5",
"'  c #FE46E39ABC4E",
"]  c #DFC8D6E8CECE",
"[  c #DFDFDBEFD7D7",
"{  c #E5DFD556C7C7",
"}  c #E2EDD5D3CBCB",
"|  c #E6DDD9D3CFCF",
" . c #F4F1DA57C545",
".. c #E5EDDCC9D4D4",
"X. c #E475DF67DBDB",
"o. c #FD6AE552C355",
"O. c #FFFFE968C6C6",
"+. c #FCBCE6A6CB0A",
"@. c #FF13EB15CCE1",
"#. c #F6F2E263D1D1",
"$. c #FEBEED0CD3F3",
"%. c #F8E9E8E5DBDB",
"&. c #FEFEF0F0DADA",
"*. c #E5F6E5E5E5D5",
"=. c #E8F7E4F3E1E1",
"-. c #ED0CED05ED01",
";. c #FAF2EE29E423",
":. c #FED4F44AE666",
">. c #FE48F53FEAC5",
",. c #FFFFF9F9EFEF",
"<. c #F4FCF4FCF4FC",
"1. c #FCF7F6F5F1F1",
"2. c #FFFFFAA4F449",
"3. c #FF95FF93FF92",
/* pixels */
"3.3.3.3.3.3.3.3.3.3.3.3.3.3.3.3.3.3.3.3.3.3.3.3.3.3.3.3.3.3.3.3.3.3.3.3.3.3.3.3.3.3.3.3.3.3.3.3.",
"3.3.3.3.3.3.3.3.3.3.3.3.3.3.3.3.3.3.3.3.3.3.3.3.3.3.3.3.3.3.3.3.3.3.3.3.3.3.3.3.3.3.3.3.3.3.3.3.",
"3.3.3.3.3.3.3.3.3.3.3.3.3.3.3.3.3.3.3.3.3.3.3.3.3.3.3.3.3.3.3.3.3.3.3.3.3.3.3.3.3.3.3.3.3.3.3.3.",
"3.3.3.3.3.3.3.3.3.3.3.3.3.3.3.3.3.3.3.3.3.3.3.3.3.3.3.3.3.3.3.3.3.3.3.3.3.3.3.3.3.3.3.3.3.3.3.3.",
"3.3.3.3.                      . o ; f ~ 1.3.3.3.3.3.3.3.3.3.3.3.3.3.3.3.3.3.3.3.3.3.3.3.3.3.3.3.",
"3.3.3.3.  3.3.3.3.3.3.3.3.3.3.2.:.o.D 0 X < ~ 3.3.3.3.3.3.3.3.3.3.3.3.3.3.3.3.3.3.3.3.3.3.3.3.3.",
"3.3.3.3.  3.> > > > > > > > w e y x K @.2.R 5 + I 3.3.3.3.3.3.3.3.3.3.3.3.3.3.3.3.3.3.3.3.3.3.3.",
"3.3.3.3.  3.> > > > > > > > > w w w w w y K >.+.: < ;.3.3.3.3.3.3.3.3.3.3.3.3.3.3.3.3.3.3.3.3.3.",
"3.3.3.3.  3.> > > > > w w w w w e e e e e e y K ,.G o / 3.3.3.3.3.3.3.3.3.3.3.3.3.3.3.3.3.3.3.3.",
"3.3.3.3.  2.> w w w w w e e e e e e t t y y y u l @.$.# S 3.3.3.3.3.3.3.3.3.3.3.3.3.3.3.3.3.3.3.",
"3.3.3.3.  ,.w w e e e e e t t t y y y u u u u u d d W :.* P 3.3.3.3.3.3.3.3.3.3.3.3.3.3.3.3.3.3.",
"3.3.3.3.  :.e e e t t t y y y u u u u u d l l l l l z T >.# ) 3.3.3.3.3.3.3.3.3.3.3.3.3.3.3.3.3.",
"3.3.3.3.  &.t y y y y u u u u u d l l l l l z z z z z x ` $.o :.3.3.3.3.3.3.3.3.3.3.3.3.3.3.3.3.",
"3.3.3.3.  $.u u u u u u d l l l l z z z z z z x x c c c c @.U 2 3.3.3.3.3.3.3.3.3.3.3.3.3.3.3.3.",
"3.3.3.3.  @.u u d l l l l z z z z z z x c c c c c b b b b Z >.< / 3.3.3.3.3.3.3.3.3.3.3.3.3.3.3.",
"3.3.3.3.  O.l l l z z z z z x x c c c c b b b b b V V V b b T +.# 3.3.3.3.3.3.3.3.3.3.3.3.3.3.3.",
"3.3.3.3.  ' o.O.O.O.@.@.@.$.$.@.' T V b b V V V b b b b b b b $.8 ~ 3.3.3.3.3.3.3.3.3.3.3.3.3.3.",
"3.3.3.3.                    . + 0 F @.W V b b b b b b c c c c L E < 3.3.3.3.3.3.3.3.3.3.3.3.3.3.",
"3.3.3.3.3.3.3.3.3.3.3.3.3.3.2.;.I < @ E ` b b c c c c c c x x c $.o >.3.3.3.3.3.3.3.3.3.3.3.3.3.",
"3.3.3.3.3.3.3.3.3.3.3.3.3.3.3.3.3.3./ o Y L c c x x x z z z z z ` 0 I 3.3.3.3.3.3.3.3.3.3.3.3.3.",
"3.3.3.3.3.3.3.3.3.3.3.3.3.3.3.3.3.3.3. .@ ` c z z z z z z z z l J m p 3.3.3.3.3.3.3.3.3.3.3.3.3.",
"3.3.3.3.3.3.3.3.3.3.3.3.3.3.3.3.3.3.3.3.0 k A z z z z l l l l l b H - 3.3.3.3.3.3.3.3.3.3.3.3.3.",
"3.3.3.3.3.3.3.3.3.3.3.3.3.3.3.3.3.3.3.3.) : K l l l l l l d d u l W X 3.3.3.3.3.3.3.3.3.3.3.3.3.",
"3.3.3.3.3.3.3.3.3.3.3.3.3.3.3.3.3.3.3.3.:.o K l d d u u u u u u u T . 3.3.3.3.3.3.3.3.3.3.3.3.3.",
"3.3.3.3.3.3.3.3.3.3.3.3.3.3.3.3.3.3.3.3.3.  J u u u u u u u y y y T   3.3.3.3.3.3.3.3.3.3.3.3.3.",
"3.3.3.3.3.3.3.3.3.3.3.3.3.3.3.3.3.3.3.3.3.  C u u u y y y y y t t K   3.3.3.3.3.3.3.3.3.3.3.3.3.",
"3.3.3.3.3.3.3.3.3.3.3.3.3.3.3.3.3.3.3.3.3.  b y y y t t t t e e e C   3.3.3.3.3.3.3.3.3.3.3.3.3.",
"3.3.3.3.3.3.3.3.3.3.3.>..                   z t t e e e e e e e e b                     ;.3.3.3.",
"3.3.3.3.3.3.3.3.3.3.3.3.;.O R 3.3.3.3.3.3.3.:.e e e e e e w w w w :.3.3.3.3.3.3.3._ X %.3.3.3.3.",
"3.3.3.3.3.3.3.3.3.3.3.3.3.%.X _ O.t e e e e e e e w w w w w w w w > > q w w e ` +.X #.3.3.3.3.3.",
"3.3.3.3.3.3.3.3.3.3.3.3.3.3.#.X o.` e e e w w w w w w w > > > w w w e e e t W $.o  .3.3.3.3.3.3.",
"3.3.3.3.3.3.3.3.3.3.3.3.3.3.3.) o o.K w w w w w > > > w w w e e e t y y u L @.+ ~ 3.3.3.3.3.3.3.",
"3.3.3.3.3.3.3.3.3.3.3.3.3.3.3.3.I o ' C > > > w w w e e e t y y u u u d J @.# P 3.3.3.3.3.3.3.3.",
"3.3.3.3.3.3.3.3.3.3.3.3.3.3.2.<.<.B + ( v w e e e t y y u u u d d l z A +.% N 3.3.3.3.3.3.3.3.3.",
"3.3.3.3.3.3.3.3.3.3.3.3.<.<.<.<.<.<.n % ( x y y u u u d d l z z z x A O.- g <.<.3.3.3.3.3.3.3.3.",
"3.3.3.3.3.3.3.3.3.3.2.<.<.<.<.<.<.-.-.i - ( v d d l z z x x x v v A ' < i <.<.<.<.2.3.3.3.3.3.3.",
"3.3.3.3.3.3.3.3.3.2.<.<.<.<.<.-.-.-.-.-.4 : W b x x x v v b V V A ' 7 3 -.<.<.<.<.<.2.3.3.3.3.3.",
"3.3.3.3.3.3.3.3.3.<.<.<.<.<.-.-.-.-.*.*.*.1 6 W V b V V C C C J ' 9 , -.-.-.<.<.<.<.<.3.3.3.3.3.",
"3.3.3.3.3.3.3.3.2.<.<.<.<.<.-.-.-.-.*.*.*.X.& 8 W A C A J J K ` r = =.-.-.-.<.<.<.<.<.2.3.3.3.3.",
"3.3.3.3.3.3.3.3.2.<.<.<.<.<.-.-.-.-.*.*.*.*.[ $ r W K K K T ` a $ X.-.-.-.-.<.<.<.<.<.2.3.3.3.3.",
"3.3.3.3.3.3.3.3.3.<.<.<.<.<.-.-.-.-.*.*.*.*.*.] + s ( T W ` h + ..*.-.-.-.-.<.<.<.<.<.3.3.3.3.3.",
"3.3.3.3.3.3.3.3.3.2.<.<.<.<.<.-.-.-.-.-.*.*.*.*.} o h ` ` j o | -.-.-.-.-.<.<.<.<.<.2.3.3.3.3.3.",
"3.3.3.3.3.3.3.3.3.3.2.<.<.<.<.<.<.-.-.-.-.-.-.-.*.{ X m M X { -.-.-.-.<.<.<.<.<.<.2.3.3.3.3.3.3.",
"3.3.3.3.3.3.3.3.3.3.3.3.<.<.<.<.<.<.<.<.-.-.-.-.-.-.!     ^ -.-.<.<.<.<.<.<.<.<.3.3.3.3.3.3.3.3.",
"3.3.3.3.3.3.3.3.3.3.3.3.3.3.2.<.<.<.<.<.<.<.<.<.<.<.<.Q Q <.<.<.<.<.<.<.<.2.3.3.3.3.3.3.3.3.3.3.",
"3.3.3.3.3.3.3.3.3.3.3.3.3.3.3.3.3.2.<.<.<.<.<.<.<.<.<.<.<.<.<.<.<.<.2.3.3.3.3.3.3.3.3.3.3.3.3.3.",
"3.3.3.3.3.3.3.3.3.3.3.3.3.3.3.3.3.3.3.3.3.3.3.2.2.2.2.2.2.3.3.3.3.3.3.3.3.3.3.3.3.3.3.3.3.3.3.3.",
"3.3.3.3.3.3.3.3.3.3.3.3.3.3.3.3.3.3.3.3.3.3.3.3.3.3.3.3.3.3.3.3.3.3.3.3.3.3.3.3.3.3.3.3.3.3.3.3."
};
