/* XPM */
static char *scan_go[] = {
/* columns rows colors chars-per-pixel */
"48 48 218 2",
"   c #0B0D0D",
".  c #0F1112",
"X  c #151617",
"o  c #1A1B1B",
"O  c #242424",
"+  c #212628",
"@  c #24292B",
"#  c #2A2A2A",
"$  c #2C3D24",
"%  c #28312E",
"&  c #2D3B2C",
"*  c #282E30",
"=  c #2C3233",
"-  c #303030",
";  c #373839",
":  c #3B3C3C",
">  c #29490D",
",  c #33491D",
"<  c #365B16",
"1  c #33511E",
"2  c #3D6C10",
"3  c #3A472D",
"4  c #437416",
"5  c #477917",
"6  c #487D14",
"7  c #487C18",
"8  c #5A741B",
"9  c #46452E",
"0  c #486C23",
"q  c #47652A",
"w  c #547634",
"e  c #646B24",
"r  c #6A642B",
"t  c #616929",
"y  c #6B7E2D",
"u  c #767B37",
"i  c #76723A",
"p  c #79753A",
"a  c #444545",
"s  c #494B46",
"d  c #4B4C4B",
"f  c #4F504D",
"g  c #51534E",
"h  c #4F5152",
"j  c #545653",
"k  c #565854",
"l  c #5A5B54",
"z  c #565959",
"x  c #5C5D5C",
"c  c #566545",
"v  c #5E605C",
"b  c #7F7A41",
"n  c #676857",
"m  c #60615E",
"M  c #7C7750",
"N  c #5E6462",
"B  c #636462",
"V  c #676964",
"C  c #696C65",
"Z  c #65696B",
"A  c #6C6D6A",
"S  c #6C7166",
"D  c #6F716B",
"F  c #71726E",
"G  c #73786C",
"H  c #767675",
"J  c #777974",
"K  c #797B76",
"L  c #7C7D7A",
"P  c #478D02",
"I  c #488C02",
"U  c #458509",
"Y  c #508C0C",
"T  c #4F8F11",
"R  c #578612",
"E  c #50821F",
"W  c #59831A",
"Q  c #599F16",
"!  c #5A9718",
"~  c #59B102",
"^  c #5CA515",
"/  c #5DA11A",
"(  c #61AB1A",
")  c #66B01D",
"_  c #548424",
"`  c #59862D",
"'  c #5B8C2C",
"]  c #649B2A",
"[  c #638E36",
"{  c #669A34",
"}  c #659339",
"|  c #6B9A3A",
" . c #709F3F",
".. c #67A22D",
"X. c #68A928",
"o. c #69B222",
"O. c #75BD2D",
"+. c #73AC3C",
"@. c #73B630",
"#. c #7DBF3B",
"$. c #6EC11C",
"%. c #70C31F",
"&. c #73C422",
"*. c #77C927",
"=. c #76C528",
"-. c #7CCC2D",
";. c #7BC236",
":. c #7FC836",
">. c #658646",
",. c #739552",
"<. c #769B53",
"1. c #76A548",
"2. c #7DB249",
"3. c #738563",
"4. c #79876A",
"5. c #7F807C",
"6. c #81C93C",
"7. c #82D234",
"8. c #85D438",
"9. c #88D73C",
"0. c #8AD83E",
"q. c #83B74D",
"w. c #83BA4B",
"e. c #80AE52",
"r. c #83B454",
"t. c #88BB55",
"y. c #89B75B",
"u. c #81837E",
"i. c #8BAD6A",
"p. c #8DB762",
"a. c #80C140",
"s. c #86CD41",
"d. c #8CD446",
"f. c #8EDB43",
"g. c #8DD04A",
"h. c #91DE46",
"j. c #94DE4B",
"k. c #89C150",
"l. c #8EC25A",
"z. c #90C956",
"x. c #91C05F",
"c. c #92CC5B",
"v. c #92D352",
"b. c #95DA51",
"n. c #98DE52",
"m. c #96D35C",
"M. c #98D35E",
"N. c #9DDF5C",
"B. c #95E14B",
"V. c #98E34E",
"C. c #97E150",
"Z. c #9BE551",
"A. c #95C464",
"S. c #95C26B",
"D. c #9BCB6C",
"F. c #9CD564",
"G. c #9FDC63",
"H. c #9DD06A",
"J. c #9CC573",
"K. c #9FCC73",
"L. c #A0DC65",
"P. c #A2D76E",
"I. c #A4DC6D",
"U. c #A2CE73",
"Y. c #A5D575",
"T. c #A5D973",
"R. c #A8DC75",
"E. c #A8D77B",
"W. c #AADB7A",
"Q. c #A1E163",
"!. c #A9E172",
"~. c #ACE079",
"^. c #838382",
"/. c #868983",
"(. c #888A85",
"). c #8C8D8B",
"_. c #8F918D",
"`. c #92968E",
"'. c #949494",
"]. c #979A95",
"[. c #999B97",
"{. c #999999",
"}. c #97A08D",
"|. c #9DAB8F",
" X c #A1A49F",
".X c #A5B396",
"XX c #A2A2A2",
"oX c #A7A9A5",
"OX c #A8ABA5",
"+X c #ACACAB",
"@X c #AFB0AD",
"#X c #B1B2AF",
"$X c #B4B5B3",
"%X c #B6BBB0",
"&X c #BABABA",
"*X c #AFDD81",
"=X c #B1DE85",
"-X c #B5E585",
";X c #B7E08F",
":X c #BEE598",
">X c #C3C1A6",
",X c #CCE7B2",
"<X c #C4C4C4",
"1X c #C7C8C7",
"2X c #C9CAC7",
"3X c #CACACA",
"4X c #CFD0CF",
"5X c #D1D2CF",
"6X c #D4D4D4",
"7X c #D7D8D7",
"8X c #DBDBDB",
"9X c #E0E0DE",
"0X c #E4E4E4",
"qX c #ECECEC",
"wX c #EBF4E1",
"eX c #F5F4EF",
"rX c #F4F4F3",
"tX c #FFFFFF",
/* pixels */
"tXtXtXtXtXtXtXtXtXtXtXtXtXtXtXtXtXtXtXtXtXtXtXtXtXtXtXtXtXtXtXtXtXtXtXtXtXtXtXtXtXtXtXtXtXtXtXtX",
"tXtXtXtXtXtXtXtXtXtXtXtXtXtXtXtXtXtXtXtXtXtXtXtXtXtXtXtXtXtXtXtXtXtXtXtXtXtXtXtXtXtXtXtXtXtXtXtX",
"tXtXtXtXtXtXtXtXtXtXtXtXtXtXtXtXtXtXtXtXtXtXtXtXtXtXtXtXtXtXtXtXtXtXtXtXtXtXtXtXtXtXtXtXtXtXtXtX",
"tXtXrXL l j j j j j j j j j j j j j j j j j j j j j j j j j j j j j j j j j k L rXtXtXtXtXtXtXtX",
"tXtX$XF $X$X$X$X$X$X$X$X$X$X$X$X$X$X$X$X$X$X$X$X$X$X$X#X#X@X@X+X+X+X+X+XOXOXoXD  XtXtXtXtXtXtXtX",
"tXtX0Xv /.).).).).).).).).).).).).).).).(.(././.^.^.^.u.u.5.L L L K K J J H F v 1XtXtXtXtXtXtXtX",
"tXtXtX$XB /.(.(.(.(.(.(.(.(.(.(./././.^.u.u.u.5.L L L K K J H H H F F F D A m {.tXtXtXtXtXtXtXtX",
"tXtXtXtX(.A (.(.(.(.(.(.(./././.^.u.u.u.5.L L L K K J H H H F F D A A A C B L tXtXtXtXtXtXtXtXtX",
"tXtXtXtXrXV J (.(.(././.^.^.u.u.5.5.L L K K J J J H H F F D A A A C C C B V rXtXtXtXtXtXtXtXtXtX",
"tXtXtXtXtX8Xv 5./.^.^.u.u.5.L L L K K J J H H F F F D A A A C C C C C V x 9XtXtXtXtXtXtXtXtXtXtX",
"tXtXtXtXtXtX$XB u.u.5.L L L K K J H H H F F F D A A A C C C C C C C V v <XtXtXtXtXtXtXtXtXrXtXtX",
"tXtXtXtXtXtXtX5.V L L K K J H H H F F D A A A C C C C C C C C C C / ^ ) O.~ ,XtXtXtXtXtXtX0XtXtX",
"tXtXtXtXtXtXrXk l A H F D A A C C V V B B B B B B B V V V V C C ] c.W.=X*X;.tXtXtXtXtXtXtX8XtXtX",
"tXtXtXtXtXtX5XH [.j j g g g f f d s s s s s s s d d d d d f g w #.M.$.T.O.wXtXtXtXtXtXtXrX8XtXtX",
"tXtXtXtXtXtXXX^.`.J G j j g S S C C C C C C C C C S S D D j c o.P.$.v.a.i.+X3XtXtXtXtXtX0X8XtXtX",
"tXtXtXtXtXtXH ].(.K J G C S S S C C C V V V C C C C S D F G ( T.=.=.P.^ rXrX1X<XtXtXtXtX6X0XtXtX",
"tXtXtXtXtXrXx +X/.u.k # # # # # # # # # # # # # # # # # # 6 c.6.$.F.O.3.1XtXtX<X7XtXtXqX$XtXtXtX",
"tXtXtXtXtX3XJ OX(./.a o O O O O O O O O O O O @ # # # # , @.F.$.:.M.+.'.'.tXtXrX$X7X7X+X0XtXtXtX",
"tXtXtXtXtXXX_.oX`._.; O a a a a s a s a a a s d d d d s ^ T.&.$.P.o.}.#XB tXtXtXrX1X3XqXtXtXtXtX",
"tXtXtXtXtXH +XoX[.].- # d d d j j j j d d d j j j j j _ c.:.$.6.z.1. X&XA 0XtXtXtXtXtXtXtXtXtXtX",
"tXtXtXtXrXx <X+XoX{.# ; j z z x x x x x x x x x j a 3 X.F.%.$.P.Q  X+X&X'.#XtXtXtXtXtXtXtXtXtXtX",
"tXtXtXtX3Xu.3X$X$X'.- d x B B V Z Z A B h : # X     U T.-.&.s.k.0 OX&X<X&XL tXtXtXtXtXtXtXtXtXtX",
"tXtXtXtXXXXX1X&X$X/.# z B B x j a = o . . . . . . > w.v.*.=.T.T f '.&X<X7Xx rXtXtXtXtXtXtXtXtXtX",
"tXtXtXtXH <X1X&X&XH P I Y Y Y Y R e r r r r r r e ! W.-.-.g.w.8 l L &X<X7X/.3XtXtXtXtXtXtXtXtXtX",
"tXtXtXrXx 8X1X<X&XB t ] l.;XT.R.Y.2.p.eXrXrXrXrXr.H.d.-.-.W...>XM B <X1X6X+X].tXtXtXtXtXtXtXtXtX",
"tXtXtX3X^.7X1X1X1Xd 9 p W t.m.-.7.L.x.W b b b u ] T.7.7.v.q.y i n s 1X1X3X3XV tXtXtXtXtXtXtXtXtX",
"tXtXtXXXXX6X1X1X1Xa @ @ @ 2 D.d.7.7.G.r.< + + 2 Y.d.8.7.W.6 @ @ z : 1X1X1X8XD 0XtXtXtXtXtXtXtXtX",
"tXtXtXH <X3X1X1X<X; * * * % 5 Y.8.8.9.R.{ $ $ { I.0.9.b.t.1 * * h h +X1X1X6X{.$XtXtXtXtXtXtXtXtX",
"tXtXrXx 8X3X1X1X$X: = = = = & } L.9.0.f.*X7 4 W.j.f.0.W.E N B Z H x {.1X1X3X&X5.tXtXtXtXtXtXtXtX",
"tXtX3X^.7X1X1X1X&X: a a s d d q S.j.f.f.N.y.' !.h.f.b.A.q d d d d : OX1X1X3X7Xv rXtXtXtXtXtXtXtX",
"tXtXXXoX6X1X1X1X1X&X+X+X+X+X+X+X' W.f.h.B.-X:XC.j.h.~.' XX+X+X+X+X$X1X1X1X1X7X^.3XtXtXtXtXtXtXtX",
"tXtXJ <X3X1X1X1X1X1X1X1X1X1X1X1X.Xe.L.h.B.Q.-XV.B.n.D.<.1X1X1X1X1X1X1X1X1X1X6X+X[.tXtXtXtXtXtXtX",
"tXrXv 7X<X<X<X<X<X<X<X<X<X<X<X<X<X} E.j.B.Z.Z.V.B.!.| %X<X<X<X<X<X<X<X<X<X<X3X3XV tXtXtXtXtXtXtX",
"tX3XL 3X&X3X3X&X&X&X&X&X&X&X&X&X&XOX .!.B.V.V.V.B.E.[ &X&X&X&X&X&X&X&X&X&X&X&X6XB qXtXtXtXtXtXtX",
"tX<X^.<X+X<X<X+X3X3X3X3X3X3X3X3X3X3X<.U.j.B.B.B.Q.r..X3X3X3X3X3X3X3X3X3X3X3X<X1XF 8XtXtXtXtXtXtX",
"tX2X5.&XXXXXXXXXXXoX'.$X).).3XoX'.$X/.| I.h.h.h.W.' XXoXoXoXoXoXoXoXoXoXoXoXXX<XD 8XtXtXtXtXtXtX",
"tX3XK $X{.{.{.{.{.{.'.+X'.{.1X{.'.+X'.` J.K.K.K.S.` {.{.{.{.{.{.{.{.{.{.{.{.{.&XA 8XtXtXtXtXtXtX",
"tX3XH $X).).).).).).'.XX+X&X$X).'.XX+X|.,.>.>.>.>.4.).).).).).).).).).).).).).$XC 0XtXtXtXtXtXtX",
"tX7XD +X^.^.^.^.^.^.^.^.^.^.^.^.^.^.^.^.^.^.^.^.^.^.^.^.^.^.^.^.^.^.^.^.^.^.^.+XB 0XtXtXtXtXtXtX",
"tX8XV oXK H H H H H H H H H H H H H H H H H H H H H H H H H H H H H H H H H K OXv qXtXtXtXtXtXtX",
"tXtXB ).XXXXXXXXXXXXXXXXXXXXXXXXXXXXXXXXXXXXXXXXXXXXXXXXXXXXXXXXXXXXXXXXXXXXXX).v tXtXtXtXtXtXtX",
"tXtX3Xx m B B B B B B B B B m m m m m m m m m m m m m m m B B B B B B B B B m x 3XtXtXtXtXtXtXtX",
"tXtXtXtXqX0X0X8X8X7X6X6X6X3X3X3X3X1X1X1X1X1X1X1X1X1X3X3X3X4X6X6X7X7X8X8X0X0XqXtXtXtXtXtXtXtXtXtX",
"tXtXtXtXtXtXtXtXrXrXrXrXqXqXqX0X0X0X0X0X0X0X0X0X0X0X0X0XqXqXqXrXrXrXrXtXtXtXtXtXtXtXtXtXtXtXtXtX",
"tXtXtXtXtXtXtXtXtXtXtXrXrXrXrXrXrXrXqXqXqXqXqXqXqXrXrXrXrXrXrXtXtXtXtXtXtXtXtXtXtXtXtXtXtXtXtXtX",
"tXtXtXtXtXtXtXtXtXtXtXtXtXtXtXtXtXtXtXtXtXtXtXtXtXtXtXtXtXtXtXtXtXtXtXtXtXtXtXtXtXtXtXtXtXtXtXtX",
"tXtXtXtXtXtXtXtXtXtXtXtXtXtXtXtXtXtXtXtXtXtXtXtXtXtXtXtXtXtXtXtXtXtXtXtXtXtXtXtXtXtXtXtXtXtXtXtX",
"tXtXtXtXtXtXtXtXtXtXtXtXtXtXtXtXtXtXtXtXtXtXtXtXtXtXtXtXtXtXtXtXtXtXtXtXtXtXtXtXtXtXtXtXtXtXtXtX"
};
