/* XPM */
static char *scan[] = {
/* columns rows colors chars-per-pixel */
"48 48 100 2",
"   c #0C620DE30E8F",
".  c #0D0D0F0F1010",
"X  c #0F0F11361237",
"o  c #11B213D414B5",
"O  c #1AB41B4E1BB5",
"+  c #236C24302461",
"@  c #21BF26892877",
"#  c #25FB2B812D4A",
"$  c #2AD32AF32AFB",
"%  c #28422E2E3030",
"&  c #2C8231DC3389",
"*  c #3373337333B4",
"=  c #303036363838",
"-  c #34B5383839BA",
";  c #3B913C593C92",
":  c #40403F3F2D2D",
">  c #464645452E2E",
",  c #65655F5F2B2B",
"<  c #676762622B2B",
"1  c #6AE465142BE8",
"2  c #676762623333",
"3  c #767672723A3A",
"4  c #797975753B3B",
"5  c #39393F3F4141",
"6  c #3D3D43434545",
"7  c #446F44B6448B",
"8  c #49494B4B4747",
"9  c #414146464848",
"0  c #424248484949",
"q  c #4B904C914BEE",
"w  c #4EF950FB4CF7",
"e  c #5126537E4EA4",
"r  c #4CCC4F4F50D0",
"t  c #4ECF52125313",
"y  c #542955DF52F9",
"u  c #5631587C540B",
"i  c #5A585B565596",
"p  c #561659195999",
"a  c #5BED5D365C40",
"s  c #5E8960C65CAE",
"d  c #7F7F7A7A4171",
"f  c #676768685757",
"g  c #612D623D5F31",
"h  c #7C7C77775050",
"j  c #5A5A5E5E6060",
"k  c #5F5F64646565",
"l  c #637C64A1620C",
"z  c #6754692B64B8",
"x  c #69D06BE865EC",
"c  c #656569696B6B",
"v  c #6C616D606A1F",
"b  c #6C6C710366AF",
"n  c #6EED717A6B4E",
"m  c #719173296E55",
"M  c #741E79236E18",
"N  c #763B76E57535",
"B  c #770C797073E2",
"V  c #79657B3F7611",
"C  c #7C6D7DBE7A22",
"Z  c #80807B254242",
"A  c #7F4281547C8A",
"S  c #814683277E44",
"D  c #848488887F7F",
"F  c #834183E48262",
"G  c #871C891D83EE",
"H  c #88B18AEC857C",
"J  c #8CF98DAE8BF3",
"K  c #8F8192008D80",
"L  c #929296968E8E",
"P  c #94C29522942A",
"I  c #97419A449494",
"U  c #99A49B77972F",
"Y  c #99DA9A17997E",
"T  c #9F9FA1A19C9C",
"R  c #A1A1A3A39F9F",
"E  c #A32EA358A306",
"W  c #A727A9A9A525",
"Q  c #A8DBAA10A6D9",
"!  c #AC3CAC7DABDC",
"~  c #AFAFB0B0ADAD",
"^  c #B139B276AF7B",
"/  c #B4E0B58AB39D",
"(  c #B7ADB88BB6CF",
")  c #BAA9BAB9BA95",
"_  c #C5C5C2C2A8A8",
"`  c #C4DBC4F9C4CB",
"'  c #C7CEC8D6C7CE",
"]  c #CA9BCAB7CA90",
"[  c #CFEAD0D8CFEA",
"{  c #D4D4D3D3C0C0",
"}  c #D0C2D0C2CFEB",
"|  c #D45BD4BBD44D",
" . c #D8C1D8C1D7DF",
".. c #DBD7DC22DBCB",
"X. c #DFEEE0D1DFEE",
"o. c #E0E9E0E9DFCD",
"O. c #E483E4BBE483",
"+. c #ECBDECBDECB2",
"@. c #F5A2F541F3BA",
"#. c #FFC5FFC5FFC5",
/* pixels */
"#.#.#.#.#.#.#.#.#.#.#.#.#.#.#.#.#.#.#.#.#.#.#.#.#.#.#.#.#.#.#.#.#.#.#.#.#.#.#.#.#.#.#.#.#.#.#.#.",
"#.#.#.#.#.#.#.#.#.#.#.#.#.#.#.#.#.#.#.#.#.#.#.#.#.#.#.#.#.#.#.#.#.#.#.#.#.#.#.#.#.#.#.#.#.#.#.#.",
"#.#.#.#.#.#.#.#.#.#.#.#.#.#.#.#.#.#.#.#.#.#.#.#.#.#.#.#.#.#.#.#.#.#.#.#.#.#.#.#.#.#.#.#.#.#.#.#.",
"#.#.@.C i u u u u u u u u u u u u u u u u u u u u u u u u u u u u u u u u u u C @.#.#.#.#.#.#.#.",
"#.#.( m / / / / / / / / / / / / / / / / / / / / / / / ^ ^ ~ ~ ! ! ! ! ! Q Q Q n E #.#.#.#.#.#.#.",
"#.#.O.s G J J J J J J J J J J J J J J J H H G G F F F S S A C C C V V V B N m s ' #.#.#.#.#.#.#.",
"#.#.#.( l G H H H H H H H H H H G G G F S S S A C C C V V B N N N m m m n v g Y #.#.#.#.#.#.#.#.",
"#.#.#.#.H n H H H H H H H G G G F S S S A C C C V V B N N N m m n v v v x l C #.#.#.#.#.#.#.#.#.",
"#.#.#.#.@.z B H H H G G F F S S A A C C V V V B B N N m m n v v v x x x l z @.#.#.#.#.#.#.#.#.#.",
"#.#.#.#.#...s A G F F S S A C C C V V B B N N m m m n v v v x x x x x z a o.#.#.#.#.#.#.#.#.#.#.",
"#.#.#.#.#.#.( l S S A C C C V V B N N N m m m n v v v x x x x x x x z s ` #.#.#.#.#.#.#.#.@.#.#.",
"#.#.#.#.#.#.#.A x C C V V B N N N m m n v v v x x x x x x x x x x x l Y #.#.#.#.#.#.#.#.#.+.#.#.",
"#.#.#.#.#.#.@.u i v N m n v v x x z z l l l l l l l z z z z x x x s u O.#.#.#.#.#.#.#.#.#...#.#.",
"#.#.#.#.#.#.| N U y y e e e w w q 8 8 8 8 8 8 8 8 q q q q w e e u u A ! @.#.#.#.#.#.#.#.@...#.#.",
"#.#.#.#.#.#.E F L B M y y e b b x x x x x x x x x b b n n y u u M H I z ! ! ] #.#.#.#.#.+...#.#.",
"#.#.#.#.#.#.N I H V B M x b b b x x x z z z x x x x b n m M b B V A W a @.@.' ` #.#.#.#.| O.#.#.",
"#.#.#.#.#.@.a ! G S u $ $ $ $ $ $ $ $ $ $ $ $ $ $ $ $ $ $ $ $ $ M D W C ' #.#.`  .#.#.+.( #.#.#.",
"#.#.#.#.#.} B Q H G 7 O + + + + + + + + + + + + $ $ $ $ + + O $ z J T I P #.#.@./  . .! O.#.#.#.",
"#.#.#.#.#.E K W L K - + 7 7 7 8 8 8 8 8 8 8 8 8 8 8 8 8 7 7 ; + i P Y ^ l #.#.#.@.' ] +.#.#.#.#.",
"#.#.#.#.#.N ! W Y I * $ q q q y y y y q q q y y y y y y y q q $ 7 Y R ) v O.#.#.#.#.#.#.#.#.#.#.",
"#.#.#.#.@.a ` ! W Y $ - y p p a a a a a a a a a y 7 - $ + O o + - Q ! ) P ^ #.#.#.#.#.#.#.#.#.#.",
"#.#.#.#.} S ] ( / P * 8 a l l z c c v l t ; $ o             . O 7 Q ( ` ) C #.#.#.#.#.#.#.#.#.#.",
"#.#.#.#.E E ' ) / G $ p l l a y 7 & O X X X X X X X o o o o o o r P ) `  .s @.#.#.#.#.#.#.#.#.#.",
"#.#.#.#.B ` ' ) ) N : < 1 1 1 1 1 1 1 1 1 1 1 1 1 1 1 1 1 1 1 , i C ) `  .G ] #.#.#.#.#.#.#.#.#.",
"#.#.#.@.s ..' ` ) l 2 { @.@.@.@.@.@.@.@.@.@.@.@.@.@.@.@.@.@.@._ h l ` ' | ! U #.#.#.#.#.#.#.#.#.",
"#.#.#.] F  .' ' ' q > 4 Z d d d d d d d d d d d d d d d d Z Z 3 f 8 ' ' ] ] z #.#.#.#.#.#.#.#.#.",
"#.#.#.E W | ' ' ' 7 # @ @ @ @ @ @ @ @ @ @ @ @ @ @ @ @ @ @ @ @ # p ; ' ' ' ..n O.#.#.#.#.#.#.#.#.",
"#.#.#.N ` ] ' ' ` - % % % % % # # # # # # # # # # # # % % % % % t t ! ' ' | Y / #.#.#.#.#.#.#.#.",
"#.#.@.s ..] ' ' / ; & & & & & = - ; 5 6 9 0 q r t y p a j k l c N a Y ' ' ] ) A #.#.#.#.#.#.#.#.",
"#.#.] F  .' ' ' ) ; 7 7 8 q q q q q q q q q q q q q q q q q q q q ; Q ' ' ]  .s @.#.#.#.#.#.#.#.",
"#.#.E W | ' ' ' ' ) ! ! ! ! ! ! ! ! ! ! ! ! ! ! ! ! ! ! ! ! ! ! ! / ' ' ' '  .F ] #.#.#.#.#.#.#.",
"#.#.B ` ] ' ' ' ' ' ' ' ' ' ' ' ' ' ' ' ' ' ' ' ' ' ' ' ' ' ' ' ' ' ' ' ' ' | ! Y #.#.#.#.#.#.#.",
"#.@.s  .` ` ` ` ` ` ` ` ` ` ` ` ` ` ` ` ` ` ` ` ` ` ` ` ` ` ` ` ` ` ` ` ` ` ] ] z #.#.#.#.#.#.#.",
"#.] C ] ) ] ] ) ) ) ) ) ) ) ) ) ) ) ) ) ) ) ) ) ) ) ) ) ) ) ) ) ) ) ) ) ) ) ) | l +.#.#.#.#.#.#.",
"#.` F ` ! ` ` ! ] ] ] ] ] ] ] ] ] ] ] ] ] ] ] ] ] ] ] ] ] ] ] ] ] ] ] ] ] ] ` ' N ..#.#.#.#.#.#.",
"#.] A ) E E E E E W P / J J ] W P / J J ] W W W W W W W W W W W W W W W W W E ` n ..#.#.#.#.#.#.",
"#.] V ( Y Y Y Y Y Y P ! P Y ' Y P ! P Y ' Y Y Y Y Y Y Y Y Y Y Y Y Y Y Y Y Y Y ) v ..#.#.#.#.#.#.",
"#.| N / J J J J J J P E ! ) / J P E ! ) / J J J J J J J J J J J J J J J J J J / x O.#.#.#.#.#.#.",
"#. .m ! F F F F F F F F F F F F F F F F F F F F F F F F F F F F F F F F F F F ! l O.#.#.#.#.#.#.",
"#.X.z W V N N N N N N N N N N N N N N N N N N N N N N N N N N N N N N N N N V Q g +.#.#.#.#.#.#.",
"#.#.l J E E E E E E E E E E E E E E E E E E E E E E E E E E E E E E E E E E E J g #.#.#.#.#.#.#.",
"#.#.] a g l l l l l l l l l g g g g g g g g g g g g g g g l l l l l l l l l g a ] #.#.#.#.#.#.#.",
"#.#.#.#.+.O.O..... .| | | ] ] ] ] ' ' ' ' ' ' ' ' ' ] ] ] [ | |  . .....O.O.+.#.#.#.#.#.#.#.#.#.",
"#.#.#.#.#.#.#.#.@.@.@.@.+.+.+.+.O.O.O.O.O.O.O.O.O.O.O.+.+.+.+.@.@.@.@.#.#.#.#.#.#.#.#.#.#.#.#.#.",
"#.#.#.#.#.#.#.#.#.#.#.@.@.@.@.@.@.@.+.+.+.+.+.+.+.@.@.@.@.@.@.#.#.#.#.#.#.#.#.#.#.#.#.#.#.#.#.#.",
"#.#.#.#.#.#.#.#.#.#.#.#.#.#.#.#.#.#.#.#.#.#.#.#.#.#.#.#.#.#.#.#.#.#.#.#.#.#.#.#.#.#.#.#.#.#.#.#.",
"#.#.#.#.#.#.#.#.#.#.#.#.#.#.#.#.#.#.#.#.#.#.#.#.#.#.#.#.#.#.#.#.#.#.#.#.#.#.#.#.#.#.#.#.#.#.#.#.",
"#.#.#.#.#.#.#.#.#.#.#.#.#.#.#.#.#.#.#.#.#.#.#.#.#.#.#.#.#.#.#.#.#.#.#.#.#.#.#.#.#.#.#.#.#.#.#.#."
};
