/* XPM */
static char *scanmode[] = {
/* columns rows colors chars-per-pixel */
"64 64 93 2",
"   c #0C0E0E",
".  c #0D0F10",
"X  c #0E1011",
"o  c #141516",
"O  c #1C1C1C",
"+  c #2B2A1A",
"@  c #222222",
"#  c #252B2C",
"$  c #2B2B2C",
"%  c #383827",
"&  c #33342E",
"*  c #393A2B",
"=  c #292F30",
"-  c #2D3234",
";  c #353635",
":  c #373936",
">  c #383837",
",  c #333739",
"<  c #36393A",
"1  c #3B3C3B",
"2  c #3F403E",
"3  c #44442C",
"4  c #454336",
"5  c #41413F",
"6  c #4B4A3B",
"7  c #514F3F",
"8  c #767037",
"9  c #7B763E",
"0  c #3C3F40",
"q  c #3D4244",
"w  c #444445",
"e  c #464748",
"r  c #444B4C",
"t  c #4C4C4D",
"y  c #4D4F50",
"u  c #4D5254",
"i  c #545556",
"p  c #575854",
"a  c #595A56",
"s  c #565859",
"d  c #5B5D5B",
"f  c #5E605C",
"g  c #7C7643",
"h  c #7E7A40",
"j  c #61635E",
"k  c #636562",
"l  c #666962",
"z  c #6A6B66",
"x  c #6C6D6A",
"c  c #6C7166",
"v  c #6F716B",
"b  c #71736D",
"n  c #73796E",
"m  c #747571",
"M  c #777874",
"N  c #797B76",
"B  c #7A7B79",
"V  c #7C8275",
"C  c #7F817C",
"Z  c #81847E",
"A  c #A19C74",
"S  c #858684",
"D  c #878885",
"F  c #888A85",
"G  c #8D8E8C",
"H  c #8F918D",
"J  c #90928E",
"K  c #939492",
"L  c #969894",
"P  c #999A97",
"I  c #9C9C9C",
"U  c #9FA09D",
"Y  c #ACA784",
"T  c #ACA884",
"R  c #B1AE8C",
"E  c #A1A49D",
"W  c #BEBB9F",
"Q  c #A3A3A3",
"!  c #A7A9A5",
"~  c #AAAAAA",
"^  c #AFB0AE",
"/  c #BFBCA0",
"(  c #B0B0AF",
")  c #B4B4B4",
"_  c #B8B8B7",
"`  c #BDBDBD",
"'  c #C0C0BF",
"]  c #C3C3C3",
"[  c #CCCCCC",
"{  c #D0D0CF",
"}  c #D4D4D4",
"|  c #D9D9D9",
" . c None",
/* pixels */
" . . . . . . . . . . . . . . . . . . . . . . . . . . .[ [ [ [ [ [ [ [ [ [  . . . . . . . . . . . . . . . . . . . . . . . . . . .",
" . . . . . . . . . . . . . . . . . . . . . . .[ [ [ [ [ [ [ [ [ [ [ [ [ [ [ [ [ [  . . . . . . . . . . . . . . . . . . . . . . .",
" . . . . . . . . . . . . . . . . . . . .[ [ [ [ [ [ [ [ [ [ [ [ [ [ [ [ [ [ [ [ [ [ [ [  . . . . . . . . . . . . . . . . . . . .",
" . . . . . . . . . . . . . . . . . .[ [ [ [ [ [ [ [ [ [ [ [ [ [ [ [ [ [ [ [ [ [ [ [ [ [ [ [  . . . . . . . . . . . . . . . . . .",
" . . . . . . . . . . . . . . . .[ [ [ [ [ [ [ [ [ [ [ [ [ [ [ [ [ [ [ [ [ [ [ [ [ [ [ [ [ [ [ [  . . . . . . . . . . . . . . . .",
" . . . . . . . . . . . . . .[ [ [ [ [ [ [ [ [ [ [ [ [ [ [ [ [ [ [ [ [ [ [ [ [ [ [ [ [ [ [ [ [ [ [ [  . . . . . . . . . . . . . .",
" . . . . . . . . . . . . .[ [ [ [ [ [ [ [ [ [ [ [ [ [ [ [ [ [ [ [ [ [ [ [ [ [ [ [ [ [ [ [ [ [ [ [ [ [  . . . . . . . . . . . . .",
" . . . . . . . . . . . .[ [ [ [ [ [ [ [ [ [ [ [ [ [ [ [ [ [ [ [ [ [ [ [ [ [ [ [ [ [ [ [ [ [ [ [ [ [ [ [  . . . . . . . . . . . .",
" . . . . . . . . . .[ [ [ [ [ [ [ [ [ [ [ [ [ [ [ [ [ [ [ [ [ [ [ [ [ [ [ [ [ [ [ [ [ [ [ [ [ [ [ [ [ [ [ [  . . . . . . . . . .",
" . . . . . . . . .[ [ [ [ [ [ [ [ [ [ [ [ [ [ [ [ [ [ [ [ [ [ [ [ [ [ [ [ [ [ [ [ [ [ [ [ [ [ [ [ [ [ [ [ [ [  . . . . . . . . .",
" . . . . . . . .[ [ [ [ [ [ [ [ [ [ [ [ [ [ [ [ [ [ [ [ [ [ [ [ [ [ [ [ [ [ [ [ [ [ [ [ [ [ [ [ [ [ [ [ [ [ [ [  . . . . . . . .",
" . . . . . . . .[ [ [ [ [ [ [ [ [ [ [ [ [ [ [ [ [ [ [ [ [ [ [ [ [ [ [ [ [ [ [ [ [ [ [ [ [ [ [ [ [ [ [ [ [ [ [ [  . . . . . . . .",
" . . . . . . .[ [ [ [ [ [ [ [ [ ) F D D D D D D D D D D D D D D D D D D D D D D D D D D D D D D G _ [ [ [ [ [ [ [  . . . . . . .",
" . . . . . .[ [ [ [ [ [ [ [ [ ) j J P P P P P P P P P P P P P P P P P P P L L L L K K K K K K J S d ) [ [ [ [ [ [ [  . . . . . .",
" . . . . .[ [ [ [ [ [ [ [ [ [ _ j J L L L L L L L L L L L L L L K K J J H G G G G F F D S S S Z B f _ [ [ [ [ [ [ [ [  . . . . .",
" . . . . .[ [ [ [ [ [ [ [ [ [ [ J z F F F F F F F F F F F D S S Z Z C C B B N N M M m m b b v x j K [ [ [ [ [ [ [ [ [  . . . . .",
" . . . .[ [ [ [ [ [ [ [ [ [ [ [ [ m m F F F F F F D D S S Z Z C B B B N N M m m m b b v x x z k B [ [ [ [ [ [ [ [ [ [ [  . . . .",
" . . . .[ [ [ [ [ [ [ [ [ [ [ [ [ ] j C F F D S S S Z Z C B B B N M M m m b b b x x x z z z l l ] [ [ [ [ [ [ [ [ [ [ [  . . . .",
" . . .[ [ [ [ [ [ [ [ [ [ [ [ [ [ [ ~ f S S Z Z Z C B B N N M M m m b b v x x z z z z z z l f ` [ [ [ [ [ [ [ [ [ [ [ [ [  . . .",
" . . .[ [ [ [ [ [ [ [ [ [ [ [ [ [ [ [ J z C C B B N N M M m m b b v x x z z z z z z z z z f ~ [ [ [ [ [ [ [ ] [ [ [ [ [ [  . . .",
" . .[ [ [ [ [ [ [ [ [ [ [ [ [ [ [ [ [ ` j x N N M m m m b b v x x z z z z z z z z z z z f G [ [ [ [ [ [ [ [ ] [ [ [ [ [ [ [  . .",
" . .[ [ [ [ [ [ [ [ [ [ [ [ [ [ [ [ [ I N d k k j f d d d a a a p p a a a a d d d f j f j G [ [ [ [ [ [ [ [ ` [ [ [ [ [ [ [  . .",
" . .[ [ [ [ [ [ [ [ [ [ [ [ [ [ [ [ [ N P Z v f j a l l l l l k l l l l l l z l f k l n E l _ _ [ [ [ [ [ [ _ [ [ [ [ [ [ [  . .",
" .[ [ [ [ [ [ [ [ [ [ [ [ [ [ [ [ [ [ j ! V N n j l b c c c z z z z z z c c v b l j n N E z ) _ ~ ] [ [ [ ] _ [ [ [ [ [ [ [ [  .",
" .[ [ [ [ [ [ [ [ [ [ [ [ [ [ [ [ [ _ m E Z N 2 1 1 > > : : ; ; ; ; ; ; : : > > 1 1 p Z P S U [ ] ~ ] [ [ _ ` [ [ [ [ [ [ [ [  .",
" .[ [ [ [ [ [ [ [ [ [ [ [ [ [ [ [ [ I G U G M $ O O O O @ @ @ @ @ @ @ @ @ @ @ @ @ o > F K E B [ [ ] ~ ` ) ) [ [ [ [ [ [ [ [ [  .",
" .[ [ [ [ [ [ [ [ [ [ [ [ [ [ [ [ [ B ! U K x @ 1 1 1 w w w w w w w w e e w w w 1 @ ; H L ) j [ [ [ ] ) ` [ [ [ [ [ [ [ [ [ [  .",
"[ [ [ [ [ [ [ [ [ [ [ [ [ [ [ [ [ [ k ` E I k @ w e t t t t t t t t t t t y t t t < > F U ) C ) [ [ [ [ [ [ [ [ [ [ [ [ [ [ [ [ ",
"[ [ [ [ [ [ [ [ [ [ [ [ [ [ [ [ [ _ B ] ~ ! i # t i i i s s s s i s i w ; $ @ O o   > B ~ _ Q G [ [ [ [ [ [ [ [ [ [ [ [ [ [ [ [ ",
"[ [ [ [ [ [ [ [ [ [ [ [ [ [ [ [ [ P I ] _ ) w ; s d k k k k i 0 $ O           . . X ; k ) _ ] x [ [ [ [ [ [ [ [ [ [ [ [ [ [ [ [ ",
"[ [ [ [ [ [ [ [ [ [ [ [ [ [ [ [ [ B ` ] _ ) > & 7 6 6 4 % + + + + + + + + + + + + + 1 t _ ` } v ] [ [ [ [ [ [ [ [ [ [ [ [ [ [ [ ",
"[ [ [ [ [ [ [ [ [ [ [ [ [ [ [ [ [ k | ] ` ) 4 8 T T Y Y Y Y Y Y Y Y Y Y Y Y Y Y T A g 5 ` ] } P U [ [ [ [ [ [ [ [ [ [ [ [ [ [ [ ",
"[ [ [ [ [ [ [ [ [ [ [ [ [ [ [ [ _ B | [ ] ~ 6 9 / / / / / W W W W W W W W / / / / R h t ` [ [ ' B [ [ [ [ [ [ [ [ [ [ [ [ [ [ [ ",
"[ [ [ [ [ [ [ [ [ [ [ [ [ [ [ [ P Q } [ [ I < * 3 3 3 3 3 3 3 3 3 3 3 3 3 3 3 3 3 3 : d Q [ [ | k [ [ [ [ [ [ [ [ [ [ [ [ [ [ [ ",
"[ [ [ [ [ [ [ [ [ [ [ [ [ [ [ [ B ] [ [ [ S - # # # # # # # # # # # # # # # # # # # = k F [ [ } D ) [ [ [ [ [ [ [ [ [ [ [ [ [ [ ",
"[ [ [ [ [ [ [ [ [ [ [ [ [ [ [ [ k | [ [ [ x ; - - - - - - - - , < 0 q w r r y u i s d x l [ [ } ^ H [ [ [ [ [ [ [ [ [ [ [ [ [ [ ",
"[ [ [ [ [ [ [ [ [ [ [ [ [ [ [ ) B | [ [ [ m 1 w e e t y i i i i i i i i i i i i i i i e x [ [ [ { x [ [ [ [ [ [ [ [ [ [ [ [ [ [ ",
" .[ [ [ [ [ [ [ [ [ [ [ [ [ [ P Q } [ [ [ ] ~ ~ ~ ~ ~ ~ ~ ~ ~ ~ ~ ~ ~ ~ ~ ~ ~ ~ ~ ~ ~ ~ ] [ [ [ | v ] [ [ [ [ [ [ [ [ [ [ [ [  .",
" .[ [ [ [ [ [ [ [ [ [ [ [ [ [ B ] [ [ [ [ [ [ [ [ [ [ [ [ [ [ [ [ [ [ [ [ [ [ [ [ [ [ [ [ [ [ [ } P U [ [ [ [ [ [ [ [ [ [ [ [  .",
" .[ [ [ [ [ [ [ [ [ [ [ [ [ [ k } ] ] ] ] ] ] ] ] ] ] ] ] ] ] ] ] ] ] ] ] ] ] ] ] ] ] ] ] ] ] ] ] ` B [ [ [ [ [ [ [ [ [ [ [ [  .",
" .[ [ [ [ [ [ [ [ [ [ [ [ [ ` M [ _ } ] ) ` ` ` ` ` ` ` ` ` ` ` ` ` ` ` ` ` ` ` ` ` ` ` ` ` ` ` _ [ k [ [ [ [ [ [ [ [ [ [ [ [  .",
" . .[ [ [ [ [ [ [ [ [ [ [ [ ` m ] ~ _ ) ~ ` ) _ ! ~ ] ` ) ~ ~ ) ] ` ` ` ` ` ` ` ` ` ` ` ` ` ` ` ~ ] k [ [ [ [ [ [ [ [ [ [ [  . .",
" . .[ [ [ [ [ [ [ [ [ [ [ [ ` v _ I I I I I L _ G G ] I I ~ G ! ) I I I I I I I I I I I I I I I I ` k ] [ [ [ [ [ [ [ [ [ [  . .",
" . .[ [ [ [ [ [ [ [ [ [ [ [ ] z ) K K K K K K Q Q ) ] K L Q ~ ` ! K K K K K K K K K K K K K K K K ) k ] [ [ [ [ [ [ [ [ [ [  . .",
" . . .[ [ [ [ [ [ [ [ [ [ [ ] k ~ S S S S S S G K L G S D G K L S S S S S S S S S S S S S S S S D ~ k ] [ [ [ [ [ [ [ [ [  . . .",
" . . .[ [ [ [ [ [ [ [ [ [ [ [ d ~ B B B B B B B B B B B B B B B B B B B B B B B B B B B B B B B B I l ] [ [ [ [ [ [ [ [ [  . . .",
" . . . .[ [ [ [ [ [ [ [ [ [ [ x G I I I I I I I I I I I I I I I I I I I I I I I I I I I I I I I I S S [ [ [ [ [ [ [ [ [  . . . .",
" . . . .[ [ [ [ [ [ [ [ [ [ [ ( z k l l l l k k k k k k k k k k k k k k k k k k k k k k k l l l f z _ [ [ [ [ [ [ [ [ [  . . . .",
" . . . . .[ [ [ [ [ [ [ [ [ [ [ [ ] ` _ _ ) ) ~ ~ ~ ! ! Q Q Q Q Q Q Q Q Q Q Q ! ~ ~ ~ ~ ) ) _ _ ] [ [ [ [ [ [ [ [ [ [  . . . . .",
" . . . . .[ [ [ [ [ [ [ [ [ [ [ [ [ [ [ [ ] ] ` ` _ _ _ _ ) ) ) ) ) ) ) ) ) _ _ _ ` ` ] ] ] [ [ [ [ [ [ [ [ [ [ [ [ [  . . . . .",
" . . . . . .[ [ [ [ [ [ [ [ [ [ [ [ [ [ [ [ [ [ ] ] ] ] ` ` ` ` ` ` ` ` ` ` ` ] ] ] [ [ [ [ [ [ [ [ [ [ [ [ [ [ [ [  . . . . . .",
" . . . . . . .[ [ [ [ [ [ [ [ [ [ [ [ [ [ [ [ [ [ [ [ [ [ [ [ [ [ [ [ [ [ [ [ [ [ [ [ [ [ [ [ [ [ [ [ [ [ [ [ [ [  . . . . . . .",
" . . . . . . . .[ [ [ [ [ [ [ [ [ [ [ [ [ [ [ [ [ [ [ [ [ [ [ [ [ [ [ [ [ [ [ [ [ [ [ [ [ [ [ [ [ [ [ [ [ [ [ [  . . . . . . . .",
" . . . . . . . .[ [ [ [ [ [ [ [ [ [ [ [ [ [ [ [ [ [ [ [ [ [ [ [ [ [ [ [ [ [ [ [ [ [ [ [ [ [ [ [ [ [ [ [ [ [ [ [  . . . . . . . .",
" . . . . . . . . .[ [ [ [ [ [ [ [ [ [ [ [ [ [ [ [ [ [ [ [ [ [ [ [ [ [ [ [ [ [ [ [ [ [ [ [ [ [ [ [ [ [ [ [ [ [  . . . . . . . . .",
" . . . . . . . . . .[ [ [ [ [ [ [ [ [ [ [ [ [ [ [ [ [ [ [ [ [ [ [ [ [ [ [ [ [ [ [ [ [ [ [ [ [ [ [ [ [ [ [ [  . . . . . . . . . .",
" . . . . . . . . . . . .[ [ [ [ [ [ [ [ [ [ [ [ [ [ [ [ [ [ [ [ [ [ [ [ [ [ [ [ [ [ [ [ [ [ [ [ [ [ [ [  . . . . . . . . . . . .",
" . . . . . . . . . . . . .[ [ [ [ [ [ [ [ [ [ [ [ [ [ [ [ [ [ [ [ [ [ [ [ [ [ [ [ [ [ [ [ [ [ [ [ [ [  . . . . . . . . . . . . .",
" . . . . . . . . . . . . . .[ [ [ [ [ [ [ [ [ [ [ [ [ [ [ [ [ [ [ [ [ [ [ [ [ [ [ [ [ [ [ [ [ [ [ [  . . . . . . . . . . . . . .",
" . . . . . . . . . . . . . . . .[ [ [ [ [ [ [ [ [ [ [ [ [ [ [ [ [ [ [ [ [ [ [ [ [ [ [ [ [ [ [ [  . . . . . . . . . . . . . . . .",
" . . . . . . . . . . . . . . . . . .[ [ [ [ [ [ [ [ [ [ [ [ [ [ [ [ [ [ [ [ [ [ [ [ [ [ [ [  . . . . . . . . . . . . . . . . . .",
" . . . . . . . . . . . . . . . . . . . .[ [ [ [ [ [ [ [ [ [ [ [ [ [ [ [ [ [ [ [ [ [ [ [  . . . . . . . . . . . . . . . . . . . .",
" . . . . . . . . . . . . . . . . . . . . . . .[ [ [ [ [ [ [ [ [ [ [ [ [ [ [ [ [ [  . . . . . . . . . . . . . . . . . . . . . . .",
" . . . . . . . . . . . . . . . . . . . . . . . . . . .[ [ [ [ [ [ [ [ [ [  . . . . . . . . . . . . . . . . . . . . . . . . . . ."
};
