/* XPM */
static const char* const setup[] = {
"16 16 10 1",
" 	c None",
".	c #FFFFFF",
"+	c #000000",
"@	c #DCDCDC",
"#	c #585858",
"$	c #A0A0A0",
"%	c #FFFFFF",
"&	c #C3C3C3",
"*	c #303030",
"=	c #808080",
"   ++++++       ",
"   +=#@@$++     ",
"    +&##@&$+    ",
"+++  ++&#@$+    ",
"+%$++  +#@@$+   ",
"+%@@@+##@@@$+   ",
"+#%%@@@@@@@@$++ ",
"*%##%%@@@@@@@$$+",
"+&@%####$%%@@@@$",
" ++&@&&$###%%@@@",
"   +++$&&&$##%%@",
"      ++++@@$##%",
"          ++@@$#",
"            ++@@",
"              ++",
"                "};
