/* XPM */
static char *swap[] = {
/* columns rows colors chars-per-pixel */
"48 48 253 2",
"   c #68796D",
".  c #6E8475",
"X  c #779972",
"o  c #7D9C7B",
"O  c #B9A42C",
"+  c #BAA83B",
"@  c #C7A712",
"#  c #CAAE16",
"$  c #CCB01D",
"%  c #CCAE24",
"&  c #C7AD2C",
"*  c #CDB62C",
"=  c #D1B427",
"-  c #D2B92C",
";  c #D8BE2C",
":  c #C6AE33",
">  c #D2B634",
",  c #D5BB35",
"<  c #D4BA3C",
"1  c #D9BF3A",
"2  c #EDD401",
"3  c #EDD50B",
"4  c #EED713",
"5  c #EBD61F",
"6  c #EFD81E",
"7  c #F2DA1A",
"8  c #DFCB23",
"9  c #DAC62D",
"0  c #DCC331",
"q  c #DCC33A",
"w  c #DFD030",
"e  c #E2CC27",
"r  c #EFD920",
"t  c #EFDA2B",
"y  c #F1DA22",
"u  c #F1DB2B",
"i  c #E1CA36",
"p  c #E3CD3D",
"a  c #ECD638",
"s  c #EEDA3D",
"d  c #F2DD34",
"f  c #F1DC3C",
"g  c #BAA748",
"h  c #B8A758",
"j  c #B8B55D",
"k  c #859379",
"l  c #A79F65",
"z  c #9EA267",
"x  c #97B978",
"c  c #9CBD7D",
"v  c #BBAA61",
"b  c #A9B46A",
"n  c #B8AC78",
"m  c #CBB946",
"M  c #D6BC44",
"N  c #CFBA55",
"B  c #D0BA52",
"V  c #C3BB64",
"C  c #C8BC77",
"Z  c #BCC56B",
"A  c #DBC145",
"S  c #DCC44E",
"D  c #DFCA4E",
"F  c #DCC551",
"G  c #DEC854",
"H  c #D7C25B",
"J  c #DCC559",
"K  c #DDCA5F",
"L  c #E0C943",
"P  c #E2CC4E",
"I  c #EBD840",
"U  c #E5D048",
"Y  c #EEDB4C",
"T  c #F1DE43",
"R  c #E2CC57",
"E  c #E4CF5D",
"W  c #EEDD55",
"Q  c #E6D35A",
"!  c #E8D55E",
"~  c #ECDB5E",
"^  c #F3E14D",
"/  c #F6E552",
"(  c #F8E552",
")  c #F4E45A",
"_  c #F8E75E",
"`  c #DCC665",
"'  c #DCC965",
"]  c #DFCA6A",
"[  c #D8C573",
"{  c #DFCB71",
"}  c #DCD07B",
"|  c #E1CD62",
" . c #E2CD6B",
".. c #E6D266",
"X. c #EDDD61",
"o. c #E9D76A",
"O. c #EBDA6A",
"+. c #E1CD72",
"@. c #E2CF7B",
"#. c #E5D273",
"$. c #EAD970",
"%. c #E3D17C",
"&. c #EBDB7E",
"*. c #F4E566",
"=. c #F3E56D",
"-. c #FAEB6C",
";. c #F9EB72",
":. c #35598B",
">. c #2E5890",
",. c #325F9A",
"<. c #39639A",
"1. c #3C66A0",
"2. c #436B9B",
"3. c #436CA1",
"4. c #4B72A0",
"5. c #5177A2",
"6. c #788984",
"7. c #5B87BB",
"8. c #6585AE",
"9. c #6688AC",
"0. c #6988B2",
"q. c #6992BE",
"w. c #7391B5",
"e. c #6590C2",
"r. c #739CC9",
"t. c #7DA3CC",
"y. c #8C9781",
"u. c #829E84",
"i. c #81908E",
"p. c #8F908E",
"a. c #949B8E",
"s. c #909290",
"d. c #969B90",
"f. c #9D9D9D",
"g. c #87A18C",
"h. c #97A689",
"j. c #9FBF80",
"k. c #8CA291",
"l. c #9EA498",
"z. c #A4A488",
"x. c #A1BF84",
"c. c #A4BE8A",
"v. c #A0A19F",
"b. c #A6AB9A",
"n. c #A5B398",
"m. c #8297B5",
"M. c #869AB9",
"N. c #9DA9AA",
"B. c #8EA0BB",
"V. c #A4A4A4",
"C. c #A8AEA0",
"Z. c #ABABAB",
"A. c #AAB1A3",
"S. c #ABB8A1",
"D. c #AFB5A9",
"F. c #B2B4AA",
"G. c #B2B2AE",
"H. c #A1AEB2",
"J. c #B2B2B2",
"K. c #B5B9B0",
"L. c #BCBCBC",
"P. c #C1BB9E",
"I. c #A2C085",
"U. c #A6C28B",
"Y. c #A8C48E",
"T. c #B4C88E",
"R. c #AAC492",
"E. c #AFC896",
"W. c #AEC59A",
"Q. c #B3C797",
"!. c #B1C89C",
"~. c #B3C7A3",
"^. c #B5C9A2",
"/. c #BBCBAA",
"(. c #C6C082",
"). c #DECF81",
"_. c #D7CC9A",
"`. c #E4D284",
"'. c #E6D686",
"]. c #E5D492",
"[. c #E8D999",
"{. c #F4E784",
"}. c #F6E880",
"|. c #FCEE83",
" X c #F5E68D",
".X c #FCEF8A",
"XX c #FCF18D",
"oX c #F0E296",
"OX c #FCEF94",
"+X c #F6E999",
"@X c #FCF193",
"#X c #FDF29D",
"$X c #C0CCAB",
"%X c #D4CDAB",
"&X c #C0CFB2",
"*X c #C4C6BD",
"=X c #D0CCB1",
"-X c #C5D2BA",
";X c #DAD4B7",
":X c #E3D9A7",
">X c #EADDA1",
",X c #EBDFA8",
"<X c #E2DAB7",
"1X c #EDE2AE",
"2X c #F2E6A0",
"3X c #FCF2A3",
"4X c #FCF5AE",
"5X c #EEE4B5",
"6X c #EFE6BD",
"7X c #F7EDB1",
"8X c #F0E7BF",
"9X c #FCF3B4",
"0X c #FDF7BB",
"qX c #8FA3C2",
"wX c #90A4C3",
"eX c #98ABC4",
"rX c #9EB0CB",
"tX c #88ACD3",
"yX c #9FBBDA",
"uX c #B8C0CE",
"iX c #A6C2E0",
"pX c #C2C2C2",
"aX c #CBCCC4",
"sX c #CDCDCD",
"dX c #CBD5C2",
"fX c #D7D6C7",
"gX c #D1D8CA",
"hX c #C2CBD8",
"jX c #D4D4D4",
"kX c #D8D8D5",
"lX c #DBDBDB",
"zX c #F1E9C4",
"xX c #F3EBCC",
"cX c #F7F0C1",
"vX c #FEF6C1",
"bX c #FEF8C2",
"nX c #E7E4D7",
"mX c #EAE7D4",
"MX c #EFECDE",
"NX c #F4EED1",
"BX c #F5F0D6",
"VX c #F6F2DD",
"CX c #D1DAE6",
"ZX c #E4E4E4",
"AX c #EBE9E6",
"SX c #ECECEC",
"DX c #F5F3E3",
"FX c #F8F5E5",
"GX c #F9F7EA",
"HX c #FAF8ED",
"JX c #F3F3F3",
"KX c #FDF9F4",
"LX c #FEFEFE",
/* pixels */
"LXLXLXLXLXLXLXLXLXLXLXLXLXLXLXLXLXLXLXLXLXLXLXLXLXLXLXLXLXLX6X% KXLXLXLXLXLXLXLXLXLXLXLXLXLXLXLX",
"LXLXLXLXLXLXLXLXLXLXLXLXLXLXLXLXLXLXLXLXLXLXLXLXLXLXLXLXLX,X+.% KXLXLXLXLXLXLXLXLXLXLXLXLXLXLXLX",
"LXLXLXLXKXkXkXkXkXjXjXjXsXAXLXLXLXLXLXLXLXLXLXLXLXLXLXLX>X .cX< KXLXLXLXLXLXLXLXLXLXLXLXLXLXLXLX",
"LXLXLXLXkXJXSXSXSXSXSXSXsXJ.pXLXLXLXLXLXLXLXLXLXLXLXGX`.#.vXbX< KXLXLXLXLXLXLXLXLXLXLXLXLXLXLXLX",
"LXLXLXLXjXSXlXlXZXZXZXZXlXjXpXL.LXLXLXLXLXLXLXLXLXHX+.'.9X3X0X< KXLXLXLXLXLXLXLXLXLXLXLXLXLXLXLX",
"LXLXLXLXjXSXZXsXsXjXjXZXlXlXjXpXaXLXLXLXLXLXLXLXFX` oX9X3X#X0X< KXLXLXLXLXLXLXLXLXLXLXLXLXLXLXLX",
"LXLXLXLXjXSXZXsXsXjXjXAXkXSXSXkXL.ZXLXLXLXLXLXzX' 2X9X#X#X#X0XK M F +.>XzXFXLXLXLXLXLXLXLXLXLXLX",
"LXLXLXLXjXSXZXjXsXjXkXAXjXJ.Z.f.f.f.jXLXLXLX8X] 2X9X#X#X#X#X3X9X4X3X+X&. .#.>XHXLXLXLXLXLXLXLXLX",
"LXLXLXLXjXSXZXjXjXjXkXSXSXlXlXZXSXpXpXjXLX1X| 7X4X#X#X#X#X#X#X@X@XXX.XXXOX+X#.` NXLXLXLXLXLXLXLX",
"LXLXLXLXjXSXZXjXsXjXkXSXSXSXSXSXSXpXJ.*XC | 9X3X@X@X@X@XOX@X@XXX|.|.;.;.-.-..X XA 5XLXLXLXLXLXLX",
"LXLXLXLXjXSXZXjXjXjXjXkXkXkXkXZXSXpXG.v m } ;._ ) / / / / / / / ) _ _ _ ) ( ^ _ }.G 1XLXLXLXLXLX",
"LXLXLXLXjXSXZXjXjXjXkXkXkXkXkXZXSXpXJ.n & ' d 7 7 7 7 7 7 7 7 7 7 y y u d d d u d =.F NXLXLXLXLX",
"LXLXLXLXjXJXZXjXjXkXkXkXkXkXkXZXSXpXJ.J.n : O.r 2 2 2 2 2 2 2 2 2 2 2 2 2 2 3 3 3 r ~ J KXLXLXLX",
"LXLXLXLXjXJXZXjXjXkXkXlXlXlXlXZXJXpXJ.J.G.n S X.u 2 2 2 2 2 2 2 2 2 2 2 2 2 2 2 2 2 T L 5XLXLXLX",
"LXLXLXLXsXSXZXjXjXkXkXlXlXlXlXAXJXL.J.J.J.G.zX1 X.u 2 2 2 2 4 ) =.*./ u 3 2 2 2 2 2 4 =.J KXLXLX",
"LXLXLXKXaXAXZXsXsXjXjXkXkXkXkXZXSXL.Z.Z.Z.J.LXNXF o.d 2 2 2 ^ , M S G Q O.Y 4 2 2 2 2 ^ R zXLXLX",
"KXKXJXJXpXZXlXsXaXsXlXAXAXSXSXAXAXK.Z.Z.Z.Z.LXLXxXK ! f 3 2 ^ - GXHXBX>X+.D ) r 2 2 2 y ..[.LXLX",
"JXJXJXJXL.lXfX%X%XfXlXZXZXZXZXZXZXJ.V.Z.Z.Z.JXKXKXVXJ Q T 2 ^ - KXLXLXLXKX5Xq W 4 2 2 3 $.`.LXLX",
"JXJXJXSXG._.N ; ; B kXlXlXlXlXlXZXJ.V.V.Z.Z.JXJXKXLXFX{ E ^ ) - KXLXLXLXLXLX5XR d 2 2 2 $.`.LXLX",
"JXJXSXSXh , p 5 t ; %XlXlXlXlXlXZXJ.V.V.Z.Z.JXJXKXKXLXFX%.P {.- KXLXLXLXLXLXVX| Y 2 2 3 o.`.LXLX",
"JXJXmXH 0 e 3 3 8 $ z.V.V.V.V.V.V.L.J.Z.Z.Z.JXJXKXLXLXLXKX@.P = KXLXLXLXLXLXFX .Y 2 2 6 Q [.LXLX",
"JXMX' p t 2 3 9 * g V.V.V.V.V.Z.Z.Z.L.L.Z.Z.KXKXLXLXLXLXLXKX].@ KXLXLXLXLXLXxXD s 2 2 T F BXLXLX",
"KX'.L t 2 3 s % h b.Z.Z.Z.Z.Z.Z.Z.Z.Z.L.L.Z.LXLXLXLXLXLXLXLXKX].KXLXLXLXLXLX%.U 6 2 4 Y ] LXLXLX",
"NX; d 2 3 s q _.J.Z.Z.Z.Z.Z.Z.Z.Z.J.J.J.pXpXLXLXLXLXLXKXKXKXKXJXJXJXJXJXKX:Xq s 3 2 d ; NXLXLXLX",
"] Y 4 2 6 U %.LXSXsXsXsXaXC aXsXsXsXsXsXsXjXLXKXKXJXJXJXJXJXJXJXJXJXJXMX).1 T 3 2 t L `.KXLXLXLX",
"S T 2 2 s D xXLXLXLXLXLXKX@ ].KXLXLXLXLXLXKXKXJXJXJXJXJXSXSXSXSXSXSXSX` q s 3 2 t p ' MXJXKXKXLX",
"Q 6 2 2 Y  .FXLXLXLXLXLXKX= P %.KXLXLXLXKXJXJXJXJXJXSXSXSXAXAXAXZXZXfX; d 3 3 d i H mXJXJXJXJXKX",
"o.3 2 2 Y | VXLXLXLXLXLXKX- {.P %.FXLXKXKXJXJXJXJXSXSXSXAXAXZXZXZXZX;X; t r a 1 [ SXSXJXJXJXJXKX",
"$.2 2 2 d R 5XLXLXLXLXLXKX- ) ^ E { FXLXKXJXJXJXJXJXSXSXSXAXAXZXZXZXZXH 0 0 H :XAXSXJXJXJXJXJXKX",
"$.3 2 2 4 W q 5XKXLXLXLXKX- ^ 2 T Q J VXKXKXJXJXJXJXJXSXSXSXSXSXSXSXSXnX<X<XnXSXSXJXJXJXJXJXKXKX",
"..y 2 2 2 r ) D +.>XBXHXGX- ^ 2 3 f ! K xXLXeX0.0.8.:.v.V.V.V.v.v.v.v.v.v.v.l.:.8.8.0.eXKXKXLXLX",
"R ^ 2 2 2 2 4 Y O.Q G S M , ^ 2 2 2 d o.F NXqXtXe.3.H.gXgXgXdXdX-X-X-X&X&X/./.k.2.7.t.m.LXLXLXLX",
"J =.4 2 2 2 2 2 3 u / *.=.) 4 2 2 2 2 u X.1 l.q.3.N.*XK.F.D.A.A.C.S.~.!.W.W.R.c.u.<.7.m.LXLXLXLX",
"5XL T 2 2 2 2 2 2 2 2 2 2 2 2 2 2 2 2 2 u X.+   N.aXK.JXSXJXJXJXkXpXn.^.!.T.Z R.c.o <.m.LXLXLXLX",
"KXJ ~ r 3 3 3 2 2 2 2 2 2 2 2 2 2 2 2 2 2 r K O (.dXK.SXZXZXZXAXsXsXV.n.T.w e j U.x.6.uXLXLXLXLX",
"LXNXF =.d u d d d u y y 7 7 7 7 7 7 7 7 7 7 d m * C D.JXZXZXAXAXSXkXkXz.w f # b U.U.y.ZXLXLXLXLX",
"LXLX1XG }._ ^ ( ) _ _ ) ) / / / / / / / ) _ ;.j m V A.JXAXAXSXSXSXSXDX9 f # b U.U.I.y.ZXLXLXLXLX",
"LXLXLX5XA  X.X-.-.;.;.|.|.XX@XOXOXOXOX@X@X3X9X+ V $XA.JXAXSXSXSXJXMXI f # b Y.U.U.I.k ZXLXLXLXLX",
"LXLXLXLXNX` #.+XOXXX.XXX@X@X#X#X#X#X#X#X4X7X| l /./.A.JXSXSXSXJXDXI f # b R.U.U.I.x.k ZXLXLXLXLX",
"LXLXLXLXLXHX>X#. .&.+X3X4X9X3X#X#X#X#X9X2X] 8Xd././.b.JXSXSXJXJXW T $ z R.U.U.I.I.j.k ZXLXLXLXLX",
"LXLXLXLXLXLXLXFXzX>X+.F M K 0X#X#X#X9X2X' zXLXa.^.^.b.JXSXSXJX=Xm > <Xh.U.U.I.I.j.c k ZXLXLXLXLX",
"LXLXLXLXLXLXLXLXLXLXLXLXKX< 0X#X3X9XoX` FXLXCXi.W.!.l.JXSXSXJXF.P.AXJXh.U.I.I.j.c x . hXLXLXLXLX",
"LXLXLXLXLXLXLXLXLXLXLXLXKX< 0X3X9X'.+.HXLXLXwXw.g.R.n.pXpXpXpXpXpXpXpXh.I.I.j.c x X w.M.LXLXLXLX",
"LXLXLXLXLXLXLXLXLXLXLXLXKX< bXvX#.`.GXLXLXLXwXiX8.u.U.R.Y.U.U.U.c.x.x.x.x.c c x X 9.yXm.LXLXLXLX",
"LXLXLXLXLXLXLXLXLXLXLXLXKX< cX .>XLXLXLXLXLXwXr.e.4.g.W.Q.E.E.R.R.Y.Y.U.I.I.c o 5.q.7.m.LXLXLXLX",
"LXLXLXLXLXLXLXLXLXLXLXLXKX% +.,XLXLXLXLXLXLXrX3.<.<.>.p.s.s.s.s.s.s.s.s.s.s.p.:.1.,.,.B.LXLXLXLX",
"LXLXLXLXLXLXLXLXLXLXLXLXKX% 6XLXLXLXLXLXLXLXLXJXJXJXJXLXLXLXLXLXLXLXLXLXLXLXLXLXJXJXJXKXLXLXLXLX",
"LXLXLXLXLXLXLXLXLXLXLXLXLXFXLXLXLXLXLXLXLXLXLXLXLXLXLXLXLXLXLXLXLXLXLXLXLXLXLXLXLXLXLXLXLXLXLXLX"
};
