/* XPM */
static char *vflip[] = {
/* columns rows colors chars-per-pixel */
"48 48 112 2",
"   c #CECE5C5C0000",
".  c #CFCF60600606",
"X  c #D0C362A50A0A",
"o  c #D39F6A3F13A3",
"O  c #D48A6E2F1923",
"+  c #D5E470FF1CA7",
"@  c #D5E874222334",
"#  c #D82178D5262D",
"$  c #D87377FF2603",
"%  c #D5E27A562EA0",
"&  c #D96B7AFC2C20",
"*  c #DA617EC0309F",
"=  c #D6707FAE3977",
"-  c #DBC181613395",
";  c #DC65842C3A04",
":  c #DE07891E3DE9",
">  c #FCFCAFAF3EE9",
",  c #D7BA872F4515",
"<  c #DF168BBA4453",
"1  c #D8AB8ABC4B5F",
"2  c #DFE891244A28",
"3  c #DD6291D5531C",
"4  c #DC0D96C75D45",
"5  c #E1228D3744E0",
"6  c #E1BB92A54C59",
"7  c #E1BB968D5235",
"8  c #E44999E55650",
"9  c #E0E9977F5953",
"0  c #E5A29B6F5810",
"q  c #FCFCAFAF4040",
"w  c #FCFCB2324436",
"e  c #FCFCB5754B98",
"r  c #FCFCB7B75137",
"t  c #FD4FB9B1548E",
"y  c #FDAFBCD45BCD",
"u  c #DEA79E6369A3",
"i  c #E2939DB86381",
"p  c #DEC9A19B6D2A",
"a  c #E6F3A2EE6315",
"s  c #E49CA35A6D2A",
"d  c #FD7DBF306229",
"f  c #F10EB14F6998",
"g  c #E5E8A8D874AA",
"h  c #EB05AD1271D8",
"j  c #E2E5ABCF7E99",
"k  c #FDEBC1A56509",
"l  c #FE34C47D6C04",
"z  c #FE40C6DC729F",
"x  c #FEFEC97A7561",
"c  c #FCFCC7C778CE",
"v  c #FECBCC0E7BF6",
"b  c #E3A9B0BF867B",
"n  c #EC46B56682D4",
"m  c #EF44B9228300",
"M  c #EA13B7D78D5F",
"N  c #F363BF4383D0",
"B  c #EA72B9BC9298",
"V  c #EA01BF919EC5",
"C  c #F4FFC0FF8500",
"Z  c #FE89CDCD82C8",
"A  c #F6F6C5C58C8C",
"S  c #FDDDCF6F8BAB",
"D  c #FE28D1518E38",
"F  c #F1AEC3BD9579",
"G  c #F74CCB75943E",
"H  c #F8F8CDCD9696",
"J  c #F3FFC8FF9900",
"K  c #FE2CD3A49494",
"L  c #FD2FD6089C35",
"P  c #FEFED9589E1E",
"I  c #EE50C569A457",
"U  c #EFEFCCA9AFAF",
"Y  c #F5FFCFFFA600",
"T  c #F7FFD2FFA800",
"R  c #FC51D701A277",
"E  c #FEBEDB5BA479",
"W  c #F7FFD4FFAD00",
"Q  c #FE2CDCF3ABF1",
"!  c #E8F5CBEFB3B3",
"~  c #F111CDECB19F",
"^  c #E7E3D0CFBE3E",
"/  c #FCCADE18B38F",
"(  c #F2FAD52EBCBC",
")  c #F9F9DBDBB8B8",
"_  c #FF0EE1E1B4F4",
"`  c #FEC7E41ABC97",
"'  c #E5F7D4E9C6C6",
"]  c #E527D727CC21",
"[  c #F575DDE2CA8A",
"{  c #E2D7D9C9D1D1",
"}  c #E4D2DDE9D8D8",
"|  c #FE30E666C444",
" . c #FFFFEA69C6C6",
".. c #FC7BE6E6CACA",
"X. c #FEE9EA54CC36",
"o. c #E4DAE0DBDCDC",
"O. c #F6F2E263D1D1",
"+. c #FEFEEE6ED595",
"@. c #F8F7E7E9D9D9",
"#. c #FA81EAE8DC24",
"$. c #FEFEF1F1DDDD",
"%. c #E7A7E6E9E645",
"&. c #E9E3E8F1E7E7",
"*. c #ED44ED40ED40",
"=. c #FAF2EE3FE48E",
"-. c #FFCCF426E37C",
";. c #FDD7F53DEC34",
":. c #FFFFF8F8EF55",
">. c #F4F9F4F9F4F9",
",. c #FCFCF5F5F0F0",
"<. c #FEFEFAFAF5F5",
"1. c #FFA1FF9FFF9C",
/* pixels */
"1.1.1.1.1.1.1.1.1.1.1.1.1.1.1.1.1.1.1.1.1.1.1.( ( 1.1.1.1.1.1.1.1.1.1.1.1.1.1.1.1.1.1.1.1.1.1.1.",
"1.1.1.1.1.1.1.1.1.1.1.1.1.1.1.1.1.1.1.1.1.1.[ X . [ 1.1.1.1.1.1.1.1.1.1.1.1.1.1.1.1.1.1.1.1.1.1.",
"1.1.1.1.1.1.1.1.1.1.1.1.1.1.1.1.1.1.1.1.1.@.o #...o @.1.1.1.1.1.1.1.1.1.1.1.1.1.1.1.1.1.1.1.1.1.",
"1.1.1.1.1.1.1.1.1.1.1.1.1.1.1.1.1.1.1.1.=.O ) X.X.T O =.1.1.1.1.1.1.1.1.1.1.1.1.1.1.1.1.1.1.1.1.",
"1.1.1.1.1.1.1.1.1.1.1.1.1.1.1.1.1.1.1.;.@ Y X.w w +.J @ ;.1.1.1.1.1.1.1.1.1.1.1.1.1.1.1.1.1.1.1.",
"1.1.1.1.1.1.1.1.1.1.1.1.1.1.1.1.1.1.,.& F +.e > w r -.N & <.1.1.1.1.1.1.1.1.1.1.1.1.1.1.1.1.1.1.",
"1.1.1.1.1.1.1.1.1.1.1.1.1.1.1.1.1.<.; m -.r w w w e y ;.h ; <.1.1.1.1.1.1.1.1.1.1.1.1.1.1.1.1.1.",
"1.1.1.1.1.1.1.1.1.1.1.1.1.1.1.1.1.< h ;.y e e e e r r l :.a 3 1.1.1.1.1.1.1.1.1.1.1.1.1.1.1.1.1.",
"1.1.1.1.1.1.1.1.1.1.1.1.1.1.1.1.9 a :.k e r r t t t y y v :.0 i 1.1.1.1.1.1.1.1.1.1.1.1.1.1.1.1.",
"1.1.1.1.1.1.1.1.1.1.1.1.1.1.1.s 7 :.c t t t y y y y y d k D ;.5 g 1.1.1.1.1.1.1.1.1.1.1.1.1.1.1.",
"1.1.1.1.1.1.1.1.1.1.1.1.1.1.n : -.v y y y y y d k k k k l l K $.- M 1.1.1.1.1.1.1.1.1.1.1.1.1.1.",
"1.1.1.1.1.1.1.1.1.1.1.1.1.B * +.Z y y d k k k k l l l l l z x P X.# I 1.1.1.1.1.1.1.1.1.1.1.1.1.",
"1.1.1.1.1.1.1.1.1.1.1.1.I $ | D k k k k l l l l l z x x x x v v E ` + ~ 1.1.1.1.1.1.1.1.1.1.1.1.",
"1.1.1.1.1.1.1.1.1.1.1.( + / K k l l l l z z x x x x v v v v Z Z Z Q W O ( 1.1.1.1.1.1.1.1.1.1.1.",
"1.1.1.1.1.1.1.1.1.1.[ o T L l l z z x x x x v v v v Z Z Z v v v v v E H o O.1.1.1.1.1.1.1.1.1.1.",
"1.1.1.1.1.1.1.1.1.O.o G P z x x x x v v v v Z Z Z v v v v v v x x x x P N o @.1.1.1.1.1.1.1.1.1.",
"1.1.1.1.1.1.1.1.@.O N _ _ _ _ _ _ _ / Z Z v v v v v v x x Q E E E E E E P f + =.1.1.1.1.1.1.1.1.",
"1.1.1.1.1.1.1.=.                    _ v v v v x x x x x z Q                   X ;.1.1.1.1.1.1.1.",
"1.1.1.1.1.1.1.1.1.1.1.1.1.1.1.1.1.  ` x x x x x z z z l l Q   1.1.1.1.1.1.1.1.1.1.1.1.1.1.1.1.1.",
"1.1.1.1.1.1.1.1.1.1.1.1.1.1.1.1.1.  | x z z z l l l l l l _   1.1.1.1.1.1.1.1.1.1.1.1.1.1.1.1.1.",
"1.1.1.1.1.1.1.1.1.1.1.1.1.1.1.1.1.  X.l l l l l l k k k k _   1.1.1.1.1.1.1.1.1.1.1.1.1.1.1.1.1.",
"1.1.1.1.1.1.1.1.1.1.1.1.1.1.1.1.1.  +.l l k k k k k k d d _   1.1.1.1.1.1.1.1.1.1.1.1.1.1.1.1.1.",
"1.1.1.1.1.1.1.1.1.1.1.1.1.1.1.1.1.  +.k k k k d d y y y y `   1.1.1.1.1.1.1.1.1.1.1.1.1.1.1.1.1.",
"1.1.1.1.1.1.1.1.1.1.1.1.1.1.1.1.1.  -.d d y y y y y y y t `   1.1.1.1.1.1.1.1.1.1.1.1.1.1.1.1.1.",
"1.1.1.1.1.1.1.1.1.1.1.1.1.1.1.1.1.  -.y y y y y t t t t r `   1.1.1.1.1.1.1.1.1.1.1.1.1.1.1.1.1.",
"1.1.1.1.1.1.1.1.1.1.1.1.1.1.1.1.1.  :.t t t t t r r r e e |   1.1.1.1.1.1.1.1.1.1.1.1.1.1.1.1.1.",
"1.1.1.1.1.1.1.1.1.1.1.1.1.1.1.1.1.  <.t r r e e e e e e e  .  1.1.1.1.1.1.1.1.1.1.1.1.1.1.1.1.1.",
"1.1.1.1.1.1.1.;.X                   1.e e e e e e w w w w  .                    =.1.1.1.1.1.1.1.",
"1.1.1.1.1.1.1.1.=.+ W 1.1.1.1.1.1.1.1.e e w w w w w w w >  .X.X.| | ` ` _ C O @.1.1.1.1.1.1.1.1.",
"1.1.1.1.1.1.1.1.1.@.o ) X.e e e e w w w w w w w > > > w w e e e r t t D A o O.1.1.1.1.1.1.1.1.1.",
"1.1.1.1.1.1.1.1.1.1.O.o .._ w w w w w w > > q w w e e e r t t y y y S G o [ 1.1.1.1.1.1.1.1.1.1.",
"1.1.1.1.1.1.1.1.1.1.1.( O X.R w > > q w w e e e r t t y y d d d l S H O ( 1.1.1.1.1.1.1.1.1.1.1.",
"1.1.1.1.1.1.1.1.1.1.1.1.U + ..D w e e e r t t y y d d d l l l z S L + I 1.1.1.1.1.1.1.1.1.1.1.1.",
"1.1.1.1.1.1.1.1.1.1.1.1.<.V $ | Z t t y y d d k l l l z z c c S R @ B <.1.1.1.1.1.1.1.1.1.1.1.1.",
"1.1.1.1.1.1.1.1.1.1.<.<.>.>.b & | Z d k l l z z c c c v Z Z K R # j >.>.<.<.1.1.1.1.1.1.1.1.1.1.",
"1.1.1.1.1.1.1.1.1.<.>.>.>.>.>.p ; ` Z z c c v v Z Z S S D K Q - u >.>.>.>.>.<.1.1.1.1.1.1.1.1.1.",
"1.1.1.1.1.1.1.1.<.>.>.>.>.>.*.*.4 < _ S Z Z S S D K K K P Q : 3 *.*.>.>.>.>.>.<.1.1.1.1.1.1.1.1.",
"1.1.1.1.1.1.1.1.<.>.>.>.>.*.*.*.&.1 6 _ K K K K L L R E / 2 , &.*.*.*.>.>.>.>.<.1.1.1.1.1.1.1.1.",
"1.1.1.1.1.1.1.<.<.>.>.>.>.*.*.*.&.%.= 0 _ R R E E Q Q ` 8 = %.&.*.*.*.>.>.>.>.<.<.1.1.1.1.1.1.1.",
"1.1.1.1.1.1.1.<.<.>.>.>.>.*.*.*.&.%.o.% a ` Q Q / _ ` a % } %.&.*.*.*.>.>.>.>.<.<.1.1.1.1.1.1.1.",
"1.1.1.1.1.1.1.1.<.>.>.>.>.*.*.*.&.&.%.{ @ h | ` ` | h @ { %.&.&.*.*.*.>.>.>.>.<.1.1.1.1.1.1.1.1.",
"1.1.1.1.1.1.1.1.<.>.>.>.>.>.*.*.*.&.&.%.] O m X.X.n O ] %.&.&.*.*.*.>.>.>.>.>.<.1.1.1.1.1.1.1.1.",
"1.1.1.1.1.1.1.1.1.<.>.>.>.>.>.>.*.*.*.*.&.' o F F o ' &.*.*.*.*.>.>.>.>.>.>.<.1.1.1.1.1.1.1.1.1.",
"1.1.1.1.1.1.1.1.1.1.<.<.>.>.>.>.>.>.*.*.*.*.^     ^ *.*.*.*.>.>.>.>.>.>.<.<.1.1.1.1.1.1.1.1.1.1.",
"1.1.1.1.1.1.1.1.1.1.1.1.<.<.>.>.>.>.>.>.>.>.>.! ! >.>.>.>.>.>.>.>.>.<.<.1.1.1.1.1.1.1.1.1.1.1.1.",
"1.1.1.1.1.1.1.1.1.1.1.1.1.1.1.<.<.>.>.>.>.>.>.>.>.>.>.>.>.>.>.<.<.1.1.1.1.1.1.1.1.1.1.1.1.1.1.1.",
"1.1.1.1.1.1.1.1.1.1.1.1.1.1.1.1.1.1.1.<.<.<.<.<.<.<.<.<.<.1.1.1.1.1.1.1.1.1.1.1.1.1.1.1.1.1.1.1.",
"1.1.1.1.1.1.1.1.1.1.1.1.1.1.1.1.1.1.1.1.1.1.1.1.1.1.1.1.1.1.1.1.1.1.1.1.1.1.1.1.1.1.1.1.1.1.1.1."
};
