/* XPM */
static const char * unknown[] = {
"64 64 253 2",
"  	c None",
". 	c #DDDDDD",
"+ 	c #F6F5F5",
"@ 	c #F4F4F2",
"# 	c #F4F3F1",
"$ 	c #F4F3F0",
"% 	c #F3F2F0",
"& 	c #F3F2EF",
"* 	c #F3F2EE",
"= 	c #F3F1EE",
"- 	c #F2F1EE",
"; 	c #F2F1ED",
"> 	c #F1F0ED",
", 	c #F1F0EC",
"' 	c #F1EFEC",
") 	c #F0EFEC",
"! 	c #F4F3F3",
"~ 	c #9E9E9E",
"{ 	c #E6E6E4",
"] 	c #E9F1FF",
"^ 	c #CCDAFF",
"/ 	c #CAD9FF",
"( 	c #C9D8FF",
"_ 	c #C7D6FF",
": 	c #C6D5FF",
"< 	c #C4D4FF",
"[ 	c #C3D3FF",
"} 	c #C1D2FF",
"| 	c #BFD0FF",
"1 	c #BECFFF",
"2 	c #BCCEFF",
"3 	c #BBCDFF",
"4 	c #B9CCFF",
"5 	c #B7CBFF",
"6 	c #B6CAFF",
"7 	c #B4C9FF",
"8 	c #B3C7FF",
"9 	c #B1C6FF",
"0 	c #B0C5FF",
"a 	c #AEC4FF",
"b 	c #ADC3FF",
"c 	c #ABC1FF",
"d 	c #A9C0FF",
"e 	c #A8BFFF",
"f 	c #A6BEFF",
"g 	c #A4BDFF",
"h 	c #A2BBFF",
"i 	c #A1BAFF",
"j 	c #9FB9FF",
"k 	c #9EB8FF",
"l 	c #9EB7FF",
"m 	c #9DB7FF",
"n 	c #9DB6FF",
"o 	c #9BB5FF",
"p 	c #A9BFFF",
"q 	c #FFFFFF",
"r 	c #A6A6A6",
"s 	c #E5E4E3",
"t 	c #D7E2FF",
"u 	c #A4BCFF",
"v 	c #9FB8FF",
"w 	c #9CB6FF",
"x 	c #9AB4FF",
"y 	c #97B3FF",
"z 	c #94B0FF",
"A 	c #92AFFF",
"B 	c #8FACFF",
"C 	c #8DAAFF",
"D 	c #89A8FF",
"E 	c #87A6FF",
"F 	c #84A5FF",
"G 	c #82A3FF",
"H 	c #80A1FF",
"I 	c #7D9FFF",
"J 	c #7B9DFF",
"K 	c #789BFF",
"L 	c #769AFF",
"M 	c #7398FF",
"N 	c #7196FF",
"O 	c #6E93FF",
"P 	c #6C92FF",
"Q 	c #6891FF",
"R 	c #658EFF",
"S 	c #638BFF",
"T 	c #6189FF",
"U 	c #5E87FF",
"V 	c #5B85FF",
"W 	c #7396FD",
"X 	c #FAFDFF",
"Y 	c #A6A6A5",
"Z 	c #D8E3FF",
"` 	c #ACC1FF",
" .	c #A7BEFF",
"..	c #A2BAFF",
"+.	c #9AB5FF",
"@.	c #97B2FF",
"#.	c #95B1FF",
"$.	c #90ADFF",
"%.	c #8DABFF",
"&.	c #8BA9FF",
"*.	c #88A8FF",
"=.	c #86A6FF",
"-.	c #84A4FF",
";.	c #81A2FF",
">.	c #7FA0FF",
",.	c #7C9EFF",
"'.	c #7A9DFF",
").	c #779BFF",
"!.	c #7599FF",
"~.	c #7296FF",
"{.	c #7095FF",
"].	c #6D94FF",
"^.	c #6A91FF",
"/.	c #688FFF",
"(.	c #668DFF",
"_.	c #6089FF",
":.	c #7799FD",
"<.	c #E5E4E2",
"[.	c #E4E4E2",
"}.	c #8CAAFF",
"|.	c #638CFF",
"1.	c #618AFF",
"2.	c #5E88FF",
"3.	c #5F88FF",
"4.	c #5B86FF",
"5.	c #E3E3E2",
"6.	c #EAF1FF",
"7.	c #D0DCFF",
"8.	c #CEDBFF",
"9.	c #CDDAFF",
"0.	c #CCD9FF",
"a.	c #CAD8FF",
"b.	c #C9D7FF",
"c.	c #C4D3FF",
"d.	c #C0D1FF",
"e.	c #BACCFF",
"f.	c #B8CAFF",
"g.	c #B6C9FF",
"h.	c #B5C7FE",
"i.	c #B3C6FE",
"j.	c #B1C5FE",
"k.	c #AFC4FE",
"l.	c #AEC3FE",
"m.	c #ACC1FD",
"n.	c #ABC1FD",
"o.	c #A9BFFD",
"p.	c #A7BDFD",
"q.	c #A6BCFD",
"r.	c #A4BAFC",
"s.	c #A3BAFC",
"t.	c #A3BAFB",
"u.	c #A3B9FB",
"v.	c #A2B9FA",
"w.	c #A2B8FA",
"x.	c #A1B8F9",
"y.	c #A0B7F8",
"z.	c #9EB5F8",
"A.	c #ACBFF7",
"B.	c #FEFFFF",
"C.	c #A6A5A5",
"D.	c #E1E1E1",
"E.	c #FFFFFE",
"F.	c #FFFFFD",
"G.	c #FFFFFC",
"H.	c #FFFFFB",
"I.	c #FFFEFA",
"J.	c #FFFDF9",
"K.	c #FEFCF8",
"L.	c #FDFCF7",
"M.	c #FDFBF7",
"N.	c #FCFAF6",
"O.	c #FBF9F5",
"P.	c #FAF8F4",
"Q.	c #F9F7F3",
"R.	c #F8F6F2",
"S.	c #F7F5F1",
"T.	c #F6F5F0",
"U.	c #F5F4EF",
"V.	c #F5F3EE",
"W.	c #A5A5A5",
"X.	c #FEFEFE",
"Y.	c #FDFDFD",
"Z.	c #FCFCFC",
"`.	c #FBFBFB",
" +	c #FAFAFA",
".+	c #F9F9F9",
"++	c #F8F8F8",
"@+	c #F7F7F7",
"#+	c #F6F6F6",
"$+	c #F5F5F5",
"%+	c #F4F4F4",
"&+	c #F3F3F3",
"*+	c #F2F2F2",
"=+	c #F1F1F1",
"-+	c #F0F0F0",
";+	c #EFEFEF",
">+	c #EAEAEA",
",+	c #E6E6E6",
"'+	c #ECECEC",
")+	c #E3E3E3",
"!+	c #E7E7E7",
"~+	c #EEEEEE",
"{+	c #E0E0E0",
"]+	c #E4E4E4",
"^+	c #E5E5E5",
"/+	c #E2E2E2",
"(+	c #DFDFDF",
"_+	c #EDEDED",
":+	c #E9E9E9",
"<+	c #E8E8E8",
"[+	c #DEDEDE",
"}+	c #EBEBEB",
"|+	c #DCDCDC",
"1+	c #DBDBDB",
"2+	c #DADADA",
"3+	c #A4A4A4",
"4+	c #D9D9D9",
"5+	c #CBCBCB",
"6+	c #C3C3C3",
"7+	c #C2C2C2",
"8+	c #C1C1C1",
"9+	c #C0C0C0",
"0+	c #BEBEBE",
"a+	c #BDBDBD",
"b+	c #BCBCBC",
"c+	c #BABABA",
"d+	c #C9C9C9",
"e+	c #919191",
"f+	c #B9B9B9",
"g+	c #ADADAD",
"h+	c #5E5E5E",
"i+	c #D5D5D5",
"j+	c #6A6A6A",
"k+	c #D0D0D0",
"l+	c #636363",
"m+	c #D8D8D8",
"n+	c #B7B7B7",
"o+	c #646464",
"p+	c #B5B5B5",
"q+	c #CECECE",
"r+	c #B4B4B4",
"s+	c #CCCCCC",
"t+	c #B2B2B2",
"u+	c #CACACA",
"v+	c #656565",
"w+	c #B0B0B0",
"x+	c #C8C8C8",
"y+	c #AFAFAF",
"z+	c #C6C6C6",
"A+	c #C4C4C4",
"B+	c #B3B3B3",
"C+	c #9F9F9F",
"D+	c #626262",
"                                                                                                                                ",
"      . + @ @ @ # # # # # # # # # # $ $ $ $ % $ $ % % & & & & & & & * * * = - - - ; ; ; ; ; > > > > > , ' ' , ) ! ~             ",
"      { ] ^ ^ / ( _ : < [ } | 1 2 3 4 5 6 7 8 9 0 a b c d e f g h i j k l l m m m m m m m m m n n n n n n n o p q r             ",
"      s t e p f u i v w x y z A B C D E F G H I J K L M N O P Q R S T U U U U U U U U U U U U U U U U U U U V W X Y             ",
"      s Z c ` d  .u ..v n +.@.#.A $.%.&.*.=.-.;.>.,.'.).!.~.{.].^./.(.S S S S S S S S S S S S S S S S S S S _.:.X Y             ",
"      <.Z c ` d  .u ..v n +.@.#.A $.%.&.*.=.-.;.>.,.'.).!.~.{.].^./.(.S S S S S S S S S S S S S S S S S S S _.:.X Y             ",
"      [.Z c ` d  .u ..v n +.@.#.A $.%.&.*.=.-.;.>.,.'.).!.~.{.].^./.(.S S S S S S S S S S S S S S S S S S S _.:.X Y             ",
"      [.t e p f u i v w x y z A B }.D E F G H I J K L M N O P Q R |.1.2.2.2.2.2.2.2.2.2.2.2.2.2.2.2.2.2.3.3.4.W X Y             ",
"      5.6.7.7.8.9.0.a.b._ : c.[ } d.| 1 2 3 e.f.g.h.i.j.k.l.m.n.o.p.q.r.r.s.s.t.t.u.u.v.v.v.w.w.x.x.x.x.y.y.z.A.B.C.            ",
"      D.q q q q q q q q q q q q q q q q q q q E.E.F.F.G.G.H.H.I.I.J.J.K.L.M.M.N.N.O.O.P.P.Q.Q.R.R.S.T.T.U.U.V.; q W.            ",
"      D.q q q q q q q q q q q q q q q q q q q X.X.Y.Y.Z.Z.`.`. +.+.+++++@+@+@+#+#+$+%+%+%+&+&+*+*+=+=+-+-+;+;+>+q W.            ",
"      D.q q q q q q q q q q q q q q q q q q X.X.Y.Y.Z.Z.`.`. + +.+.+++++@+@+#+#+$+$+%+%+&+&+*+*+=+=+=+-+;+;+;+,+q W.            ",
"      D.q q q q q q q q q q q q q q q q q q X.X.Y.Y.Z.Z.`.`. + +.+++++@+@+@+#+$+$+%+%+%+&+&+*+*+=+=+-+-+;+;+'+)+q W.            ",
"      D.q q q q q q q q q q q q q q q q q X.X.Y.Y.Z.Z.`.`. + +.+.+++++@+@+#+#+$+$+%+%+&+&+*+*+=+=+-+-+;+;+;+!+)+q W.            ",
"      D.q q q q q q q q q q q q q q q q q X.X.Y.Z.Z.Z.`.`. + +.+++++@+@+#+#+$+$+%+%+%+&+&+*+*+=+=+-+-+;+;+~+)+)+q W.            ",
"      {+q q q q q q q q q q q q q q q q X.X.Y.Y.Z.Z.`.`. + +.+.+++++@+@+#+#+$+$+%+%+&+&+*+*+=+=+-+-+;+;+;+>+D.]+q W.            ",
"      {+q q q q q q q q q q q q q q q X.X.Y.Y.Z.Z.Z.`.`. + +.+.+++@+@+#+#+$+$+%+%+%+&+&+*+*+=+=+-+-+;+;+~+^+/+^+q W.            ",
"      {+q q q q q q q q q q q q q q q X.X.Y.Y.Z.Z.`.`. + +.+.+++++@+@+#+#+$+$+%+%+&+&+*+*+=+=+-+-+;+;+;+>+)+)+^+q W.            ",
"      (+q q q q q q q q q q q q q q X.X.Y.Y.Z.Z.Z.`.`. + +.+.+++@+@+#+#+$+$+%+%+%+&+*+*+=+=+=+-+-+;+;+_+,+]+]+,+q W.            ",
"      (+q q q q q q q q q q q q q q X.X.Y.Y.Z.Z.`.`. + +.+.+++++@+@+#+#+$+$+%+%+&+&+*+*+=+=+-+-+;+;+;+:+]+]+]+,+q W.            ",
"      (+q q q q q q q q q q q q q X.X.Y.Y.Z.Z.Z.`.`. + +.+++++@+@+#+#+$+$+%+%+&+&+*+*+=+=+=+-+-+;+;+'+,+^+^+^+!+q W.            ",
"      (+q q q q q q q q q q q q q X.X.Y.Y.Z.Z.`.`. + +.+.+++++@+@+#+#+$+$+%+%+&+&+*+*+=+=+-+-+;+;+~+<+,+,+,+,+<+q W.            ",
"      [+q q q q q q q q q q q q X.X.Y.Y.Z.Z.Z.`. + +.+.+++++@+@+#+#+$+$+%+%+&+&+*+*+=+=+=+-+-+;+;+:+,+,+,+,+,+<+q W.            ",
"      [+q q q q q q q q q q q q X.X.Y.Y.Z.Z.`.`. + +.+.+++++@+@+#+#+$+$+%+%+&+&+*+*+=+=+-+-+;+;+'+!+!+!+!+!+!+:+q W.            ",
"      [+q q q q q q q q q q q X.X.Y.Y.Z.Z.`.`. + +.+.+++++@+@+@+#+$+$+%+%+&+&+*+*+=+=+=+-+-+;+_+<+!+!+!+!+!+!+:+q W.            ",
"      [+q q q q q q q q q q q X.X.Y.Y.Z.Z.`.`. + +.+.+++++@+@+#+#+$+%+%+%+&+&+*+*+=+=+-+-+;+~+:+<+<+<+<+<+<+<+>+q W.            ",
"      . q q q q q q q q q q X.X.Y.Y.Z.Z.`.`. + +.+.+++++@+@+@+#+$+$+%+%+&+&+*+*+=+=+=+-+-+~+>+:+:+:+:+:+:+:+:+}+q W.            ",
"      . q q q q q q q q q q X.X.Y.Y.Z.Z.`.`. + +.+.+++++@+@+#+#+$+%+%+%+&+&+*+*+=+=+-+-+~+>+:+:+:+:+:+:+:+:+:+}+q W.            ",
"      . q q q q q q q q q X.X.Y.Y.Z.Z.`.`. + +.+.+++++@+@+#+#+$+$+%+%+&+&+*+*+=+=+-+-+_+>+>+>+>+>+>+>+>+>+>+>+'+q W.            ",
"      |+q q q q q q q q q X.X.Y.Z.Z.Z.`.`. + +.+.+++++@+@+#+#+$+%+%+%+&+&+*+*+=+=+;+_+}+>+>+>+>+>+>+>+>+>+>+>+'+q W.            ",
"      |+q q q q q q q q X.X.Y.Y.Z.Z.`.`. + +.+.+++++@+@+#+#+$+$+%+%+&+&+*+*+=+=+;+'+}+}+}+}+}+}+}+}+}+}+}+}+}+_+q W.            ",
"      |+q q q q q q q q X.Y.Y.Z.Z.Z.`.`. + +.+.+++++@+@+#+#+$+$+%+%+&+&+*+*+-+~+'+}+}+}+}+}+}+}+}+}+}+}+}+}+}+_+q W.            ",
"      |+q q q q q q q X.X.Y.Y.Z.Z.`.`. + +.+.+++++@+@+#+#+$+$+%+%+&+&+*+*+;+_+'+'+'+'+'+'+'+'+'+'+'+'+'+'+'+'+~+q W.            ",
"      |+q Y.q q q q X.X.Y.Y.Z.Z.`.`. + +.+.+++++@+@+@+#+#+$+%+%+%+&+*+-+~+'+'+'+_+_+_+_+_+_+_+_+_+_+_+_+_+_+_+~+q W.            ",
"      |+`.~+%+ +X.q q X.Y.Y.Z.Z.`.`. + +.+.+++++@+@+#+#+$+$+%+%+*+-+~+_+_+_+_+_+_+_+_+_+_+_+_+_+_+_+_+_+_+_+_+~+q W.            ",
"      |+Z._+_+~+-+%+++`.Z.Z.Y.Z.`.`. + +.+++++@+@+@+#+$+$+&+=+;+~+~+~+~+~+~+~+~+~+~+~+~+~+~+~+~+~+~+~+~+~+~+~+;+q W.            ",
"      1+Z._+~+~+~+_+~+;+=+&+$+#+@+++++++++@+#+$+%+&+=+-+;+~+~+~+~+~+~+~+~+~+~+~+~+~+~+~+~+~+~+~+~+~+~+~+~+~+~+;+q W.            ",
"      1+Z.~+;+;+;+;+;+;+;+~+~+;+;+;+;+;+;+;+;+;+;+;+;+;+;+;+;+;+;+;+;+;+;+;+;+;+;+;+;+;+;+;+;+;+;+;+;+;+;+;+;+-+q W.            ",
"      1+Z.~+;+;+;+;+;+;+;+;+;+;+;+;+;+;+;+;+;+;+;+;+;+;+;+;+;+;+;+;+;+;+;+;+;+;+;+;+;+;+;+;+;+;+;+;+;+;+;+;+;+-+q W.            ",
"      1+Z.;+-+-+-+-+-+-+-+-+-+-+-+-+-+-+-+-+-+-+-+-+-+-+-+-+-+-+-+-+-+-+-+-+-+-+-+-+-+-+-+-+-+-+-+-+-+-+-+-+-+=+q W.            ",
"      1+Z.;+-+-+-+-+-+-+-+-+-+-+-+-+-+-+-+-+-+-+-+-+-+-+-+-+-+-+-+-+-+-+-+-+-+-+-+-+-+-+-+-+-+-+-+-+-+-+-+-+-+=+q W.            ",
"      2+Y.-+=+=+=+=+=+=+=+=+=+=+=+=+=+=+=+=+=+=+=+=+=+=+=+=+=+=+=+=+=+=+=+=+=+=+=+=+=+=+=+=+=+=+=+=+=+=+=+=+=+*+q W.            ",
"      2+X.=+*+*+*+*+*+*+*+*+*+*+*+*+*+*+*+*+*+*+*+*+*+*+*+*+*+*+*+*+*+*+*+*+*+*+*+*+*+*+*+*+*+*+*+*+*+*+*+*+*+&+q W.            ",
"      2+X.*+*+*+*+*+*+*+*+*+*+*+*+*+*+*+*+*+*+*+*+*+*+*+*+*+*+*+*+*+*+*+*+*+*+*+;+_+~+~+~+~+~+~+~+;+;+;+;+;+;+-+q 3+            ",
"      4+X.&+&+&+&+&+&+&+&+&+&+&+&+&+&+&+&+&+&+&+&+&+&+&+&+&+&+&+&+&+&+&+&+&+&+%+^+5+6+7+8+9+0+a+b+c+c+c+c+c+c+c+d+e+            ",
"      4+X.&+&+&+&+&+&+&+&+&+&+&+&+&+&+&+&+&+&+&+&+&+&+&+&+&+&+&+&+&+&+&+&+&+&+%+^+f+. {+(+[+. 1+2+4+4+4+4+4+4+[+g+h+            ",
"      4+X.%+%+%+%+%+%+%+%+%+%+%+%+%+%+%+%+%+%+%+%+%+%+%+%+%+%+%+%+%+%+%+%+%+%+$+,+b+Y.q q q q q q q q q q q q i+j+              ",
"      4+X.%+%+%+%+%+%+%+%+%+%+%+%+%+%+%+%+%+%+%+%+%+%+%+%+%+%+%+%+%+%+%+%+%+%+$+,+f+++`.Z.Z.Y.Y.X.X.q q q q k+l+                ",
"      m+X.$+$+$+$+$+$+$+$+$+$+$+$+$+$+$+$+$+$+$+$+$+$+$+$+$+$+$+$+$+$+$+$+$+$+#+!+n+@+++.+.+ +`.`.Z.Y.X.q k+o+                  ",
"      m+q $+$+$+$+$+$+$+$+$+$+$+$+$+$+$+$+$+$+$+$+$+$+$+$+$+$+$+$+$+$+$+$+$+$+@+!+p+#+#+#+@+@+++.+.+ +q q+o+                    ",
"      m+q #+#+#+#+#+#+#+#+#+#+#+#+#+#+#+#+#+#+#+#+#+#+#+#+#+#+#+#+#+#+#+#+#+#+++<+r+%+&+%+%+$+$+#+@+Z.s+l+                      ",
"      m+q #+#+#+#+#+#+#+#+#+#+#+#+#+#+#+#+#+#+#+#+#+#+#+#+#+#+#+#+#+#+#+#+#+#+++<+t+&+-+=+=+*+&+&+.+u+v+                        ",
"      m+q #+#+#+#+#+#+#+#+#+#+#+#+#+#+#+#+#+#+#+#+#+#+#+#+#+#+#+#+#+#+#+#+#+#+++<+w+*+~+~+;+;+-+#+x+v+                          ",
"      m+q @+@+@+@+@+@+@+@+@+@+@+@+@+@+@+@+@+@+@+@+@+@+@+@+@+@+@+@+@+@+@+@+@+@+.+<+y+=+}+'+'+_+*+z+v+                            ",
"      m+q @+@+@+@+@+@+@+@+@+@+@+@+@+@+@+@+@+@+@+@+@+@+@+@+@+@+@+@+@+@+@+@+@+@+.+<+y+-+<+:+:+~+A+l+                              ",
"      m+q ++++++++++++++++++++++++++++++++++++++++++++++++++++++++++++++++++++ +>+y+;+^+,+}+7+o+                                ",
"      m+q ++++++++++++++++++++++++++++++++++++++++++++++++++++++++++++++++++++ +>+y+~+)+<+9+o+                                  ",
"      m+q .+.+.+.+.+.+.+.+.+.+.+.+.+.+.+.+.+.+.+.+.+.+.+.+.+.+.+.+.+.+.+.+.+.+`.}+w+~+]+0+o+                                    ",
"      m+q .+.+.+.+.+.+.+.+.+.+.+.+.+.+.+.+.+.+.+.+.+.+.+.+.+.+.+.+.+.+.+.+.+.+`.}+w+=+b+l+                                      ",
"      2+q X.X.X.X.X.X.X.X.X.X.X.X.X.X.X.X.X.X.X.X.X.X.X.X.X.X.X.X.X.X.X.X.X.X.q ~+B+z+l+                                        ",
"      u+!+)+)+)+)+)+)+)+)+)+)+)+)+)+)+)+)+)+)+)+)+)+)+)+)+)+)+)+)+)+)+)+)+)+)+]+4+C+D+                                          ",
"                                                                                                                                ",
"                                                                                                                                ",
"                                                                                                                                "};
