/* XPM */
static char *zoom_out[] = {
/* columns rows colors chars-per-pixel */
"48 48 169 2",
"   c #327D38773920",
".  c #3A923E8A3E8A",
"X  c #3CE4423F4337",
"o  c #40EF45834628",
"O  c #47844BE64BDE",
"+  c #49EF4E1F4DBA",
"@  c #4D6B50654D6B",
"#  c #4D5651A85074",
"$  c #514F559B55E6",
"%  c #56695945575D",
"&  c #58985A9856B7",
"*  c #56225A905B21",
"=  c #5A365E0F5B94",
"-  c #5DAA61055EA0",
";  c #614D636C5EFB",
":  c #5B0F5EEB61D0",
">  c #5E0D626E63CB",
",  c #629065666303",
"<  c #67E069C467E0",
"1  c #685F6A42661F",
"2  c #6B7A6E636BB2",
"3  c #6EC470C66CC2",
"4  c #7070725B6EDB",
"5  c #6E5D725F70C3",
"6  c #73A5760A744D",
"7  c #76D878FB74BF",
"8  c #790D7B4F76C8",
"9  c #76227A2279D7",
"0  c #7AC27D3B7A2F",
"q  c #7E7E80807B7B",
"w  c #461E76A0B473",
"e  c #486977E8B604",
"r  c #4B1E79E1B4D5",
"t  c #52F67DD8B5A6",
"y  c #7EC081A48128",
"u  c #6E6E9ACED63C",
"i  c #71E49D8FD5B9",
"p  c #78699E81D2CD",
"a  c #71179E44D9BF",
"s  c #7D28A2D5D00B",
"d  c #74B5A26BDDBE",
"f  c #7BA8A64BDD6E",
"g  c #7FB9A94BDCE9",
"h  c #76F6A673E1AE",
"j  c #7990A76AE227",
"k  c #7BECAB4DE53F",
"l  c #7D8AAEC6E974",
"z  c #7F75B0EFEC0D",
"x  c #83B4861D83BC",
"c  c #86FC89428651",
"v  c #89D88C5287DC",
"b  c #869E89C98A16",
"n  c #8B728DB48A37",
"m  c #8DE1912D8DE1",
"M  c #9072927E8EA5",
"N  c #8E0E91E59296",
"B  c #8E4F96289ADB",
"V  c #921695B394CE",
"C  c #955F994F9703",
"Z  c #996F9AFB96CE",
"A  c #9C239EBF9BB5",
"S  c #9E14A0E59D90",
"D  c #A1EFA4699F76",
"F  c #8ED09A21A4FE",
"G  c #93F39C5AA2E3",
"H  c #8C099E3CB3D1",
"J  c #9702A13AA7BB",
"K  c #9F28A498A025",
"L  c #9457A1AFAD40",
"P  c #9F38A7C2AA9B",
"I  c #9B77A8EEB3B3",
"U  c #9749A9DBBE8D",
"Y  c #A3B1A62FA3B3",
"T  c #A6A6AAA1A5C6",
"R  c #A928AC2BA626",
"E  c #A80DAC01A90A",
"W  c #ABEDAE65AB49",
"Q  c #ADE5B1DCAE37",
"!  c #B1B1B4B4AE2E",
"~  c #A06DAABBB05A",
"^  c #A94CB1DFB3C7",
"/  c #A677B37FBBFB",
"(  c #AEAEB74AB83F",
")  c #B402B60BB4F1",
"_  c #B67DBA40B55F",
"`  c #BA64BD3DB6E1",
"'  c #B604BC24BD1F",
"]  c #BBABBE66BB11",
"[  c #BDEBC1CFBB5B",
"{  c #C20DC50FBED8",
"}  c #8D69A593C589",
"|  c #8D9DA909C606",
" . c #9ACFAE6FC2EA",
".. c #90AEA7B6CB06",
"X. c #9186AC10CEAF",
"o. c #9E34B29DC478",
"O. c #99EBB0DDCFBA",
"+. c #8FA8AC75D3AF",
"@. c #80ADA7A7DB9F",
"#. c #8176A9E4DCD1",
"$. c #92A3AE24D48C",
"%. c #922DAF90D9B6",
"&. c #950FB107D6A6",
"*. c #9A87B493D3AD",
"=. c #9F75BCBCD7A4",
"-. c #95A6B21BDB50",
";. c #9AF2B643DD99",
":. c #9F21B989DE8D",
">. c #A753BAA4C7CF",
",. c #AE82BBA2C524",
"<. c #A9F6BB85C991",
"1. c #B305BF27C3D0",
"2. c #BEE5BFD1C0BD",
"3. c #A162BB2DDEEE",
"4. c #840CAEC9E4BF",
"5. c #814AAFA5E920",
"6. c #82CEB080E836",
"7. c #8B31B40EE364",
"8. c #8254B3E5ED7F",
"9. c #8B0BB94DEBCC",
"0. c #9689B69AE211",
"q. c #9DB5BA81E1F7",
"w. c #925EBD66EA7A",
"e. c #8376B709F189",
"r. c #85D2BA69F4FD",
"t. c #89E9BD6DF74E",
"y. c #893CBF3EF9C6",
"u. c #A3BCBE05E2B6",
"i. c #BF1DC3BEC270",
"p. c #8B92C220FC62",
"a. c #A624C150E54A",
"s. c #AB5DC459E65D",
"d. c #AF4DC928E7B6",
"f. c #ACD5C675E950",
"g. c #AF15C8ACEA06",
"h. c #B20CC8E1E796",
"j. c #B0DEC797E9AB",
"k. c #B3B4CB7CEAEF",
"l. c #C30CC4D2C360",
"z. c #C973CC76C6C6",
"x. c #C7D6CA57CA62",
"c. c #CA80CC83CA07",
"v. c #CF80D1BFCD7F",
"b. c #D17BD47ECE23",
"n. c #D2D8D454D258",
"m. c #D600D9A2D30D",
"M. c #DABADDDDD736",
"N. c #D7D7D8D3D8D3",
"B. c #DC29DD25DABA",
"V. c #DF03E206DBDB",
"C. c #E1C1E3A0DEE0",
"Z. c #DB26E548F056",
"A. c #DE68E7BDF111",
"S. c #DFB7EAA0F7D0",
"D. c #DFDDEB62F906",
"F. c #E587E644E3D9",
"G. c #E7E7E8E8E4E4",
"H. c #E956EA57E70B",
"J. c #E62BEAF3EFBC",
"K. c #ED6BEDC9EC6A",
"L. c #EFEFF0F0EDED",
"P. c #F130F171EF2E",
"I. c #E63AEC5DF245",
"U. c #E4B7EE66FA9E",
"Y. c #EEE9F0F5F0F5",
"T. c #EDA1F36FFBBE",
"R. c #F4BFF4D3F49F",
"E. c #F9F9F9F9F7F7",
"W. c #FF81FF81FF81",
/* pixels */
"W.W.W.W.W.W.W.W.W.W.W.W.W.W.W.W.W.W.W.W.W.W.W.W.W.W.W.W.W.W.W.W.W.W.W.W.W.W.W.W.W.W.W.W.W.W.W.W.",
"W.W.W.W.W.W.W.W.W.W.W.W.W.W.W.W.W.W.W.W.W.W.W.W.W.W.W.W.W.W.W.W.W.W.W.W.W.W.W.W.W.W.W.W.W.W.W.W.",
"W.W.W.W.W.W.W.W.W.W.W.W.W.W.W.H.] M 6 ; & & ; 6 M ] H.W.W.W.W.W.W.W.W.W.W.W.W.W.W.W.W.W.W.W.W.W.",
"W.W.W.W.W.W.W.W.W.W.W.W.W.l.8 , n ) b.G.P.P.F.v.) n , 8 l.W.W.W.W.W.W.W.W.W.W.W.W.W.W.W.W.W.W.W.",
"W.W.W.W.W.W.W.W.W.W.W.n.2 8 { R.K.C.M.m.m.m.m.M.C.G.K.] 6 2 n.W.W.W.W.W.W.W.W.W.W.W.W.W.W.W.W.W.",
"W.W.W.W.W.W.W.W.W.E.Z 1 l.R.C.m.{ T C m v v m C T { m.C.K.] , C E.W.W.W.W.W.W.W.W.W.W.W.W.W.W.W.",
"W.W.W.W.W.W.W.W.R.7 v R.F.b.W n B H } +.+.+.+.} H B n Q m.C.F.x 6 R.W.W.W.W.W.W.W.W.W.W.W.W.W.W.",
"W.W.W.W.W.W.W.R.4 D E.M._ m F X.%.-.-.-.-.-.-.%.%.%.+.F V [ V.K.Z 2 R.W.W.W.W.W.W.W.W.W.W.W.W.W.",
"W.W.W.W.W.W.E.7 Y R.m.T N ..-.-.;.;.;.;.;.;.-.-.-.-.%.%...C Q V.H.A 6 E.W.W.W.W.W.W.W.W.W.W.W.W.",
"W.W.W.W.W.W.A n R.m.S B $.;.;.:.:.:.;.:.:.;.;.;.-.-.-.-.%.$.G T V.K.c A W.W.W.W.W.W.W.W.W.W.W.W.",
"W.W.W.W.W.N.2 R.M.W G -.;.:.:.3.3.3.3.3.:.:.:.;.;.;.-.-.-.-.%.J _ C.G.< B.W.W.W.W.W.W.W.W.W.W.W.",
"W.W.W.W.W.6 c.C.[ V &.;.:.u.u.u.u.u.u.u.u.u.u.:.:.;.;.;.-.-.-.$.A z.F.l.5 W.W.W.W.W.W.W.W.W.W.W.",
"W.W.W.W.c.0 R.b.C X.;.3.u.u.u.a.a.s.s.a.a.u.u.u.u.q.:.;.;.;.-.-.$.K C.K.9 x.W.W.W.W.W.W.W.W.W.W.",
"W.W.W.W.0 l.C.) L ;.u.u.a.s.s.s.f.s.s.f.s.s.s.a.a.u.u.q.q.;.;.-.-.I l.G.] 9 W.W.W.W.W.W.W.W.W.W.",
"W.W.W.K.- R.m.C &.:.u.a.s.f.d.h.j.j.j.d.d.f.f.s.a.a.u.u.q.q.;.;.-.&.D F.K.* K.W.W.W.W.W.W.W.W.W.",
"W.W.W._ v K.{ G ;.u.a.s.s.d.h.k.k.k.k.k.j.j.g.g.s.s.a.u.u.u.q.q.;.;.P m.K.c ) W.W.W.W.W.W.W.W.W.",
"W.W.W.v Q C.Q U q.u.s.s.d.k.k.k.k.k.k.k.k.k.j.g.g.f.s.a.a.u.u.q.q.;. .] H.W b W.W.W.W.W.W.W.W.W.",
"W.W.W.2 v.M.K O.u.a.s.f.t t t t t t t t t t t t t t t t r t u.q.q.q.*.Q H.c., W.W.W.W.W.W.W.W.W.",
"W.W.W.$ G.m.S ;.u.s.f.g.t T.T.T.T.T.T.T.T.T.T.T.T.T.T.T.T.r a.0.@.i p T H.B.# W.W.W.W.W.W.W.W.W.",
"W.W.W.O K.m.Z q.a.f.f.k.t T.I.J.I.I.I.I.I.I.I.I.I.I.I.I.T.r g a a u u T K.H.o W.W.W.W.W.W.W.W.W.",
"W.W.W.O K.m.A u.q.#.f 4.r T.I.I.I.I.I.I.I.I.I.I.I.I.A.Z.S.w d d a a u R K.H.o W.W.W.W.W.W.W.W.W.",
"W.W.W.# F.m.Y 3.g f f k w U.U.U.U.U.U.U.U.U.U.U.U.D.D.D.S.w d d d a i W K.C.+ W.W.W.W.W.W.W.W.W.",
"W.W.W.< c.M.E *.d f j k w e e e e e e e e w e w w w w w w w h d d d s ) K.c., W.W.W.W.W.W.W.W.W.",
"W.W.W.x E V._  .d j j k k 5.6.6.8.8.8.8.8.8.8.z l l l k k j h h d d | x.K.W x W.W.W.W.W.W.W.W.W.",
"W.W.W.) x G.z.~ d j k k l 5.6.8.8.8.8.8.8.8.8.8.z z l l l k j h h d / F.K.y ) W.W.W.W.W.W.W.W.W.",
"W.W.W.K.$ K.m.E f j k k l 6.8.8.8.8.e.e.e.e.e.8.8.8.z l l l k j h f ) P.K.# K.W.W.W.W.W.W.W.W.W.",
"W.W.W.W.5 ` V.l.U j k k l 6.8.8.8.e.e.r.r.r.e.e.e.8.8.z l l k k j o.N.R.] 2 W.W.W.W.W.W.W.W.W.W.",
"W.W.W.W.x.2 H.m.Q g k l l z 8.8.e.e.r.r.r.r.r.r.e.e.8.8.z l l k #.' R.K.2 l.W.W.W.W.W.W.W.W.W.W.",
"W.W.W.W.W., [ C.z.^ k l z 8.8.e.e.r.r.t.y.y.t.r.r.e.e.8.8.z l k ' F.R.l.> W.W.W.W.W.W.W.W.W.W.W.",
"W.W.W.W.W.N.= F.M.{ / l z 8.8.e.r.r.t.y.p.p.y.t.r.r.e.8.8.z l ,.N.E.H.* N.W.W.W.W.W.W.W.W.W.W.W.",
"W.W.W.W.W.W.V 0 H.M.] / 6.8.e.e.r.t.y.p.p.p.p.y.t.r.e.e.8.6.,.c.E.K.y V W.W.W.W.W.W.W.W.W.W.W.W.",
"W.W.W.W.W.W.E., V H.M.l.( 7.e.e.r.t.y.p.p.p.p.y.t.r.e.e.7.' n.R.H.0 * R.W.W.W.W.W.W.W.W.W.W.W.W.",
"W.W.W.W.W.W.W.R.* N K.V.v.` >.9.r.t.y.p.p.p.p.y.t.r.9.<.[ C.R.K.9   - @ 1 n m.W.W.W.W.W.W.W.W.W.",
"W.W.W.W.W.W.W.W.R.> 6 F.F.V.c.] 1.=.w.t.y.y.t.w.=.1.] m.R.R.F.6 $ # Z R ! T , n.W.W.W.W.W.W.W.W.",
"W.W.W.W.W.W.W.W.W.E.x + ) K.F.C.M.c.i.] ` ` ] i.v.C.L.P.K.) O b Y.. n v S ` [ , n.W.W.W.W.W.W.W.",
"W.W.W.W.W.W.W.W.W.W.W.x.$ > ) K.H.H.G.G.H.H.K.K.K.K.K.) : $ x.W.W.+ 0 0 v v _ [ , n.W.W.W.W.W.W.",
"W.W.W.W.W.W.W.W.W.W.W.W.W.' > o 9 T l.B.F.F.B.l.Y 9 X > _ E.W.W.W.6 < q = 4 c _ [ , n.W.W.W.W.W.",
"W.W.W.W.W.W.W.W.W.W.W.W.W.W.E.F.W 9 * X     X * 0 W F.E.E.E.E.E.E.i.X 7 7 & 3 x _ [ , n.W.W.W.W.",
"W.W.W.W.W.W.W.W.W.W.W.E.E.E.E.E.E.E.E.R.R.R.R.R.R.R.R.R.R.R.R.R.E.E.l.X 7 7 & 3 x ` [ ; n.W.W.W.",
"W.W.W.W.W.W.W.W.W.W.E.E.E.E.E.E.R.R.R.R.R.R.R.R.R.R.R.R.R.R.R.R.R.R.R.l.X 7 7 & 2 x ` ] ; n.W.W.",
"W.W.W.W.W.W.W.W.W.E.E.E.E.E.E.R.R.R.R.R.R.R.R.K.K.K.K.K.K.K.R.R.R.R.R.R.l.X 7 7 & 2 x ` ] ; N.W.",
"W.W.W.W.W.W.W.W.W.E.E.E.E.E.E.R.R.R.R.R.R.R.R.R.K.K.K.K.K.K.K.K.K.R.R.R.R.2.X 8 8 & 3 x ] W x W.",
"W.W.W.W.W.W.W.W.W.W.W.E.E.E.E.E.E.E.R.R.R.R.R.R.R.R.R.R.K.K.K.K.K.K.K.R.R.R.] X 8 8 & 4 ! S S W.",
"W.W.W.W.W.W.W.W.W.W.W.W.W.E.E.E.E.E.E.E.E.E.E.E.E.E.R.R.R.R.R.R.R.R.R.K.R.R.R.2.X 0 0 M A % K.W.",
"W.W.W.W.W.W.W.W.W.W.W.W.W.W.W.W.W.W.W.E.E.E.E.E.E.E.E.E.E.E.E.E.E.R.R.R.R.R.R.E.l.X 2 2 + n.W.W.",
"W.W.W.W.W.W.W.W.W.W.W.W.W.W.W.W.W.W.W.W.W.W.W.W.W.W.W.W.W.W.W.W.W.W.W.E.E.E.E.E.E.x.9 N G.W.W.W.",
"W.W.W.W.W.W.W.W.W.W.W.W.W.W.W.W.W.W.W.W.W.W.W.W.W.W.W.W.W.W.W.W.W.W.W.W.W.W.W.W.W.W.W.W.W.W.W.W.",
"W.W.W.W.W.W.W.W.W.W.W.W.W.W.W.W.W.W.W.W.W.W.W.W.W.W.W.W.W.W.W.W.W.W.W.W.W.W.W.W.W.W.W.W.W.W.W.W."
};
