/* XPM */
static const char * zoom_off_xpm[] = {
"22 22 8 1",
" 	c None",
".	c #000000",
"+	c #CBE2FF",
"@	c #DDECFF",
"#	c #FF0000",
"$	c #E8F1FF",
"%	c #FFFFFF",
"&	c #AFAFAF",
"                      ",
"   .......            ",
"  ..++++@..           ",
" ..#+@@@@$..     #    ",
" .###@$$$$@.    ###   ",
" .+###%%$$@.   ###    ",
" .+@###%$@+.  ###     ",
" .+@$###$@+. ###      ",
" .@@$$###@+.###       ",
" ..@$$@###.###        ",
"  ..@@++#####         ",
"   ......###..        ",
"        #####..       ",
"       ### ###...     ",
"      ###   ###&..    ",
"     ###     ###&..   ",
"    ###      .###&..  ",
"   ###        .###&.. ",
"  ###          .###.. ",
"   #            .#..  ",
"                 ..   ",
"                      "};
