/* XPM */
static char *zoom_original[] = {
/* columns rows colors chars-per-pixel */
"48 48 186 2",
"   c #327D38773920",
".  c #3A923E8A3E8A",
"X  c #3CE4423F4337",
"o  c #40EF45834628",
"O  c #47844BE64BDE",
"+  c #49EF4E1F4DBA",
"@  c #4D6B50654D6B",
"#  c #4D5651A85074",
"$  c #514F559B55E6",
"%  c #56695945575D",
"&  c #58985A9856B7",
"*  c #56225A905B21",
"=  c #5A365E0F5B94",
"-  c #5DAA61055EA0",
";  c #614D636C5EFB",
":  c #5B0F5EEB61D0",
">  c #5E0D626E63CB",
",  c #629065666303",
"<  c #67E069C467E0",
"1  c #685F6A42661F",
"2  c #6B7A6E636BB2",
"3  c #6EC470C66CC2",
"4  c #7070725B6EDB",
"5  c #6E5D725F70C3",
"6  c #73A5760A744D",
"7  c #76D878FB74BF",
"8  c #790D7B4F76C8",
"9  c #76227A2279D7",
"0  c #7AC27D3B7A2F",
"q  c #7E7E80807B7B",
"w  c #367D63209F6E",
"e  c #3D0164D29E4B",
"r  c #3704641FA10E",
"t  c #37EC647CA13C",
"y  c #409B66829E17",
"u  c #43E769989F81",
"i  c #44636A91A0B1",
"p  c #49AE6E24A3E6",
"a  c #5D027F6BB220",
"s  c #7EC081A48128",
"d  c #688387F4B1DF",
"f  c #70BB8C3EB5FE",
"g  c #6E6E9ACED63C",
"h  c #71E49D8FD5B9",
"j  c #78699E81D2CD",
"k  c #71179E44D9BF",
"l  c #7D28A2D5D00B",
"z  c #74AEA283DDD1",
"x  c #7BBDA65DDDA5",
"c  c #7FCBA9DEDBD6",
"v  c #76FFA662E1BF",
"b  c #7968A76CE249",
"n  c #7BDBAB4DE553",
"m  c #7D8BAEB4E96D",
"M  c #7F74B0F8EC0F",
"N  c #83B4861D83BC",
"B  c #86FC89428651",
"V  c #89D88C5287DC",
"C  c #869E89C98A16",
"Z  c #8B728DB48A37",
"A  c #8DE1912D8DE1",
"S  c #9072927E8EA5",
"D  c #8E0E91E59296",
"F  c #8E4F96289ADB",
"G  c #921695B394CE",
"H  c #955F994F9703",
"J  c #996F9AFB96CE",
"K  c #9C239EBF9BB5",
"L  c #9E14A0E59D90",
"P  c #A1EFA4699F76",
"I  c #8ED09A21A4FE",
"U  c #93F39C5AA2E3",
"Y  c #8C099E3CB3D1",
"T  c #9702A13AA7BB",
"R  c #9F28A498A025",
"E  c #9457A1AFAD40",
"W  c #9F38A7C2AA9B",
"Q  c #9B77A8EEB3B3",
"!  c #9749A9DBBE8D",
"~  c #A3B1A62FA3B3",
"^  c #A6A6AAA1A5C6",
"/  c #A928AC2BA626",
"(  c #A80DAC01A90A",
")  c #ABEDAE65AB49",
"_  c #ADE5B1DCAE37",
"`  c #B1B1B4B4AE2E",
"'  c #A06DAABBB05A",
"]  c #A94CB1DFB3C7",
"[  c #A677B37FBBFB",
"{  c #AEAEB74AB83F",
"}  c #B402B60BB4F1",
"|  c #B67DBA40B55F",
" . c #BA64BD3DB6E1",
".. c #B604BC24BD1F",
"X. c #BBABBE66BB11",
"o. c #BDEBC1CFBB5B",
"O. c #C20DC50FBED8",
"+. c #8D69A593C589",
"@. c #8D9DA909C606",
"#. c #9ACFAE6FC2EA",
"$. c #90AEA7B6CB06",
"%. c #9186AC10CEAF",
"&. c #9E34B29DC478",
"*. c #99EBB0DDCFBA",
"=. c #8FA8AC75D3AF",
"-. c #80ADA7A7DB9F",
";. c #81D9AA28DCEC",
":. c #930BAE36D4D8",
">. c #9267AFAED998",
",. c #950FB107D6A6",
"<. c #9A87B493D3AD",
"1. c #9F75BCBCD7A4",
"2. c #95AAB25BDB51",
"3. c #9AB1B63CDD84",
"4. c #9EFFB9ABDE37",
"5. c #A753BAA4C7CF",
"6. c #AE82BBA2C524",
"7. c #A9F6BB85C991",
"8. c #B305BF27C3D0",
"9. c #BEE5BFD1C0BD",
"0. c #A18EBAF8DEFE",
"q. c #8307AE52E505",
"w. c #814AAFA5E920",
"e. c #8525B163E74D",
"r. c #8B31B40EE364",
"t. c #822EB3C6ED48",
"y. c #8E3CB7E7EA2C",
"u. c #8B0BB94DEBCC",
"i. c #9689B69AE211",
"p. c #96D4B9C4E67D",
"a. c #9DCEBA81E210",
"s. c #93BFBCC3EB07",
"d. c #99D0BD0DE8BE",
"f. c #8325B6D3F1A2",
"g. c #85D0BA8AF51C",
"h. c #89E9BD6DF74E",
"j. c #893CBF3EF9C6",
"k. c #A3D3BE08E2FA",
"l. c #BF1DC3BEC270",
"z. c #BA72C8BDDCBF",
"x. c #8B92C220FC62",
"c. c #A62BC165E617",
"v. c #AAE3C41AE645",
"b. c #A6A1C3CEE92D",
"n. c #ABCDC666EA06",
"m. c #AEADC964EB8F",
"M. c #B0DEC797E947",
"N. c #B3C2CC22EC3C",
"B. c #B7A1D114EF4C",
"V. c #B9DAD165EF80",
"C. c #B5F1CFABF12F",
"Z. c #BBE4D337F140",
"A. c #C30CC4D2C360",
"S. c #C973CC76C6C6",
"D. c #C7D6CA57CA62",
"F. c #CA80CC83CA07",
"G. c #CF80D1BFCD7F",
"H. c #D17BD47ECE23",
"J. c #D2D8D454D258",
"K. c #D600D9A2D30D",
"L. c #DABADDDDD736",
"P. c #D7D7D8D3D8D3",
"I. c #DC29DD25DABA",
"U. c #DF03E206DBDB",
"Y. c #E1C1E3A0DEE0",
"T. c #C712D367E388",
"R. c #DF60E514EC0B",
"E. c #DE34E978F641",
"W. c #DFDDEBAFF954",
"Q. c #E587E644E3D9",
"!. c #E7E7E8E8E4E4",
"~. c #E956EA57E70B",
"^. c #E18DE7E5EDEB",
"/. c #E276E921EED9",
"(. c #ED6BEDC9EC6A",
"). c #EFEFF0F0EDED",
"_. c #F130F171EF2E",
"`. c #E559EB8DF2CF",
"'. c #E952EF0DF636",
"]. c #E22EEE05FBAF",
"[. c #EEE9F0F5F0F5",
"{. c #E7BDF111FB55",
"}. c #ED98F32BFB54",
"|. c #F4BFF4D3F49F",
" X c #F9F9F9F9F7F7",
".X c #FF81FF81FF81",
/* pixels */
".X.X.X.X.X.X.X.X.X.X.X.X.X.X.X.X.X.X.X.X.X.X.X.X.X.X.X.X.X.X.X.X.X.X.X.X.X.X.X.X.X.X.X.X.X.X.X.X",
".X.X.X.X.X.X.X.X.X.X.X.X.X.X.X.X.X.X.X.X.X.X.X.X.X.X.X.X.X.X.X.X.X.X.X.X.X.X.X.X.X.X.X.X.X.X.X.X",
".X.X.X.X.X.X.X.X.X.X.X.X.X.X.X~.X.S 6 ; & & ; 6 S X.~..X.X.X.X.X.X.X.X.X.X.X.X.X.X.X.X.X.X.X.X.X",
".X.X.X.X.X.X.X.X.X.X.X.X.XA.8 , Z } H.!._._.Q.G.} Z , 8 A..X.X.X.X.X.X.X.X.X.X.X.X.X.X.X.X.X.X.X",
".X.X.X.X.X.X.X.X.X.X.XJ.2 8 O.|.(.Y.L.K.K.K.K.L.Y.!.(.X.6 2 J..X.X.X.X.X.X.X.X.X.X.X.X.X.X.X.X.X",
".X.X.X.X.X.X.X.X.X XJ 1 A.|.Y.K.O.^ H A V V A H ^ O.K.Y.(.X., H  X.X.X.X.X.X.X.X.X.X.X.X.X.X.X.X",
".X.X.X.X.X.X.X.X|.7 V |.Q.H.) Z F Y +.=.=.=.=.+.Y F Z _ K.Y.Q.N 6 |..X.X.X.X.X.X.X.X.X.X.X.X.X.X",
".X.X.X.X.X.X.X|.4 P  XL.| A I %.>.2.2.2.2.2.>.2.>.>.=.I G o.U.(.J 2 |..X.X.X.X.X.X.X.X.X.X.X.X.X",
".X.X.X.X.X.X X7 ~ |.K.^ D $.>.3.3.3.3.3.3.2.2.2.2.2.>.>.$.H _ U.~.K 6  X.X.X.X.X.X.X.X.X.X.X.X.X",
".X.X.X.X.X.XK Z |.K.L F :.2.3.4.4.4.3.4.4.3.3.3.2.2.2.2.>.:.U ^ U.(.B K .X.X.X.X.X.X.X.X.X.X.X.X",
".X.X.X.X.XP.2 |.L.) U 2.3.4.4.0.0.0.0.0.0.4.4.3.3.3.2.2.2.2.>.T | Y.!.< I..X.X.X.X.X.X.X.X.X.X.X",
".X.X.X.X.X6 F.Y.o.G ,.3.4.0.0.k.k.k.k.p e e e e 4.3.3.3.2.2.2.:.K S.Q.A.5 .X.X.X.X.X.X.X.X.X.X.X",
".X.X.X.XF.0 |.H.H %.3.0.k.k.k.v.v.v.:.f {.}.}.e k.4.4.3.3.3.2.2.:.R Y.(.9 D..X.X.X.X.X.X.X.X.X.X",
".X.X.X.X0 A.Y.} E 2.k.k.c.v.v.v.v.4.a T.`.R.{.y k.k.k.a.a.3.3.2.2.Q A.!.X.9 .X.X.X.X.X.X.X.X.X.X",
".X.X.X(.- |.K.H ,.a.k.c.v.v.m.p u d z.'.^.R.}.y v.c.k.k.a.a.3.3.2.,.P Q.(.* (..X.X.X.X.X.X.X.X.X",
".X.X.X| V (.O.U 3.k.c.v.n.M.M.u }.}.'./.^.R.}.y v.v.c.k.k.k.a.a.3.3.W K.(.B } .X.X.X.X.X.X.X.X.X",
".X.X.XV _ Y._ ! a.c.v.v.m.N.N.i }.}.}.}././.}.u m.n.b.c.c.k.k.a.a.3.#.X.~.) C .X.X.X.X.X.X.X.X.X",
".X.X.X2 G.L.R *.k.c.v.n.M.N.N.u u u u }.`.`.}.u M.m.n.b.b.c.k.a.a.a.<._ ~.F., .X.X.X.X.X.X.X.X.X",
".X.X.X$ !.K.L 3.k.v.n.m.N.N.N.N.V.V.i }.`.`.}.i N.m.m.n.b.c.c.i.-.h j ^ ~.I.# .X.X.X.X.X.X.X.X.X",
".X.X.XO (.K.J a.c.v.n.m.N.N.B.V.V.Z.i }.`.`.}.i N.N.m.n.b.p.c k k g g ^ (.~.o .X.X.X.X.X.X.X.X.X",
".X.X.XO (.K.K k.a.;.x q.p.b.N.V.Z.Z.i }.'.'.}.i C.n.d.e.x z z z k k g / (.~.o .X.X.X.X.X.X.X.X.X",
".X.X.X# Q.K.~ 0.c x x n q.q.q.e.y.s.e {.`.`.].w n n b b v v z z z k h ) (.Y.+ .X.X.X.X.X.X.X.X.X",
".X.X.X< F.L.( <.z x b n n q.w.e.e.t.w ].E.E.].w m n n n b v v z z z l } (.F., .X.X.X.X.X.X.X.X.X",
".X.X.XN ( U.| #.z b b n n w.e.e.t.t.w ].E.W.].w m m m n n b v v z z @.D.(.) N .X.X.X.X.X.X.X.X.X",
".X.X.X} N !.S.' z b n n m w.e.t.t.t.w ].W.W.].w M M m m m n b v v z [ Q.(.s } .X.X.X.X.X.X.X.X.X",
".X.X.X(.$ (.K.( x b n n m e.t.t.t.t.t ].].].].r t.t.M m m m n b v x } _.(.# (..X.X.X.X.X.X.X.X.X",
".X.X.X.X5  .U.A.! b n n m t.t.t.t.f.r ].].].].r f.t.t.M m m n n b &.P.|.X.2 .X.X.X.X.X.X.X.X.X.X",
".X.X.X.XD.2 ~.K._ c n m m M t.t.f.f.r t t t t r f.f.t.t.M m m n ;...|.(.2 A..X.X.X.X.X.X.X.X.X.X",
".X.X.X.X.X, o.Y.S.] n m M t.t.f.f.g.g.h.j.j.h.g.g.f.f.t.t.M m n ..Q.|.A.> .X.X.X.X.X.X.X.X.X.X.X",
".X.X.X.X.XP.= Q.L.O.[ m M t.t.f.g.g.h.j.x.x.j.h.g.g.f.t.t.M m 6.P. X~.* P..X.X.X.X.X.X.X.X.X.X.X",
".X.X.X.X.X.XG 0 ~.L.X.[ e.t.f.f.g.h.j.x.x.x.x.j.h.g.f.f.t.t.6.F. X(.s G .X.X.X.X.X.X.X.X.X.X.X.X",
".X.X.X.X.X.X X, G ~.L.A.{ r.f.f.g.h.j.x.x.x.x.j.h.g.f.f.r...J.|.~.0 * |..X.X.X.X.X.X.X.X.X.X.X.X",
".X.X.X.X.X.X.X|.* D (.U.G. .5.u.g.h.j.x.x.x.x.j.h.g.u.7.o.Y.|.(.9   - @ 1 Z K..X.X.X.X.X.X.X.X.X",
".X.X.X.X.X.X.X.X|.> 6 Q.Q.U.F.X.8.1.s.h.j.j.h.s.1.8.X.K.|.|.Q.6 $ # J / ` ^ , J..X.X.X.X.X.X.X.X",
".X.X.X.X.X.X.X.X.X XN + } (.Q.Y.L.F.l.X. . .X.l.G.Y.)._.(.} O C [.. Z V L  .o., J..X.X.X.X.X.X.X",
".X.X.X.X.X.X.X.X.X.X.XD.$ > } (.~.~.!.!.~.~.(.(.(.(.(.} : $ D..X.X+ 0 0 V V | o., J..X.X.X.X.X.X",
".X.X.X.X.X.X.X.X.X.X.X.X.X..> o 9 ^ A.I.Q.Q.I.A.~ 9 X > |  X.X.X.X6 < q = 4 B | o., J..X.X.X.X.X",
".X.X.X.X.X.X.X.X.X.X.X.X.X.X XQ.) 9 * X     X * 0 ) Q. X X X X X Xl.X 7 7 & 3 N | o., J..X.X.X.X",
".X.X.X.X.X.X.X.X.X.X.X X X X X X X X X|.|.|.|.|.|.|.|.|.|.|.|.|. X XA.X 7 7 & 3 N  .o.; J..X.X.X",
".X.X.X.X.X.X.X.X.X.X X X X X X X|.|.|.|.|.|.|.|.|.|.|.|.|.|.|.|.|.|.|.A.X 7 7 & 2 N  .X.; J..X.X",
".X.X.X.X.X.X.X.X.X X X X X X X|.|.|.|.|.|.|.|.(.(.(.(.(.(.(.|.|.|.|.|.|.A.X 7 7 & 2 N  .X.; P..X",
".X.X.X.X.X.X.X.X.X X X X X X X|.|.|.|.|.|.|.|.|.(.(.(.(.(.(.(.(.(.|.|.|.|.9.X 8 8 & 3 N X.) N .X",
".X.X.X.X.X.X.X.X.X.X.X X X X X X X X|.|.|.|.|.|.|.|.|.|.(.(.(.(.(.(.(.|.|.|.X.X 8 8 & 4 ` L L .X",
".X.X.X.X.X.X.X.X.X.X.X.X.X X X X X X X X X X X X X X|.|.|.|.|.|.|.|.|.(.|.|.|.9.X 0 0 S K % (..X",
".X.X.X.X.X.X.X.X.X.X.X.X.X.X.X.X.X.X.X X X X X X X X X X X X X X X|.|.|.|.|.|. XA.X 2 2 + J..X.X",
".X.X.X.X.X.X.X.X.X.X.X.X.X.X.X.X.X.X.X.X.X.X.X.X.X.X.X.X.X.X.X.X.X.X.X X X X X X XD.9 D !..X.X.X",
".X.X.X.X.X.X.X.X.X.X.X.X.X.X.X.X.X.X.X.X.X.X.X.X.X.X.X.X.X.X.X.X.X.X.X.X.X.X.X.X.X.X.X.X.X.X.X.X",
".X.X.X.X.X.X.X.X.X.X.X.X.X.X.X.X.X.X.X.X.X.X.X.X.X.X.X.X.X.X.X.X.X.X.X.X.X.X.X.X.X.X.X.X.X.X.X.X"
};
