/* XPM */
static char *zoom_in[] = {
/* columns rows colors chars-per-pixel */
"48 48 171 2",
"   c #327D38773920",
".  c #3A923E8A3E8A",
"X  c #3CE4423F4337",
"o  c #40EF45834628",
"O  c #47844BE64BDE",
"+  c #49EF4E1F4DBA",
"@  c #4D6B50654D6B",
"#  c #4D5651A85074",
"$  c #514F559B55E6",
"%  c #56695945575D",
"&  c #58985A9856B7",
"*  c #56225A905B21",
"=  c #5A365E0F5B94",
"-  c #5DAA61055EA0",
";  c #614D636C5EFB",
":  c #5B0F5EEB61D0",
">  c #5E0D626E63CB",
",  c #629065666303",
"<  c #67E069C467E0",
"1  c #685F6A42661F",
"2  c #6B7A6E636BB2",
"3  c #6EC470C66CC2",
"4  c #7070725B6EDB",
"5  c #6E5D725F70C3",
"6  c #73A5760A744D",
"7  c #76D878FB74BF",
"8  c #790D7B4F76C8",
"9  c #76227A2279D7",
"0  c #7AC27D3B7A2F",
"q  c #7E7E80807B7B",
"w  c #45D9766BB440",
"e  c #486977E8B604",
"r  c #476A78FAB706",
"t  c #4BD37A05B4CB",
"y  c #484B7A50B910",
"u  c #52527D0BB538",
"i  c #7EC081A48128",
"p  c #6E6E9ACED63C",
"a  c #71E49D8FD5B9",
"s  c #78699E81D2CD",
"d  c #71179E44D9BF",
"f  c #7D28A2D5D00B",
"g  c #74B5A26BDDBE",
"h  c #7BA8A64BDD6E",
"j  c #7FB9A94BDCE9",
"k  c #76F6A673E1AE",
"l  c #7990A76AE227",
"z  c #7BECAB4DE53F",
"x  c #7D8AAEC6E974",
"c  c #7F74B0F8EC0F",
"v  c #83B4861D83BC",
"b  c #86FC89428651",
"n  c #89D88C5287DC",
"m  c #869E89C98A16",
"M  c #8B728DB48A37",
"N  c #8DE1912D8DE1",
"B  c #9072927E8EA5",
"V  c #8E0E91E59296",
"C  c #8E4F96289ADB",
"Z  c #921695B394CE",
"A  c #955F994F9703",
"S  c #996F9AFB96CE",
"D  c #9C239EBF9BB5",
"F  c #9E14A0E59D90",
"G  c #A1EFA4699F76",
"H  c #8ED09A21A4FE",
"J  c #93F39C5AA2E3",
"K  c #8C099E3CB3D1",
"L  c #9702A13AA7BB",
"P  c #9F28A498A025",
"I  c #9457A1AFAD40",
"U  c #9F38A7C2AA9B",
"Y  c #9B77A8EEB3B3",
"T  c #9749A9DBBE8D",
"R  c #A3B1A62FA3B3",
"E  c #A6A6AAA1A5C6",
"W  c #A928AC2BA626",
"Q  c #A80DAC01A90A",
"!  c #ABEDAE65AB49",
"~  c #ADE5B1DCAE37",
"^  c #B1B1B4B4AE2E",
"/  c #A06DAABBB05A",
"(  c #A94CB1DFB3C7",
")  c #A677B37FBBFB",
"_  c #AEAEB74AB83F",
"`  c #B402B60BB4F1",
"'  c #B67DBA40B55F",
"]  c #BA64BD3DB6E1",
"[  c #B604BC24BD1F",
"{  c #BBABBE66BB11",
"}  c #BDEBC1CFBB5B",
"|  c #C20DC50FBED8",
" . c #8D69A593C589",
".. c #8D9DA909C606",
"X. c #9ACFAE6FC2EA",
"o. c #90AEA7B6CB06",
"O. c #9186AC10CEAF",
"+. c #9E34B29DC478",
"@. c #99EBB0DDCFBA",
"#. c #8FA8AC75D3AF",
"$. c #80ADA7A7DB9F",
"%. c #8176A9E4DCD1",
"&. c #92A3AE24D48C",
"*. c #922DAF90D9B6",
"=. c #950FB107D6A6",
"-. c #9A87B493D3AD",
";. c #9F75BCBCD7A4",
":. c #95A6B21BDB50",
">. c #9AF2B643DD99",
",. c #9F12B97CDE73",
"<. c #A753BAA4C7CF",
"1. c #AE82BBA2C524",
"2. c #A9F6BB85C991",
"3. c #B305BF27C3D0",
"4. c #BEE5BFD1C0BD",
"5. c #A162BB2DDEEE",
"6. c #840CAEC9E4BF",
"7. c #814AAFA5E920",
"8. c #82CEB080E836",
"9. c #8B31B40EE364",
"0. c #8217B3C7ED5A",
"q. c #8B0BB94DEBCC",
"w. c #9689B69AE211",
"e. c #9DB5BA81E1F7",
"r. c #925EBD66EA7A",
"t. c #8325B6D3F1A2",
"y. c #85C5BA6DF4F4",
"u. c #8A4DBDB9F705",
"i. c #8956BF4EF9F9",
"p. c #A38DBDFFE2DF",
"a. c #BF1DC3BEC270",
"s. c #8B92C220FC62",
"d. c #A618C162E572",
"f. c #AB5DC466E667",
"g. c #AB94C5CEE937",
"h. c #AEC5C8AFE9F3",
"j. c #B20CC8E1E796",
"k. c #B3B8CB2FEA80",
"l. c #C30CC4D2C360",
"z. c #C973CC76C6C6",
"x. c #C7D6CA57CA62",
"c. c #CA80CC83CA07",
"v. c #CF80D1BFCD7F",
"b. c #D17BD47ECE23",
"n. c #D2D8D454D258",
"m. c #D600D9A2D30D",
"M. c #DABADDDDD736",
"N. c #D7D7D8D3D8D3",
"B. c #DC29DD25DABA",
"V. c #DF03E206DBDB",
"C. c #E1C1E3A0DEE0",
"Z. c #DE9EE53AECC8",
"A. c #DD1CE7B5F33A",
"S. c #DDB3EA0AF74B",
"D. c #DF9FEBA0F944",
"F. c #E587E644E3D9",
"G. c #E7E7E8E8E4E4",
"H. c #E956EA57E70B",
"J. c #E108E7B4EDE5",
"K. c #E404EA0EEFC7",
"L. c #ED6BEDC9EC6A",
"P. c #EFEFF0F0EDED",
"I. c #F130F171EF2E",
"U. c #E628EC43F228",
"Y. c #E329EE17FB7F",
"T. c #EA2DEFDEF95B",
"R. c #EEE9F0F5F0F5",
"E. c #ED0DF2C9FB36",
"W. c #F4BFF4D3F49F",
"Q. c #F9F9F9F9F7F7",
"!. c #FF81FF81FF81",
/* pixels */
"!.!.!.!.!.!.!.!.!.!.!.!.!.!.!.!.!.!.!.!.!.!.!.!.!.!.!.!.!.!.!.!.!.!.!.!.!.!.!.!.!.!.!.!.!.!.!.!.",
"!.!.!.!.!.!.!.!.!.!.!.!.!.!.!.!.!.!.!.!.!.!.!.!.!.!.!.!.!.!.!.!.!.!.!.!.!.!.!.!.!.!.!.!.!.!.!.!.",
"!.!.!.!.!.!.!.!.!.!.!.!.!.!.!.H.{ B 6 ; & & ; 6 B { H.!.!.!.!.!.!.!.!.!.!.!.!.!.!.!.!.!.!.!.!.!.",
"!.!.!.!.!.!.!.!.!.!.!.!.!.l.8 , M ` b.G.I.I.F.v.` M , 8 l.!.!.!.!.!.!.!.!.!.!.!.!.!.!.!.!.!.!.!.",
"!.!.!.!.!.!.!.!.!.!.!.n.2 8 | W.L.C.M.m.m.m.m.M.C.G.L.{ 6 2 n.!.!.!.!.!.!.!.!.!.!.!.!.!.!.!.!.!.",
"!.!.!.!.!.!.!.!.!.Q.S 1 l.W.C.m.| E A N n n N A E | m.C.L.{ , A Q.!.!.!.!.!.!.!.!.!.!.!.!.!.!.!.",
"!.!.!.!.!.!.!.!.W.7 n W.F.b.! M C K  .#.#.#.#. .K C M ~ m.C.F.v 6 W.!.!.!.!.!.!.!.!.!.!.!.!.!.!.",
"!.!.!.!.!.!.!.W.4 G Q.M.' N H O.*.:.:.:.:.:.:.*.*.*.#.H Z } V.L.S 2 W.!.!.!.!.!.!.!.!.!.!.!.!.!.",
"!.!.!.!.!.!.Q.7 R W.m.E V o.:.:.>.>.>.>.>.>.:.:.:.:.*.*.o.A ~ V.H.D 6 Q.!.!.!.!.!.!.!.!.!.!.!.!.",
"!.!.!.!.!.!.D M W.m.F C &.>.>.,.,.,.>.,.,.>.>.>.:.:.:.:.*.&.J E V.L.b D !.!.!.!.!.!.!.!.!.!.!.!.",
"!.!.!.!.!.N.2 W.M.! J :.>.,.,.5.5.5.5.5.,.,.,.>.>.>.:.:.:.:.*.L ' C.G.< B.!.!.!.!.!.!.!.!.!.!.!.",
"!.!.!.!.!.6 c.C.} Z =.>.,.p.p.p.p.p.u u t t t t ,.>.>.>.:.:.:.&.D z.F.l.5 !.!.!.!.!.!.!.!.!.!.!.",
"!.!.!.!.c.0 W.b.A O.>.5.p.p.p.d.d.f.u E.E.T.E.t p.e.,.>.>.>.:.:.&.P C.L.9 x.!.!.!.!.!.!.!.!.!.!.",
"!.!.!.!.0 l.C.` I >.p.p.d.f.f.f.f.f.u E.Z.Z.E.u d.p.p.e.e.>.>.:.:.Y l.G.{ 9 !.!.!.!.!.!.!.!.!.!.",
"!.!.!.L.- W.m.A =.,.p.d.f.g.h.j.j.j.u E.Z.Z.E.u d.d.p.p.e.e.>.>.:.=.G F.L.* L.!.!.!.!.!.!.!.!.!.",
"!.!.!.' n L.| J >.p.d.f.f.h.j.k.k.k.u E.Z.Z.E.u g.f.d.p.p.p.e.e.>.>.U m.L.b ` !.!.!.!.!.!.!.!.!.",
"!.!.!.n ~ C.~ T e.p.f.f.h.k.k.k.k.k.u E.J.J.E.u h.g.f.d.d.p.p.e.e.>.X.{ H.! m !.!.!.!.!.!.!.!.!.",
"!.!.!.2 v.M.P @.p.d.f.g.u u u u u u u E.K.K.E.u u u u u t u p.e.e.e.-.~ H.c., !.!.!.!.!.!.!.!.!.",
"!.!.!.$ G.m.F >.p.f.g.h.u E.E.E.E.E.E.E.U.U.E.E.E.E.E.E.E.t d.w.$.a s E H.B.# !.!.!.!.!.!.!.!.!.",
"!.!.!.O L.m.S e.d.g.g.k.u E.U.K.U.U.U.U.U.U.U.U.U.U.U.U.E.t j d d p p E L.H.o !.!.!.!.!.!.!.!.!.",
"!.!.!.O L.m.D p.e.%.h 6.t E.U.U.U.U.U.U.U.U.U.U.U.U.A.Z.D.w g g d d p W L.H.o !.!.!.!.!.!.!.!.!.",
"!.!.!.# F.m.R 5.j h h z w Y.Y.Y.Y.Y.T.T.A.A.Y.Y.Y.D.D.D.S.w g g g d a ! L.C.+ !.!.!.!.!.!.!.!.!.",
"!.!.!.< c.M.Q -.g h l z w e e e e e e Y.A.A.Y.w w w w w w w k g g g f ` L.c., !.!.!.!.!.!.!.!.!.",
"!.!.!.v Q V.' X.g l l z z 7.8.8.0.0.r Y.A.S.Y.w x x x z z l k k g g ..x.L.! v !.!.!.!.!.!.!.!.!.",
"!.!.!.` v G.z./ g l z z x 7.8.0.0.0.r Y.S.S.Y.w c c x x x z l k k g ) F.L.i ` !.!.!.!.!.!.!.!.!.",
"!.!.!.L.$ L.m.Q h l z z x 8.0.0.0.0.r Y.S.S.Y.r 0.0.c x x x z l k h ` I.L.# L.!.!.!.!.!.!.!.!.!.",
"!.!.!.!.5 ] V.l.T l z z x 8.0.0.0.t.r Y.D.D.Y.r t.0.0.c x x z z l +.N.W.{ 2 !.!.!.!.!.!.!.!.!.!.",
"!.!.!.!.x.2 H.m.~ j z x x c 0.0.t.t.r Y.Y.Y.Y.r t.t.0.0.c x x z %.[ W.L.2 l.!.!.!.!.!.!.!.!.!.!.",
"!.!.!.!.!., } C.z.( z x c 0.0.t.t.y.y y y y y y y.t.t.0.0.c x z [ F.W.l.> !.!.!.!.!.!.!.!.!.!.!.",
"!.!.!.!.!.N.= F.M.| ) x c 0.0.t.y.y.u.i.s.s.i.u.y.y.t.0.0.c x 1.N.Q.H.* N.!.!.!.!.!.!.!.!.!.!.!.",
"!.!.!.!.!.!.Z 0 H.M.{ ) 8.0.t.t.y.u.i.s.s.s.s.i.u.y.t.t.0.8.1.c.Q.L.i Z !.!.!.!.!.!.!.!.!.!.!.!.",
"!.!.!.!.!.!.Q., Z H.M.l._ 9.t.t.y.u.i.s.s.s.s.i.u.y.t.t.9.[ n.W.H.0 * W.!.!.!.!.!.!.!.!.!.!.!.!.",
"!.!.!.!.!.!.!.W.* V L.V.v.] <.q.y.u.i.s.s.s.s.i.u.y.q.2.} C.W.L.9   - @ 1 M m.!.!.!.!.!.!.!.!.!.",
"!.!.!.!.!.!.!.!.W.> 6 F.F.V.c.{ 3.;.r.u.i.i.u.r.;.3.{ m.W.W.F.6 $ # S W ^ E , n.!.!.!.!.!.!.!.!.",
"!.!.!.!.!.!.!.!.!.Q.v + ` L.F.C.M.c.a.{ ] ] { a.v.C.P.I.L.` O m R.. M n F ] } , n.!.!.!.!.!.!.!.",
"!.!.!.!.!.!.!.!.!.!.!.x.$ > ` L.H.H.G.G.H.H.L.L.L.L.L.` : $ x.!.!.+ 0 0 n n ' } , n.!.!.!.!.!.!.",
"!.!.!.!.!.!.!.!.!.!.!.!.!.[ > o 9 E l.B.F.F.B.l.R 9 X > ' Q.!.!.!.6 < q = 4 b ' } , n.!.!.!.!.!.",
"!.!.!.!.!.!.!.!.!.!.!.!.!.!.Q.F.! 9 * X     X * 0 ! F.Q.Q.Q.Q.Q.Q.a.X 7 7 & 3 v ' } , n.!.!.!.!.",
"!.!.!.!.!.!.!.!.!.!.!.Q.Q.Q.Q.Q.Q.Q.Q.W.W.W.W.W.W.W.W.W.W.W.W.W.Q.Q.l.X 7 7 & 3 v ] } ; n.!.!.!.",
"!.!.!.!.!.!.!.!.!.!.Q.Q.Q.Q.Q.Q.W.W.W.W.W.W.W.W.W.W.W.W.W.W.W.W.W.W.W.l.X 7 7 & 2 v ] { ; n.!.!.",
"!.!.!.!.!.!.!.!.!.Q.Q.Q.Q.Q.Q.W.W.W.W.W.W.W.W.L.L.L.L.L.L.L.W.W.W.W.W.W.l.X 7 7 & 2 v ] { ; N.!.",
"!.!.!.!.!.!.!.!.!.Q.Q.Q.Q.Q.Q.W.W.W.W.W.W.W.W.W.L.L.L.L.L.L.L.L.L.W.W.W.W.4.X 8 8 & 3 v { ! v !.",
"!.!.!.!.!.!.!.!.!.!.!.Q.Q.Q.Q.Q.Q.Q.W.W.W.W.W.W.W.W.W.W.L.L.L.L.L.L.L.W.W.W.{ X 8 8 & 4 ^ F F !.",
"!.!.!.!.!.!.!.!.!.!.!.!.!.Q.Q.Q.Q.Q.Q.Q.Q.Q.Q.Q.Q.Q.W.W.W.W.W.W.W.W.W.L.W.W.W.4.X 0 0 B D % L.!.",
"!.!.!.!.!.!.!.!.!.!.!.!.!.!.!.!.!.!.!.Q.Q.Q.Q.Q.Q.Q.Q.Q.Q.Q.Q.Q.Q.W.W.W.W.W.W.Q.l.X 2 2 + n.!.!.",
"!.!.!.!.!.!.!.!.!.!.!.!.!.!.!.!.!.!.!.!.!.!.!.!.!.!.!.!.!.!.!.!.!.!.!.Q.Q.Q.Q.Q.Q.x.9 V G.!.!.!.",
"!.!.!.!.!.!.!.!.!.!.!.!.!.!.!.!.!.!.!.!.!.!.!.!.!.!.!.!.!.!.!.!.!.!.!.!.!.!.!.!.!.!.!.!.!.!.!.!.",
"!.!.!.!.!.!.!.!.!.!.!.!.!.!.!.!.!.!.!.!.!.!.!.!.!.!.!.!.!.!.!.!.!.!.!.!.!.!.!.!.!.!.!.!.!.!.!.!."
};
