/* XPM */
static const char * zoom_redo_xpm[] = {
"22 22 8 1",
" 	c None",
".	c #000000",
"+	c #DDECFF",
"@	c #CBE2FF",
"#	c #E8F1FF",
"$	c #FFFFFF",
"%	c #002AFF",
"&	c #AFAFAF",
"                      ",
"            .......   ",
"           ..+@@@@..  ",
"          ..#++++@@.. ",
"          .+####++@@. ",
"          .+##$$#++@. ",
"          .@+#$$$#+@. ",
"          .@+##$$#+@. ",
"          .@+#####++. ",
"          ..@+++##+.. ",
"         ....@@@++..  ",
"        ...........   ",
"       .....          ",
"     ......  %%%     %",
"    ..&... %%%%%%%  %%",
"   ..&&&. %%%%%%%%% %%",
"  ..&&&.. %%    %%% %%",
" ..&&&..  %%     %%%%%",
" ..&&..   %%      %%%%",
"  ....    %%   %%%%%%%",
"   ..         %%%%%%%%",
"                      "};
