/* XPM */
static char *zoom_best_fit[] = {
/* columns rows colors chars-per-pixel */
"48 48 183 2",
"   c #327D38773920",
".  c #3A923E8A3E8A",
"X  c #3CE4423F4337",
"o  c #40EF45834628",
"O  c #47844BE64BDE",
"+  c #49EF4E1F4DBA",
"@  c #4D6B50654D6B",
"#  c #4D5651A85074",
"$  c #514F559B55E6",
"%  c #56695945575D",
"&  c #58985A9856B7",
"*  c #56225A905B21",
"=  c #5A365E0F5B94",
"-  c #5DAA61055EA0",
";  c #614D636C5EFB",
":  c #5B0F5EEB61D0",
">  c #5E0D626E63CB",
",  c #629065666303",
"<  c #67E069C467E0",
"1  c #685F6A42661F",
"2  c #6B7A6E636BB2",
"3  c #6EC470C66CC2",
"4  c #7070725B6EDB",
"5  c #6E5D725F70C3",
"6  c #73A5760A744D",
"7  c #76D878FB74BF",
"8  c #790D7B4F76C8",
"9  c #76227A2279D7",
"0  c #7AC27D3B7A2F",
"q  c #7E7E80807B7B",
"w  c #49ED79DBB714",
"e  c #4BCC7D14BAC5",
"r  c #53B67E0FB5BB",
"t  c #7EC081A48128",
"y  c #5613809BB787",
"u  c #5833815FB7F3",
"i  c #566F81A3B874",
"p  c #59AB8304B906",
"a  c #662D8D81BF52",
"s  c #5EAE8D5BC77E",
"d  c #670C8D81C112",
"f  c #6E6E9ACED63C",
"g  c #71E49D8FD5B9",
"h  c #78699E81D2CD",
"j  c #71179E44D9BF",
"k  c #7D28A2D5D00B",
"l  c #74AEA283DDD1",
"z  c #7B44A637DDB5",
"x  c #7FB9A94BDCE9",
"c  c #76F6A625E17A",
"v  c #7968A76CE249",
"b  c #7B6CAA9BE4AF",
"n  c #7D93AED2E956",
"m  c #7FA3B16AEC63",
"M  c #83B4861D83BC",
"N  c #86FC89428651",
"B  c #89D88C5287DC",
"V  c #869E89C98A16",
"C  c #8B728DB48A37",
"Z  c #8DE1912D8DE1",
"A  c #9072927E8EA5",
"S  c #8E0E91E59296",
"D  c #8E4F96289ADB",
"F  c #921695B394CE",
"G  c #955F994F9703",
"H  c #996F9AFB96CE",
"J  c #9C239EBF9BB5",
"K  c #9E14A0E59D90",
"L  c #A1EFA4699F76",
"P  c #8ED09A21A4FE",
"I  c #93F39C5AA2E3",
"U  c #8C099E3CB3D1",
"Y  c #9702A13AA7BB",
"T  c #9F28A498A025",
"R  c #9457A1AFAD40",
"E  c #9F38A7C2AA9B",
"W  c #9B77A8EEB3B3",
"Q  c #9749A9DBBE8D",
"!  c #A3B1A62FA3B3",
"~  c #A6A6AAA1A5C6",
"^  c #A928AC2BA626",
"/  c #A80DAC01A90A",
"(  c #ABEDAE65AB49",
")  c #ADE5B1DCAE37",
"_  c #B1B1B4B4AE2E",
"`  c #A06DAABBB05A",
"'  c #A94CB1DFB3C7",
"]  c #A677B37FBBFB",
"[  c #AEAEB74AB83F",
"{  c #B402B60BB4F1",
"}  c #B67DBA40B55F",
"|  c #BA64BD3DB6E1",
" . c #B604BC24BD1F",
".. c #BBABBE66BB11",
"X. c #BDEBC1CFBB5B",
"o. c #C20DC50FBED8",
"O. c #8D69A593C589",
"+. c #8D9DA909C606",
"@. c #9ACFAE6FC2EA",
"#. c #90AEA7B6CB06",
"$. c #9186AC10CEAF",
"%. c #9E34B29DC478",
"&. c #99EBB0DDCFBA",
"*. c #8FA8AC75D3AF",
"=. c #80ADA7A7DB9F",
"-. c #8176A9E4DCD1",
";. c #92A3AE24D48C",
":. c #921DAF8FD9D4",
">. c #950FB107D6A6",
",. c #9A87B493D3AD",
"<. c #9F75BCBCD7A4",
"1. c #95B7B229DB76",
"2. c #9B2DB649DD7F",
"3. c #9F3FB9D0DDBB",
"4. c #A753BAA4C7CF",
"5. c #AE82BBA2C524",
"6. c #A9F6BB85C991",
"7. c #B305BF27C3D0",
"8. c #BEE5BFD1C0BD",
"9. c #A1AFBAE5DDFE",
"0. c #8359AD77E368",
"q. c #85BBB149E713",
"w. c #8B31B40EE364",
"e. c #8327B3ABEC8C",
"r. c #8E3CB7E7EA2C",
"t. c #8B0BB94DEBCC",
"y. c #9689B69AE211",
"u. c #962FB885E611",
"i. c #9D7FBA84E23D",
"p. c #9397BC20EAE9",
"a. c #9A56BEAAEBE6",
"s. c #8379B6EBF0E2",
"d. c #85FFBA89F519",
"f. c #8A4DBD52F705",
"g. c #893CBF3EF9C6",
"h. c #A3B1BE38E28A",
"j. c #BF1DC3BEC270",
"k. c #8B92C220FC62",
"l. c #A610C17BE613",
"z. c #AAA4C41EE68F",
"x. c #AF4DC928E7B6",
"c. c #A6A1C48BE9EB",
"v. c #ABDDC645EA25",
"b. c #AE6DC910EB80",
"n. c #B20CC8E1E796",
"m. c #B0DEC797E9AB",
"M. c #B459CCA6EC62",
"N. c #B8C0CFF7EE1F",
"B. c #B6C5D0C1F040",
"V. c #BA4CD1D5EFAC",
"C. c #B462D072F12F",
"Z. c #BBC5D3B3F1BF",
"A. c #C30CC4D2C360",
"S. c #C973CC76C6C6",
"D. c #C7D6CA57CA62",
"F. c #CA80CC83CA07",
"G. c #CF80D1BFCD7F",
"H. c #D17BD47ECE23",
"J. c #D2D8D454D258",
"K. c #D600D9A2D30D",
"L. c #DABADDDDD736",
"P. c #D7D7D8D3D8D3",
"I. c #DC29DD25DABA",
"U. c #DF03E206DBDB",
"Y. c #E1C1E3A0DEE0",
"T. c #D72DDF1EEA63",
"R. c #DAEAE292EBC0",
"E. c #D71EE4F7F606",
"W. c #D928E795F801",
"Q. c #D93AE7ECF90E",
"!. c #DA4BE993FAAE",
"~. c #E587E644E3D9",
"^. c #E7E7E8E8E4E4",
"/. c #E956EA57E70B",
"(. c #ED6BEDC9EC6A",
"). c #EFEFF0F0EDED",
"_. c #F130F171EF2E",
"`. c #E3B6EB2FF646",
"'. c #E72BEF99F970",
"]. c #EEE9F0F5F0F5",
"[. c #F4BFF4D3F49F",
"{. c #F9F9F9F9F7F7",
"}. c #FF81FF81FF81",
/* pixels */
"}.}.}.}.}.}.}.}.}.}.}.}.}.}.}.}.}.}.}.}.}.}.}.}.}.}.}.}.}.}.}.}.}.}.}.}.}.}.}.}.}.}.}.}.}.}.}.}.",
"}.}.}.}.}.}.}.}.}.}.}.}.}.}.}.}.}.}.}.}.}.}.}.}.}.}.}.}.}.}.}.}.}.}.}.}.}.}.}.}.}.}.}.}.}.}.}.}.",
"}.}.}.}.}.}.}.}.}.}.}.}.}.}.}./...A 6 ; & & ; 6 A ../.}.}.}.}.}.}.}.}.}.}.}.}.}.}.}.}.}.}.}.}.}.",
"}.}.}.}.}.}.}.}.}.}.}.}.}.A.8 , C { H.^._._.~.G.{ C , 8 A.}.}.}.}.}.}.}.}.}.}.}.}.}.}.}.}.}.}.}.",
"}.}.}.}.}.}.}.}.}.}.}.J.2 8 o.[.(.Y.L.K.K.K.K.L.Y.^.(...6 2 J.}.}.}.}.}.}.}.}.}.}.}.}.}.}.}.}.}.",
"}.}.}.}.}.}.}.}.}.{.H 1 A.[.Y.K.o.~ G Z B B Z G ~ o.K.Y.(..., G {.}.}.}.}.}.}.}.}.}.}.}.}.}.}.}.",
"}.}.}.}.}.}.}.}.[.7 B [.~.H.( C D U O.*.*.*.*.O.U D C ) K.Y.~.M 6 [.}.}.}.}.}.}.}.}.}.}.}.}.}.}.",
"}.}.}.}.}.}.}.[.4 L {.L.} Z P $.:.1.1.1.1.1.1.:.:.:.*.P F X.U.(.H 2 [.}.}.}.}.}.}.}.}.}.}.}.}.}.",
"}.}.}.}.}.}.{.7 ! [.K.~ S #.1.1.2.2.2.2.2.2.1.1.1.1.:.:.#.G ) U./.J 6 {.}.}.}.}.}.}.}.}.}.}.}.}.",
"}.}.}.}.}.}.J C [.K.K D ;.2.2.3.3.3.2.3.3.2.2.2.1.1.1.1.:.;.I ~ U.(.N J }.}.}.}.}.}.}.}.}.}.}.}.",
"}.}.}.}.}.P.2 [.L.( I d r r r r r r r 9.3.3.3.r r r r r r r a Y } Y.^.< I.}.}.}.}.}.}.}.}.}.}.}.",
"}.}.}.}.}.6 F.Y.X.F >.r `.`.`.`.`.`.r h.h.h.h.r `.`.`.`.`.`.r ;.J S.~.A.5 }.}.}.}.}.}.}.}.}.}.}.",
"}.}.}.}.F.0 [.H.G $.2.r `.R.R.R.R.R.u z.l.h.h.y R.R.T.T.T.T.r 1.;.T Y.(.9 D.}.}.}.}.}.}.}.}.}.}.",
"}.}.}.}.0 A.Y.{ R 2.h.r `.R.u u p p p z.z.z.z.y y r r r `.T.r 1.1.W A.^...9 }.}.}.}.}.}.}.}.}.}.",
"}.}.}.(.- [.K.G >.3.h.y '.R.p n.m.m.m.x.x.x.v.z.l.l.h.y `.R.r 2.1.>.L ~.(.* (.}.}.}.}.}.}.}.}.}.",
"}.}.}.} B (.o.I 2.h.l.p '.R.p M.M.M.M.M.m.m.b.x.z.z.l.y `.R.r i.2.2.E K.(.N { }.}.}.}.}.}.}.}.}.",
"}.}.}.B ) Y.) Q i.h.z.u '.R.p M.N.M.M.M.M.M.m.b.b.v.z.i `.R.r i.i.2.@.../.( V }.}.}.}.}.}.}.}.}.",
"}.}.}.2 G.L.T &.h.z.z.p p p p M.N.N.N.N.N.M.M.M.m.b.v.i i y y i.i.i.,.) /.F., }.}.}.}.}.}.}.}.}.",
"}.}.}.$ ^.K.K 2.h.z.v.b.m.M.N.N.N.V.V.V.V.V.N.M.M.b.b.v.c.l.l.y.=.g h ~ /.I.# }.}.}.}.}.}.}.}.}.",
"}.}.}.O (.K.H i.l.v.v.m.M.M.N.V.V.V.Z.Z.Z.Z.C.B.M.M.b.b.c.u.x j j f f ~ (./.o }.}.}.}.}.}.}.}.}.",
"}.}.}.O (.K.J h.i.-.z 0.u.c.M.Z.Z.Z.Z.Z.Z.Z.Z.Z.C.v.a.q.z l l l j j f ^ (./.o }.}.}.}.}.}.}.}.}.",
"}.}.}.# ~.K.! 9.x z z b 0.0.0.q.r.p.a.a.a.p.p.q.n b b v c c l l l j g ( (.Y.+ }.}.}.}.}.}.}.}.}.",
"}.}.}.< F.L./ ,.l z v w w e e q.q.e.e.e.e.e.e.n n b b w w w w l l l k { (.F., }.}.}.}.}.}.}.}.}.",
"}.}.}.M / U.} @.l v v w W.Q.e e.e.e.e.e.e.e.e.m n n n w W.E.w c l l +.D.(.( M }.}.}.}.}.}.}.}.}.",
"}.}.}.{ M ^.S.` l v b w W.E.e e.e.e.e.e.e.e.e.e.m m n w W.E.w c c l ] ~.(.t { }.}.}.}.}.}.}.}.}.",
"}.}.}.(.$ (.K./ z v b w Q.E.e e.e.e.s.s.s.s.s.e.e.e.m w Q.W.w v c z { _.(.# (.}.}.}.}.}.}.}.}.}.",
"}.}.}.}.5 | U.A.Q v b w Q.E.e e e e e d.d.d.s.e e e e e Q.Q.w b v %.P.[...2 }.}.}.}.}.}.}.}.}.}.",
"}.}.}.}.D.2 /.K.) x b w Q.E.!.!.!.!.e d.d.d.d.e !.!.!.!.Q.Q.w b -. .[.(.2 A.}.}.}.}.}.}.}.}.}.}.",
"}.}.}.}.}., X.Y.S.' b w Q.W.Q.!.!.!.e f.g.g.f.e !.!.!.!.!.Q.w b  .~.[.A.> }.}.}.}.}.}.}.}.}.}.}.",
"}.}.}.}.}.P.= ~.L.o.] s e e e e e e e g.k.k.g.e e e e e e e s 5.P.{./.* P.}.}.}.}.}.}.}.}.}.}.}.",
"}.}.}.}.}.}.F 0 /.L...] e.e.s.s.d.f.g.k.k.k.k.g.f.d.s.s.e.e.5.F.{.(.t F }.}.}.}.}.}.}.}.}.}.}.}.",
"}.}.}.}.}.}.{., F /.L.A.[ w.s.s.d.f.g.k.k.k.k.g.f.d.s.s.w. .J.[./.0 * [.}.}.}.}.}.}.}.}.}.}.}.}.",
"}.}.}.}.}.}.}.[.* S (.U.G.| 4.t.d.f.g.k.k.k.k.g.f.d.t.6.X.Y.[.(.9   - @ 1 C K.}.}.}.}.}.}.}.}.}.",
"}.}.}.}.}.}.}.}.[.> 6 ~.~.U.F...7.<.p.f.g.g.f.p.<.7...K.[.[.~.6 $ # H ^ _ ~ , J.}.}.}.}.}.}.}.}.",
"}.}.}.}.}.}.}.}.}.{.M + { (.~.Y.L.F.j...| | ..j.G.Y.)._.(.{ O V ].. C B K | X., J.}.}.}.}.}.}.}.",
"}.}.}.}.}.}.}.}.}.}.}.D.$ > { (././.^.^././.(.(.(.(.(.{ : $ D.}.}.+ 0 0 B B } X., J.}.}.}.}.}.}.",
"}.}.}.}.}.}.}.}.}.}.}.}.}. .> o 9 ~ A.I.~.~.I.A.! 9 X > } {.}.}.}.6 < q = 4 N } X., J.}.}.}.}.}.",
"}.}.}.}.}.}.}.}.}.}.}.}.}.}.{.~.( 9 * X     X * 0 ( ~.{.{.{.{.{.{.j.X 7 7 & 3 M } X., J.}.}.}.}.",
"}.}.}.}.}.}.}.}.}.}.}.{.{.{.{.{.{.{.{.[.[.[.[.[.[.[.[.[.[.[.[.[.{.{.A.X 7 7 & 3 M | X.; J.}.}.}.",
"}.}.}.}.}.}.}.}.}.}.{.{.{.{.{.{.[.[.[.[.[.[.[.[.[.[.[.[.[.[.[.[.[.[.[.A.X 7 7 & 2 M | ..; J.}.}.",
"}.}.}.}.}.}.}.}.}.{.{.{.{.{.{.[.[.[.[.[.[.[.[.(.(.(.(.(.(.(.[.[.[.[.[.[.A.X 7 7 & 2 M | ..; P.}.",
"}.}.}.}.}.}.}.}.}.{.{.{.{.{.{.[.[.[.[.[.[.[.[.[.(.(.(.(.(.(.(.(.(.[.[.[.[.8.X 8 8 & 3 M ..( M }.",
"}.}.}.}.}.}.}.}.}.}.}.{.{.{.{.{.{.{.[.[.[.[.[.[.[.[.[.[.(.(.(.(.(.(.(.[.[.[...X 8 8 & 4 _ K K }.",
"}.}.}.}.}.}.}.}.}.}.}.}.}.{.{.{.{.{.{.{.{.{.{.{.{.{.[.[.[.[.[.[.[.[.[.(.[.[.[.8.X 0 0 A J % (.}.",
"}.}.}.}.}.}.}.}.}.}.}.}.}.}.}.}.}.}.}.{.{.{.{.{.{.{.{.{.{.{.{.{.{.[.[.[.[.[.[.{.A.X 2 2 + J.}.}.",
"}.}.}.}.}.}.}.}.}.}.}.}.}.}.}.}.}.}.}.}.}.}.}.}.}.}.}.}.}.}.}.}.}.}.}.{.{.{.{.{.{.D.9 S ^.}.}.}.",
"}.}.}.}.}.}.}.}.}.}.}.}.}.}.}.}.}.}.}.}.}.}.}.}.}.}.}.}.}.}.}.}.}.}.}.}.}.}.}.}.}.}.}.}.}.}.}.}.",
"}.}.}.}.}.}.}.}.}.}.}.}.}.}.}.}.}.}.}.}.}.}.}.}.}.}.}.}.}.}.}.}.}.}.}.}.}.}.}.}.}.}.}.}.}.}.}.}."
};
