/* XPM */
static const char * zoom_xpm[] = {
"22 22 7 1",
" 	c None",
".	c #000000",
"+	c #CBE2FF",
"@	c #DDECFF",
"#	c #E8F1FF",
"$	c #FFFFFF",
"%	c #AFAFAF",
"                      ",
"   .......            ",
"  ..++++@..           ",
" ..++@@@@#..          ",
" .++@@####@.          ",
" .+@@#$$##@.          ",
" .+@#$$$#@+.          ",
" .+@#$$##@+.          ",
" .@@#####@+.          ",
" ..@##@@@+..          ",
"  ..@@+++....         ",
"   ...........        ",
"          .....       ",
"     ..    ......     ",
"     ..     ...%..    ",
"     ..      .%%%..   ",
"  ........   ..%%%..  ",
"  ........    ..%%%.. ",
"     ..        ..%%.. ",
"     ..         ....  ",
"     ..          ..   ",
"                      "};
